solid Untitled-5b0d728a
facet normal 0.222393354926233 0.966465171426027 -0.12839886333264458
  outer loop
    vertex 9.03167093587454 10.61298285228794 2.785562353940723
    vertex 10.459415700547309 10.512426363990782 4.5015947141571955
    vertex 9.3594157005473 10.512426363990782 2.5963388258314146
  endloop
endfacet
facet normal 0.222393354926233 0.966465171426027 -0.12839886333264458
  outer loop
    vertex 10.459415700547309 10.512426363990782 4.5015947141571955
    vertex 9.03167093587454 10.61298285228794 2.785562353940723
    vertex 10.13167093587455 10.61298285228794 4.690818242266504
  endloop
endfacet
facet normal -0.0018117567330315457 0.9999978116892992 0.0010460182375218797
  outer loop
    vertex 9.3594157005473 10.512426363990782 2.5963388258314146
    vertex 10.79853195341941 10.513245560656001 4.305805854274912
    vertex 9.6985319534194 10.513245560656001 2.4005499659491307
  endloop
endfacet
facet normal -0.0018117567330315457 0.9999978116892992 0.0010460182375218797
  outer loop
    vertex 10.79853195341941 10.513245560656001 4.305805854274912
    vertex 9.3594157005473 10.512426363990782 2.5963388258314146
    vertex 10.459415700547309 10.512426363990782 4.5015947141571955
  endloop
endfacet
facet normal -0.22589340016496084 0.9653822536604609 0.13041961539339997
  outer loop
    vertex 9.6985319534194 10.513245560656001 2.4005499659491307
    vertex 11.125909482273718 10.615384615384627 4.116794349864242
    vertex 10.02590948227371 10.615384615384627 2.2115384615384612
  endloop
endfacet
facet normal -0.22589340016496084 0.9653822536604609 0.13041961539339997
  outer loop
    vertex 11.125909482273718 10.615384615384627 4.116794349864242
    vertex 9.6985319534194 10.513245560656001 2.4005499659491307
    vertex 10.79853195341941 10.513245560656001 4.305805854274912
  endloop
endfacet
facet normal 0.5 0.0 0.8660254037844388
  outer loop
    vertex 3.400000000000008 0.0 13.888972745734197
    vertex 8.596152422706655 237.99999999999997 10.888972745734188
    vertex 3.400000000000008 237.99999999999997 13.888972745734197
  endloop
endfacet
facet normal 0.5 0.0 0.8660254037844388
  outer loop
    vertex 8.596152422706655 237.99999999999997 10.888972745734188
    vertex 3.400000000000008 0.0 13.888972745734197
    vertex 8.596152422706655 0.0 10.888972745734188
  endloop
endfacet
facet normal 0.5 0.0 0.8660254037844388
  outer loop
    vertex 6.29615242270666 24.0 6.905255888325778
    vertex 9.425087356225564 12.571124707881493 5.098764462181815
    vertex 14.956406460551047 24.0 1.905255888325778
  endloop
endfacet
facet normal 0.5 0.0 0.8660254037844388
  outer loop
    vertex 9.425087356225564 12.571124707881493 5.098764462181815
    vertex 6.29615242270666 24.0 6.905255888325778
    vertex 6.29615242270666 0.0 6.905255888325778
  endloop
endfacet
facet normal 0.5 0.0 0.8660254037844388
  outer loop
    vertex 14.956406460551047 24.0 1.905255888325778
    vertex 9.425087356225564 12.571124707881493 5.098764462181815
    vertex 9.594031085162706 12.91065055908619 5.001224754802056
  endloop
endfacet
facet normal 0.5 0.0 0.8660254037844388
  outer loop
    vertex 14.956406460551047 24.0 1.905255888325778
    vertex 9.594031085162706 12.91065055908619 5.001224754802056
    vertex 9.83332083372195 13.188117079610356 4.863070754057059
  endloop
endfacet
facet normal 0.5 0.0 0.8660254037844388
  outer loop
    vertex 14.956406460551047 24.0 1.905255888325778
    vertex 9.83332083372195 13.188117079610356 4.863070754057059
    vertex 10.126649400983993 13.384615384615419 4.693717426787312
  endloop
endfacet
facet normal 0.5 0.0 0.8660254037844388
  outer loop
    vertex 14.956406460551047 24.0 1.905255888325778
    vertex 10.126649400983993 13.384615384615419 4.693717426787312
    vertex 10.454026929838301 13.486754439344045 4.504705922376642
  endloop
endfacet
facet normal 0.5 0.0 0.8660254037844388
  outer loop
    vertex 14.956406460551047 24.0 1.905255888325778
    vertex 10.454026929838301 13.486754439344045 4.504705922376642
    vertex 10.7931431827104 13.487573636009264 4.308917062494359
  endloop
endfacet
facet normal 0.5 0.0 0.8660254037844388
  outer loop
    vertex 9.425087356225564 12.571124707881493 5.098764462181815
    vertex 6.29615242270666 0.0 6.905255888325778
    vertex 9.338002882844878 12.19267765166285 5.149042706330391
  endloop
endfacet
facet normal 0.5 0.0 0.8660254037844388
  outer loop
    vertex 9.338002882844878 12.19267765166285 5.149042706330391
    vertex 6.29615242270666 0.0 6.905255888325778
    vertex 9.338712327967643 11.801099931898273 5.148633107997787
  endloop
endfacet
facet normal 0.5 0.0 0.8660254037844388
  outer loop
    vertex 9.338712327967643 11.801099931898273 5.148633107997787
    vertex 6.29615242270666 0.0 6.905255888325778
    vertex 9.427167344081159 11.423076923076948 5.097563580633476
  endloop
endfacet
facet normal 0.5 0.0 0.8660254037844388
  outer loop
    vertex 9.427167344081159 11.423076923076948 5.097563580633476
    vertex 6.29615242270666 0.0 6.905255888325778
    vertex 9.59733986801612 11.084370268537471 4.999314428130949
  endloop
endfacet
facet normal 0.5 0.0 0.8660254037844388
  outer loop
    vertex 9.59733986801612 11.084370268537471 4.999314428130949
    vertex 6.29615242270666 0.0 6.905255888325778
    vertex 9.837632923489739 10.808062267047454 4.860581167868856
  endloop
endfacet
facet normal 0.5 0.0 0.8660254037844388
  outer loop
    vertex 9.837632923489739 10.808062267047454 4.860581167868856
    vertex 6.29615242270666 0.0 6.905255888325778
    vertex 10.13167093587455 10.61298285228794 4.690818242266504
  endloop
endfacet
facet normal 0.5 0.0 0.8660254037844388
  outer loop
    vertex 10.13167093587455 10.61298285228794 4.690818242266504
    vertex 6.29615242270666 0.0 6.905255888325778
    vertex 10.459415700547309 10.512426363990782 4.5015947141571955
  endloop
endfacet
facet normal 0.5 0.0 0.8660254037844388
  outer loop
    vertex 14.956406460551047 24.0 1.905255888325778
    vertex 11.825391539176549 12.576923076923098 3.712948196018079
    vertex 14.956406460551047 0.0 1.905255888325778
  endloop
endfacet
facet normal 0.5 0.0 0.8660254037844388
  outer loop
    vertex 11.825391539176549 12.576923076923098 3.712948196018079
    vertex 14.956406460551047 24.0 1.905255888325778
    vertex 11.655219015241594 12.915629731462575 3.8111973485206048
  endloop
endfacet
facet normal 0.5 0.0 0.8660254037844388
  outer loop
    vertex 11.655219015241594 12.915629731462575 3.8111973485206048
    vertex 14.956406460551047 24.0 1.905255888325778
    vertex 11.414925959767972 13.191937732952592 3.9499306087826973
  endloop
endfacet
facet normal 0.5 0.0 0.8660254037844388
  outer loop
    vertex 11.414925959767972 13.191937732952592 3.9499306087826973
    vertex 14.956406460551047 24.0 1.905255888325778
    vertex 11.120887947383164 13.387017147712106 4.119693534385049
  endloop
endfacet
facet normal 0.5 0.0 0.8660254037844388
  outer loop
    vertex 11.120887947383164 13.387017147712106 4.119693534385049
    vertex 14.956406460551047 24.0 1.905255888325778
    vertex 10.7931431827104 13.487573636009264 4.308917062494359
  endloop
endfacet
facet normal 0.5 0.0 0.8660254037844388
  outer loop
    vertex 14.956406460551047 0.0 1.905255888325778
    vertex 11.825391539176549 12.576923076923098 3.712948196018079
    vertex 11.913846555290068 12.198900068101773 3.6618786686537668
  endloop
endfacet
facet normal 0.5 0.0 0.8660254037844388
  outer loop
    vertex 14.956406460551047 0.0 1.905255888325778
    vertex 11.913846555290068 12.198900068101773 3.6618786686537668
    vertex 11.914556000412833 11.807322348337197 3.6614690703211625
  endloop
endfacet
facet normal 0.5 0.0 0.8660254037844388
  outer loop
    vertex 14.956406460551047 0.0 1.905255888325778
    vertex 11.914556000412833 11.807322348337197 3.6614690703211625
    vertex 11.827471527032149 11.428875292118553 3.7117473144697386
  endloop
endfacet
facet normal 0.5 0.0 0.8660254037844388
  outer loop
    vertex 14.956406460551047 0.0 1.905255888325778
    vertex 11.827471527032149 11.428875292118553 3.7117473144697386
    vertex 11.658527798095005 11.089349440913857 3.8092870218494967
  endloop
endfacet
facet normal 0.5 0.0 0.8660254037844388
  outer loop
    vertex 14.956406460551047 0.0 1.905255888325778
    vertex 11.658527798095005 11.089349440913857 3.8092870218494967
    vertex 11.41923804953576 10.81188292038969 3.9474410225944947
  endloop
endfacet
facet normal 0.5 0.0 0.8660254037844388
  outer loop
    vertex 14.956406460551047 0.0 1.905255888325778
    vertex 11.41923804953576 10.81188292038969 3.9474410225944947
    vertex 11.125909482273718 10.615384615384627 4.116794349864242
  endloop
endfacet
facet normal 0.5 0.0 0.8660254037844388
  outer loop
    vertex 14.956406460551047 0.0 1.905255888325778
    vertex 11.125909482273718 10.615384615384627 4.116794349864242
    vertex 10.79853195341941 10.513245560656001 4.305805854274912
  endloop
endfacet
facet normal 0.5 0.0 0.8660254037844388
  outer loop
    vertex 14.956406460551047 0.0 1.905255888325778
    vertex 10.79853195341941 10.513245560656001 4.305805854274912
    vertex 10.459415700547309 10.512426363990782 4.5015947141571955
  endloop
endfacet
facet normal 0.5 0.0 0.8660254037844388
  outer loop
    vertex 14.956406460551047 0.0 1.905255888325778
    vertex 10.459415700547309 10.512426363990782 4.5015947141571955
    vertex 6.29615242270666 0.0 6.905255888325778
  endloop
endfacet
facet normal 0.8660254037844386 0.0 -0.4999999999999999
  outer loop
    vertex 13.856406460551039 213.99999999999997 -2.8199664825478975e-15
    vertex 14.956406460551047 237.99999999999997 1.905255888325778
    vertex 14.956406460551047 213.99999999999997 1.905255888325778
  endloop
endfacet
facet normal 0.8660254037844386 0.0 -0.4999999999999999
  outer loop
    vertex 14.956406460551047 237.99999999999997 1.905255888325778
    vertex 13.856406460551039 213.99999999999997 -2.8199664825478975e-15
    vertex 13.856406460551039 237.99999999999997 -2.8199664825478975e-15
  endloop
endfacet
facet normal 0.8660254037844386 0.0 -0.4999999999999999
  outer loop
    vertex 13.856406460551039 0.0 -2.8199664825478975e-15
    vertex 14.956406460551047 24.0 1.905255888325778
    vertex 14.956406460551047 0.0 1.905255888325778
  endloop
endfacet
facet normal 0.8660254037844386 0.0 -0.4999999999999999
  outer loop
    vertex 14.956406460551047 24.0 1.905255888325778
    vertex 13.856406460551039 0.0 -2.8199664825478975e-15
    vertex 13.856406460551039 24.0 -2.8199664825478975e-15
  endloop
endfacet
facet normal 0.8498592543504573 0.0 -0.5270097226758579
  outer loop
    vertex 1.9692056165835492 0.0 10.391067090193093
    vertex 2.2718753349843706 237.99999999999997 10.879154216723768
    vertex 2.2718753349843706 0.0 10.879154216723768
  endloop
endfacet
facet normal 0.8498592543504573 0.0 -0.5270097226758579
  outer loop
    vertex 2.2718753349843706 237.99999999999997 10.879154216723768
    vertex 1.9692056165835492 0.0 10.391067090193093
    vertex 1.9692056165835492 237.99999999999997 10.391067090193093
  endloop
endfacet
facet normal -0.6845008493051719 0.0 0.7290120625205722
  outer loop
    vertex 5.2579126734426875 237.99999999999997 7.69894305835538
    vertex 5.676595415297203 0.0 8.092062331852649
    vertex 5.676595415297203 237.99999999999997 8.092062331852649
  endloop
endfacet
facet normal -0.6845008493051719 0.0 0.7290120625205722
  outer loop
    vertex 5.676595415297203 0.0 8.092062331852649
    vertex 5.2579126734426875 237.99999999999997 7.69894305835538
    vertex 5.2579126734426875 0.0 7.69894305835538
  endloop
endfacet
facet normal -0.8498592543504601 0.0 0.5270097226758538
  outer loop
    vertex 5.676595415297203 237.99999999999997 8.092062331852649
    vertex 5.979265133698022 0.0 8.580149458383325
    vertex 5.979265133698022 237.99999999999997 8.580149458383325
  endloop
endfacet
facet normal -0.8498592543504601 0.0 0.5270097226758538
  outer loop
    vertex 5.979265133698022 0.0 8.580149458383325
    vertex 5.676595415297203 237.99999999999997 8.092062331852649
    vertex 5.676595415297203 0.0 8.092062331852649
  endloop
endfacet
facet normal -0.9573011556705888 0.0 0.28909254115551825
  outer loop
    vertex 5.979265133698022 237.99999999999997 8.580149458383325
    vertex 6.145295387521513 0.0 9.129942106876474
    vertex 6.145295387521513 237.99999999999997 9.129942106876474
  endloop
endfacet
facet normal -0.9573011556705888 0.0 0.28909254115551825
  outer loop
    vertex 6.145295387521513 0.0 9.129942106876474
    vertex 5.979265133698022 237.99999999999997 8.580149458383325
    vertex 5.979265133698022 0.0 8.580149458383325
  endloop
endfacet
facet normal -0.9995045652467256 0.0 0.03147418070345919
  outer loop
    vertex 6.145295387521513 237.99999999999997 9.129942106876474
    vertex 6.163371489347573 0.0 9.703972816912618
    vertex 6.163371489347573 237.99999999999997 9.703972816912618
  endloop
endfacet
facet normal -0.9995045652467256 0.0 0.03147418070345919
  outer loop
    vertex 6.163371489347573 0.0 9.703972816912618
    vertex 6.145295387521513 237.99999999999997 9.129942106876474
    vertex 6.145295387521513 0.0 9.129942106876474
  endloop
endfacet
facet normal -0.9735933904606939 0.0 -0.228289093150003
  outer loop
    vertex 6.163371489347573 237.99999999999997 9.703972816912618
    vertex 6.032261582708923 0.0 10.263122344233375
    vertex 6.032261582708923 237.99999999999997 10.263122344233375
  endloop
endfacet
facet normal -0.9735933904606939 0.0 -0.228289093150003
  outer loop
    vertex 6.032261582708923 0.0 10.263122344233375
    vertex 6.163371489347573 237.99999999999997 9.703972816912618
    vertex 6.163371489347573 0.0 9.703972816912618
  endloop
endfacet
facet normal -0.881333435053907 0.0 -0.4724948425708802
  outer loop
    vertex 6.032261582708923 0.0 10.263122344233375
    vertex 5.76090059107361 237.99999999999997 10.769285572590112
    vertex 6.032261582708923 237.99999999999997 10.263122344233375
  endloop
endfacet
facet normal -0.881333435053907 0.0 -0.4724948425708802
  outer loop
    vertex 5.76090059107361 237.99999999999997 10.769285572590112
    vertex 6.032261582708923 0.0 10.263122344233375
    vertex 5.76090059107361 0.0 10.769285572590112
  endloop
endfacet
facet normal -0.7290120625205716 0.0 -0.6845008493051723
  outer loop
    vertex 5.76090059107361 0.0 10.769285572590112
    vertex 5.367781317576353 237.99999999999997 11.187968314444614
    vertex 5.76090059107361 237.99999999999997 10.769285572590112
  endloop
endfacet
facet normal -0.7290120625205716 0.0 -0.6845008493051723
  outer loop
    vertex 5.367781317576353 237.99999999999997 11.187968314444614
    vertex 5.76090059107361 0.0 10.769285572590112
    vertex 5.367781317576353 0.0 11.187968314444614
  endloop
endfacet
facet normal -0.5270097226758658 0.0 -0.8498592543504524
  outer loop
    vertex 5.367781317576353 0.0 11.187968314444614
    vertex 4.8796941910456715 237.99999999999997 11.490638032845448
    vertex 5.367781317576353 237.99999999999997 11.187968314444614
  endloop
endfacet
facet normal -0.5270097226758658 0.0 -0.8498592543504524
  outer loop
    vertex 4.8796941910456715 237.99999999999997 11.490638032845448
    vertex 5.367781317576353 0.0 11.187968314444614
    vertex 4.8796941910456715 0.0 11.490638032845448
  endloop
endfacet
facet normal 0.9573011556705888 0.0 -0.28909254115551825
  outer loop
    vertex 1.8031753627600575 0.0 9.841274441699941
    vertex 1.9692056165835492 237.99999999999997 10.391067090193093
    vertex 1.9692056165835492 0.0 10.391067090193093
  endloop
endfacet
facet normal 0.9573011556705888 0.0 -0.28909254115551825
  outer loop
    vertex 1.9692056165835492 237.99999999999997 10.391067090193093
    vertex 1.8031753627600575 0.0 9.841274441699941
    vertex 1.8031753627600575 237.99999999999997 9.841274441699941
  endloop
endfacet
facet normal 0.9995045652467256 0.0 -0.03147418070345919
  outer loop
    vertex 1.7850992609339988 0.0 9.267243731663799
    vertex 1.8031753627600575 237.99999999999997 9.841274441699941
    vertex 1.8031753627600575 0.0 9.841274441699941
  endloop
endfacet
facet normal 0.9995045652467256 0.0 -0.03147418070345919
  outer loop
    vertex 1.8031753627600575 237.99999999999997 9.841274441699941
    vertex 1.7850992609339988 0.0 9.267243731663799
    vertex 1.7850992609339988 237.99999999999997 9.267243731663799
  endloop
endfacet
facet normal 0.9735933904606939 0.0 0.228289093150003
  outer loop
    vertex 1.9162091675726485 0.0 8.708094204343041
    vertex 1.7850992609339988 237.99999999999997 9.267243731663799
    vertex 1.7850992609339988 0.0 9.267243731663799
  endloop
endfacet
facet normal 0.9735933904606939 0.0 0.228289093150003
  outer loop
    vertex 1.7850992609339988 237.99999999999997 9.267243731663799
    vertex 1.9162091675726485 0.0 8.708094204343041
    vertex 1.9162091675726485 237.99999999999997 8.708094204343041
  endloop
endfacet
facet normal 0.881333435053907 0.0 0.4724948425708802
  outer loop
    vertex 1.9162091675726485 0.0 8.708094204343041
    vertex 2.187570159207963 237.99999999999997 8.201930975986304
    vertex 1.9162091675726485 237.99999999999997 8.708094204343041
  endloop
endfacet
facet normal 0.881333435053907 0.0 0.4724948425708802
  outer loop
    vertex 2.187570159207963 237.99999999999997 8.201930975986304
    vertex 1.9162091675726485 0.0 8.708094204343041
    vertex 2.187570159207963 0.0 8.201930975986304
  endloop
endfacet
facet normal 0.7290120625205716 0.0 0.6845008493051723
  outer loop
    vertex 2.187570159207963 0.0 8.201930975986304
    vertex 2.5806894327052188 237.99999999999997 7.783248234131803
    vertex 2.187570159207963 237.99999999999997 8.201930975986304
  endloop
endfacet
facet normal 0.7290120625205716 0.0 0.6845008493051723
  outer loop
    vertex 2.5806894327052188 237.99999999999997 7.783248234131803
    vertex 2.187570159207963 0.0 8.201930975986304
    vertex 2.5806894327052188 0.0 7.783248234131803
  endloop
endfacet
facet normal 0.5270097226758658 0.0 0.8498592543504524
  outer loop
    vertex 2.5806894327052188 0.0 7.783248234131803
    vertex 3.0687765592359013 237.99999999999997 7.4805785157309685
    vertex 2.5806894327052188 237.99999999999997 7.783248234131803
  endloop
endfacet
facet normal 0.5270097226758658 0.0 0.8498592543504524
  outer loop
    vertex 3.0687765592359013 237.99999999999997 7.4805785157309685
    vertex 2.5806894327052188 0.0 7.783248234131803
    vertex 3.0687765592359013 0.0 7.4805785157309685
  endloop
endfacet
facet normal 0.2890925411555077 0.0 0.957301155670592
  outer loop
    vertex 3.0687765592359013 0.0 7.4805785157309685
    vertex 3.6185692077290628 237.99999999999997 7.314548261907483
    vertex 3.0687765592359013 237.99999999999997 7.4805785157309685
  endloop
endfacet
facet normal 0.2890925411555077 0.0 0.957301155670592
  outer loop
    vertex 3.6185692077290628 237.99999999999997 7.314548261907483
    vertex 3.0687765592359013 0.0 7.4805785157309685
    vertex 3.6185692077290628 0.0 7.314548261907483
  endloop
endfacet
facet normal 0.03147418070346297 0.0 0.9995045652467256
  outer loop
    vertex 3.6185692077290628 0.0 7.314548261907483
    vertex 4.1925999177651985 237.99999999999997 7.296472160081419
    vertex 3.6185692077290628 237.99999999999997 7.314548261907483
  endloop
endfacet
facet normal 0.03147418070346297 0.0 0.9995045652467256
  outer loop
    vertex 4.1925999177651985 237.99999999999997 7.296472160081419
    vertex 3.6185692077290628 0.0 7.314548261907483
    vertex 4.1925999177651985 0.0 7.296472160081419
  endloop
endfacet
facet normal -0.22828909315000606 0.0 0.9735933904606933
  outer loop
    vertex 4.1925999177651985 0.0 7.296472160081419
    vertex 4.751749445085946 237.99999999999997 7.427582066720068
    vertex 4.1925999177651985 237.99999999999997 7.296472160081419
  endloop
endfacet
facet normal -0.22828909315000606 0.0 0.9735933904606933
  outer loop
    vertex 4.751749445085946 237.99999999999997 7.427582066720068
    vertex 4.1925999177651985 0.0 7.296472160081419
    vertex 4.751749445085946 0.0 7.427582066720068
  endloop
endfacet
facet normal -0.47249484257087304 0.0 0.8813334350539107
  outer loop
    vertex 4.751749445085946 237.99999999999997 7.427582066720068
    vertex 5.2579126734426875 0.0 7.69894305835538
    vertex 5.2579126734426875 237.99999999999997 7.69894305835538
  endloop
endfacet
facet normal -0.47249484257087304 0.0 0.8813334350539107
  outer loop
    vertex 5.2579126734426875 0.0 7.69894305835538
    vertex 4.751749445085946 237.99999999999997 7.427582066720068
    vertex 4.751749445085946 0.0 7.427582066720068
  endloop
endfacet
facet normal -0.28909254115550875 0.0 -0.9573011556705917
  outer loop
    vertex 4.8796941910456715 0.0 11.490638032845448
    vertex 4.329901542552507 237.99999999999997 11.656668286668936
    vertex 4.8796941910456715 237.99999999999997 11.490638032845448
  endloop
endfacet
facet normal -0.28909254115550875 0.0 -0.9573011556705917
  outer loop
    vertex 4.329901542552507 237.99999999999997 11.656668286668936
    vertex 4.8796941910456715 0.0 11.490638032845448
    vertex 4.329901542552507 0.0 11.656668286668936
  endloop
endfacet
facet normal -0.03147418070346064 0.0 -0.9995045652467256
  outer loop
    vertex 4.329901542552507 0.0 11.656668286668936
    vertex 3.7558708325163743 237.99999999999997 11.674744388494997
    vertex 4.329901542552507 237.99999999999997 11.656668286668936
  endloop
endfacet
facet normal -0.03147418070346064 0.0 -0.9995045652467256
  outer loop
    vertex 3.7558708325163743 237.99999999999997 11.674744388494997
    vertex 4.329901542552507 0.0 11.656668286668936
    vertex 3.7558708325163743 0.0 11.674744388494997
  endloop
endfacet
facet normal 0.22828909315000606 0.0 -0.9735933904606933
  outer loop
    vertex 3.7558708325163743 0.0 11.674744388494997
    vertex 3.1967213051956267 237.99999999999997 11.543634481856348
    vertex 3.7558708325163743 237.99999999999997 11.674744388494997
  endloop
endfacet
facet normal 0.22828909315000606 0.0 -0.9735933904606933
  outer loop
    vertex 3.1967213051956267 237.99999999999997 11.543634481856348
    vertex 3.7558708325163743 0.0 11.674744388494997
    vertex 3.1967213051956267 0.0 11.543634481856348
  endloop
endfacet
facet normal 0.47249484257087304 0.0 -0.8813334350539107
  outer loop
    vertex 2.6905580768388853 0.0 11.272273490221037
    vertex 3.1967213051956267 237.99999999999997 11.543634481856348
    vertex 3.1967213051956267 0.0 11.543634481856348
  endloop
endfacet
facet normal 0.47249484257087304 0.0 -0.8813334350539107
  outer loop
    vertex 3.1967213051956267 237.99999999999997 11.543634481856348
    vertex 2.6905580768388853 0.0 11.272273490221037
    vertex 2.6905580768388853 237.99999999999997 11.272273490221037
  endloop
endfacet
facet normal 0.6845008493051752 0.0 -0.7290120625205689
  outer loop
    vertex 2.2718753349843706 0.0 10.879154216723768
    vertex 2.6905580768388853 237.99999999999997 11.272273490221037
    vertex 2.6905580768388853 0.0 11.272273490221037
  endloop
endfacet
facet normal 0.6845008493051752 0.0 -0.7290120625205689
  outer loop
    vertex 2.6905580768388853 237.99999999999997 11.272273490221037
    vertex 2.2718753349843706 0.0 10.879154216723768
    vertex 2.2718753349843706 237.99999999999997 10.879154216723768
  endloop
endfacet
facet normal 0.0 1.0 0.0
  outer loop
    vertex 5.196152422706652 24.0 4.9999999999999964
    vertex 14.956406460551047 24.0 1.905255888325778
    vertex 13.856406460551039 24.0 -2.8199664825478975e-15
  endloop
endfacet
facet normal 0.0 1.0 0.0
  outer loop
    vertex 14.956406460551047 24.0 1.905255888325778
    vertex 5.196152422706652 24.0 4.9999999999999964
    vertex 6.29615242270666 24.0 6.905255888325778
  endloop
endfacet
facet normal -0.4345807816821775 0.8649774904142555 0.2509053312888431
  outer loop
    vertex 10.02590948227371 10.615384615384627 2.2115384615384612
    vertex 11.41923804953576 10.81188292038969 3.9474410225944947
    vertex 10.31923804953575 10.81188292038969 2.042185134268714
  endloop
endfacet
facet normal -0.4345807816821775 0.8649774904142555 0.2509053312888431
  outer loop
    vertex 11.41923804953576 10.81188292038969 3.9474410225944947
    vertex 10.02590948227371 10.615384615384627 2.2115384615384612
    vertex 11.125909482273718 10.615384615384627 4.116794349864242
  endloop
endfacet
facet normal -0.6136522011063911 0.705625940639261 0.3542922634975812
  outer loop
    vertex 10.558527798094996 11.089349440913857 1.9040311335237161
    vertex 11.41923804953576 10.81188292038969 3.9474410225944947
    vertex 11.658527798095005 11.089349440913857 3.8092870218494967
  endloop
endfacet
facet normal -0.6136522011063911 0.705625940639261 0.3542922634975812
  outer loop
    vertex 11.41923804953576 10.81188292038969 3.9474410225944947
    vertex 10.558527798094996 11.089349440913857 1.9040311335237161
    vertex 10.31923804953575 10.81188292038969 2.042185134268714
  endloop
endfacet
facet normal -0.7509042371334759 0.49818714911164685 0.4335347634446428
  outer loop
    vertex 10.727471527032138 11.428875292118553 1.8064914261439575
    vertex 11.658527798095005 11.089349440913857 3.8092870218494967
    vertex 11.827471527032149 11.428875292118553 3.7117473144697386
  endloop
endfacet
facet normal -0.7509042371334759 0.49818714911164685 0.4335347634446428
  outer loop
    vertex 11.658527798095005 11.089349440913857 3.8092870218494967
    vertex 10.727471527032138 11.428875292118553 1.8064914261439575
    vertex 10.558527798094996 11.089349440913857 1.9040311335237161
  endloop
endfacet
facet normal -0.8369833903278284 0.2567977266652595 0.4832325857130173
  outer loop
    vertex 10.814556000412825 11.807322348337197 1.7562131819953817
    vertex 11.827471527032149 11.428875292118553 3.7117473144697386
    vertex 11.914556000412833 11.807322348337197 3.6614690703211625
  endloop
endfacet
facet normal -0.8369833903278284 0.2567977266652595 0.4832325857130173
  outer loop
    vertex 11.827471527032149 11.428875292118553 3.7117473144697386
    vertex 10.814556000412825 11.807322348337197 1.7562131819953817
    vertex 10.727471527032138 11.428875292118553 1.8064914261439575
  endloop
endfacet
facet normal -0.8660235086517806 -0.002092036475018501 0.4999989058446496
  outer loop
    vertex 10.813846555290057 12.198900068101773 1.7566227803279861
    vertex 11.914556000412833 11.807322348337197 3.6614690703211625
    vertex 11.913846555290068 12.198900068101773 3.6618786686537668
  endloop
endfacet
facet normal -0.8660235086517806 -0.002092036475018501 0.4999989058446496
  outer loop
    vertex 11.914556000412833 11.807322348337197 3.6614690703211625
    vertex 10.813846555290057 12.198900068101773 1.7566227803279861
    vertex 10.814556000412825 11.807322348337197 1.7562131819953817
  endloop
endfacet
facet normal -0.8360455560326306 -0.26083923078680654 0.4826911268302296
  outer loop
    vertex 10.725391539176542 12.576923076923098 1.8076923076922982
    vertex 11.913846555290068 12.198900068101773 3.6618786686537668
    vertex 11.825391539176549 12.576923076923098 3.712948196018079
  endloop
endfacet
facet normal -0.8360455560326306 -0.26083923078680654 0.4826911268302296
  outer loop
    vertex 11.913846555290068 12.198900068101773 3.6618786686537668
    vertex 10.725391539176542 12.576923076923098 1.8076923076922982
    vertex 10.813846555290057 12.198900068101773 1.7566227803279861
  endloop
endfacet
facet normal -0.749092480400459 -0.5018106625776808 0.4324887452071294
  outer loop
    vertex 10.555219015241583 12.915629731462575 1.905941460194824
    vertex 11.825391539176549 12.576923076923098 3.712948196018079
    vertex 11.655219015241594 12.915629731462575 3.8111973485206048
  endloop
endfacet
facet normal -0.749092480400459 -0.5018106625776808 0.4324887452071294
  outer loop
    vertex 11.825391539176549 12.576923076923098 3.712948196018079
    vertex 10.555219015241583 12.915629731462575 1.905941460194824
    vertex 10.725391539176542 12.576923076923098 1.8076923076922982
  endloop
endfacet
facet normal -0.6110899901628921 -0.7085845269951605 0.35281297031963144
  outer loop
    vertex 11.414925959767972 13.191937732952592 3.9499306087826973
    vertex 10.555219015241583 12.915629731462575 1.905941460194824
    vertex 11.655219015241594 12.915629731462575 3.8111973485206048
  endloop
endfacet
facet normal -0.6110899901628921 -0.7085845269951605 0.35281297031963144
  outer loop
    vertex 10.555219015241583 12.915629731462575 1.905941460194824
    vertex 11.414925959767972 13.191937732952592 3.9499306087826973
    vertex 10.314925959767962 13.191937732952592 2.0446747204569165
  endloop
endfacet
facet normal -0.43144272696962094 -0.8670695268892932 0.24909357455581682
  outer loop
    vertex 11.120887947383164 13.387017147712106 4.119693534385049
    vertex 10.314925959767962 13.191937732952592 2.0446747204569165
    vertex 11.414925959767972 13.191937732952592 3.9499306087826973
  endloop
endfacet
facet normal -0.43144272696962094 -0.8670695268892932 0.24909357455581682
  outer loop
    vertex 10.314925959767962 13.191937732952592 2.0446747204569165
    vertex 11.120887947383164 13.387017147712106 4.119693534385049
    vertex 10.020887947383153 13.387017147712106 2.2144376460592685
  endloop
endfacet
facet normal -0.2223933549262314 -0.9664651714260274 0.12839886333264366
  outer loop
    vertex 10.7931431827104 13.487573636009264 4.308917062494359
    vertex 10.020887947383153 13.387017147712106 2.2144376460592685
    vertex 11.120887947383164 13.387017147712106 4.119693534385049
  endloop
endfacet
facet normal -0.2223933549262314 -0.9664651714260274 0.12839886333264366
  outer loop
    vertex 10.020887947383153 13.387017147712106 2.2144376460592685
    vertex 10.7931431827104 13.487573636009264 4.308917062494359
    vertex 9.693143182710392 13.487573636009264 2.4036611741685783
  endloop
endfacet
facet normal 0.001811756733031552 -0.9999978116892991 -0.0010460182375218834
  outer loop
    vertex 10.454026929838301 13.486754439344045 4.504705922376642
    vertex 9.693143182710392 13.487573636009264 2.4036611741685783
    vertex 10.7931431827104 13.487573636009264 4.308917062494359
  endloop
endfacet
facet normal 0.001811756733031552 -0.9999978116892991 -0.0010460182375218834
  outer loop
    vertex 9.693143182710392 13.487573636009264 2.4036611741685783
    vertex 10.454026929838301 13.486754439344045 4.504705922376642
    vertex 9.354026929838293 13.486754439344045 2.5994500340508617
  endloop
endfacet
facet normal 0.22589340016496084 -0.9653822536604609 -0.13041961539339997
  outer loop
    vertex 10.126649400983993 13.384615384615419 4.693717426787312
    vertex 9.354026929838293 13.486754439344045 2.5994500340508617
    vertex 10.454026929838301 13.486754439344045 4.504705922376642
  endloop
endfacet
facet normal 0.22589340016496084 -0.9653822536604609 -0.13041961539339997
  outer loop
    vertex 9.354026929838293 13.486754439344045 2.5994500340508617
    vertex 10.126649400983993 13.384615384615419 4.693717426787312
    vertex 9.026649400983985 13.384615384615419 2.788461538461531
  endloop
endfacet
facet normal 0.4345807816821775 -0.8649774904142555 -0.2509053312888431
  outer loop
    vertex 9.83332083372195 13.188117079610356 4.863070754057059
    vertex 9.026649400983985 13.384615384615419 2.788461538461531
    vertex 10.126649400983993 13.384615384615419 4.693717426787312
  endloop
endfacet
facet normal 0.4345807816821775 -0.8649774904142555 -0.2509053312888431
  outer loop
    vertex 9.026649400983985 13.384615384615419 2.788461538461531
    vertex 9.83332083372195 13.188117079610356 4.863070754057059
    vertex 8.733320833721942 13.188117079610356 2.9578148657312786
  endloop
endfacet
facet normal 0.6136522011063927 -0.7056259406392592 -0.35429226349758214
  outer loop
    vertex 8.4940310851627 12.91065055908619 3.0959688664762757
    vertex 9.83332083372195 13.188117079610356 4.863070754057059
    vertex 9.594031085162706 12.91065055908619 5.001224754802056
  endloop
endfacet
facet normal 0.6136522011063927 -0.7056259406392592 -0.35429226349758214
  outer loop
    vertex 9.83332083372195 13.188117079610356 4.863070754057059
    vertex 8.4940310851627 12.91065055908619 3.0959688664762757
    vertex 8.733320833721942 13.188117079610356 2.9578148657312786
  endloop
endfacet
facet normal 0.7509042371334759 -0.49818714911164685 -0.4335347634446428
  outer loop
    vertex 8.325087356225556 12.571124707881493 3.193508573856034
    vertex 9.594031085162706 12.91065055908619 5.001224754802056
    vertex 9.425087356225564 12.571124707881493 5.098764462181815
  endloop
endfacet
facet normal 0.7509042371334759 -0.49818714911164685 -0.4335347634446428
  outer loop
    vertex 9.594031085162706 12.91065055908619 5.001224754802056
    vertex 8.325087356225556 12.571124707881493 3.193508573856034
    vertex 8.4940310851627 12.91065055908619 3.0959688664762757
  endloop
endfacet
facet normal 0.8369833903278284 -0.2567977266652595 -0.4832325857130173
  outer loop
    vertex 8.238002882844869 12.19267765166285 3.24378681800461
    vertex 9.425087356225564 12.571124707881493 5.098764462181815
    vertex 9.338002882844878 12.19267765166285 5.149042706330391
  endloop
endfacet
facet normal 0.8369833903278284 -0.2567977266652595 -0.4832325857130173
  outer loop
    vertex 9.425087356225564 12.571124707881493 5.098764462181815
    vertex 8.238002882844869 12.19267765166285 3.24378681800461
    vertex 8.325087356225556 12.571124707881493 3.193508573856034
  endloop
endfacet
facet normal 0.8660235086517806 0.0020920364750149005 -0.4999989058446496
  outer loop
    vertex 8.238712327967635 11.801099931898273 3.243377219672006
    vertex 9.338002882844878 12.19267765166285 5.149042706330391
    vertex 9.338712327967643 11.801099931898273 5.148633107997787
  endloop
endfacet
facet normal 0.8660235086517806 0.0020920364750149005 -0.4999989058446496
  outer loop
    vertex 9.338002882844878 12.19267765166285 5.149042706330391
    vertex 8.238712327967635 11.801099931898273 3.243377219672006
    vertex 8.238002882844869 12.19267765166285 3.24378681800461
  endloop
endfacet
facet normal 0.8360455560326314 0.26083923078680316 -0.48269112683023
  outer loop
    vertex 8.32716734408115 11.423076923076948 3.1923076923076947
    vertex 9.338712327967643 11.801099931898273 5.148633107997787
    vertex 9.427167344081159 11.423076923076948 5.097563580633476
  endloop
endfacet
facet normal 0.8360455560326314 0.26083923078680316 -0.48269112683023
  outer loop
    vertex 9.338712327967643 11.801099931898273 5.148633107997787
    vertex 8.32716734408115 11.423076923076948 3.1923076923076947
    vertex 8.238712327967635 11.801099931898273 3.243377219672006
  endloop
endfacet
facet normal 0.7490924804004575 0.5018106625776834 -0.4324887452071285
  outer loop
    vertex 8.497339868016109 11.084370268537471 3.0940585398051685
    vertex 9.427167344081159 11.423076923076948 5.097563580633476
    vertex 9.59733986801612 11.084370268537471 4.999314428130949
  endloop
endfacet
facet normal 0.7490924804004575 0.5018106625776834 -0.4324887452071285
  outer loop
    vertex 9.427167344081159 11.423076923076948 5.097563580633476
    vertex 8.497339868016109 11.084370268537471 3.0940585398051685
    vertex 8.32716734408115 11.423076923076948 3.1923076923076947
  endloop
endfacet
facet normal 0.6110899901628921 0.7085845269951605 -0.35281297031963144
  outer loop
    vertex 8.497339868016109 11.084370268537471 3.0940585398051685
    vertex 9.837632923489739 10.808062267047454 4.860581167868856
    vertex 8.73763292348973 10.808062267047454 2.9553252795430756
  endloop
endfacet
facet normal 0.6110899901628921 0.7085845269951605 -0.35281297031963144
  outer loop
    vertex 9.837632923489739 10.808062267047454 4.860581167868856
    vertex 8.497339868016109 11.084370268537471 3.0940585398051685
    vertex 9.59733986801612 11.084370268537471 4.999314428130949
  endloop
endfacet
facet normal -0.43458078168215925 0.8649774904142679 0.2509053312888326
  outer loop
    vertex 10.025909482273713 224.61538461538458 2.2115384615384586
    vertex 11.419238049535752 224.81188292038962 3.9474410225944743
    vertex 10.319238049535754 224.81188292038962 2.0421851342687125
  endloop
endfacet
facet normal -0.43458078168215925 0.8649774904142679 0.2509053312888326
  outer loop
    vertex 11.419238049535752 224.81188292038962 3.9474410225944743
    vertex 10.025909482273713 224.61538461538458 2.2115384615384586
    vertex 11.12590948227371 224.61538461538458 4.11679434986422
  endloop
endfacet
facet normal -0.6136522011064175 0.7056259406392303 0.35429226349759646
  outer loop
    vertex 10.558527798094996 225.08934944091382 1.9040311335237161
    vertex 11.419238049535752 224.81188292038962 3.9474410225944743
    vertex 11.658527798094994 225.08934944091382 3.8092870218494777
  endloop
endfacet
facet normal -0.6136522011064175 0.7056259406392303 0.35429226349759646
  outer loop
    vertex 11.419238049535752 224.81188292038962 3.9474410225944743
    vertex 10.558527798094996 225.08934944091382 1.9040311335237161
    vertex 10.319238049535754 224.81188292038962 2.0421851342687125
  endloop
endfacet
facet normal -0.7509042371334838 0.4981871491116309 0.43353476344464736
  outer loop
    vertex 10.727471527032135 225.42887529211853 1.8064914261439597
    vertex 11.658527798094994 225.08934944091382 3.8092870218494777
    vertex 11.827471527032133 225.42887529211853 3.7117473144697217
  endloop
endfacet
facet normal -0.7509042371334838 0.4981871491116309 0.43353476344464736
  outer loop
    vertex 11.658527798094994 225.08934944091382 3.8092870218494777
    vertex 10.727471527032135 225.42887529211853 1.8064914261439597
    vertex 10.558527798094996 225.08934944091382 1.9040311335237161
  endloop
endfacet
facet normal -0.8369833903278264 0.256797726665268 0.48323258571301614
  outer loop
    vertex 10.81455600041282 225.80732234833715 1.7562131819953852
    vertex 11.827471527032133 225.42887529211853 3.7117473144697217
    vertex 11.914556000412817 225.80732234833715 3.661469070321147
  endloop
endfacet
facet normal -0.8369833903278264 0.256797726665268 0.48323258571301614
  outer loop
    vertex 11.827471527032133 225.42887529211853 3.7117473144697217
    vertex 10.81455600041282 225.80732234833715 1.7562131819953852
    vertex 10.727471527032135 225.42887529211853 1.8064914261439597
  endloop
endfacet
facet normal -0.8660235086517805 -0.0020920364750257776 0.49999890584464957
  outer loop
    vertex 10.81384655529005 226.1989000681017 1.756622780327991
    vertex 11.914556000412817 225.80732234833715 3.661469070321147
    vertex 11.913846555290048 226.1989000681017 3.661878668653753
  endloop
endfacet
facet normal -0.8660235086517805 -0.0020920364750257776 0.49999890584464957
  outer loop
    vertex 11.914556000412817 225.80732234833715 3.661469070321147
    vertex 10.81384655529005 226.1989000681017 1.756622780327991
    vertex 10.81455600041282 225.80732234833715 1.7562131819953852
  endloop
endfacet
facet normal -0.8360455560326316 -0.2608392307868017 0.48269112683023013
  outer loop
    vertex 10.725391539176531 226.57692307692307 1.8076923076923037
    vertex 11.913846555290048 226.1989000681017 3.661878668653753
    vertex 11.825391539176529 226.57692307692307 3.7129481960180657
  endloop
endfacet
facet normal -0.8360455560326316 -0.2608392307868017 0.48269112683023013
  outer loop
    vertex 11.913846555290048 226.1989000681017 3.661878668653753
    vertex 10.725391539176531 226.57692307692307 1.8076923076923037
    vertex 10.81384655529005 226.1989000681017 1.756622780327991
  endloop
endfacet
facet normal -0.7490924804004667 -0.501810662577665 0.4324887452071338
  outer loop
    vertex 10.555219015241574 226.91562973146253 1.9059414601948295
    vertex 11.825391539176529 226.57692307692307 3.7129481960180657
    vertex 11.655219015241572 226.91562973146253 3.8111973485205914
  endloop
endfacet
facet normal -0.7490924804004667 -0.501810662577665 0.4324887452071338
  outer loop
    vertex 11.825391539176529 226.57692307692307 3.7129481960180657
    vertex 10.555219015241574 226.91562973146253 1.9059414601948295
    vertex 10.725391539176531 226.57692307692307 1.8076923076923037
  endloop
endfacet
facet normal -0.6110899901628656 -0.7085845269951911 0.3528129703196161
  outer loop
    vertex 11.41492595976795 227.1919377329525 3.949930608782684
    vertex 10.555219015241574 226.91562973146253 1.9059414601948295
    vertex 11.655219015241572 226.91562973146253 3.8111973485205914
  endloop
endfacet
facet normal -0.6110899901628656 -0.7085845269951911 0.3528129703196161
  outer loop
    vertex 10.555219015241574 226.91562973146253 1.9059414601948295
    vertex 11.41492595976795 227.1919377329525 3.949930608782684
    vertex 10.314925959767953 227.1919377329525 2.0446747204569222
  endloop
endfacet
facet normal -0.4314427269696186 -0.8670695268892947 0.24909357455581546
  outer loop
    vertex 11.120887947383142 227.38701714771204 4.119693534385036
    vertex 10.314925959767953 227.1919377329525 2.0446747204569222
    vertex 11.41492595976795 227.1919377329525 3.949930608782684
  endloop
endfacet
facet normal -0.4314427269696186 -0.8670695268892947 0.24909357455581546
  outer loop
    vertex 10.314925959767953 227.1919377329525 2.0446747204569222
    vertex 11.120887947383142 227.38701714771204 4.119693534385036
    vertex 10.020887947383144 227.38701714771204 2.214437646059274
  endloop
endfacet
facet normal -0.22239335492621473 -0.9664651714260325 0.12839886333263403
  outer loop
    vertex 10.79314318271038 227.4875736360092 4.308917062494345
    vertex 10.020887947383144 227.38701714771204 2.214437646059274
    vertex 11.120887947383142 227.38701714771204 4.119693534385036
  endloop
endfacet
facet normal -0.22239335492621473 -0.9664651714260325 0.12839886333263403
  outer loop
    vertex 10.020887947383144 227.38701714771204 2.214437646059274
    vertex 10.79314318271038 227.4875736360092 4.308917062494345
    vertex 9.693143182710383 227.4875736360092 2.403661174168583
  endloop
endfacet
facet normal 0.0018117567330159668 -0.9999978116892992 -0.0010460182375128851
  outer loop
    vertex 10.454026929838282 227.48675443934397 4.504705922376628
    vertex 9.693143182710383 227.4875736360092 2.403661174168583
    vertex 10.79314318271038 227.4875736360092 4.308917062494345
  endloop
endfacet
facet normal 0.0018117567330159668 -0.9999978116892992 -0.0010460182375128851
  outer loop
    vertex 9.693143182710383 227.4875736360092 2.403661174168583
    vertex 10.454026929838282 227.48675443934397 4.504705922376628
    vertex 9.354026929838284 227.48675443934397 2.5994500340508657
  endloop
endfacet
facet normal 0.22589340016496243 -0.9653822536604605 -0.13041961539340088
  outer loop
    vertex 10.126649400983977 227.38461538461533 4.693717426787296
    vertex 9.354026929838284 227.48675443934397 2.5994500340508657
    vertex 10.454026929838282 227.48675443934397 4.504705922376628
  endloop
endfacet
facet normal 0.22589340016496243 -0.9653822536604605 -0.13041961539340088
  outer loop
    vertex 9.354026929838284 227.48675443934397 2.5994500340508657
    vertex 10.126649400983977 227.38461538461533 4.693717426787296
    vertex 9.02664940098398 227.38461538461533 2.788461538461534
  endloop
endfacet
facet normal 0.43458078168215925 -0.8649774904142679 -0.2509053312888326
  outer loop
    vertex 9.833320833721938 227.18811707961032 4.863070754057041
    vertex 9.02664940098398 227.38461538461533 2.788461538461534
    vertex 10.126649400983977 227.38461538461533 4.693717426787296
  endloop
endfacet
facet normal 0.43458078168215925 -0.8649774904142679 -0.2509053312888326
  outer loop
    vertex 9.02664940098398 227.38461538461533 2.788461538461534
    vertex 9.833320833721938 227.18811707961032 4.863070754057041
    vertex 8.73332083372194 227.18811707961032 2.95781486573128
  endloop
endfacet
facet normal 0.6136522011064192 -0.7056259406392286 -0.3542922634975974
  outer loop
    vertex 8.4940310851627 226.91065055908612 3.0959688664762757
    vertex 9.833320833721938 227.18811707961032 4.863070754057041
    vertex 9.594031085162696 226.91065055908612 5.001224754802037
  endloop
endfacet
facet normal 0.6136522011064192 -0.7056259406392286 -0.3542922634975974
  outer loop
    vertex 9.833320833721938 227.18811707961032 4.863070754057041
    vertex 8.4940310851627 226.91065055908612 3.0959688664762757
    vertex 8.73332083372194 227.18811707961032 2.95781486573128
  endloop
endfacet
facet normal 0.7509042371334816 -0.4981871491116352 -0.43353476344464614
  outer loop
    vertex 8.32508735622556 226.5711247078814 3.1935085738560325
    vertex 9.594031085162696 226.91065055908612 5.001224754802037
    vertex 9.425087356225557 226.5711247078814 5.098764462181794
  endloop
endfacet
facet normal 0.7509042371334816 -0.4981871491116352 -0.43353476344464614
  outer loop
    vertex 9.594031085162696 226.91065055908612 5.001224754802037
    vertex 8.32508735622556 226.5711247078814 3.1935085738560325
    vertex 8.4940310851627 226.91065055908612 3.0959688664762757
  endloop
endfacet
facet normal 0.8369833903278264 -0.256797726665268 -0.48323258571301614
  outer loop
    vertex 8.238002882844874 226.19267765166276 3.243786818004607
    vertex 9.425087356225557 226.5711247078814 5.098764462181794
    vertex 9.338002882844872 226.19267765166276 5.149042706330369
  endloop
endfacet
facet normal 0.8369833903278264 -0.256797726665268 -0.48323258571301614
  outer loop
    vertex 9.425087356225557 226.5711247078814 5.098764462181794
    vertex 8.238002882844874 226.19267765166276 3.243786818004607
    vertex 8.32508735622556 226.5711247078814 3.1935085738560325
  endloop
endfacet
facet normal 0.8660235086517806 0.00209203647502217 -0.4999989058446496
  outer loop
    vertex 8.238712327967642 225.80109993189825 3.243377219672002
    vertex 9.338002882844872 226.19267765166276 5.149042706330369
    vertex 9.33871232796764 225.80109993189825 5.148633107997764
  endloop
endfacet
facet normal 0.8660235086517806 0.00209203647502217 -0.4999989058446496
  outer loop
    vertex 9.338002882844872 226.19267765166276 5.149042706330369
    vertex 8.238712327967642 225.80109993189825 3.243377219672002
    vertex 8.238002882844874 226.19267765166276 3.243786818004607
  endloop
endfacet
facet normal 0.8360455560326316 0.2608392307868017 -0.48269112683023013
  outer loop
    vertex 8.327167344081161 225.4230769230769 3.192307692307689
    vertex 9.33871232796764 225.80109993189825 5.148633107997764
    vertex 9.427167344081157 225.4230769230769 5.097563580633451
  endloop
endfacet
facet normal 0.8360455560326316 0.2608392307868017 -0.48269112683023013
  outer loop
    vertex 9.33871232796764 225.80109993189825 5.148633107997764
    vertex 8.327167344081161 225.4230769230769 3.192307692307689
    vertex 8.238712327967642 225.80109993189825 3.243377219672002
  endloop
endfacet
facet normal 0.7490924804004646 0.5018106625776694 -0.43248874520713254
  outer loop
    vertex 8.49733986801612 225.08437026853738 3.0940585398051628
    vertex 9.427167344081157 225.4230769230769 5.097563580633451
    vertex 9.597339868016117 225.08437026853738 4.9993144281309245
  endloop
endfacet
facet normal 0.7490924804004646 0.5018106625776694 -0.43248874520713254
  outer loop
    vertex 9.427167344081157 225.4230769230769 5.097563580633451
    vertex 8.49733986801612 225.08437026853738 3.0940585398051628
    vertex 8.327167344081161 225.4230769230769 3.192307692307689
  endloop
endfacet
facet normal 0.6110899901628656 0.7085845269951911 -0.3528129703196161
  outer loop
    vertex 8.49733986801612 225.08437026853738 3.0940585398051628
    vertex 9.837632923489739 224.80806226704743 4.8605811678688315
    vertex 8.737632923489741 224.80806226704743 2.9553252795430702
  endloop
endfacet
facet normal 0.6110899901628656 0.7085845269951911 -0.3528129703196161
  outer loop
    vertex 9.837632923489739 224.80806226704743 4.8605811678688315
    vertex 8.49733986801612 225.08437026853738 3.0940585398051628
    vertex 9.597339868016117 225.08437026853738 4.9993144281309245
  endloop
endfacet
facet normal 0.43144272696961966 0.8670695268892942 -0.24909357455581607
  outer loop
    vertex 8.737632923489741 224.80806226704743 2.9553252795430702
    vertex 10.131670935874547 224.6129828522879 4.690818242266479
    vertex 9.03167093587455 224.6129828522879 2.7855623539407177
  endloop
endfacet
facet normal 0.43144272696961966 0.8670695268892942 -0.24909357455581607
  outer loop
    vertex 10.131670935874547 224.6129828522879 4.690818242266479
    vertex 8.737632923489741 224.80806226704743 2.9553252795430702
    vertex 9.837632923489739 224.80806226704743 4.8605811678688315
  endloop
endfacet
facet normal 0.2223933549262155 0.9664651714260323 -0.12839886333263448
  outer loop
    vertex 9.03167093587455 224.6129828522879 2.7855623539407177
    vertex 10.459415700547309 224.51242636399076 4.501594714157171
    vertex 9.359415700547311 224.51242636399076 2.596338825831409
  endloop
endfacet
facet normal 0.2223933549262155 0.9664651714260323 -0.12839886333263448
  outer loop
    vertex 10.459415700547309 224.51242636399076 4.501594714157171
    vertex 9.03167093587455 224.6129828522879 2.7855623539407177
    vertex 10.131670935874547 224.6129828522879 4.690818242266479
  endloop
endfacet
facet normal -0.22589340016496243 0.9653822536604605 0.13041961539340088
  outer loop
    vertex 9.698531953419408 224.51324556065597 2.4005499659491263
    vertex 11.12590948227371 224.61538461538458 4.11679434986422
    vertex 10.025909482273713 224.61538461538458 2.2115384615384586
  endloop
endfacet
facet normal -0.22589340016496243 0.9653822536604605 0.13041961539340088
  outer loop
    vertex 11.12590948227371 224.61538461538458 4.11679434986422
    vertex 9.698531953419408 224.51324556065597 2.4005499659491263
    vertex 10.798531953419404 224.51324556065597 4.3058058542748885
  endloop
endfacet
facet normal -0.0018117567330159668 0.9999978116892992 0.0010460182375128851
  outer loop
    vertex 9.359415700547311 224.51242636399076 2.596338825831409
    vertex 10.798531953419404 224.51324556065597 4.3058058542748885
    vertex 9.698531953419408 224.51324556065597 2.4005499659491263
  endloop
endfacet
facet normal -0.0018117567330159668 0.9999978116892992 0.0010460182375128851
  outer loop
    vertex 10.798531953419404 224.51324556065597 4.3058058542748885
    vertex 9.359415700547311 224.51242636399076 2.596338825831409
    vertex 10.459415700547309 224.51242636399076 4.501594714157171
  endloop
endfacet
facet normal 0.43144272696961966 0.8670695268892942 -0.24909357455581607
  outer loop
    vertex 8.73763292348973 10.808062267047454 2.9553252795430756
    vertex 10.13167093587455 10.61298285228794 4.690818242266504
    vertex 9.03167093587454 10.61298285228794 2.785562353940723
  endloop
endfacet
facet normal 0.43144272696961966 0.8670695268892942 -0.24909357455581607
  outer loop
    vertex 10.13167093587455 10.61298285228794 4.690818242266504
    vertex 8.73763292348973 10.808062267047454 2.9553252795430756
    vertex 9.837632923489739 10.808062267047454 4.860581167868856
  endloop
endfacet
facet normal -0.0 -1.0 0.0
  outer loop
    vertex 6.29615242270666 213.99999999999997 6.905255888325778
    vertex 13.856406460551039 213.99999999999997 -2.8199664825478975e-15
    vertex 14.956406460551047 213.99999999999997 1.905255888325778
  endloop
endfacet
facet normal -0.0 -1.0 0.0
  outer loop
    vertex 13.856406460551039 213.99999999999997 -2.8199664825478975e-15
    vertex 6.29615242270666 213.99999999999997 6.905255888325778
    vertex 5.196152422706652 213.99999999999997 4.9999999999999964
  endloop
endfacet
facet normal 0.8660254037844386 0.0 -0.4999999999999999
  outer loop
    vertex 5.196152422706652 24.0 4.9999999999999964
    vertex 6.29615242270666 213.99999999999997 6.905255888325778
    vertex 6.29615242270666 24.0 6.905255888325778
  endloop
endfacet
facet normal 0.8660254037844386 0.0 -0.4999999999999999
  outer loop
    vertex 6.29615242270666 213.99999999999997 6.905255888325778
    vertex 5.196152422706652 24.0 4.9999999999999964
    vertex 5.196152422706652 213.99999999999997 4.9999999999999964
  endloop
endfacet
facet normal 0.8660254037844386 0.0 -0.4999999999999999
  outer loop
    vertex 6.29615242270666 0.0 6.905255888325778
    vertex 8.596152422706655 237.99999999999997 10.888972745734188
    vertex 8.596152422706655 0.0 10.888972745734188
  endloop
endfacet
facet normal 0.8660254037844386 0.0 -0.4999999999999999
  outer loop
    vertex 8.596152422706655 237.99999999999997 10.888972745734188
    vertex 6.29615242270666 0.0 6.905255888325778
    vertex 6.29615242270666 237.99999999999997 6.905255888325778
  endloop
endfacet
facet normal 0.8660254037844386 0.0 -0.4999999999999999
  outer loop
    vertex 6.29615242270666 237.99999999999997 6.905255888325778
    vertex 6.29615242270666 0.0 6.905255888325778
    vertex 6.29615242270666 24.0 6.905255888325778
  endloop
endfacet
facet normal 0.8660254037844386 0.0 -0.4999999999999999
  outer loop
    vertex 6.29615242270666 237.99999999999997 6.905255888325778
    vertex 6.29615242270666 24.0 6.905255888325778
    vertex 6.29615242270666 213.99999999999997 6.905255888325778
  endloop
endfacet
facet normal 0.5 0.0 0.8660254037844388
  outer loop
    vertex 6.29615242270666 237.99999999999997 6.905255888325778
    vertex 9.425087356225557 226.5711247078814 5.098764462181794
    vertex 14.956406460551047 237.99999999999997 1.905255888325778
  endloop
endfacet
facet normal 0.5 0.0 0.8660254037844388
  outer loop
    vertex 9.425087356225557 226.5711247078814 5.098764462181794
    vertex 6.29615242270666 237.99999999999997 6.905255888325778
    vertex 6.29615242270666 213.99999999999997 6.905255888325778
  endloop
endfacet
facet normal 0.5 0.0 0.8660254037844388
  outer loop
    vertex 14.956406460551047 237.99999999999997 1.905255888325778
    vertex 9.425087356225557 226.5711247078814 5.098764462181794
    vertex 9.594031085162696 226.91065055908612 5.001224754802037
  endloop
endfacet
facet normal 0.5 0.0 0.8660254037844388
  outer loop
    vertex 14.956406460551047 237.99999999999997 1.905255888325778
    vertex 9.594031085162696 226.91065055908612 5.001224754802037
    vertex 9.833320833721938 227.18811707961032 4.863070754057041
  endloop
endfacet
facet normal 0.5 0.0 0.8660254037844388
  outer loop
    vertex 14.956406460551047 237.99999999999997 1.905255888325778
    vertex 9.833320833721938 227.18811707961032 4.863070754057041
    vertex 10.126649400983977 227.38461538461533 4.693717426787296
  endloop
endfacet
facet normal 0.5 0.0 0.8660254037844388
  outer loop
    vertex 14.956406460551047 237.99999999999997 1.905255888325778
    vertex 10.126649400983977 227.38461538461533 4.693717426787296
    vertex 10.454026929838282 227.48675443934397 4.504705922376628
  endloop
endfacet
facet normal 0.5 0.0 0.8660254037844388
  outer loop
    vertex 14.956406460551047 237.99999999999997 1.905255888325778
    vertex 10.454026929838282 227.48675443934397 4.504705922376628
    vertex 10.79314318271038 227.4875736360092 4.308917062494345
  endloop
endfacet
facet normal 0.5 0.0 0.8660254037844388
  outer loop
    vertex 9.425087356225557 226.5711247078814 5.098764462181794
    vertex 6.29615242270666 213.99999999999997 6.905255888325778
    vertex 9.338002882844872 226.19267765166276 5.149042706330369
  endloop
endfacet
facet normal 0.5 0.0 0.8660254037844388
  outer loop
    vertex 9.338002882844872 226.19267765166276 5.149042706330369
    vertex 6.29615242270666 213.99999999999997 6.905255888325778
    vertex 9.33871232796764 225.80109993189825 5.148633107997764
  endloop
endfacet
facet normal 0.5 0.0 0.8660254037844388
  outer loop
    vertex 9.33871232796764 225.80109993189825 5.148633107997764
    vertex 6.29615242270666 213.99999999999997 6.905255888325778
    vertex 9.427167344081157 225.4230769230769 5.097563580633451
  endloop
endfacet
facet normal 0.5 0.0 0.8660254037844388
  outer loop
    vertex 9.427167344081157 225.4230769230769 5.097563580633451
    vertex 6.29615242270666 213.99999999999997 6.905255888325778
    vertex 9.597339868016117 225.08437026853738 4.9993144281309245
  endloop
endfacet
facet normal 0.5 0.0 0.8660254037844388
  outer loop
    vertex 9.597339868016117 225.08437026853738 4.9993144281309245
    vertex 6.29615242270666 213.99999999999997 6.905255888325778
    vertex 9.837632923489739 224.80806226704743 4.8605811678688315
  endloop
endfacet
facet normal 0.5 0.0 0.8660254037844388
  outer loop
    vertex 9.837632923489739 224.80806226704743 4.8605811678688315
    vertex 6.29615242270666 213.99999999999997 6.905255888325778
    vertex 10.131670935874547 224.6129828522879 4.690818242266479
  endloop
endfacet
facet normal 0.5 0.0 0.8660254037844388
  outer loop
    vertex 10.131670935874547 224.6129828522879 4.690818242266479
    vertex 6.29615242270666 213.99999999999997 6.905255888325778
    vertex 10.459415700547309 224.51242636399076 4.501594714157171
  endloop
endfacet
facet normal 0.5 0.0 0.8660254037844388
  outer loop
    vertex 14.956406460551047 237.99999999999997 1.905255888325778
    vertex 11.825391539176529 226.57692307692307 3.7129481960180657
    vertex 14.956406460551047 213.99999999999997 1.905255888325778
  endloop
endfacet
facet normal 0.5 0.0 0.8660254037844388
  outer loop
    vertex 11.825391539176529 226.57692307692307 3.7129481960180657
    vertex 14.956406460551047 237.99999999999997 1.905255888325778
    vertex 11.655219015241572 226.91562973146253 3.8111973485205914
  endloop
endfacet
facet normal 0.5 0.0 0.8660254037844388
  outer loop
    vertex 11.655219015241572 226.91562973146253 3.8111973485205914
    vertex 14.956406460551047 237.99999999999997 1.905255888325778
    vertex 11.41492595976795 227.1919377329525 3.949930608782684
  endloop
endfacet
facet normal 0.5 0.0 0.8660254037844388
  outer loop
    vertex 11.41492595976795 227.1919377329525 3.949930608782684
    vertex 14.956406460551047 237.99999999999997 1.905255888325778
    vertex 11.120887947383142 227.38701714771204 4.119693534385036
  endloop
endfacet
facet normal 0.5 0.0 0.8660254037844388
  outer loop
    vertex 11.120887947383142 227.38701714771204 4.119693534385036
    vertex 14.956406460551047 237.99999999999997 1.905255888325778
    vertex 10.79314318271038 227.4875736360092 4.308917062494345
  endloop
endfacet
facet normal 0.5 0.0 0.8660254037844388
  outer loop
    vertex 14.956406460551047 213.99999999999997 1.905255888325778
    vertex 11.825391539176529 226.57692307692307 3.7129481960180657
    vertex 11.913846555290048 226.1989000681017 3.661878668653753
  endloop
endfacet
facet normal 0.5 0.0 0.8660254037844388
  outer loop
    vertex 14.956406460551047 213.99999999999997 1.905255888325778
    vertex 11.913846555290048 226.1989000681017 3.661878668653753
    vertex 11.914556000412817 225.80732234833715 3.661469070321147
  endloop
endfacet
facet normal 0.5 0.0 0.8660254037844388
  outer loop
    vertex 14.956406460551047 213.99999999999997 1.905255888325778
    vertex 11.914556000412817 225.80732234833715 3.661469070321147
    vertex 11.827471527032133 225.42887529211853 3.7117473144697217
  endloop
endfacet
facet normal 0.5 0.0 0.8660254037844388
  outer loop
    vertex 14.956406460551047 213.99999999999997 1.905255888325778
    vertex 11.827471527032133 225.42887529211853 3.7117473144697217
    vertex 11.658527798094994 225.08934944091382 3.8092870218494777
  endloop
endfacet
facet normal 0.5 0.0 0.8660254037844388
  outer loop
    vertex 14.956406460551047 213.99999999999997 1.905255888325778
    vertex 11.658527798094994 225.08934944091382 3.8092870218494777
    vertex 11.419238049535752 224.81188292038962 3.9474410225944743
  endloop
endfacet
facet normal 0.5 0.0 0.8660254037844388
  outer loop
    vertex 14.956406460551047 213.99999999999997 1.905255888325778
    vertex 11.419238049535752 224.81188292038962 3.9474410225944743
    vertex 11.12590948227371 224.61538461538458 4.11679434986422
  endloop
endfacet
facet normal 0.5 0.0 0.8660254037844388
  outer loop
    vertex 14.956406460551047 213.99999999999997 1.905255888325778
    vertex 11.12590948227371 224.61538461538458 4.11679434986422
    vertex 10.798531953419404 224.51324556065597 4.3058058542748885
  endloop
endfacet
facet normal 0.5 0.0 0.8660254037844388
  outer loop
    vertex 14.956406460551047 213.99999999999997 1.905255888325778
    vertex 10.798531953419404 224.51324556065597 4.3058058542748885
    vertex 10.459415700547309 224.51242636399076 4.501594714157171
  endloop
endfacet
facet normal 0.5 0.0 0.8660254037844388
  outer loop
    vertex 14.956406460551047 213.99999999999997 1.905255888325778
    vertex 10.459415700547309 224.51242636399076 4.501594714157171
    vertex 6.29615242270666 213.99999999999997 6.905255888325778
  endloop
endfacet
facet normal -0.5 0.0 -0.8660254037844388
  outer loop
    vertex 13.856406460551039 237.99999999999997 -2.8199664825478975e-15
    vertex 10.314925959767953 227.1919377329525 2.0446747204569222
    vertex 1.6919798895287383e-14 237.99999999999997 7.9999999999999964
  endloop
endfacet
facet normal -0.5 0.0 -0.8660254037844388
  outer loop
    vertex 10.314925959767953 227.1919377329525 2.0446747204569222
    vertex 13.856406460551039 237.99999999999997 -2.8199664825478975e-15
    vertex 10.555219015241574 226.91562973146253 1.9059414601948295
  endloop
endfacet
facet normal -0.5 0.0 -0.8660254037844388
  outer loop
    vertex 10.555219015241574 226.91562973146253 1.9059414601948295
    vertex 13.856406460551039 237.99999999999997 -2.8199664825478975e-15
    vertex 10.725391539176531 226.57692307692307 1.8076923076923037
  endloop
endfacet
facet normal -0.5 0.0 -0.8660254037844388
  outer loop
    vertex 10.725391539176531 226.57692307692307 1.8076923076923037
    vertex 13.856406460551039 237.99999999999997 -2.8199664825478975e-15
    vertex 13.856406460551039 213.99999999999997 -2.8199664825478975e-15
  endloop
endfacet
facet normal -0.5 0.0 -0.8660254037844388
  outer loop
    vertex 1.6919798895287383e-14 237.99999999999997 7.9999999999999964
    vertex 10.314925959767953 227.1919377329525 2.0446747204569222
    vertex 10.020887947383144 227.38701714771204 2.214437646059274
  endloop
endfacet
facet normal -0.5 0.0 -0.8660254037844388
  outer loop
    vertex 1.6919798895287383e-14 237.99999999999997 7.9999999999999964
    vertex 10.020887947383144 227.38701714771204 2.214437646059274
    vertex 9.693143182710383 227.4875736360092 2.403661174168583
  endloop
endfacet
facet normal -0.5 0.0 -0.8660254037844388
  outer loop
    vertex 10.725391539176531 226.57692307692307 1.8076923076923037
    vertex 13.856406460551039 213.99999999999997 -2.8199664825478975e-15
    vertex 10.81384655529005 226.1989000681017 1.756622780327991
  endloop
endfacet
facet normal -0.5 0.0 -0.8660254037844388
  outer loop
    vertex 10.81384655529005 226.1989000681017 1.756622780327991
    vertex 13.856406460551039 213.99999999999997 -2.8199664825478975e-15
    vertex 10.81455600041282 225.80732234833715 1.7562131819953852
  endloop
endfacet
facet normal -0.5 0.0 -0.8660254037844388
  outer loop
    vertex 10.81455600041282 225.80732234833715 1.7562131819953852
    vertex 13.856406460551039 213.99999999999997 -2.8199664825478975e-15
    vertex 10.727471527032135 225.42887529211853 1.8064914261439597
  endloop
endfacet
facet normal -0.5 0.0 -0.8660254037844388
  outer loop
    vertex 10.727471527032135 225.42887529211853 1.8064914261439597
    vertex 13.856406460551039 213.99999999999997 -2.8199664825478975e-15
    vertex 10.558527798094996 225.08934944091382 1.9040311335237161
  endloop
endfacet
facet normal -0.5 0.0 -0.8660254037844388
  outer loop
    vertex 10.558527798094996 225.08934944091382 1.9040311335237161
    vertex 13.856406460551039 213.99999999999997 -2.8199664825478975e-15
    vertex 10.319238049535754 224.81188292038962 2.0421851342687125
  endloop
endfacet
facet normal -0.5 0.0 -0.8660254037844388
  outer loop
    vertex 10.319238049535754 224.81188292038962 2.0421851342687125
    vertex 13.856406460551039 213.99999999999997 -2.8199664825478975e-15
    vertex 10.025909482273713 224.61538461538458 2.2115384615384586
  endloop
endfacet
facet normal -0.5 0.0 -0.8660254037844388
  outer loop
    vertex 10.025909482273713 224.61538461538458 2.2115384615384586
    vertex 13.856406460551039 213.99999999999997 -2.8199664825478975e-15
    vertex 9.698531953419408 224.51324556065597 2.4005499659491263
  endloop
endfacet
facet normal -0.5 0.0 -0.8660254037844388
  outer loop
    vertex 9.698531953419408 224.51324556065597 2.4005499659491263
    vertex 13.856406460551039 213.99999999999997 -2.8199664825478975e-15
    vertex 9.359415700547311 224.51242636399076 2.596338825831409
  endloop
endfacet
facet normal -0.5 0.0 -0.8660254037844388
  outer loop
    vertex 13.856406460551039 24.0 -2.8199664825478975e-15
    vertex 10.725391539176542 12.576923076923098 1.8076923076922982
    vertex 5.196152422706652 24.0 4.9999999999999964
  endloop
endfacet
facet normal -0.5 0.0 -0.8660254037844388
  outer loop
    vertex 10.725391539176542 12.576923076923098 1.8076923076922982
    vertex 13.856406460551039 24.0 -2.8199664825478975e-15
    vertex 13.856406460551039 0.0 -2.8199664825478975e-15
  endloop
endfacet
facet normal -0.5 0.0 -0.8660254037844388
  outer loop
    vertex 5.196152422706652 24.0 4.9999999999999964
    vertex 10.725391539176542 12.576923076923098 1.8076923076922982
    vertex 10.555219015241583 12.915629731462575 1.905941460194824
  endloop
endfacet
facet normal -0.5 0.0 -0.8660254037844388
  outer loop
    vertex 5.196152422706652 24.0 4.9999999999999964
    vertex 10.555219015241583 12.915629731462575 1.905941460194824
    vertex 10.314925959767962 13.191937732952592 2.0446747204569165
  endloop
endfacet
facet normal -0.5 0.0 -0.8660254037844388
  outer loop
    vertex 5.196152422706652 24.0 4.9999999999999964
    vertex 10.314925959767962 13.191937732952592 2.0446747204569165
    vertex 10.020887947383153 13.387017147712106 2.2144376460592685
  endloop
endfacet
facet normal -0.5 0.0 -0.8660254037844388
  outer loop
    vertex 5.196152422706652 24.0 4.9999999999999964
    vertex 10.020887947383153 13.387017147712106 2.2144376460592685
    vertex 9.693143182710392 13.487573636009264 2.4036611741685783
  endloop
endfacet
facet normal -0.5 0.0 -0.8660254037844388
  outer loop
    vertex 10.725391539176542 12.576923076923098 1.8076923076922982
    vertex 13.856406460551039 0.0 -2.8199664825478975e-15
    vertex 10.813846555290057 12.198900068101773 1.7566227803279861
  endloop
endfacet
facet normal -0.5 0.0 -0.8660254037844388
  outer loop
    vertex 10.813846555290057 12.198900068101773 1.7566227803279861
    vertex 13.856406460551039 0.0 -2.8199664825478975e-15
    vertex 10.814556000412825 11.807322348337197 1.7562131819953817
  endloop
endfacet
facet normal -0.5 0.0 -0.8660254037844388
  outer loop
    vertex 10.814556000412825 11.807322348337197 1.7562131819953817
    vertex 13.856406460551039 0.0 -2.8199664825478975e-15
    vertex 10.727471527032138 11.428875292118553 1.8064914261439575
  endloop
endfacet
facet normal -0.5 0.0 -0.8660254037844388
  outer loop
    vertex 10.727471527032138 11.428875292118553 1.8064914261439575
    vertex 13.856406460551039 0.0 -2.8199664825478975e-15
    vertex 10.558527798094996 11.089349440913857 1.9040311335237161
  endloop
endfacet
facet normal -0.5 0.0 -0.8660254037844388
  outer loop
    vertex 10.558527798094996 11.089349440913857 1.9040311335237161
    vertex 13.856406460551039 0.0 -2.8199664825478975e-15
    vertex 10.31923804953575 10.81188292038969 2.042185134268714
  endloop
endfacet
facet normal -0.5 0.0 -0.8660254037844388
  outer loop
    vertex 10.31923804953575 10.81188292038969 2.042185134268714
    vertex 13.856406460551039 0.0 -2.8199664825478975e-15
    vertex 10.02590948227371 10.615384615384627 2.2115384615384612
  endloop
endfacet
facet normal -0.5 0.0 -0.8660254037844388
  outer loop
    vertex 10.02590948227371 10.615384615384627 2.2115384615384612
    vertex 13.856406460551039 0.0 -2.8199664825478975e-15
    vertex 9.6985319534194 10.513245560656001 2.4005499659491307
  endloop
endfacet
facet normal -0.5 0.0 -0.8660254037844388
  outer loop
    vertex 9.6985319534194 10.513245560656001 2.4005499659491307
    vertex 13.856406460551039 0.0 -2.8199664825478975e-15
    vertex 9.3594157005473 10.512426363990782 2.5963388258314146
  endloop
endfacet
facet normal -0.5 0.0 -0.8660254037844388
  outer loop
    vertex 1.6919798895287383e-14 237.99999999999997 7.9999999999999964
    vertex 5.196152422706652 213.99999999999997 4.9999999999999964
    vertex 2.8199664825478975e-15 0.0 8.000000000000005
  endloop
endfacet
facet normal -0.5 0.0 -0.8660254037844388
  outer loop
    vertex 5.196152422706652 213.99999999999997 4.9999999999999964
    vertex 1.6919798895287383e-14 237.99999999999997 7.9999999999999964
    vertex 8.32508735622556 226.5711247078814 3.1935085738560325
  endloop
endfacet
facet normal -0.5 0.0 -0.8660254037844388
  outer loop
    vertex 8.32508735622556 226.5711247078814 3.1935085738560325
    vertex 1.6919798895287383e-14 237.99999999999997 7.9999999999999964
    vertex 8.4940310851627 226.91065055908612 3.0959688664762757
  endloop
endfacet
facet normal -0.5 0.0 -0.8660254037844388
  outer loop
    vertex 8.4940310851627 226.91065055908612 3.0959688664762757
    vertex 1.6919798895287383e-14 237.99999999999997 7.9999999999999964
    vertex 8.73332083372194 227.18811707961032 2.95781486573128
  endloop
endfacet
facet normal -0.5 0.0 -0.8660254037844388
  outer loop
    vertex 8.73332083372194 227.18811707961032 2.95781486573128
    vertex 1.6919798895287383e-14 237.99999999999997 7.9999999999999964
    vertex 9.02664940098398 227.38461538461533 2.788461538461534
  endloop
endfacet
facet normal -0.5 0.0 -0.8660254037844388
  outer loop
    vertex 9.02664940098398 227.38461538461533 2.788461538461534
    vertex 1.6919798895287383e-14 237.99999999999997 7.9999999999999964
    vertex 9.354026929838284 227.48675443934397 2.5994500340508657
  endloop
endfacet
facet normal -0.5 0.0 -0.8660254037844388
  outer loop
    vertex 9.354026929838284 227.48675443934397 2.5994500340508657
    vertex 1.6919798895287383e-14 237.99999999999997 7.9999999999999964
    vertex 9.693143182710383 227.4875736360092 2.403661174168583
  endloop
endfacet
facet normal -0.5 0.0 -0.8660254037844388
  outer loop
    vertex 5.196152422706652 213.99999999999997 4.9999999999999964
    vertex 8.32508735622556 226.5711247078814 3.1935085738560325
    vertex 8.238002882844874 226.19267765166276 3.243786818004607
  endloop
endfacet
facet normal -0.5 0.0 -0.8660254037844388
  outer loop
    vertex 5.196152422706652 213.99999999999997 4.9999999999999964
    vertex 8.238002882844874 226.19267765166276 3.243786818004607
    vertex 8.238712327967642 225.80109993189825 3.243377219672002
  endloop
endfacet
facet normal -0.5 0.0 -0.8660254037844388
  outer loop
    vertex 5.196152422706652 213.99999999999997 4.9999999999999964
    vertex 8.238712327967642 225.80109993189825 3.243377219672002
    vertex 8.327167344081161 225.4230769230769 3.192307692307689
  endloop
endfacet
facet normal -0.5 0.0 -0.8660254037844388
  outer loop
    vertex 5.196152422706652 213.99999999999997 4.9999999999999964
    vertex 8.327167344081161 225.4230769230769 3.192307692307689
    vertex 8.49733986801612 225.08437026853738 3.0940585398051628
  endloop
endfacet
facet normal -0.5 0.0 -0.8660254037844388
  outer loop
    vertex 5.196152422706652 213.99999999999997 4.9999999999999964
    vertex 8.49733986801612 225.08437026853738 3.0940585398051628
    vertex 8.737632923489741 224.80806226704743 2.9553252795430702
  endloop
endfacet
facet normal -0.5 0.0 -0.8660254037844388
  outer loop
    vertex 5.196152422706652 213.99999999999997 4.9999999999999964
    vertex 8.737632923489741 224.80806226704743 2.9553252795430702
    vertex 9.03167093587455 224.6129828522879 2.7855623539407177
  endloop
endfacet
facet normal -0.5 0.0 -0.8660254037844388
  outer loop
    vertex 5.196152422706652 213.99999999999997 4.9999999999999964
    vertex 9.03167093587455 224.6129828522879 2.7855623539407177
    vertex 9.359415700547311 224.51242636399076 2.596338825831409
  endloop
endfacet
facet normal -0.5 0.0 -0.8660254037844388
  outer loop
    vertex 5.196152422706652 213.99999999999997 4.9999999999999964
    vertex 9.359415700547311 224.51242636399076 2.596338825831409
    vertex 13.856406460551039 213.99999999999997 -2.8199664825478975e-15
  endloop
endfacet
facet normal -0.5 0.0 -0.8660254037844388
  outer loop
    vertex 2.8199664825478975e-15 0.0 8.000000000000005
    vertex 5.196152422706652 213.99999999999997 4.9999999999999964
    vertex 5.196152422706652 24.0 4.9999999999999964
  endloop
endfacet
facet normal -0.5 0.0 -0.8660254037844388
  outer loop
    vertex 2.8199664825478975e-15 0.0 8.000000000000005
    vertex 5.196152422706652 24.0 4.9999999999999964
    vertex 8.4940310851627 12.91065055908619 3.0959688664762757
  endloop
endfacet
facet normal -0.5 0.0 -0.8660254037844388
  outer loop
    vertex 8.4940310851627 12.91065055908619 3.0959688664762757
    vertex 5.196152422706652 24.0 4.9999999999999964
    vertex 8.733320833721942 13.188117079610356 2.9578148657312786
  endloop
endfacet
facet normal -0.5 0.0 -0.8660254037844388
  outer loop
    vertex 8.733320833721942 13.188117079610356 2.9578148657312786
    vertex 5.196152422706652 24.0 4.9999999999999964
    vertex 9.026649400983985 13.384615384615419 2.788461538461531
  endloop
endfacet
facet normal -0.5 0.0 -0.8660254037844388
  outer loop
    vertex 9.026649400983985 13.384615384615419 2.788461538461531
    vertex 5.196152422706652 24.0 4.9999999999999964
    vertex 9.354026929838293 13.486754439344045 2.5994500340508617
  endloop
endfacet
facet normal -0.5 0.0 -0.8660254037844388
  outer loop
    vertex 9.354026929838293 13.486754439344045 2.5994500340508617
    vertex 5.196152422706652 24.0 4.9999999999999964
    vertex 9.693143182710392 13.487573636009264 2.4036611741685783
  endloop
endfacet
facet normal -0.5 0.0 -0.8660254037844388
  outer loop
    vertex 2.8199664825478975e-15 0.0 8.000000000000005
    vertex 8.4940310851627 12.91065055908619 3.0959688664762757
    vertex 8.325087356225556 12.571124707881493 3.193508573856034
  endloop
endfacet
facet normal -0.5 0.0 -0.8660254037844388
  outer loop
    vertex 2.8199664825478975e-15 0.0 8.000000000000005
    vertex 8.325087356225556 12.571124707881493 3.193508573856034
    vertex 8.238002882844869 12.19267765166285 3.24378681800461
  endloop
endfacet
facet normal -0.5 0.0 -0.8660254037844388
  outer loop
    vertex 2.8199664825478975e-15 0.0 8.000000000000005
    vertex 8.238002882844869 12.19267765166285 3.24378681800461
    vertex 8.238712327967635 11.801099931898273 3.243377219672006
  endloop
endfacet
facet normal -0.5 0.0 -0.8660254037844388
  outer loop
    vertex 2.8199664825478975e-15 0.0 8.000000000000005
    vertex 8.238712327967635 11.801099931898273 3.243377219672006
    vertex 8.32716734408115 11.423076923076948 3.1923076923076947
  endloop
endfacet
facet normal -0.5 0.0 -0.8660254037844388
  outer loop
    vertex 2.8199664825478975e-15 0.0 8.000000000000005
    vertex 8.32716734408115 11.423076923076948 3.1923076923076947
    vertex 8.497339868016109 11.084370268537471 3.0940585398051685
  endloop
endfacet
facet normal -0.5 0.0 -0.8660254037844388
  outer loop
    vertex 2.8199664825478975e-15 0.0 8.000000000000005
    vertex 8.497339868016109 11.084370268537471 3.0940585398051685
    vertex 8.73763292348973 10.808062267047454 2.9553252795430756
  endloop
endfacet
facet normal -0.5 0.0 -0.8660254037844388
  outer loop
    vertex 2.8199664825478975e-15 0.0 8.000000000000005
    vertex 8.73763292348973 10.808062267047454 2.9553252795430756
    vertex 9.03167093587454 10.61298285228794 2.785562353940723
  endloop
endfacet
facet normal -0.5 0.0 -0.8660254037844388
  outer loop
    vertex 2.8199664825478975e-15 0.0 8.000000000000005
    vertex 9.03167093587454 10.61298285228794 2.785562353940723
    vertex 9.3594157005473 10.512426363990782 2.5963388258314146
  endloop
endfacet
facet normal -0.5 0.0 -0.8660254037844388
  outer loop
    vertex 2.8199664825478975e-15 0.0 8.000000000000005
    vertex 9.3594157005473 10.512426363990782 2.5963388258314146
    vertex 13.856406460551039 0.0 -2.8199664825478975e-15
  endloop
endfacet
facet normal 0.0 1.0 0.0
  outer loop
    vertex 1.6919798895287383e-14 237.99999999999997 7.9999999999999964
    vertex 14.956406460551047 237.99999999999997 1.905255888325778
    vertex 13.856406460551039 237.99999999999997 -2.8199664825478975e-15
  endloop
endfacet
facet normal 0.0 1.0 0.0
  outer loop
    vertex 14.956406460551047 237.99999999999997 1.905255888325778
    vertex 1.6919798895287383e-14 237.99999999999997 7.9999999999999964
    vertex 3.6185692077290628 237.99999999999997 7.314548261907483
  endloop
endfacet
facet normal 0.0 1.0 0.0
  outer loop
    vertex 14.956406460551047 237.99999999999997 1.905255888325778
    vertex 3.6185692077290628 237.99999999999997 7.314548261907483
    vertex 6.29615242270666 237.99999999999997 6.905255888325778
  endloop
endfacet
facet normal 0.0 1.0 0.0
  outer loop
    vertex 6.29615242270666 237.99999999999997 6.905255888325778
    vertex 3.6185692077290628 237.99999999999997 7.314548261907483
    vertex 4.1925999177651985 237.99999999999997 7.296472160081419
  endloop
endfacet
facet normal 0.0 1.0 0.0
  outer loop
    vertex 6.29615242270666 237.99999999999997 6.905255888325778
    vertex 4.1925999177651985 237.99999999999997 7.296472160081419
    vertex 4.751749445085946 237.99999999999997 7.427582066720068
  endloop
endfacet
facet normal 0.0 1.0 0.0
  outer loop
    vertex 6.29615242270666 237.99999999999997 6.905255888325778
    vertex 4.751749445085946 237.99999999999997 7.427582066720068
    vertex 5.2579126734426875 237.99999999999997 7.69894305835538
  endloop
endfacet
facet normal 0.0 1.0 0.0
  outer loop
    vertex 6.29615242270666 237.99999999999997 6.905255888325778
    vertex 5.2579126734426875 237.99999999999997 7.69894305835538
    vertex 5.676595415297203 237.99999999999997 8.092062331852649
  endloop
endfacet
facet normal 0.0 1.0 0.0
  outer loop
    vertex 6.29615242270666 237.99999999999997 6.905255888325778
    vertex 5.676595415297203 237.99999999999997 8.092062331852649
    vertex 8.596152422706655 237.99999999999997 10.888972745734188
  endloop
endfacet
facet normal 0.0 1.0 0.0
  outer loop
    vertex 8.596152422706655 237.99999999999997 10.888972745734188
    vertex 5.676595415297203 237.99999999999997 8.092062331852649
    vertex 5.979265133698022 237.99999999999997 8.580149458383325
  endloop
endfacet
facet normal 0.0 1.0 0.0
  outer loop
    vertex 3.6185692077290628 237.99999999999997 7.314548261907483
    vertex 1.6919798895287383e-14 237.99999999999997 7.9999999999999964
    vertex 3.0687765592359013 237.99999999999997 7.4805785157309685
  endloop
endfacet
facet normal 0.0 1.0 0.0
  outer loop
    vertex 3.0687765592359013 237.99999999999997 7.4805785157309685
    vertex 1.6919798895287383e-14 237.99999999999997 7.9999999999999964
    vertex 2.5806894327052188 237.99999999999997 7.783248234131803
  endloop
endfacet
facet normal 0.0 1.0 0.0
  outer loop
    vertex 2.5806894327052188 237.99999999999997 7.783248234131803
    vertex 1.6919798895287383e-14 237.99999999999997 7.9999999999999964
    vertex 2.187570159207963 237.99999999999997 8.201930975986304
  endloop
endfacet
facet normal 0.0 1.0 0.0
  outer loop
    vertex 2.187570159207963 237.99999999999997 8.201930975986304
    vertex 1.6919798895287383e-14 237.99999999999997 7.9999999999999964
    vertex 1.9162091675726485 237.99999999999997 8.708094204343041
  endloop
endfacet
facet normal 0.0 1.0 0.0
  outer loop
    vertex 1.9162091675726485 237.99999999999997 8.708094204343041
    vertex 1.6919798895287383e-14 237.99999999999997 7.9999999999999964
    vertex 1.7850992609339988 237.99999999999997 9.267243731663799
  endloop
endfacet
facet normal 0.0 1.0 0.0
  outer loop
    vertex 1.7850992609339988 237.99999999999997 9.267243731663799
    vertex 1.6919798895287383e-14 237.99999999999997 7.9999999999999964
    vertex 1.8031753627600575 237.99999999999997 9.841274441699941
  endloop
endfacet
facet normal 0.0 1.0 0.0
  outer loop
    vertex 1.8031753627600575 237.99999999999997 9.841274441699941
    vertex 1.6919798895287383e-14 237.99999999999997 7.9999999999999964
    vertex 1.9692056165835492 237.99999999999997 10.391067090193093
  endloop
endfacet
facet normal 0.0 1.0 0.0
  outer loop
    vertex 8.596152422706655 237.99999999999997 10.888972745734188
    vertex 5.76090059107361 237.99999999999997 10.769285572590112
    vertex 3.400000000000008 237.99999999999997 13.888972745734197
  endloop
endfacet
facet normal 0.0 1.0 0.0
  outer loop
    vertex 5.76090059107361 237.99999999999997 10.769285572590112
    vertex 8.596152422706655 237.99999999999997 10.888972745734188
    vertex 6.032261582708923 237.99999999999997 10.263122344233375
  endloop
endfacet
facet normal 0.0 1.0 0.0
  outer loop
    vertex 6.032261582708923 237.99999999999997 10.263122344233375
    vertex 8.596152422706655 237.99999999999997 10.888972745734188
    vertex 6.163371489347573 237.99999999999997 9.703972816912618
  endloop
endfacet
facet normal 0.0 1.0 0.0
  outer loop
    vertex 6.163371489347573 237.99999999999997 9.703972816912618
    vertex 8.596152422706655 237.99999999999997 10.888972745734188
    vertex 6.145295387521513 237.99999999999997 9.129942106876474
  endloop
endfacet
facet normal 0.0 1.0 0.0
  outer loop
    vertex 6.145295387521513 237.99999999999997 9.129942106876474
    vertex 8.596152422706655 237.99999999999997 10.888972745734188
    vertex 5.979265133698022 237.99999999999997 8.580149458383325
  endloop
endfacet
facet normal 0.0 1.0 0.0
  outer loop
    vertex 3.400000000000008 237.99999999999997 13.888972745734197
    vertex 5.76090059107361 237.99999999999997 10.769285572590112
    vertex 5.367781317576353 237.99999999999997 11.187968314444614
  endloop
endfacet
facet normal 0.0 1.0 0.0
  outer loop
    vertex 3.400000000000008 237.99999999999997 13.888972745734197
    vertex 5.367781317576353 237.99999999999997 11.187968314444614
    vertex 4.8796941910456715 237.99999999999997 11.490638032845448
  endloop
endfacet
facet normal 0.0 1.0 0.0
  outer loop
    vertex 3.400000000000008 237.99999999999997 13.888972745734197
    vertex 4.8796941910456715 237.99999999999997 11.490638032845448
    vertex 4.329901542552507 237.99999999999997 11.656668286668936
  endloop
endfacet
facet normal 0.0 1.0 0.0
  outer loop
    vertex 3.400000000000008 237.99999999999997 13.888972745734197
    vertex 4.329901542552507 237.99999999999997 11.656668286668936
    vertex 3.7558708325163743 237.99999999999997 11.674744388494997
  endloop
endfacet
facet normal 0.0 1.0 0.0
  outer loop
    vertex 3.400000000000008 237.99999999999997 13.888972745734197
    vertex 3.7558708325163743 237.99999999999997 11.674744388494997
    vertex 3.1967213051956267 237.99999999999997 11.543634481856348
  endloop
endfacet
facet normal 0.0 1.0 0.0
  outer loop
    vertex 3.400000000000008 237.99999999999997 13.888972745734197
    vertex 3.1967213051956267 237.99999999999997 11.543634481856348
    vertex 2.6905580768388853 237.99999999999997 11.272273490221037
  endloop
endfacet
facet normal 0.0 1.0 0.0
  outer loop
    vertex 3.400000000000008 237.99999999999997 13.888972745734197
    vertex 2.6905580768388853 237.99999999999997 11.272273490221037
    vertex 2.2718753349843706 237.99999999999997 10.879154216723768
  endloop
endfacet
facet normal 0.0 1.0 0.0
  outer loop
    vertex 3.400000000000008 237.99999999999997 13.888972745734197
    vertex 2.2718753349843706 237.99999999999997 10.879154216723768
    vertex 1.9692056165835492 237.99999999999997 10.391067090193093
  endloop
endfacet
facet normal 0.0 1.0 0.0
  outer loop
    vertex 3.400000000000008 237.99999999999997 13.888972745734197
    vertex 1.9692056165835492 237.99999999999997 10.391067090193093
    vertex 1.6919798895287383e-14 237.99999999999997 7.9999999999999964
  endloop
endfacet
facet normal -0.0 -1.0 0.0
  outer loop
    vertex 8.596152422706655 0.0 10.888972745734188
    vertex 6.163371489347573 0.0 9.703972816912618
    vertex 6.29615242270666 0.0 6.905255888325778
  endloop
endfacet
facet normal -0.0 -1.0 0.0
  outer loop
    vertex 6.163371489347573 0.0 9.703972816912618
    vertex 8.596152422706655 0.0 10.888972745734188
    vertex 6.032261582708923 0.0 10.263122344233375
  endloop
endfacet
facet normal -0.0 -1.0 0.0
  outer loop
    vertex 6.032261582708923 0.0 10.263122344233375
    vertex 8.596152422706655 0.0 10.888972745734188
    vertex 5.76090059107361 0.0 10.769285572590112
  endloop
endfacet
facet normal -0.0 -1.0 0.0
  outer loop
    vertex 5.76090059107361 0.0 10.769285572590112
    vertex 8.596152422706655 0.0 10.888972745734188
    vertex 3.400000000000008 0.0 13.888972745734197
  endloop
endfacet
facet normal -0.0 -1.0 0.0
  outer loop
    vertex 6.29615242270666 0.0 6.905255888325778
    vertex 6.163371489347573 0.0 9.703972816912618
    vertex 6.145295387521513 0.0 9.129942106876474
  endloop
endfacet
facet normal -0.0 -1.0 0.0
  outer loop
    vertex 6.29615242270666 0.0 6.905255888325778
    vertex 6.145295387521513 0.0 9.129942106876474
    vertex 5.979265133698022 0.0 8.580149458383325
  endloop
endfacet
facet normal -0.0 -1.0 0.0
  outer loop
    vertex 5.76090059107361 0.0 10.769285572590112
    vertex 3.400000000000008 0.0 13.888972745734197
    vertex 5.367781317576353 0.0 11.187968314444614
  endloop
endfacet
facet normal -0.0 -1.0 0.0
  outer loop
    vertex 5.367781317576353 0.0 11.187968314444614
    vertex 3.400000000000008 0.0 13.888972745734197
    vertex 4.8796941910456715 0.0 11.490638032845448
  endloop
endfacet
facet normal -0.0 -1.0 0.0
  outer loop
    vertex 4.8796941910456715 0.0 11.490638032845448
    vertex 3.400000000000008 0.0 13.888972745734197
    vertex 4.329901542552507 0.0 11.656668286668936
  endloop
endfacet
facet normal -0.0 -1.0 0.0
  outer loop
    vertex 4.329901542552507 0.0 11.656668286668936
    vertex 3.400000000000008 0.0 13.888972745734197
    vertex 3.7558708325163743 0.0 11.674744388494997
  endloop
endfacet
facet normal -0.0 -1.0 0.0
  outer loop
    vertex 3.7558708325163743 0.0 11.674744388494997
    vertex 3.400000000000008 0.0 13.888972745734197
    vertex 3.1967213051956267 0.0 11.543634481856348
  endloop
endfacet
facet normal -0.0 -1.0 0.0
  outer loop
    vertex 3.1967213051956267 0.0 11.543634481856348
    vertex 3.400000000000008 0.0 13.888972745734197
    vertex 2.6905580768388853 0.0 11.272273490221037
  endloop
endfacet
facet normal -0.0 -1.0 0.0
  outer loop
    vertex 2.6905580768388853 0.0 11.272273490221037
    vertex 3.400000000000008 0.0 13.888972745734197
    vertex 2.2718753349843706 0.0 10.879154216723768
  endloop
endfacet
facet normal -0.0 -1.0 0.0
  outer loop
    vertex 2.2718753349843706 0.0 10.879154216723768
    vertex 3.400000000000008 0.0 13.888972745734197
    vertex 1.9692056165835492 0.0 10.391067090193093
  endloop
endfacet
facet normal -0.0 -1.0 0.0
  outer loop
    vertex 6.29615242270666 0.0 6.905255888325778
    vertex 13.856406460551039 0.0 -2.8199664825478975e-15
    vertex 14.956406460551047 0.0 1.905255888325778
  endloop
endfacet
facet normal -0.0 -1.0 0.0
  outer loop
    vertex 13.856406460551039 0.0 -2.8199664825478975e-15
    vertex 6.29615242270666 0.0 6.905255888325778
    vertex 3.6185692077290628 0.0 7.314548261907483
  endloop
endfacet
facet normal -0.0 -1.0 0.0
  outer loop
    vertex 13.856406460551039 0.0 -2.8199664825478975e-15
    vertex 3.6185692077290628 0.0 7.314548261907483
    vertex 2.8199664825478975e-15 0.0 8.000000000000005
  endloop
endfacet
facet normal -0.0 -1.0 0.0
  outer loop
    vertex 3.6185692077290628 0.0 7.314548261907483
    vertex 6.29615242270666 0.0 6.905255888325778
    vertex 4.1925999177651985 0.0 7.296472160081419
  endloop
endfacet
facet normal -0.0 -1.0 0.0
  outer loop
    vertex 4.1925999177651985 0.0 7.296472160081419
    vertex 6.29615242270666 0.0 6.905255888325778
    vertex 4.751749445085946 0.0 7.427582066720068
  endloop
endfacet
facet normal -0.0 -1.0 0.0
  outer loop
    vertex 4.751749445085946 0.0 7.427582066720068
    vertex 6.29615242270666 0.0 6.905255888325778
    vertex 5.2579126734426875 0.0 7.69894305835538
  endloop
endfacet
facet normal -0.0 -1.0 0.0
  outer loop
    vertex 5.2579126734426875 0.0 7.69894305835538
    vertex 6.29615242270666 0.0 6.905255888325778
    vertex 5.676595415297203 0.0 8.092062331852649
  endloop
endfacet
facet normal -0.0 -1.0 0.0
  outer loop
    vertex 5.676595415297203 0.0 8.092062331852649
    vertex 6.29615242270666 0.0 6.905255888325778
    vertex 5.979265133698022 0.0 8.580149458383325
  endloop
endfacet
facet normal -0.0 -1.0 0.0
  outer loop
    vertex 2.8199664825478975e-15 0.0 8.000000000000005
    vertex 3.6185692077290628 0.0 7.314548261907483
    vertex 3.0687765592359013 0.0 7.4805785157309685
  endloop
endfacet
facet normal -0.0 -1.0 0.0
  outer loop
    vertex 2.8199664825478975e-15 0.0 8.000000000000005
    vertex 3.0687765592359013 0.0 7.4805785157309685
    vertex 2.5806894327052188 0.0 7.783248234131803
  endloop
endfacet
facet normal -0.0 -1.0 0.0
  outer loop
    vertex 2.8199664825478975e-15 0.0 8.000000000000005
    vertex 2.5806894327052188 0.0 7.783248234131803
    vertex 2.187570159207963 0.0 8.201930975986304
  endloop
endfacet
facet normal -0.0 -1.0 0.0
  outer loop
    vertex 2.8199664825478975e-15 0.0 8.000000000000005
    vertex 2.187570159207963 0.0 8.201930975986304
    vertex 1.9162091675726485 0.0 8.708094204343041
  endloop
endfacet
facet normal -0.0 -1.0 0.0
  outer loop
    vertex 2.8199664825478975e-15 0.0 8.000000000000005
    vertex 1.9162091675726485 0.0 8.708094204343041
    vertex 1.7850992609339988 0.0 9.267243731663799
  endloop
endfacet
facet normal -0.0 -1.0 0.0
  outer loop
    vertex 2.8199664825478975e-15 0.0 8.000000000000005
    vertex 1.7850992609339988 0.0 9.267243731663799
    vertex 1.8031753627600575 0.0 9.841274441699941
  endloop
endfacet
facet normal -0.0 -1.0 0.0
  outer loop
    vertex 2.8199664825478975e-15 0.0 8.000000000000005
    vertex 1.8031753627600575 0.0 9.841274441699941
    vertex 1.9692056165835492 0.0 10.391067090193093
  endloop
endfacet
facet normal -0.0 -1.0 0.0
  outer loop
    vertex 2.8199664825478975e-15 0.0 8.000000000000005
    vertex 1.9692056165835492 0.0 10.391067090193093
    vertex 3.400000000000008 0.0 13.888972745734197
  endloop
endfacet
facet normal -0.8660254037844393 3.6782171511494306e-17 0.49999999999999883
  outer loop
    vertex 1.6919798895287383e-14 237.99999999999997 7.9999999999999964
    vertex 3.400000000000008 0.0 13.888972745734197
    vertex 3.400000000000008 237.99999999999997 13.888972745734197
  endloop
endfacet
facet normal -0.8660254037844393 3.6782171511494306e-17 0.49999999999999883
  outer loop
    vertex 3.400000000000008 0.0 13.888972745734197
    vertex 1.6919798895287383e-14 237.99999999999997 7.9999999999999964
    vertex 2.8199664825478975e-15 0.0 8.000000000000005
  endloop
endfacet
endsolid Untitled-5b0d728a
