solid Untitled-5b0d7273
facet normal 3.961399565083887e-11 0.999999999989722 4.533908376538573e-06
  outer loop
    vertex 4.023456121515778e-05 235.3371487989344 3.000986002934257
    vertex 11.885410921943752 235.33710188670872 10.000998447102155
    vertex 11.88539944698338 235.33714911038118 3.0009685831846884
  endloop
endfacet
facet normal 3.961399565083887e-11 0.999999999989722 4.533908376538573e-06
  outer loop
    vertex 11.885410921943752 235.33710188670872 10.000998447102155
    vertex 4.023456121515778e-05 235.3371487989344 3.000986002934257
    vertex 5.1709961861590155e-05 235.33710157528336 10.001055618493409
  endloop
endfacet
facet normal 0.9999999999742344 1.1885767682419613e-06 -7.079466451590275e-06
  outer loop
    vertex 11.885359211985634 1.78222340032917 2.9998905957770643
    vertex 11.885399820058675 1.7821984634174917 8.499900726657827
    vertex 11.885359226208779 3.17380552975699e-05 2.999865883482569
  endloop
endfacet
facet normal 0.9999999999742344 1.1885767682419613e-06 -7.079466451590275e-06
  outer loop
    vertex 11.885410909297127 0.0 9.99991576594871
    vertex 11.885399820058675 1.7821984634174917 8.499900726657827
    vertex 11.885405373107615 2.882198578874379 9.999929085046038
  endloop
endfacet
facet normal 0.9999999999742344 1.1885767682419613e-06 -7.079466451590275e-06
  outer loop
    vertex 11.885399820058675 1.7821984634174917 8.499900726657827
    vertex 11.885410909297127 0.0 9.99991576594871
    vertex 11.885359226208779 3.17380552975699e-05 2.999865883482569
  endloop
endfacet
facet normal 0.9999999999742344 1.1885767682419613e-06 -7.079466451590275e-06
  outer loop
    vertex 11.885405373107615 2.882198578874379 9.999929085046038
    vertex 11.885399820058675 1.7821984634174917 8.499900726657827
    vertex 11.885399837723487 2.8821984634062265 8.4999057043174
  endloop
endfacet
facet normal -1.4464693238185825e-09 -0.9999999999897216 -4.533975580290444e-06
  outer loop
    vertex 11.885410909297127 0.0 9.99991576594871
    vertex 1.868112740055494e-08 3.1967981253444575e-05 2.999955361169793
    vertex 11.885359226208779 3.17380552975699e-05 2.999865883482569
  endloop
endfacet
facet normal -1.4464693238185825e-09 -0.9999999999897216 -4.533975580290444e-06
  outer loop
    vertex 1.868112740055494e-08 3.1967981253444575e-05 2.999955361169793
    vertex 11.885410909297127 0.0 9.99991576594871
    vertex 5.1701769475442916e-05 2.2992595587467689e-07 10.000005243635927
  endloop
endfacet
facet normal -7.383245711888059e-06 4.533975589814816e-06 -0.9999999999624654
  outer loop
    vertex 11.885359211985634 1.78222340032917 2.9998905957770643
    vertex 1.868112740055494e-08 3.1967981253444575e-05 2.999955361169793
    vertex 0.0 1.7822236197648336 2.9999468292812934
  endloop
endfacet
facet normal -7.383245711888059e-06 4.533975589814816e-06 -0.9999999999624654
  outer loop
    vertex 1.868112740055494e-08 3.1967981253444575e-05 2.999955361169793
    vertex 11.885359211985634 1.78222340032917 2.9998905957770643
    vertex 11.885359226208779 3.17380552975699e-05 2.999865883482569
  endloop
endfacet
facet normal -1.3739990532929584e-06 6.7441979238933054e-06 -0.9999999999763141
  outer loop
    vertex 4.0657048458214716e-05 7.882198797985625 8.499967272220362
    vertex 9.450048856524514 1.7821986627739055 8.499915589268044
    vertex 4.060763276427792e-05 1.7821986828317404 8.499917208520372
  endloop
endfacet
facet normal -1.3739990532929584e-06 6.7441979238933054e-06 -0.9999999999763141
  outer loop
    vertex 9.450048856524514 1.7821986627739055 8.499915589268044
    vertex 4.0657048458214716e-05 7.882198797985625 8.499967272220362
    vertex 9.450048905846991 7.8821986627126615 8.499942922866866
  endloop
endfacet
facet normal -1.3739990532929584e-06 6.7441979238933054e-06 -0.9999999999763141
  outer loop
    vertex 9.450048856524514 1.7821986627739055 8.499915589268044
    vertex 9.450048905846991 7.8821986627126615 8.499942922866866
    vertex 9.450048874189326 2.8821986627626406 8.499920566927617
  endloop
endfacet
facet normal -7.271742296013666e-08 7.349563939184866e-06 -0.9999999999729894
  outer loop
    vertex 11.88539944698338 235.33714911038118 3.0009685831846884
    vertex 4.025265037519432e-05 233.53982068937881 3.0009722721575467
    vertex 4.023456121515778e-05 235.3371487989344 3.000986002934257
  endloop
endfacet
facet normal -7.271742296013666e-08 7.349563939184866e-06 -0.9999999999729894
  outer loop
    vertex 4.025265037519432e-05 233.53982068937881 3.0009722721575467
    vertex 11.88539944698338 235.33714911038118 3.0009685831846884
    vertex 11.88539946507254 233.5398210010272 3.000954852407978
  endloop
endfacet
facet normal -6.331533675707373e-09 -0.9999999999900042 -4.471187850285368e-06
  outer loop
    vertex 9.450048905846991 7.8821986627126615 8.499942922866866
    vertex 3.6228487412159895e-05 7.882209975955281 5.999967272249272
    vertex 9.450044477285946 7.882209840682318 5.999942922895777
  endloop
endfacet
facet normal -6.331533675707373e-09 -0.9999999999900042 -4.471187850285368e-06
  outer loop
    vertex 3.6228487412159895e-05 7.882209975955281 5.999967272249272
    vertex 9.450048905846991 7.8821986627126615 8.499942922866866
    vertex 4.0657048458214716e-05 7.882198797985625 8.499967272220362
  endloop
endfacet
facet normal 5.17027422695869e-09 0.9999999999900042 4.471187852342451e-06
  outer loop
    vertex 3.618004020751186e-05 227.43978968034193 6.000951101532902
    vertex 9.4500490458387 227.43977815800184 8.75151279923396
    vertex 9.450044428867391 227.43978955089452 6.000922459982916
  endloop
endfacet
facet normal 5.17027422695869e-09 0.9999999999900042 4.471187852342451e-06
  outer loop
    vertex 9.4500490458387 227.43977815800184 8.75151279923396
    vertex 3.618004020751186e-05 227.43978968034193 6.000951101532902
    vertex 4.079701151624704e-05 227.4397782874493 8.751541440783946
  endloop
endfacet
facet normal -7.518654169101194e-07 8.576667787246954e-07 -0.9999999999993496
  outer loop
    vertex 4.084100570054261e-05 233.5397800519269 8.751552723769594
    vertex 9.4500490458387 227.43977815800184 8.75151279923396
    vertex 4.079701151624704e-05 227.4397782874493 8.751541440783946
  endloop
endfacet
facet normal -7.518654169101194e-07 8.576667787246954e-07 -0.9999999999993496
  outer loop
    vertex 9.4500490458387 227.43977815800184 8.75151279923396
    vertex 4.084100570054261e-05 233.5397800519269 8.751552723769594
    vertex 9.450049021792553 233.53977815792214 8.751543239693293
  endloop
endfacet
facet normal -7.518654169101194e-07 8.576667787246954e-07 -0.9999999999993496
  outer loop
    vertex 9.4500490458387 227.43977815800184 8.75151279923396
    vertex 9.450049021792553 233.53977815792214 8.751543239693293
    vertex 9.450049071690032 232.43977815795188 8.751535155173222
  endloop
endfacet
facet normal 0.9999999999956801 -2.076463677857529e-06 -2.080413857771548e-06
  outer loop
    vertex 11.885399985323014 233.53977860489485 8.751538789933742
    vertex 11.88539984681023 232.43977881984765 9.999928147159007
    vertex 11.885400035220492 232.4397786049246 8.75153070541367
  endloop
endfacet
facet normal 0.9999999999956801 -2.076463677857529e-06 -2.080413857771548e-06
  outer loop
    vertex 11.88539984681023 232.43977881984765 9.999928147159007
    vertex 11.885399985323014 233.53977860489485 8.751538789933742
    vertex 11.885410921943752 235.33710188670872 10.000998447102155
  endloop
endfacet
facet normal 0.9999999999956801 -2.076463677857529e-06 -2.080413857771548e-06
  outer loop
    vertex 11.885410921943752 235.33710188670872 10.000998447102155
    vertex 11.885399985323014 233.53977860489485 8.751538789933742
    vertex 11.88539946507254 233.5398210010272 3.000954852407978
  endloop
endfacet
facet normal 0.9999999999956801 -2.076463677857529e-06 -2.080413857771548e-06
  outer loop
    vertex 11.885410921943752 235.33710188670872 10.000998447102155
    vertex 11.88539946507254 233.5398210010272 3.000954852407978
    vertex 11.88539944698338 235.33714911038118 3.0009685831846884
  endloop
endfacet
facet normal 1.2021154668830584e-08 -1.0 0.0
  outer loop
    vertex 11.88539984681023 232.43977881984765 9.999928147159007
    vertex 9.450049071690032 232.43977815795188 8.751535155173222
    vertex 11.885400035220492 232.4397786049246 8.75153070541367
  endloop
endfacet
facet normal 1.2021154668830584e-08 -1.0 0.0
  outer loop
    vertex 9.450049071690032 232.43977815795188 8.751535155173222
    vertex 11.88539984681023 232.43977881984765 9.999928147159007
    vertex 9.45004888327977 232.43977837287494 9.999932596918558
  endloop
endfacet
facet normal 5.815259850475276e-08 0.9999999999999976 -3.8489291916458704e-08
  outer loop
    vertex 9.450048874189326 2.8821986627626406 8.499920566927617
    vertex 11.885405373107615 2.882198578874379 9.999929085046038
    vertex 11.885399837723487 2.8821984634062265 8.4999057043174
  endloop
endfacet
facet normal 5.815259850475276e-08 0.9999999999999976 -3.8489291916458704e-08
  outer loop
    vertex 11.885405373107615 2.882198578874379 9.999929085046038
    vertex 9.450048874189326 2.8821986627626406 8.499920566927617
    vertex 9.45005440957341 2.882198662762646 9.999932596918558
  endloop
endfacet
facet normal -3.2434576732943647e-06 1.2973830688896758e-06 -0.9999999999938984
  outer loop
    vertex 9.450035968445686 22.8822177601533 0.0
    vertex 1.6765534817153593e-05 17.882217760153296 1.2081910989314436e-05
    vertex 1.676441481670565e-05 22.882217759653837 2.5055741681923038e-05
  endloop
endfacet
facet normal -3.2434576732943647e-06 1.2973830688896758e-06 -0.9999999999938984
  outer loop
    vertex 1.6765534817153593e-05 17.882217760153296 1.2081910989314436e-05
    vertex 9.450035968445686 22.8822177601533 0.0
    vertex 9.450035968445686 17.882217760153296 0.0
  endloop
endfacet
facet normal -4.0179268354090366e-11 0.9999999999991585 1.2973618277340879e-06
  outer loop
    vertex 1.676441481670565e-05 22.882217759653837 2.5055741681923038e-05
    vertex 9.450039211903274 22.882215165387162 1.999999999989489
    vertex 9.450035968445686 22.8822177601533 0.0
  endloop
endfacet
facet normal -4.0179268354090366e-11 0.9999999999991585 1.2973618277340879e-06
  outer loop
    vertex 9.450039211903274 22.882215165387162 1.999999999989489
    vertex 1.676441481670565e-05 22.882217759653837 2.5055741681923038e-05
    vertex 2.000020008992492 22.882215165387162 2.000012081900473
  endloop
endfacet
facet normal -4.0179268354090366e-11 0.9999999999991585 1.2973618277340879e-06
  outer loop
    vertex 2.000020008992492 22.882215165387162 2.000012081900473
    vertex 1.676441481670565e-05 22.882217759653837 2.5055741681923038e-05
    vertex 3.622516088945815e-05 22.88220997535543 6.000025055705073
  endloop
endfacet
facet normal -4.0179268354090366e-11 0.9999999999991585 1.2973618277340879e-06
  outer loop
    vertex 2.000020008992492 22.882215165387162 2.000012081900473
    vertex 3.622516088945815e-05 22.88220997535543 6.000025055705073
    vertex 2.000036226280886 22.88220997585489 6.000012081874381
  endloop
endfacet
facet normal 0.9999999999917812 -3.8203781585680235e-23 -4.054322098483229e-06
  outer loop
    vertex 2.000020008992492 17.882215165387162 2.000012081900473
    vertex 2.000036226280886 22.88220997585489 6.000012081874381
    vertex 2.000036226280886 17.882209975854888 6.000012081874381
  endloop
endfacet
facet normal 0.9999999999917812 -3.8203781585680235e-23 -4.054322098483229e-06
  outer loop
    vertex 2.000036226280886 22.88220997585489 6.000012081874381
    vertex 2.000020008992492 17.882215165387162 2.000012081900473
    vertex 2.000020008992492 22.882215165387162 2.000012081900473
  endloop
endfacet
facet normal -1.7385256189477494e-12 -0.9999999999991585 -1.2973828845390338e-06
  outer loop
    vertex 9.450039211903274 17.882215165387162 1.999999999989489
    vertex 1.6765534817153593e-05 17.882217760153296 1.2081910989314436e-05
    vertex 9.450035968445686 17.882217760153296 0.0
  endloop
endfacet
facet normal -1.7385256189477494e-12 -0.9999999999991585 -1.2973828845390338e-06
  outer loop
    vertex 1.6765534817153593e-05 17.882217760153296 1.2081910989314436e-05
    vertex 9.450039211903274 17.882215165387162 1.999999999989489
    vertex 2.000020008992492 17.882215165387162 2.000012081900473
  endloop
endfacet
facet normal -1.7385256189477494e-12 -0.9999999999991585 -1.2973828845390338e-06
  outer loop
    vertex 1.6765534817153593e-05 17.882217760153296 1.2081910989314436e-05
    vertex 2.000020008992492 17.882215165387162 2.000012081900473
    vertex 3.622628088990609e-05 17.882209975854888 6.000012081874381
  endloop
endfacet
facet normal -1.7385256189477494e-12 -0.9999999999991585 -1.2973828845390338e-06
  outer loop
    vertex 3.622628088990609e-05 17.882209975854888 6.000012081874381
    vertex 2.000020008992492 17.882215165387162 2.000012081900473
    vertex 2.000036226280886 17.882209975854888 6.000012081874381
  endloop
endfacet
facet normal 0.999999999998685 1.421903780916298e-23 -1.6217288394024363e-06
  outer loop
    vertex 9.450035968445686 17.882217760153296 0.0
    vertex 9.450039211903274 22.882215165387162 1.999999999989489
    vertex 9.450039211903274 17.882215165387162 1.999999999989489
  endloop
endfacet
facet normal 0.999999999998685 1.421903780916298e-23 -1.6217288394024363e-06
  outer loop
    vertex 9.450039211903274 22.882215165387162 1.999999999989489
    vertex 9.450035968445686 17.882217760153296 0.0
    vertex 9.450035968445686 22.8822177601533 0.0
  endloop
endfacet
facet normal 1.621728838043688e-06 2.200973626778845e-35 0.999999999998685
  outer loop
    vertex 9.450039211903274 17.882215165387162 1.999999999989489
    vertex 2.000020008992492 22.882215165387162 2.000012081900473
    vertex 2.000020008992492 17.882215165387162 2.000012081900473
  endloop
endfacet
facet normal 1.621728838043688e-06 2.200973626778845e-35 0.999999999998685
  outer loop
    vertex 2.000020008992492 22.882215165387162 2.000012081900473
    vertex 9.450039211903274 17.882215165387162 1.999999999989489
    vertex 9.450039211903274 22.882215165387162 1.999999999989489
  endloop
endfacet
facet normal -1.6669233593601952e-07 4.518644417340245e-06 -0.9999999999897771
  outer loop
    vertex 9.450071615805776 109.475406107982 0.00044042921175071467
    vertex 3.520480348342403e-05 104.4754061068755 0.0003841072832933445
    vertex 3.520370067349176e-05 109.47540610682447 0.0004067005053802308
  endloop
endfacet
facet normal -1.6669233593601952e-07 4.518644417340245e-06 -0.9999999999897771
  outer loop
    vertex 3.520480348342403e-05 104.4754061068755 0.0003841072832933445
    vertex 9.450071615805776 109.475406107982 0.00044042921175071467
    vertex 9.450071616908586 104.47540610803308 0.0004178359896638284
  endloop
endfacet
facet normal 0.0 0.999999999989791 4.518644417340308e-06
  outer loop
    vertex 3.520370067349176e-05 109.47540610682447 0.0004067005053802308
    vertex 2.0000261512734294 109.47539707152295 1.9999668954652552
    vertex 9.450071615805776 109.475406107982 0.00044042921175071467
  endloop
endfacet
facet normal 0.0 0.999999999989791 4.518644417340308e-06
  outer loop
    vertex 2.0000261512734294 109.47539707152295 1.9999668954652552
    vertex 3.520370067349176e-05 109.47540610682447 0.0004067005053802308
    vertex 3.620385471165832e-05 109.47537899495796 6.0004067004440405
  endloop
endfacet
facet normal 0.0 0.999999999989791 4.518644417340308e-06
  outer loop
    vertex 9.450071615805776 109.475406107982 0.00044042921175071467
    vertex 2.0000261512734294 109.47539707152295 1.9999668954652552
    vertex 9.450062563583106 109.47539707268048 1.9999554377274633
  endloop
endfacet
facet normal 0.0 0.999999999989791 4.518644417340308e-06
  outer loop
    vertex 2.0000261512734294 109.47539707152295 1.9999668954652552
    vertex 3.620385471165832e-05 109.47537899495796 6.0004067004440405
    vertex 2.000036203854708 109.47537899495796 6.0004067004440405
  endloop
endfacet
facet normal -0.0 -0.999999999989791 -4.518644417340308e-06
  outer loop
    vertex 3.520480348342403e-05 104.4754061068755 0.0003841072832933445
    vertex 2.000026151826684 104.47539707147192 1.9999668954652552
    vertex 3.620495752159058e-05 104.475378995009 6.0003841072219535
  endloop
endfacet
facet normal -0.0 -0.999999999989791 -4.518644417340308e-06
  outer loop
    vertex 2.000026151826684 104.47539707147192 1.9999668954652552
    vertex 3.520480348342403e-05 104.4754061068755 0.0003841072832933445
    vertex 9.450071616908586 104.47540610803308 0.0004178359896638284
  endloop
endfacet
facet normal -0.0 -0.999999999989791 -4.518644417340308e-06
  outer loop
    vertex 2.000026151826684 104.47539707147192 1.9999668954652552
    vertex 9.450071616908586 104.47540610803308 0.0004178359896638284
    vertex 9.450062564136362 104.47539707262946 1.9999554377274633
  endloop
endfacet
facet normal -0.0 -0.999999999989791 -4.518644417340308e-06
  outer loop
    vertex 3.620495752159058e-05 104.475378995009 6.0003841072219535
    vertex 2.000026151826684 104.47539707147192 1.9999668954652552
    vertex 2.0000362049575178 104.475378995009 6.0003841072219535
  endloop
endfacet
facet normal 0.9999999999968427 1.7128403165542448e-10 -2.5129448085893575e-06
  outer loop
    vertex 2.000026151826684 104.47539707147192 1.9999668954652552
    vertex 2.000036203854708 109.47537899495796 6.0004067004440405
    vertex 2.0000362049575178 104.475378995009 6.0003841072219535
  endloop
endfacet
facet normal 0.9999999999968427 1.7128403165542448e-10 -2.5129448085893575e-06
  outer loop
    vertex 2.000036203854708 109.47537899495796 6.0004067004440405
    vertex 2.000026151826684 104.47539707147192 1.9999668954652552
    vertex 2.0000261512734294 109.47539707152295 1.9999668954652552
  endloop
endfacet
facet normal 0.9999999999897518 1.553778027399092e-10 4.527321007920338e-06
  outer loop
    vertex 9.450071616908586 104.47540610803308 0.0004178359896638284
    vertex 9.450062563583106 109.47539707268048 1.9999554377274633
    vertex 9.450062564136362 104.47539707262946 1.9999554377274633
  endloop
endfacet
facet normal 0.9999999999897518 1.553778027399092e-10 4.527321007920338e-06
  outer loop
    vertex 9.450062563583106 109.47539707268048 1.9999554377274633
    vertex 9.450071616908586 104.47540610803308 0.0004178359896638284
    vertex 9.450071615805776 109.475406107982 0.00044042921175071467
  endloop
endfacet
facet normal 1.8748846255329487e-06 1.3831025514056178e-16 0.9999999999982425
  outer loop
    vertex 2.000026151826684 104.47539707147192 1.9999668954652552
    vertex 9.450062563583106 109.47539707268048 1.9999554377274633
    vertex 2.0000261512734294 109.47539707152295 1.9999668954652552
  endloop
endfacet
facet normal 1.8748846255329487e-06 1.3831025514056178e-16 0.9999999999982425
  outer loop
    vertex 9.450062563583106 109.47539707268048 1.9999554377274633
    vertex 2.000026151826684 104.47539707147192 1.9999668954652552
    vertex 9.450062564136362 104.47539707262946 1.9999554377274633
  endloop
endfacet
facet normal 0.9999999999999962 5.132446100754836e-08 -7.038669550337936e-08
  outer loop
    vertex 9.450044428867391 227.43978955089452 6.000922459982916
    vertex 9.4500490458387 227.43977815800184 8.75151279923396
    vertex 9.450082845663232 74.47537899837862 6.000244335934146
  endloop
endfacet
facet normal 0.9999999999999962 5.132446100754836e-08 -7.038669550337936e-08
  outer loop
    vertex 9.450082845663232 74.47537899837862 6.000244335934146
    vertex 9.45004888327977 232.43977837287494 9.999932596918558
    vertex 9.45007783247973 74.4753789983779 9.99969453847028
  endloop
endfacet
facet normal 0.9999999999999962 5.132446100754836e-08 -7.038669550337936e-08
  outer loop
    vertex 9.45004888327977 232.43977837287494 9.999932596918558
    vertex 9.450082845663232 74.47537899837862 6.000244335934146
    vertex 9.4500490458387 227.43977815800184 8.75151279923396
  endloop
endfacet
facet normal 0.9999999999999962 5.132446100754836e-08 -7.038669550337936e-08
  outer loop
    vertex 9.45004888327977 232.43977837287494 9.999932596918558
    vertex 9.4500490458387 227.43977815800184 8.75151279923396
    vertex 9.450049071690032 232.43977815795188 8.751535155173222
  endloop
endfacet
facet normal 1.2096998170541651e-06 -0.9999999993187556 -3.6892077600445985e-05
  outer loop
    vertex 15.45038116462977 10.708839610640442 6.000210627714201
    vertex 9.450712042670666 10.708805018796047 9.998150047287192
    vertex 9.450381178860324 10.70880501879598 5.999798984493584
  endloop
endfacet
facet normal 1.2096998170541651e-06 -0.9999999993187556 -3.6892077600445985e-05
  outer loop
    vertex 9.450712042670666 10.708805018796047 9.998150047287192
    vertex 15.45038116462977 10.708839610640442 6.000210627714201
    vertex 13.950712007855286 10.70885516605684 9.998643452418882
  endloop
endfacet
facet normal 1.2096998170541651e-06 -0.9999999993187556 -3.6892077600445985e-05
  outer loop
    vertex 13.950712007855286 10.70885516605684 9.998643452418882
    vertex 15.45038116462977 10.708839610640442 6.000210627714201
    vertex 15.449257766384362 10.708154164573337 27.000022816976085
  endloop
endfacet
facet normal 1.2096998170541651e-06 -0.9999999993187556 -3.6892077600445985e-05
  outer loop
    vertex 13.950712007855286 10.70885516605684 9.998643452418882
    vertex 15.449257766384362 10.708154164573337 27.000022816976085
    vertex 13.949647533007242 10.708591695946245 21.999083280554338
  endloop
endfacet
facet normal 1.2096998170541651e-06 -0.9999999993187556 -3.6892077600445985e-05
  outer loop
    vertex 13.949647533007242 10.708591695946245 21.999083280554338
    vertex 15.449257766384362 10.708154164573337 27.000022816976085
    vertex 0.0010851792346617372 10.707865485768043 26.997985483180788
  endloop
endfacet
facet normal 1.2096998170541651e-06 -0.9999999993187556 -3.6892077600445985e-05
  outer loop
    vertex 1.5011363896273888 10.708511384684789 21.998644961708553
    vertex 0.0006964639092071678 10.708805018796047 9.99798556503672
    vertex 1.5006964629655986 10.708804193666815 9.997983472447789
  endloop
endfacet
facet normal 1.2096998170541651e-06 -0.9999999993187556 -3.6892077600445985e-05
  outer loop
    vertex 0.0006964639092071678 10.708805018796047 9.99798556503672
    vertex 1.5011363896273888 10.708511384684789 21.998644961708553
    vertex 0.0010851792346617372 10.707865485768043 26.997985483180788
  endloop
endfacet
facet normal 1.2096998170541651e-06 -0.9999999993187556 -3.6892077600445985e-05
  outer loop
    vertex 0.0010851792346617372 10.707865485768043 26.997985483180788
    vertex 1.5011363896273888 10.708511384684789 21.998644961708553
    vertex 13.949647533007242 10.708591695946245 21.999083280554338
  endloop
endfacet
facet normal 9.515221670614445e-06 4.3509358932050444e-06 -0.9999999999452651
  outer loop
    vertex 9.450044428867391 227.43978955089452 6.000922459982916
    vertex 3.620385471165832e-05 109.47537899495796 6.0004067004440405
    vertex 3.618004020751186e-05 227.43978968034193 6.000951101532902
  endloop
endfacet
facet normal 9.515221670614445e-06 4.3509358932050444e-06 -0.9999999999452651
  outer loop
    vertex 3.620385471165832e-05 109.47537899495796 6.0004067004440405
    vertex 9.450044428867391 227.43978955089452 6.000922459982916
    vertex 2.000036203854708 109.47537899495796 6.0004067004440405
  endloop
endfacet
facet normal 9.515221670614445e-06 4.3509358932050444e-06 -0.9999999999452651
  outer loop
    vertex 2.000036203854708 109.47537899495796 6.0004067004440405
    vertex 9.450044428867391 227.43978955089452 6.000922459982916
    vertex 2.0000362049575178 104.475378995009 6.0003841072219535
  endloop
endfacet
facet normal 9.515221670614445e-06 4.3509358932050444e-06 -0.9999999999452651
  outer loop
    vertex 2.0000362049575178 104.475378995009 6.0003841072219535
    vertex 9.450044428867391 227.43978955089452 6.000922459982916
    vertex 2.000036226280886 22.88220997585489 6.000012081874381
  endloop
endfacet
facet normal 9.515221670614445e-06 4.3509358932050444e-06 -0.9999999999452651
  outer loop
    vertex 2.000036226280886 22.88220997585489 6.000012081874381
    vertex 9.450044428867391 227.43978955089452 6.000922459982916
    vertex 2.000036226280886 17.882209975854888 6.000012081874381
  endloop
endfacet
facet normal 9.515221670614445e-06 4.3509358932050444e-06 -0.9999999999452651
  outer loop
    vertex 2.000036226280886 17.882209975854888 6.000012081874381
    vertex 3.6228487412159895e-05 7.882209975955281 5.999967272249272
    vertex 3.622628088990609e-05 17.882209975854888 6.000012081874381
  endloop
endfacet
facet normal 9.515221670614445e-06 4.3509358932050444e-06 -0.9999999999452651
  outer loop
    vertex 3.6228487412159895e-05 7.882209975955281 5.999967272249272
    vertex 2.000036226280886 17.882209975854888 6.000012081874381
    vertex 9.450044477285946 7.882209840682318 5.999942922895777
  endloop
endfacet
facet normal 9.515221670614445e-06 4.3509358932050444e-06 -0.9999999999452651
  outer loop
    vertex 9.450044477285946 7.882209840682318 5.999942922895777
    vertex 2.000036226280886 17.882209975854888 6.000012081874381
    vertex 9.450044428867391 227.43978955089452 6.000922459982916
  endloop
endfacet
facet normal 9.515221670614445e-06 4.3509358932050444e-06 -0.9999999999452651
  outer loop
    vertex 9.450044477285946 7.882209840682318 5.999942922895777
    vertex 9.450044428867391 227.43978955089452 6.000922459982916
    vertex 9.450082845663232 74.47537899837862 6.000244335934146
  endloop
endfacet
facet normal 9.515221670614445e-06 4.3509358932050444e-06 -0.9999999999452651
  outer loop
    vertex 9.450044477285946 7.882209840682318 5.999942922895777
    vertex 9.450082845663232 74.47537899837862 6.000244335934146
    vertex 9.450381178860324 10.70880501879598 5.999798984493584
  endloop
endfacet
facet normal 9.515221670614445e-06 4.3509358932050444e-06 -0.9999999999452651
  outer loop
    vertex 9.450381178860324 10.70880501879598 5.999798984493584
    vertex 9.450082845663232 74.47537899837862 6.000244335934146
    vertex 15.450082830809217 74.47540184111418 6.000665125239384
  endloop
endfacet
facet normal 9.515221670614445e-06 4.3509358932050444e-06 -0.9999999999452651
  outer loop
    vertex 9.450381178860324 10.70880501879598 5.999798984493584
    vertex 15.450082830809217 74.47540184111418 6.000665125239384
    vertex 15.45038116462977 10.708839610640442 6.000210627714201
  endloop
endfacet
facet normal 9.515221670614445e-06 4.3509358932050444e-06 -0.9999999999452651
  outer loop
    vertex 2.0000362049575178 104.475378995009 6.0003841072219535
    vertex 3.622516088945815e-05 22.88220997535543 6.000025055705073
    vertex 3.620495752159058e-05 104.475378995009 6.0003841072219535
  endloop
endfacet
facet normal 9.515221670614445e-06 4.3509358932050444e-06 -0.9999999999452651
  outer loop
    vertex 3.622516088945815e-05 22.88220997535543 6.000025055705073
    vertex 2.0000362049575178 104.475378995009 6.0003841072219535
    vertex 2.000036226280886 22.88220997585489 6.000012081874381
  endloop
endfacet
facet normal 0.9999999994739881 9.970147071931776e-06 -3.086454704459984e-05
  outer loop
    vertex 1.500885162107405 47.030779227598764 21.999391933466747
    vertex 1.5004670412513146 74.47506568964825 25.000231997051106
    vertex 1.5008266970140596 47.030736678680746 24.999391932595316
  endloop
endfacet
facet normal 0.9999999994739881 9.970147071931776e-06 -3.086454704459984e-05
  outer loop
    vertex 1.5004670412513146 74.47506568964825 25.000231997051106
    vertex 1.500885162107405 47.030779227598764 21.999391933466747
    vertex 1.5006075651317377 47.030885211177086 10.000231304749455
  endloop
endfacet
facet normal 0.9999999994739881 9.970147071931776e-06 -3.086454704459984e-05
  outer loop
    vertex 1.5004670412513146 74.47506568964825 25.000231997051106
    vertex 1.5006075651317377 47.030885211177086 10.000231304749455
    vertex 1.5000623675333098 74.47537817327795 9.9995705106525
  endloop
endfacet
facet normal 4.287647285141046e-05 2.3108552454286636e-05 -0.9999999988138015
  outer loop
    vertex 10.949396312420141 47.03080259322841 21.999829017543803
    vertex 1.5011363896273888 10.708511384684789 21.998644961708553
    vertex 1.500885162107405 47.030779227598764 21.999391933466747
  endloop
endfacet
facet normal 4.287647285141046e-05 2.3108552454286636e-05 -0.9999999988138015
  outer loop
    vertex 1.5011363896273888 10.708511384684789 21.998644961708553
    vertex 10.949396312420141 47.03080259322841 21.999829017543803
    vertex 13.949647533007242 10.708591695946245 21.999083280554338
  endloop
endfacet
facet normal 4.287647285141046e-05 2.3108552454286636e-05 -0.9999999988138015
  outer loop
    vertex 13.949647533007242 10.708591695946245 21.999083280554338
    vertex 10.949396312420141 47.03080259322841 21.999829017543803
    vertex 13.949396305722196 47.03082937655846 22.00002768887482
  endloop
endfacet
facet normal -2.0976458742357493e-05 -4.917947584469364e-06 0.999999999767901
  outer loop
    vertex 5.1709961861590155e-05 235.33710157528336 10.001055618493409
    vertex 9.45004888327977 232.43977837287494 9.999932596918558
    vertex 11.885410921943752 235.33710188670872 10.000998447102155
  endloop
endfacet
facet normal -2.0976458742357493e-05 -4.917947584469364e-06 0.999999999767901
  outer loop
    vertex 9.45004888327977 232.43977837287494 9.999932596918558
    vertex 5.1709961861590155e-05 235.33710157528336 10.001055618493409
    vertex 6.23684769184507e-05 74.4753789971572 9.99984031370347
  endloop
endfacet
facet normal -2.0976458742357493e-05 -4.917947584469364e-06 0.999999999767901
  outer loop
    vertex 9.45004888327977 232.43977837287494 9.999932596918558
    vertex 6.23684769184507e-05 74.4753789971572 9.99984031370347
    vertex 1.5000623675333098 74.47537817327795 9.9995705106525
  endloop
endfacet
facet normal -2.0976458742357493e-05 -4.917947584469364e-06 0.999999999767901
  outer loop
    vertex 9.45004888327977 232.43977837287494 9.999932596918558
    vertex 1.5000623675333098 74.47537817327795 9.9995705106525
    vertex 1.5006075651317377 47.030885211177086 10.000231304749455
  endloop
endfacet
facet normal -2.0976458742357493e-05 -4.917947584469364e-06 0.999999999767901
  outer loop
    vertex 9.45004888327977 232.43977837287494 9.999932596918558
    vertex 1.5006075651317377 47.030885211177086 10.000231304749455
    vertex 1.5006964629655986 10.708804193666815 9.997983472447789
  endloop
endfacet
facet normal -2.0976458742357493e-05 -4.917947584469364e-06 0.999999999767901
  outer loop
    vertex 11.885410921943752 235.33710188670872 10.000998447102155
    vertex 9.45004888327977 232.43977837287494 9.999932596918558
    vertex 11.88539984681023 232.43977881984765 9.999928147159007
  endloop
endfacet
facet normal -2.0976458742357493e-05 -4.917947584469364e-06 0.999999999767901
  outer loop
    vertex 11.885410909297127 0.0 9.99991576594871
    vertex 0.0006964639092071678 10.708805018796047 9.99798556503672
    vertex 5.1701769475442916e-05 2.2992595587467689e-07 10.000005243635927
  endloop
endfacet
facet normal -2.0976458742357493e-05 -4.917947584469364e-06 0.999999999767901
  outer loop
    vertex 0.0006964639092071678 10.708805018796047 9.99798556503672
    vertex 11.885410909297127 0.0 9.99991576594871
    vertex 1.5006964629655986 10.708804193666815 9.997983472447789
  endloop
endfacet
facet normal -2.0976458742357493e-05 -4.917947584469364e-06 0.999999999767901
  outer loop
    vertex 1.5006964629655986 10.708804193666815 9.997983472447789
    vertex 11.885410909297127 0.0 9.99991576594871
    vertex 9.45005440957341 2.882198662762646 9.999932596918558
  endloop
endfacet
facet normal -2.0976458742357493e-05 -4.917947584469364e-06 0.999999999767901
  outer loop
    vertex 1.5006964629655986 10.708804193666815 9.997983472447789
    vertex 9.45005440957341 2.882198662762646 9.999932596918558
    vertex 9.45004888327977 232.43977837287494 9.999932596918558
  endloop
endfacet
facet normal -2.0976458742357493e-05 -4.917947584469364e-06 0.999999999767901
  outer loop
    vertex 9.45005440957341 2.882198662762646 9.999932596918558
    vertex 11.885410909297127 0.0 9.99991576594871
    vertex 11.885405373107615 2.882198578874379 9.999929085046038
  endloop
endfacet
facet normal -2.0976458742357493e-05 -4.917947584469364e-06 0.999999999767901
  outer loop
    vertex 9.45005440957341 2.882198662762646 9.999932596918558
    vertex 9.45007783247973 74.4753789983779 9.99969453847028
    vertex 9.45004888327977 232.43977837287494 9.999932596918558
  endloop
endfacet
facet normal -2.0976458742357493e-05 -4.917947584469364e-06 0.999999999767901
  outer loop
    vertex 9.45007783247973 74.4753789983779 9.99969453847028
    vertex 9.45005440957341 2.882198662762646 9.999932596918558
    vertex 9.450712042670666 10.708805018796047 9.998150047287192
  endloop
endfacet
facet normal -2.0976458742357493e-05 -4.917947584469364e-06 0.999999999767901
  outer loop
    vertex 9.45007783247973 74.4753789983779 9.99969453847028
    vertex 9.450712042670666 10.708805018796047 9.998150047287192
    vertex 13.950077825901145 74.47542800416076 9.999951582585414
  endloop
endfacet
facet normal -2.0976458742357493e-05 -4.917947584469364e-06 0.999999999767901
  outer loop
    vertex 13.950077825901145 74.47542800416076 9.999951582585414
    vertex 9.450712042670666 10.708805018796047 9.998150047287192
    vertex 13.950712007855286 10.70885516605684 9.998643452418882
  endloop
endfacet
facet normal 0.9999999995394726 5.2155261482586736e-06 -2.9897376004446493e-05
  outer loop
    vertex 1.5006964629655986 10.708804193666815 9.997983472447789
    vertex 1.500885162107405 47.030779227598764 21.999391933466747
    vertex 1.5011363896273888 10.708511384684789 21.998644961708553
  endloop
endfacet
facet normal 0.9999999995394726 5.2155261482586736e-06 -2.9897376004446493e-05
  outer loop
    vertex 1.500885162107405 47.030779227598764 21.999391933466747
    vertex 1.5006964629655986 10.708804193666815 9.997983472447789
    vertex 1.5006075651317377 47.030885211177086 10.000231304749455
  endloop
endfacet
facet normal -0.999999999302603 -5.40826165199389e-07 3.734302541539734e-05
  outer loop
    vertex 0.0003400306408259723 74.47539025767061 26.999840263566888
    vertex 0.0006964639092071678 10.708805018796047 9.99798556503672
    vertex 0.0010851792346617372 10.707865485768043 26.997985483180788
  endloop
endfacet
facet normal -0.999999999302603 -5.40826165199389e-07 3.734302541539734e-05
  outer loop
    vertex 0.0006964639092071678 10.708805018796047 9.99798556503672
    vertex 0.0003400306408259723 74.47539025767061 26.999840263566888
    vertex 3.622628088990609e-05 17.882209975854888 6.000012081874381
  endloop
endfacet
facet normal -0.999999999302603 -5.40826165199389e-07 3.734302541539734e-05
  outer loop
    vertex 3.622628088990609e-05 17.882209975854888 6.000012081874381
    vertex 0.0003400306408259723 74.47539025767061 26.999840263566888
    vertex 3.622516088945815e-05 22.88220997535543 6.000025055705073
  endloop
endfacet
facet normal -0.999999999302603 -5.40826165199389e-07 3.734302541539734e-05
  outer loop
    vertex 3.622628088990609e-05 17.882209975854888 6.000012081874381
    vertex 3.622516088945815e-05 22.88220997535543 6.000025055705073
    vertex 1.6765534817153593e-05 17.882217760153296 1.2081910989314436e-05
  endloop
endfacet
facet normal -0.999999999302603 -5.40826165199389e-07 3.734302541539734e-05
  outer loop
    vertex 3.622516088945815e-05 22.88220997535543 6.000025055705073
    vertex 0.0003400306408259723 74.47539025767061 26.999840263566888
    vertex 0.0009298167034213378 47.030877839955345 10.000256939918591
  endloop
endfacet
facet normal -0.999999999302603 -5.40826165199389e-07 3.734302541539734e-05
  outer loop
    vertex 3.622516088945815e-05 22.88220997535543 6.000025055705073
    vertex 0.0009298167034213378 47.030877839955345 10.000256939918591
    vertex 0.014314034943341623 47.02840061381285 9.798635409883849
  endloop
endfacet
facet normal -0.999999999302603 -5.40826165199389e-07 3.734302541539734e-05
  outer loop
    vertex 0.0009298167034213378 47.030877839955345 10.000256939918591
    vertex 0.0003400306408259723 74.47539025767061 26.999840263566888
    vertex 0.0009337510817648109 51.721604907178026 10.0005652000582
  endloop
endfacet
facet normal -0.999999999302603 -5.40826165199389e-07 3.734302541539734e-05
  outer loop
    vertex 0.0009337510817648109 51.721604907178026 10.0005652000582
    vertex 0.0003400306408259723 74.47539025767061 26.999840263566888
    vertex 6.23684769184507e-05 74.4753789971572 9.99984031370347
  endloop
endfacet
facet normal -0.999999999302603 -5.40826165199389e-07 3.734302541539734e-05
  outer loop
    vertex 5.1701769475442916e-05 2.2992595587467689e-07 10.000005243635927
    vertex 4.060763276427792e-05 1.7821986828317404 8.499917208520372
    vertex 1.868112740055494e-08 3.1967981253444575e-05 2.999955361169793
  endloop
endfacet
facet normal -0.999999999302603 -5.40826165199389e-07 3.734302541539734e-05
  outer loop
    vertex 4.060763276427792e-05 1.7821986828317404 8.499917208520372
    vertex 5.1701769475442916e-05 2.2992595587467689e-07 10.000005243635927
    vertex 0.0006964639092071678 10.708805018796047 9.99798556503672
  endloop
endfacet
facet normal -0.999999999302603 -5.40826165199389e-07 3.734302541539734e-05
  outer loop
    vertex 4.060763276427792e-05 1.7821986828317404 8.499917208520372
    vertex 0.0006964639092071678 10.708805018796047 9.99798556503672
    vertex 4.0657048458214716e-05 7.882198797985625 8.499967272220362
  endloop
endfacet
facet normal -0.999999999302603 -5.40826165199389e-07 3.734302541539734e-05
  outer loop
    vertex 4.0657048458214716e-05 7.882198797985625 8.499967272220362
    vertex 0.0006964639092071678 10.708805018796047 9.99798556503672
    vertex 3.6228487412159895e-05 7.882209975955281 5.999967272249272
  endloop
endfacet
facet normal -0.999999999302603 -5.40826165199389e-07 3.734302541539734e-05
  outer loop
    vertex 3.6228487412159895e-05 7.882209975955281 5.999967272249272
    vertex 0.0006964639092071678 10.708805018796047 9.99798556503672
    vertex 3.622628088990609e-05 17.882209975854888 6.000012081874381
  endloop
endfacet
facet normal -0.999999999302603 -5.40826165199389e-07 3.734302541539734e-05
  outer loop
    vertex 0.014314034943341623 47.02840061381285 9.798635409883849
    vertex 3.620495752159058e-05 104.475378995009 6.0003841072219535
    vertex 3.622516088945815e-05 22.88220997535543 6.000025055705073
  endloop
endfacet
facet normal -0.999999999302603 -5.40826165199389e-07 3.734302541539734e-05
  outer loop
    vertex 3.620495752159058e-05 104.475378995009 6.0003841072219535
    vertex 0.014314034943341623 47.02840061381285 9.798635409883849
    vertex 0.021010113678976337 51.71911794948201 9.798355330063051
  endloop
endfacet
facet normal -0.999999999302603 -5.40826165199389e-07 3.734302541539734e-05
  outer loop
    vertex 3.620495752159058e-05 104.475378995009 6.0003841072219535
    vertex 0.021010113678976337 51.71911794948201 9.798355330063051
    vertex 0.0009337510817648109 51.721604907178026 10.0005652000582
  endloop
endfacet
facet normal -0.999999999302603 -5.40826165199389e-07 3.734302541539734e-05
  outer loop
    vertex 3.620495752159058e-05 104.475378995009 6.0003841072219535
    vertex 0.0009337510817648109 51.721604907178026 10.0005652000582
    vertex 6.23684769184507e-05 74.4753789971572 9.99984031370347
  endloop
endfacet
facet normal -0.999999999302603 -5.40826165199389e-07 3.734302541539734e-05
  outer loop
    vertex 3.620495752159058e-05 104.475378995009 6.0003841072219535
    vertex 6.23684769184507e-05 74.4753789971572 9.99984031370347
    vertex 5.1709961861590155e-05 235.33710157528336 10.001055618493409
  endloop
endfacet
facet normal -0.999999999302603 -5.40826165199389e-07 3.734302541539734e-05
  outer loop
    vertex 3.620495752159058e-05 104.475378995009 6.0003841072219535
    vertex 5.1709961861590155e-05 235.33710157528336 10.001055618493409
    vertex 3.620385471165832e-05 109.47537899495796 6.0004067004440405
  endloop
endfacet
facet normal -0.999999999302603 -5.40826165199389e-07 3.734302541539734e-05
  outer loop
    vertex 3.620495752159058e-05 104.475378995009 6.0003841072219535
    vertex 3.620385471165832e-05 109.47537899495796 6.0004067004440405
    vertex 3.520480348342403e-05 104.4754061068755 0.0003841072832933445
  endloop
endfacet
facet normal -0.999999999302603 -5.40826165199389e-07 3.734302541539734e-05
  outer loop
    vertex 3.620385471165832e-05 109.47537899495796 6.0004067004440405
    vertex 5.1709961861590155e-05 235.33710157528336 10.001055618493409
    vertex 4.079701151624704e-05 227.4397782874493 8.751541440783946
  endloop
endfacet
facet normal -0.999999999302603 -5.40826165199389e-07 3.734302541539734e-05
  outer loop
    vertex 4.079701151624704e-05 227.4397782874493 8.751541440783946
    vertex 5.1709961861590155e-05 235.33710157528336 10.001055618493409
    vertex 4.084100570054261e-05 233.5397800519269 8.751552723769594
  endloop
endfacet
facet normal -0.999999999302603 -5.40826165199389e-07 3.734302541539734e-05
  outer loop
    vertex 4.084100570054261e-05 233.5397800519269 8.751552723769594
    vertex 5.1709961861590155e-05 235.33710157528336 10.001055618493409
    vertex 4.025265037519432e-05 233.53982068937881 3.0009722721575467
  endloop
endfacet
facet normal -0.999999999302603 -5.40826165199389e-07 3.734302541539734e-05
  outer loop
    vertex 4.025265037519432e-05 233.53982068937881 3.0009722721575467
    vertex 5.1709961861590155e-05 235.33710157528336 10.001055618493409
    vertex 4.023456121515778e-05 235.3371487989344 3.000986002934257
  endloop
endfacet
facet normal -0.999999999302603 -5.40826165199389e-07 3.734302541539734e-05
  outer loop
    vertex 3.618004020751186e-05 227.43978968034193 6.000951101532902
    vertex 3.620385471165832e-05 109.47537899495796 6.0004067004440405
    vertex 4.079701151624704e-05 227.4397782874493 8.751541440783946
  endloop
endfacet
facet normal -0.999999999302603 -5.40826165199389e-07 3.734302541539734e-05
  outer loop
    vertex 3.520370067349176e-05 109.47540610682447 0.0004067005053802308
    vertex 3.520480348342403e-05 104.4754061068755 0.0003841072832933445
    vertex 3.620385471165832e-05 109.47537899495796 6.0004067004440405
  endloop
endfacet
facet normal -0.999999999302603 -5.40826165199389e-07 3.734302541539734e-05
  outer loop
    vertex 1.676441481670565e-05 22.882217759653837 2.5055741681923038e-05
    vertex 1.6765534817153593e-05 17.882217760153296 1.2081910989314436e-05
    vertex 3.622516088945815e-05 22.88220997535543 6.000025055705073
  endloop
endfacet
facet normal -0.999999999302603 -5.40826165199389e-07 3.734302541539734e-05
  outer loop
    vertex 0.0 1.7822236197648336 2.9999468292812934
    vertex 1.868112740055494e-08 3.1967981253444575e-05 2.999955361169793
    vertex 4.060763276427792e-05 1.7821986828317404 8.499917208520372
  endloop
endfacet
facet normal 0.9965819283466028 -0.0007119839798974952 0.08260722227371634
  outer loop
    vertex 0.021010113678976337 51.71911794948201 9.798355330063051
    vertex 0.0009298167034213378 47.030877839955345 10.000256939918591
    vertex 0.014314034943341623 47.02840061381285 9.798635409883849
  endloop
endfacet
facet normal 0.9965819283466028 -0.0007119839798974952 0.08260722227371634
  outer loop
    vertex 0.0009298167034213378 47.030877839955345 10.000256939918591
    vertex 0.021010113678976337 51.71911794948201 9.798355330063051
    vertex 0.0009337510817648109 51.721604907178026 10.0005652000582
  endloop
endfacet
facet normal -5.149940632880265e-05 -1.392410109199509e-05 0.9999999985769654
  outer loop
    vertex 0.0010851792346617372 10.707865485768043 26.997985483180788
    vertex 15.448512502408416 74.47566718858774 27.00157648596315
    vertex 0.0003400306408259723 74.47539025767061 26.999840263566888
  endloop
endfacet
facet normal -5.149940632880265e-05 -1.392410109199509e-05 0.9999999985769654
  outer loop
    vertex 15.448512502408416 74.47566718858774 27.00157648596315
    vertex 0.0010851792346617372 10.707865485768043 26.997985483180788
    vertex 15.449257766384362 10.708154164573337 27.000022816976085
  endloop
endfacet
facet normal 0.9999999940018627 -7.140919244283403e-05 -8.304818976222065e-05
  outer loop
    vertex 9.450048905846991 7.8821986627126615 8.499942922866866
    vertex 9.45005440957341 2.882198662762646 9.999932596918558
    vertex 9.450048874189326 2.8821986627626406 8.499920566927617
  endloop
endfacet
facet normal 0.9999999940018627 -7.140919244283403e-05 -8.304818976222065e-05
  outer loop
    vertex 9.45005440957341 2.882198662762646 9.999932596918558
    vertex 9.450048905846991 7.8821986627126615 8.499942922866866
    vertex 9.450712042670666 10.708805018796047 9.998150047287192
  endloop
endfacet
facet normal 0.9999999940018627 -7.140919244283403e-05 -8.304818976222065e-05
  outer loop
    vertex 9.450712042670666 10.708805018796047 9.998150047287192
    vertex 9.450048905846991 7.8821986627126615 8.499942922866866
    vertex 9.450044477285946 7.882209840682318 5.999942922895777
  endloop
endfacet
facet normal 0.9999999940018627 -7.140919244283403e-05 -8.304818976222065e-05
  outer loop
    vertex 9.450712042670666 10.708805018796047 9.998150047287192
    vertex 9.450044477285946 7.882209840682318 5.999942922895777
    vertex 9.450381178860324 10.70880501879598 5.999798984493584
  endloop
endfacet
facet normal 0.9999999977149716 6.977255259453261e-06 6.724116873584542e-05
  outer loop
    vertex 15.45038116462977 10.708839610640442 6.000210627714201
    vertex 15.448512502408416 74.47566718858774 27.00157648596315
    vertex 15.449257766384362 10.708154164573337 27.000022816976085
  endloop
endfacet
facet normal 0.9999999977149716 6.977255259453261e-06 6.724116873584542e-05
  outer loop
    vertex 15.448512502408416 74.47566718858774 27.00157648596315
    vertex 15.45038116462977 10.708839610640442 6.000210627714201
    vertex 15.450082830809217 74.47540184111418 6.000665125239384
  endloop
endfacet
facet normal -1.0297750339054916e-06 0.9999999999902727 4.288877469534453e-06
  outer loop
    vertex 6.23684769184507e-05 74.4753789971572 9.99984031370347
    vertex 1.5004670412513146 74.47506568964825 25.000231997051106
    vertex 1.5000623675333098 74.47537817327795 9.9995705106525
  endloop
endfacet
facet normal -1.0297750339054916e-06 0.9999999999902727 4.288877469534453e-06
  outer loop
    vertex 1.5004670412513146 74.47506568964825 25.000231997051106
    vertex 6.23684769184507e-05 74.4753789971572 9.99984031370347
    vertex 0.0003400306408259723 74.47539025767061 26.999840263566888
  endloop
endfacet
facet normal -1.0297750339054916e-06 0.9999999999902727 4.288877469534453e-06
  outer loop
    vertex 1.5004670412513146 74.47506568964825 25.000231997051106
    vertex 0.0003400306408259723 74.47539025767061 26.999840263566888
    vertex 13.948978221712014 74.47514485936557 25.000361857438982
  endloop
endfacet
facet normal -1.0297750339054916e-06 0.9999999999902727 4.288877469534453e-06
  outer loop
    vertex 9.45007783247973 74.4753789983779 9.99969453847028
    vertex 15.450082830809217 74.47540184111418 6.000665125239384
    vertex 9.450082845663232 74.47537899837862 6.000244335934146
  endloop
endfacet
facet normal -1.0297750339054916e-06 0.9999999999902727 4.288877469534453e-06
  outer loop
    vertex 15.450082830809217 74.47540184111418 6.000665125239384
    vertex 9.45007783247973 74.4753789983779 9.99969453847028
    vertex 13.950077825901145 74.47542800416076 9.999951582585414
  endloop
endfacet
facet normal -1.0297750339054916e-06 0.9999999999902727 4.288877469534453e-06
  outer loop
    vertex 15.450082830809217 74.47540184111418 6.000665125239384
    vertex 13.950077825901145 74.47542800416076 9.999951582585414
    vertex 15.448512502408416 74.47566718858774 27.00157648596315
  endloop
endfacet
facet normal -1.0297750339054916e-06 0.9999999999902727 4.288877469534453e-06
  outer loop
    vertex 15.448512502408416 74.47566718858774 27.00157648596315
    vertex 13.950077825901145 74.47542800416076 9.999951582585414
    vertex 13.948978221712014 74.47514485936557 25.000361857438982
  endloop
endfacet
facet normal -1.0297750339054916e-06 0.9999999999902727 4.288877469534453e-06
  outer loop
    vertex 15.448512502408416 74.47566718858774 27.00157648596315
    vertex 13.948978221712014 74.47514485936557 25.000361857438982
    vertex 0.0003400306408259723 74.47539025767061 26.999840263566888
  endloop
endfacet
facet normal 1.6058929788431313e-08 0.9999999999897615 4.525145062147579e-06
  outer loop
    vertex 0.0 1.7822236197648336 2.9999468292812934
    vertex 11.885399820058675 1.7821984634174917 8.499900726657827
    vertex 11.885359211985634 1.78222340032917 2.9998905957770643
  endloop
endfacet
facet normal 1.6058929788431313e-08 0.9999999999897615 4.525145062147579e-06
  outer loop
    vertex 11.885399820058675 1.7821984634174917 8.499900726657827
    vertex 0.0 1.7822236197648336 2.9999468292812934
    vertex 4.060763276427792e-05 1.7821986828317404 8.499917208520372
  endloop
endfacet
facet normal 1.6058929788431313e-08 0.9999999999897615 4.525145062147579e-06
  outer loop
    vertex 11.885399820058675 1.7821984634174917 8.499900726657827
    vertex 4.060763276427792e-05 1.7821986828317404 8.499917208520372
    vertex 9.450048856524514 1.7821986627739055 8.499915589268044
  endloop
endfacet
facet normal -6.102861368609251e-06 4.525145160068732e-06 -0.9999999999711392
  outer loop
    vertex 9.450048874189326 2.8821986627626406 8.499920566927617
    vertex 11.885399820058675 1.7821984634174917 8.499900726657827
    vertex 9.450048856524514 1.7821986627739055 8.499915589268044
  endloop
endfacet
facet normal -6.102861368609251e-06 4.525145160068732e-06 -0.9999999999711392
  outer loop
    vertex 11.885399820058675 1.7821984634174917 8.499900726657827
    vertex 9.450048874189326 2.8821986627626406 8.499920566927617
    vertex 11.885399837723487 2.8821984634062265 8.4999057043174
  endloop
endfacet
facet normal 4.5361342026264515e-08 -0.9999999999729909 -7.34956370334471e-06
  outer loop
    vertex 11.885399985323014 233.53977860489485 8.751538789933742
    vertex 4.025265037519432e-05 233.53982068937881 3.0009722721575467
    vertex 11.88539946507254 233.5398210010272 3.000954852407978
  endloop
endfacet
facet normal 4.5361342026264515e-08 -0.9999999999729909 -7.34956370334471e-06
  outer loop
    vertex 4.025265037519432e-05 233.53982068937881 3.0009722721575467
    vertex 11.885399985323014 233.53977860489485 8.751538789933742
    vertex 4.084100570054261e-05 233.5397800519269 8.751552723769594
  endloop
endfacet
facet normal 4.5361342026264515e-08 -0.9999999999729909 -7.34956370334471e-06
  outer loop
    vertex 4.084100570054261e-05 233.5397800519269 8.751552723769594
    vertex 11.885399985323014 233.53977860489485 8.751538789933742
    vertex 9.450049021792553 233.53977815792214 8.751543239693293
  endloop
endfacet
facet normal -1.8271546497637222e-06 7.349563620450262e-06 -0.9999999999713228
  outer loop
    vertex 11.885399985323014 233.53977860489485 8.751538789933742
    vertex 9.450049071690032 232.43977815795188 8.751535155173222
    vertex 9.450049021792553 233.53977815792214 8.751543239693293
  endloop
endfacet
facet normal -1.8271546497637222e-06 7.349563620450262e-06 -0.9999999999713228
  outer loop
    vertex 9.450049071690032 232.43977815795188 8.751535155173222
    vertex 11.885399985323014 233.53977860489485 8.751538789933742
    vertex 11.885400035220492 232.4397786049246 8.75153070541367
  endloop
endfacet
facet normal 1.9488364454981555e-05 1.4182972672713509e-05 -0.9999999997095235
  outer loop
    vertex 13.948978221712014 74.47514485936557 25.000361857438982
    vertex 1.5008266970140596 47.030736678680746 24.999391932595316
    vertex 1.5004670412513146 74.47506568964825 25.000231997051106
  endloop
endfacet
facet normal 1.9488364454981555e-05 1.4182972672713509e-05 -0.9999999997095235
  outer loop
    vertex 1.5008266970140596 47.030736678680746 24.999391932595316
    vertex 13.948978221712014 74.47514485936557 25.000361857438982
    vertex 13.949337840628852 47.03078682764044 25.00002768800339
  endloop
endfacet
facet normal -3.834004821608259e-06 0.9999999999130229 1.2619618777135051e-05
  outer loop
    vertex 1.5008266970140596 47.030736678680746 24.999391932595316
    vertex 10.949396312420141 47.03080259322841 21.999829017543803
    vertex 1.500885162107405 47.030779227598764 21.999391933466747
  endloop
endfacet
facet normal -3.834004821608259e-06 0.9999999999130229 1.2619618777135051e-05
  outer loop
    vertex 10.949396312420141 47.03080259322841 21.999829017543803
    vertex 1.5008266970140596 47.030736678680746 24.999391932595316
    vertex 13.949396305722196 47.03082937655846 22.00002768887482
  endloop
endfacet
facet normal -3.834004821608259e-06 0.9999999999130229 1.2619618777135051e-05
  outer loop
    vertex 13.949396305722196 47.03082937655846 22.00002768887482
    vertex 1.5008266970140596 47.030736678680746 24.999391932595316
    vertex 13.949337840628852 47.03078682764044 25.00002768800339
  endloop
endfacet
facet normal -0.999999997767353 -8.92777668203677e-06 -6.622377700752243e-05
  outer loop
    vertex 13.948978221712014 74.47514485936557 25.000361857438982
    vertex 13.949396305722196 47.03082937655846 22.00002768887482
    vertex 13.949337840628852 47.03078682764044 25.00002768800339
  endloop
endfacet
facet normal -0.999999997767353 -8.92777668203677e-06 -6.622377700752243e-05
  outer loop
    vertex 13.949396305722196 47.03082937655846 22.00002768887482
    vertex 13.950712007855286 10.70885516605684 9.998643452418882
    vertex 13.949647533007242 10.708591695946245 21.999083280554338
  endloop
endfacet
facet normal -0.999999997767353 -8.92777668203677e-06 -6.622377700752243e-05
  outer loop
    vertex 13.950712007855286 10.70885516605684 9.998643452418882
    vertex 13.949396305722196 47.03082937655846 22.00002768887482
    vertex 13.950077825901145 74.47542800416076 9.999951582585414
  endloop
endfacet
facet normal -0.999999997767353 -8.92777668203677e-06 -6.622377700752243e-05
  outer loop
    vertex 13.950077825901145 74.47542800416076 9.999951582585414
    vertex 13.949396305722196 47.03082937655846 22.00002768887482
    vertex 13.948978221712014 74.47514485936557 25.000361857438982
  endloop
endfacet
endsolid Untitled-5b0d7273
