solid Sprout_v0.4~
facet normal -1.0755145313453205e-06 -0.999999998952771 4.575261169178341e-05
  outer loop
    vertex -87.43532654374265 -131.03051498370436 0.001727085080786739
    vertex -227.63032116454315 -131.02830157567453 42.13189194570406
    vertex -227.6341335435275 -131.03034038869652 7.807747105964008e-05
  endloop
endfacet
facet normal -1.0755145313453205e-06 -0.999999998952771 4.575261169178341e-05
  outer loop
    vertex -227.63032116454315 -131.02830157567453 42.13189194570406
    vertex -87.43532654374265 -131.03051498370436 0.001727085080786739
    vertex -87.43582251812266 -131.03012280766131 8.504182123078273
  endloop
endfacet
facet normal -1.0755145313453205e-06 -0.999999998952771 4.575261169178341e-05
  outer loop
    vertex -227.63032116454315 -131.02830157567453 42.13189194570406
    vertex -87.43582251812266 -131.03012280766131 8.504182123078273
    vertex -87.44073061838463 -131.0280601751292 52.13253224736313
  endloop
endfacet
facet normal -1.0755145313453205e-06 -0.999999998952771 4.575261169178341e-05
  outer loop
    vertex -227.63032116454315 -131.02830157567453 42.13189194570406
    vertex -87.44073061838463 -131.0280601751292 52.13253224736313
    vertex -227.63091369433323 -131.02838943582177 42.30753651279225
  endloop
endfacet
facet normal -1.0755145313453205e-06 -0.999999998952771 4.575261169178341e-05
  outer loop
    vertex -227.63091369433323 -131.02838943582177 42.30753651279225
    vertex -87.44073061838463 -131.0280601751292 52.13253224736313
    vertex -227.63392380213492 -131.02822621379073 43.20123124198143
  endloop
endfacet
facet normal -1.0755145313453205e-06 -0.999999998952771 4.575261169178341e-05
  outer loop
    vertex -227.63392380213492 -131.02822621379073 43.20123124198143
    vertex -87.44073061838463 -131.0280601751292 52.13253224736313
    vertex -227.63016696081974 -131.02805991407422 52.13189194159511
  endloop
endfacet
facet normal -1.7195387011016635e-05 6.857049083789072e-05 0.9999999975012033
  outer loop
    vertex -228.62654867215568 -180.03947367522593 21.654670648743846
    vertex -227.62906722935367 -161.06777289533088 21.653362176639366
    vertex -228.6290190687895 -161.0679156973324 21.65333757154937
  endloop
endfacet
facet normal -1.7195387011016635e-05 6.857049083789072e-05 0.9999999975012033
  outer loop
    vertex -227.62906722935367 -161.06777289533088 21.653362176639366
    vertex -228.62654867215568 -180.03947367522593 21.654670648743846
    vertex -227.62660195593207 -180.03933087493056 21.654680413061676
  endloop
endfacet
facet normal -0.00011898625352449689 0.9999999905771809 -6.846831055791381e-05
  outer loop
    vertex -228.62718473994994 -180.0381793496128 39.529517163097374
    vertex -227.62660195593207 -180.03933087493056 21.654680413061676
    vertex -228.62654867215568 -180.03947367522593 21.654670648743846
  endloop
endfacet
facet normal -0.00011898625352449689 0.9999999905771809 -6.846831055791381e-05
  outer loop
    vertex -227.62660195593207 -180.03933087493056 21.654680413061676
    vertex -228.62718473994994 -180.0381793496128 39.529517163097374
    vertex -227.62723290009086 -180.03810794945596 39.52951715820143
  endloop
endfacet
facet normal 0.00010710533730016202 -0.9999999915919983 7.310574648495486e-05
  outer loop
    vertex -227.62906722935367 -161.06777289533088 21.653362176639366
    vertex -228.62924045622975 -161.06663917362144 39.52823872320497
    vertex -228.6290190687895 -161.0679156973324 21.65333757154937
  endloop
endfacet
facet normal 0.00010710533730016202 -0.9999999915919983 7.310574648495486e-05
  outer loop
    vertex -228.62924045622975 -161.06663917362144 39.52823872320497
    vertex -227.62906722935367 -161.06777289533088 21.653362176639366
    vertex -227.62928861637067 -161.0665677734646 39.52823871830902
  endloop
endfacet
facet normal -2.9371173008815084e-10 -6.445705187851106e-05 -0.9999999979226444
  outer loop
    vertex -227.62928861637067 -161.0665677734646 39.52823871830902
    vertex -228.62718473994994 -180.0381793496128 39.529517163097374
    vertex -228.62924045622975 -161.06663917362144 39.52823872320497
  endloop
endfacet
facet normal -2.9371173008815084e-10 -6.445705187851106e-05 -0.9999999979226444
  outer loop
    vertex -228.62718473994994 -180.0381793496128 39.529517163097374
    vertex -227.62928861637067 -161.0665677734646 39.52823871830902
    vertex -227.62723290009086 -180.03810794945596 39.52951715820143
  endloop
endfacet
facet normal 4.795839591200473e-06 -5.151837030776379e-05 -0.9999999986614287
  outer loop
    vertex -227.64237677791095 -183.88591643651657 0.003558974879382493
    vertex -228.63413352644952 -183.8856127908611 2.2448888451279123e-14
    vertex -228.62672233900363 -182.88597544062264 0.0035280945020627285
  endloop
endfacet
facet normal 4.795839591200473e-06 -5.151837030776379e-05 -0.9999999986614287
  outer loop
    vertex -228.63415366492313 -128.03016242564235 -0.0002048911546992381
    vertex -227.6341335435275 -131.03034038869652 7.807747105964008e-05
    vertex -228.62672233900363 -182.88597544062264 0.0035280945020627285
  endloop
endfacet
facet normal 4.795839591200473e-06 -5.151837030776379e-05 -0.9999999986614287
  outer loop
    vertex -227.6341335435275 -131.03034038869652 7.807747105964008e-05
    vertex -228.63415366492313 -128.03016242564235 -0.0002048911546992381
    vertex -86.43534659527499 -128.030268384879 0.0001261529765664406
  endloop
endfacet
facet normal 4.795839591200473e-06 -5.151837030776379e-05 -0.9999999986614287
  outer loop
    vertex -228.62672233900363 -182.88597544062264 0.0035280945020627285
    vertex -227.6341335435275 -131.03034038869652 7.807747105964008e-05
    vertex -227.64237677791095 -183.88591643651657 0.003558974879382493
  endloop
endfacet
facet normal 4.795839591200473e-06 -5.151837030776379e-05 -0.9999999986614287
  outer loop
    vertex -227.6341335435275 -131.03034038869652 7.807747105964008e-05
    vertex -86.43534659527499 -128.030268384879 0.0001261529765664406
    vertex -87.43532654374265 -131.03051498370436 0.001727085080786739
  endloop
endfacet
facet normal 4.795839591200473e-06 -5.151837030776379e-05 -0.9999999986614287
  outer loop
    vertex -87.43532654374265 -131.03051498370436 0.001727085080786739
    vertex -86.43533311543364 -142.45677475406526 0.000826589375845396
    vertex -87.43532732087954 -142.45677473319972 0.0019506085067856973
  endloop
endfacet
facet normal 4.795839591200473e-06 -5.151837030776379e-05 -0.9999999986614287
  outer loop
    vertex -86.43533311543364 -142.45677475406526 0.000826589375845396
    vertex -87.43532654374265 -131.03051498370436 0.001727085080786739
    vertex -86.43534659527499 -128.030268384879 0.0001261529765664406
  endloop
endfacet
facet normal 4.795839591200473e-06 -5.151837030776379e-05 -0.9999999986614287
  outer loop
    vertex -227.62701379781512 -181.8859754449042 0.0034645763088032135
    vertex -227.64237677791095 -183.88591643651657 0.003558974879382493
    vertex -227.6341335435275 -131.03034038869652 7.807747105964008e-05
  endloop
endfacet
facet normal -0.9999999901342075 -0.000140376404277945 5.1039199865805935e-06
  outer loop
    vertex -228.6264210312786 -182.88345116558358 53.20468125018411
    vertex -228.62718473994994 -180.0381793496128 39.529517163097374
    vertex -228.62654867215568 -180.03947367522593 21.654670648743846
  endloop
endfacet
facet normal -0.9999999901342075 -0.000140376404277945 5.1039199865805935e-06
  outer loop
    vertex -228.62718473994994 -180.0381793496128 39.529517163097374
    vertex -228.6264210312786 -182.88345116558358 53.20468125018411
    vertex -228.63385235719812 -128.0276381506032 53.20094826452735
  endloop
endfacet
facet normal -0.9999999901342075 -0.000140376404277945 5.1039199865805935e-06
  outer loop
    vertex -228.62718473994994 -180.0381793496128 39.529517163097374
    vertex -228.63385235719812 -128.0276381506032 53.20094826452735
    vertex -228.62924045622975 -161.06663917362144 39.52823872320497
  endloop
endfacet
facet normal -0.9999999901342075 -0.000140376404277945 5.1039199865805935e-06
  outer loop
    vertex -228.62924045622975 -161.06663917362144 39.52823872320497
    vertex -228.63385235719812 -128.0276381506032 53.20094826452735
    vertex -228.63415366492313 -128.03016242564235 -0.0002048911546992381
  endloop
endfacet
facet normal -0.9999999901342075 -0.000140376404277945 5.1039199865805935e-06
  outer loop
    vertex -228.62672233900363 -182.88597544062264 0.0035280945020627285
    vertex -228.62654867215568 -180.03947367522593 21.654670648743846
    vertex -228.63415366492313 -128.03016242564235 -0.0002048911546992381
  endloop
endfacet
facet normal -0.9999999901342075 -0.000140376404277945 5.1039199865805935e-06
  outer loop
    vertex -228.62654867215568 -180.03947367522593 21.654670648743846
    vertex -228.62672233900363 -182.88597544062264 0.0035280945020627285
    vertex -228.6264210312786 -182.88345116558358 53.20468125018411
  endloop
endfacet
facet normal -0.9999999901342075 -0.000140376404277945 5.1039199865805935e-06
  outer loop
    vertex -228.63415366492313 -128.03016242564235 -0.0002048911546992381
    vertex -228.62654867215568 -180.03947367522593 21.654670648743846
    vertex -228.6290190687895 -161.0679156973324 21.65333757154937
  endloop
endfacet
facet normal -0.9999999901342075 -0.000140376404277945 5.1039199865805935e-06
  outer loop
    vertex -228.63415366492313 -128.03016242564235 -0.0002048911546992381
    vertex -228.6290190687895 -161.0679156973324 21.65333757154937
    vertex -228.62924045622975 -161.06663917362144 39.52823872320497
  endloop
endfacet
facet normal -8.185490414973415e-06 0.9999999964998498 -8.326642980822967e-05
  outer loop
    vertex -228.63385235719812 -128.0276381506032 53.20094826452735
    vertex -86.43534659527499 -128.030268384879 0.0001261529765664406
    vertex -228.63415366492313 -128.03016242564235 -0.0002048911546992381
  endloop
endfacet
facet normal -8.185490414973415e-06 0.9999999964998498 -8.326642980822967e-05
  outer loop
    vertex -86.43534659527499 -128.030268384879 0.0001261529765664406
    vertex -228.63385235719812 -128.0276381506032 53.20094826452735
    vertex -86.44224324658984 -128.02447716006796 53.20117675142649
  endloop
endfacet
facet normal 0.9999999941557591 0.0001017084819485407 -3.665878518724378e-05
  outer loop
    vertex -227.62701379781512 -181.8859754449042 0.0034645763088032135
    vertex -227.62660195593207 -180.03933087493056 21.654680413061676
    vertex -227.62672316412457 -181.88393666404502 42.13439866894033
  endloop
endfacet
facet normal 0.9999999941557591 0.0001017084819485407 -3.665878518724378e-05
  outer loop
    vertex -227.62660195593207 -180.03933087493056 21.654680413061676
    vertex -227.62701379781512 -181.8859754449042 0.0034645763088032135
    vertex -227.6341335435275 -131.03034038869652 7.807747105964008e-05
  endloop
endfacet
facet normal 0.9999999941557591 0.0001017084819485407 -3.665878518724378e-05
  outer loop
    vertex -227.62672316412457 -181.88393666404502 42.13439866894033
    vertex -227.62660195593207 -180.03933087493056 21.654680413061676
    vertex -227.6268040564225 -181.88386126999848 43.20461774081918
  endloop
endfacet
facet normal 0.9999999941557591 0.0001017084819485407 -3.665878518724378e-05
  outer loop
    vertex -227.6268040564225 -181.88386126999848 43.20461774081918
    vertex -227.62660195593207 -180.03933087493056 21.654680413061676
    vertex -227.62656896040116 -181.8836950024447 52.13439866483138
  endloop
endfacet
facet normal 0.9999999941557591 0.0001017084819485407 -3.665878518724378e-05
  outer loop
    vertex -227.62660195593207 -180.03933087493056 21.654680413061676
    vertex -227.6341335435275 -131.03034038869652 7.807747105964008e-05
    vertex -227.62906722935367 -161.06777289533088 21.653362176639366
  endloop
endfacet
facet normal 0.9999999941557591 0.0001017084819485407 -3.665878518724378e-05
  outer loop
    vertex -227.62906722935367 -161.06777289533088 21.653362176639366
    vertex -227.6341335435275 -131.03034038869652 7.807747105964008e-05
    vertex -227.62928861637067 -161.0665677734646 39.52823871830902
  endloop
endfacet
facet normal 0.9999999941557591 0.0001017084819485407 -3.665878518724378e-05
  outer loop
    vertex -227.63032116454315 -131.02830157567453 42.13189194570406
    vertex -227.63091369433323 -131.02838943582177 42.30753651279225
    vertex -227.6341335435275 -131.03034038869652 7.807747105964008e-05
  endloop
endfacet
facet normal 0.9999999941557591 0.0001017084819485407 -3.665878518724378e-05
  outer loop
    vertex -227.62656896040116 -181.8836950024447 52.13439866483138
    vertex -227.62723290009086 -180.03810794945596 39.52951715820143
    vertex -227.63016696081974 -131.02805991407422 52.13189194159511
  endloop
endfacet
facet normal 0.9999999941557591 0.0001017084819485407 -3.665878518724378e-05
  outer loop
    vertex -227.62723290009086 -180.03810794945596 39.52951715820143
    vertex -227.62656896040116 -181.8836950024447 52.13439866483138
    vertex -227.62660195593207 -180.03933087493056 21.654680413061676
  endloop
endfacet
facet normal 0.9999999941557591 0.0001017084819485407 -3.665878518724378e-05
  outer loop
    vertex -227.63016696081974 -131.02805991407422 52.13189194159511
    vertex -227.62723290009086 -180.03810794945596 39.52951715820143
    vertex -227.62928861637067 -161.0665677734646 39.52823871830902
  endloop
endfacet
facet normal 0.9999999941557591 0.0001017084819485407 -3.665878518724378e-05
  outer loop
    vertex -227.63016696081974 -131.02805991407422 52.13189194159511
    vertex -227.62928861637067 -161.0665677734646 39.52823871830902
    vertex -227.6341335435275 -131.03034038869652 7.807747105964008e-05
  endloop
endfacet
facet normal 0.9999999941557591 0.0001017084819485407 -3.665878518724378e-05
  outer loop
    vertex -227.63016696081974 -131.02805991407422 52.13189194159511
    vertex -227.6341335435275 -131.03034038869652 7.807747105964008e-05
    vertex -227.63091369433323 -131.02838943582177 42.30753651279225
  endloop
endfacet
facet normal 0.9999999941557591 0.0001017084819485407 -3.665878518724378e-05
  outer loop
    vertex -227.63016696081974 -131.02805991407422 52.13189194159511
    vertex -227.63091369433323 -131.02838943582177 42.30753651279225
    vertex -227.63392380213492 -131.02822621379073 43.20123124198143
  endloop
endfacet
facet normal 9.156633240014822e-06 4.10100133314424e-05 0.9999999991171675
  outer loop
    vertex -96.4559324366033 -185.88339385042843 53.20226263678809
    vertex -228.6264210312786 -182.88345116558358 53.20468125018411
    vertex -228.64155083417683 -184.88339393459748 53.20477990775157
  endloop
endfacet
facet normal 9.156633240014822e-06 4.10100133314424e-05 0.9999999991171675
  outer loop
    vertex -228.6264210312786 -182.88345116558358 53.20468125018411
    vertex -86.44224324658984 -128.02447716006796 53.20117675142649
    vertex -228.63385235719812 -128.0276381506032 53.20094826452735
  endloop
endfacet
facet normal 9.156633240014822e-06 4.10100133314424e-05 0.9999999991171675
  outer loop
    vertex -86.44224324658984 -128.02447716006796 53.20117675142649
    vertex -228.6264210312786 -182.88345116558358 53.20468125018411
    vertex -96.44080263370509 -183.8834510814145 53.20216397922063
  endloop
endfacet
facet normal 9.156633240014822e-06 4.10100133314424e-05 0.9999999991171675
  outer loop
    vertex -96.44080263370509 -183.8834510814145 53.20216397922063
    vertex -228.6264210312786 -182.88345116558358 53.20468125018411
    vertex -96.4559324366033 -185.88339385042843 53.20226263678809
  endloop
endfacet
facet normal 9.156633240014822e-06 4.10100133314424e-05 0.9999999991171675
  outer loop
    vertex -86.44224324658984 -128.02447716006796 53.20117675142649
    vertex -96.44080263370509 -183.8834510814145 53.20216397922063
    vertex -86.44080263435501 -183.8833826623001 53.20225517921563
  endloop
endfacet
facet normal -1.5420372339972332e-05 -2.4166160031124083e-05 -0.9999999995891045
  outer loop
    vertex -87.44073061838463 -131.0280601751292 52.13253224736313
    vertex -227.62656896040116 -181.8836950024447 52.13439866483138
    vertex -227.63016696081974 -131.02805991407422 52.13189194159511
  endloop
endfacet
facet normal -1.5420372339972332e-05 -2.4166160031124083e-05 -0.9999999995891045
  outer loop
    vertex -227.62656896040116 -181.8836950024447 52.13439866483138
    vertex -87.44073061838463 -131.0280601751292 52.13253224736313
    vertex -97.44073295508767 -182.88369506839103 52.13114982680628
  endloop
endfacet
facet normal -1.5420372339972332e-05 -2.4166160031124083e-05 -0.9999999995891045
  outer loop
    vertex -227.62656896040116 -181.8836950024447 52.13439866483138
    vertex -97.44073295508767 -182.88369506839103 52.13114982680628
    vertex -97.45609593518348 -184.88363606000345 52.13124422537686
  endloop
endfacet
facet normal -1.5420372339972332e-05 -2.4166160031124083e-05 -0.9999999995891045
  outer loop
    vertex -97.44073295508767 -182.88369506839103 52.13114982680628
    vertex -87.44073061838463 -131.0280601751292 52.13253224736313
    vertex -87.440733050642 -182.8836952755848 52.13253224737494
  endloop
endfacet
facet normal -1.5420372339972332e-05 -2.4166160031124083e-05 -0.9999999995891045
  outer loop
    vertex -97.45609593518348 -184.88363606000345 52.13124422537686
    vertex -227.641931940497 -183.88363599405707 52.13449306340196
    vertex -227.62656896040116 -181.8836950024447 52.13439866483138
  endloop
endfacet
facet normal -0.9999999936684574 2.063349490681312e-08 -0.00011253037276442883
  outer loop
    vertex -87.440733050642 -182.8836952755848 52.13253224737494
    vertex -87.43582329525955 -142.45638255715664 8.504405646504274
    vertex -87.43582251812266 -182.88575781216016 8.506142897979988
  endloop
endfacet
facet normal -0.9999999936684574 2.063349490681312e-08 -0.00011253037276442883
  outer loop
    vertex -87.43582329525955 -142.45638255715664 8.504405646504274
    vertex -87.440733050642 -182.8836952755848 52.13253224737494
    vertex -87.44073061838463 -131.0280601751292 52.13253224736313
  endloop
endfacet
facet normal -0.9999999936684574 2.063349490681312e-08 -0.00011253037276442883
  outer loop
    vertex -87.43582329525955 -142.45638255715664 8.504405646504274
    vertex -87.44073061838463 -131.0280601751292 52.13253224736313
    vertex -87.43582251812266 -131.03012280766131 8.504182123078273
  endloop
endfacet
facet normal -0.007603318789554743 -0.9999710939499916 -2.842255599992292e-05
  outer loop
    vertex -96.4559324366033 -185.88339385042843 53.20226263678809
    vertex -228.64175852878438 -184.8785370560987 7.505496408809846
    vertex -96.45095669943215 -185.88619399569507 7.503625640998395
  endloop
endfacet
facet normal -0.007603318789554743 -0.9999710939499916 -2.842255599992292e-05
  outer loop
    vertex -228.64175852878438 -184.8785370560987 7.505496408809846
    vertex -96.4559324366033 -185.88339385042843 53.20226263678809
    vertex -228.64175404677712 -184.87804339015867 8.505496286946764
  endloop
endfacet
facet normal -0.007603318789554743 -0.9999710939499916 -2.842255599992292e-05
  outer loop
    vertex -228.64175404677712 -184.87804339015867 8.505496286946764
    vertex -96.4559324366033 -185.88339385042843 53.20226263678809
    vertex -228.64155083417683 -184.88339393459748 53.20477990775157
  endloop
endfacet
facet normal 0.9999713795964433 -0.007564904067625597 0.00011051892940142858
  outer loop
    vertex -96.435826896534 -183.88625122668117 7.503526983430926
    vertex -96.4559324366033 -185.88339385042843 53.20226263678809
    vertex -96.45095669943215 -185.88619399569507 7.503625640998395
  endloop
endfacet
facet normal 0.9999713795964433 -0.007564904067625597 0.00011051892940142858
  outer loop
    vertex -96.4559324366033 -185.88339385042843 53.20226263678809
    vertex -96.435826896534 -183.88625122668117 7.503526983430926
    vertex -96.44080263370509 -183.8834510814145 53.20216397922063
  endloop
endfacet
facet normal 0.9999713795964433 -0.007564904067625597 0.00011051892940142858
  outer loop
    vertex -96.44080263370509 -183.8834510814145 53.20216397922063
    vertex -96.435826896534 -183.88625122668117 7.503526983430926
    vertex -96.43582241452673 -183.8857575607411 8.503526861567844
  endloop
endfacet
facet normal -0.9999714005429323 0.007562941456069533 3.5690882502042143e-06
  outer loop
    vertex -228.6264210312786 -182.88345116558358 53.20468125018411
    vertex -228.64175404677712 -184.87804339015867 8.505496286946764
    vertex -228.64155083417683 -184.88339393459748 53.20477990775157
  endloop
endfacet
facet normal -0.9999714005429323 0.007562941456069533 3.5690882502042143e-06
  outer loop
    vertex -228.64175404677712 -184.87804339015867 8.505496286946764
    vertex -228.6264210312786 -182.88345116558358 53.20468125018411
    vertex -228.6340354313248 -183.87773797138325 8.501869534877255
  endloop
endfacet
facet normal -0.9999714005429323 0.007562941456069533 3.5690882502042143e-06
  outer loop
    vertex -228.6340354313248 -183.87773797138325 8.501869534877255
    vertex -228.6264210312786 -182.88345116558358 53.20468125018411
    vertex -228.62672233900363 -182.88597544062264 0.0035280945020627285
  endloop
endfacet
facet normal -0.9999714005429323 0.007562941456069533 3.5690882502042143e-06
  outer loop
    vertex -228.63403991333206 -183.87823163732332 7.501869656740338
    vertex -228.62672233900363 -182.88597544062264 0.0035280945020627285
    vertex -228.63413352644952 -183.8856127908611 2.2448888451279123e-14
  endloop
endfacet
facet normal -0.9999714005429323 0.007562941456069533 3.5690882502042143e-06
  outer loop
    vertex -228.62672233900363 -182.88597544062264 0.0035280945020627285
    vertex -228.63403991333206 -183.87823163732332 7.501869656740338
    vertex -228.6340354313248 -183.87773797138325 8.501869534877255
  endloop
endfacet
facet normal 0.0077013606187522786 0.9999703423739101 5.845703537004357e-05
  outer loop
    vertex -227.64227868278613 -183.8780416170389 8.505428509756614
    vertex -97.45609593518348 -184.88363606000345 52.13124422537686
    vertex -97.45118540266411 -184.88569859657883 8.504854875981904
  endloop
endfacet
facet normal 0.0077013606187522786 0.9999703423739101 5.845703537004357e-05
  outer loop
    vertex -97.45609593518348 -184.88363606000345 52.13124422537686
    vertex -227.64227868278613 -183.8780416170389 8.505428509756614
    vertex -227.6420861442204 -183.8838776556574 42.13449306751091
  endloop
endfacet
facet normal 0.0077013606187522786 0.9999703423739101 5.845703537004357e-05
  outer loop
    vertex -97.45609593518348 -184.88363606000345 52.13124422537686
    vertex -227.6420861442204 -183.8838776556574 42.13449306751091
    vertex -227.64216703651832 -183.88380226161084 43.20471213938976
  endloop
endfacet
facet normal 0.0077013606187522786 0.9999703423739101 5.845703537004357e-05
  outer loop
    vertex -97.45609593518348 -184.88363606000345 52.13124422537686
    vertex -227.64216703651832 -183.88380226161084 43.20471213938976
    vertex -227.641931940497 -183.88363599405707 52.13449306340196
  endloop
endfacet
facet normal 0.9999704707371733 -0.0076848949100414695 -6.6255537341179085e-06
  outer loop
    vertex -227.62701379781512 -181.8859754449042 0.0034645763088032135
    vertex -227.64228316479338 -183.87853528297896 7.505428631619697
    vertex -227.64237677791095 -183.88591643651657 0.003558974879382493
  endloop
endfacet
facet normal 0.9999704707371733 -0.0076848949100414695 -6.6255537341179085e-06
  outer loop
    vertex -227.64228316479338 -183.87853528297896 7.505428631619697
    vertex -227.62701379781512 -181.8859754449042 0.0034645763088032135
    vertex -227.64227868278613 -183.8780416170389 8.505428509756614
  endloop
endfacet
facet normal 0.9999704707371733 -0.0076848949100414695 -6.6255537341179085e-06
  outer loop
    vertex -227.64227868278613 -183.8780416170389 8.505428509756614
    vertex -227.62672316412457 -181.88393666404502 42.13439866894033
    vertex -227.6420861442204 -183.8838776556574 42.13449306751091
  endloop
endfacet
facet normal 0.9999704707371733 -0.0076848949100414695 -6.6255537341179085e-06
  outer loop
    vertex -227.62672316412457 -181.88393666404502 42.13439866894033
    vertex -227.64227868278613 -183.8780416170389 8.505428509756614
    vertex -227.62701379781512 -181.8859754449042 0.0034645763088032135
  endloop
endfacet
facet normal 0.9999704940503156 -0.007681486441328247 7.612371299339858e-05
  outer loop
    vertex -227.62672316412457 -181.88393666404502 42.13439866894033
    vertex -227.64216703651832 -183.88380226161084 43.20471213938976
    vertex -227.6420861442204 -183.8838776556574 42.13449306751091
  endloop
endfacet
facet normal 0.9999704940503156 -0.007681486441328247 7.612371299339858e-05
  outer loop
    vertex -227.64216703651832 -183.88380226161084 43.20471213938976
    vertex -227.62672316412457 -181.88393666404502 42.13439866894033
    vertex -227.6268040564225 -181.88386126999848 43.20461774081918
  endloop
endfacet
facet normal 0.9999704965677726 -0.007681491289631074 -2.6183386178897332e-05
  outer loop
    vertex -227.6268040564225 -181.88386126999848 43.20461774081918
    vertex -227.641931940497 -183.88363599405707 52.13449306340196
    vertex -227.64216703651832 -183.88380226161084 43.20471213938976
  endloop
endfacet
facet normal 0.9999704965677726 -0.007681491289631074 -2.6183386178897332e-05
  outer loop
    vertex -227.641931940497 -183.88363599405707 52.13449306340196
    vertex -227.6268040564225 -181.88386126999848 43.20461774081918
    vertex -227.62656896040116 -181.8836950024447 52.13439866483138
  endloop
endfacet
facet normal -0.9999704901297076 0.007681484486495667 -0.00011690096675258118
  outer loop
    vertex -97.45609593518348 -184.88363606000345 52.13124422537686
    vertex -97.44350391261621 -183.8857575607411 8.503526861567844
    vertex -97.45118540266411 -184.88569859657883 8.504854875981904
  endloop
endfacet
facet normal -0.9999704901297076 0.007681484486495667 -0.00011690096675258118
  outer loop
    vertex -97.44350391261621 -183.8857575607411 8.503526861567844
    vertex -97.45609593518348 -184.88363606000345 52.13124422537686
    vertex -97.44073295508767 -182.88369506839103 52.13114982680628
  endloop
endfacet
facet normal -0.9999704901297076 0.007681484486495667 -0.00011690096675258118
  outer loop
    vertex -97.44350391261621 -183.8857575607411 8.503526861567844
    vertex -97.44073295508767 -182.88369506839103 52.13114982680628
    vertex -97.43582242256832 -182.88575760496644 8.504760477411326
  endloop
endfacet
facet normal -0.0003095688259590873 -0.9999995027716978 0.0009479575407656982
  outer loop
    vertex -227.64237677791095 -183.88591643651657 0.003558974879382493
    vertex -228.63403991333206 -183.87823163732332 7.501869656740338
    vertex -228.63413352644952 -183.8856127908611 2.2448888451279123e-14
  endloop
endfacet
facet normal -0.0003095688259590873 -0.9999995027716978 0.0009479575407656982
  outer loop
    vertex -228.63403991333206 -183.87823163732332 7.501869656740338
    vertex -227.64237677791095 -183.88591643651657 0.003558974879382493
    vertex -227.64228316479338 -183.87853528297896 7.505428631619697
  endloop
endfacet
facet normal 3.098006306211468e-08 -0.99999999893624 4.612503756767688e-05
  outer loop
    vertex -86.43582908981364 -142.4563825780222 8.503281627373335
    vertex -87.43532732087954 -142.45677473319972 0.0019506085067856973
    vertex -86.43533311543364 -142.45677475406526 0.000826589375845396
  endloop
endfacet
facet normal 3.098006306211468e-08 -0.99999999893624 4.612503756767688e-05
  outer loop
    vertex -87.43532732087954 -142.45677473319972 0.0019506085067856973
    vertex -86.43582908981364 -142.4563825780222 8.503281627373335
    vertex -87.43582329525955 -142.45638255715664 8.504405646504274
  endloop
endfacet
facet normal -0.0014616776097136103 -1.5807236662029454e-05 -0.9999989316237775
  outer loop
    vertex -86.43582908981364 -142.4563825780222 8.503281627373335
    vertex -87.43582251812266 -182.88575781216016 8.506142897979988
    vertex -87.43582329525955 -142.45638255715664 8.504405646504274
  endloop
endfacet
facet normal -0.0014616776097136103 -1.5807236662029454e-05 -0.9999989316237775
  outer loop
    vertex -87.43582251812266 -182.88575781216016 8.506142897979988
    vertex -86.43582908981364 -142.4563825780222 8.503281627373335
    vertex -86.43582201692523 -182.8857577991204 8.504343568631338
  endloop
endfacet
facet normal -0.9999999982986261 -2.205701203190109e-09 -5.8333078632091654e-05
  outer loop
    vertex -87.43582329525955 -142.45638255715664 8.504405646504274
    vertex -87.43532654374265 -131.03051498370436 0.001727085080786739
    vertex -87.43532732087954 -142.45677473319972 0.0019506085067856973
  endloop
endfacet
facet normal -0.9999999982986261 -2.205701203190109e-09 -5.8333078632091654e-05
  outer loop
    vertex -87.43532654374265 -131.03051498370436 0.001727085080786739
    vertex -87.43582329525955 -142.45638255715664 8.504405646504274
    vertex -87.43582251812266 -131.03012280766131 8.504182123078273
  endloop
endfacet
facet normal 0.9999999925901417 1.1312113690783971e-05 0.00012120954048311807
  outer loop
    vertex -86.43534659527499 -128.030268384879 0.0001261529765664406
    vertex -86.43582908981364 -142.4563825780222 8.503281627373335
    vertex -86.43533311543364 -142.45677475406526 0.000826589375845396
  endloop
endfacet
facet normal 0.9999999925901417 1.1312113690783971e-05 0.00012120954048311807
  outer loop
    vertex -86.43582201692523 -182.8857577991204 8.504343568631338
    vertex -86.44080263435501 -183.8833826623001 53.20225517921563
    vertex -86.43582241517664 -183.8856891416267 8.503618061562854
  endloop
endfacet
facet normal 0.9999999925901417 1.1312113690783971e-05 0.00012120954048311807
  outer loop
    vertex -86.44080263435501 -183.8833826623001 53.20225517921563
    vertex -86.43582201692523 -182.8857577991204 8.504343568631338
    vertex -86.44224324658984 -128.02447716006796 53.20117675142649
  endloop
endfacet
facet normal 0.9999999925901417 1.1312113690783971e-05 0.00012120954048311807
  outer loop
    vertex -86.44224324658984 -128.02447716006796 53.20117675142649
    vertex -86.43582201692523 -182.8857577991204 8.504343568631338
    vertex -86.43582908981364 -142.4563825780222 8.503281627373335
  endloop
endfacet
facet normal 0.9999999925901417 1.1312113690783971e-05 0.00012120954048311807
  outer loop
    vertex -86.44224324658984 -128.02447716006796 53.20117675142649
    vertex -86.43582908981364 -142.4563825780222 8.503281627373335
    vertex -86.43534659527499 -128.030268384879 0.0001261529765664406
  endloop
endfacet
facet normal 2.7255081170850424e-08 0.9999999988824297 -4.72772665808155e-05
  outer loop
    vertex -97.44073295508767 -182.88369506839103 52.13114982680628
    vertex -87.43582251812266 -182.88575781216016 8.506142897979988
    vertex -97.43582242256832 -182.88575760496644 8.504760477411326
  endloop
endfacet
facet normal 2.7255081170850424e-08 0.9999999988824297 -4.72772665808155e-05
  outer loop
    vertex -87.43582251812266 -182.88575781216016 8.506142897979988
    vertex -97.44073295508767 -182.88369506839103 52.13114982680628
    vertex -87.440733050642 -182.8836952755848 52.13253224737494
  endloop
endfacet
facet normal 6.8414063074096145e-06 -0.9999999984427769 5.538629212068256e-05
  outer loop
    vertex -86.43582241517664 -183.8856891416267 8.503618061562854
    vertex -96.44080263370509 -183.8834510814145 53.20216397922063
    vertex -96.43582241452673 -183.8857575607411 8.503526861567844
  endloop
endfacet
facet normal 6.8414063074096145e-06 -0.9999999984427769 5.538629212068256e-05
  outer loop
    vertex -96.44080263370509 -183.8834510814145 53.20216397922063
    vertex -86.43582241517664 -183.8856891416267 8.503618061562854
    vertex -86.44080263435501 -183.8833826623001 53.20225517921563
  endloop
endfacet
facet normal 2.1055953575867466e-05 0.0014618593150579552 -0.9999989312614239
  outer loop
    vertex -97.43582242256832 -182.88575760496644 8.504760477411326
    vertex -96.43582241452673 -183.8857575607411 8.503526861567844
    vertex -97.44350391261621 -183.8857575607411 8.503526861567844
  endloop
endfacet
facet normal 2.1055953575867466e-05 0.0014618593150579552 -0.9999989312614239
  outer loop
    vertex -96.43582241452673 -183.8857575607411 8.503526861567844
    vertex -97.43582242256832 -182.88575760496644 8.504760477411326
    vertex -87.43582251812266 -182.88575781216016 8.506142897979988
  endloop
endfacet
facet normal 2.1055953575867466e-05 0.0014618593150579552 -0.9999989312614239
  outer loop
    vertex -96.43582241452673 -183.8857575607411 8.503526861567844
    vertex -87.43582251812266 -182.88575781216016 8.506142897979988
    vertex -86.43582241517664 -183.8856891416267 8.503618061562854
  endloop
endfacet
facet normal 2.1055953575867466e-05 0.0014618593150579552 -0.9999989312614239
  outer loop
    vertex -86.43582241517664 -183.8856891416267 8.503618061562854
    vertex -87.43582251812266 -182.88575781216016 8.506142897979988
    vertex -86.43582201692523 -182.8857577991204 8.504343568631338
  endloop
endfacet
facet normal -4.482007261662367e-06 -0.000493665940087274 -0.9999998781369182
  outer loop
    vertex -228.63403991333206 -183.87823163732332 7.501869656740338
    vertex -96.45095669943215 -185.88619399569507 7.503625640998395
    vertex -228.64175852878438 -184.8785370560987 7.505496408809846
  endloop
endfacet
facet normal -4.482007261662367e-06 -0.000493665940087274 -0.9999998781369182
  outer loop
    vertex -96.45095669943215 -185.88619399569507 7.503625640998395
    vertex -228.63403991333206 -183.87823163732332 7.501869656740338
    vertex -227.64228316479338 -183.87853528297896 7.505428631619697
  endloop
endfacet
facet normal -4.482007261662367e-06 -0.000493665940087274 -0.9999998781369182
  outer loop
    vertex -96.45095669943215 -185.88619399569507 7.503625640998395
    vertex -227.64228316479338 -183.87853528297896 7.505428631619697
    vertex -97.45118988467136 -184.8861922625189 7.504854997844986
  endloop
endfacet
facet normal -4.482007261662367e-06 -0.000493665940087274 -0.9999998781369182
  outer loop
    vertex -96.45095669943215 -185.88619399569507 7.503625640998395
    vertex -97.45118988467136 -184.8861922625189 7.504854997844986
    vertex -97.44350839462348 -183.88625122668117 7.503526983430926
  endloop
endfacet
facet normal -4.482007261662367e-06 -0.000493665940087274 -0.9999998781369182
  outer loop
    vertex -96.45095669943215 -185.88619399569507 7.503625640998395
    vertex -97.44350839462348 -183.88625122668117 7.503526983430926
    vertex -96.435826896534 -183.88625122668117 7.503526983430926
  endloop
endfacet
facet normal 0.0 0.9999998781469625 -0.0004936659400922326
  outer loop
    vertex -97.44350391261621 -183.8857575607411 8.503526861567844
    vertex -96.435826896534 -183.88625122668117 7.503526983430926
    vertex -97.44350839462348 -183.88625122668117 7.503526983430926
  endloop
endfacet
facet normal 0.0 0.9999998781469625 -0.0004936659400922326
  outer loop
    vertex -96.435826896534 -183.88625122668117 7.503526983430926
    vertex -97.44350391261621 -183.8857575607411 8.503526861567844
    vertex -96.43582241452673 -183.8857575607411 8.503526861567844
  endloop
endfacet
facet normal -0.9999702309856553 0.007716031495696513 6.727319768031187e-07
  outer loop
    vertex -228.64175404677712 -184.87804339015867 8.505496286946764
    vertex -228.63403991333206 -183.87823163732332 7.501869656740338
    vertex -228.64175852878438 -184.8785370560987 7.505496408809846
  endloop
endfacet
facet normal -0.9999702309856553 0.007716031495696513 6.727319768031187e-07
  outer loop
    vertex -228.63403991333206 -183.87823163732332 7.501869656740338
    vertex -228.64175404677712 -184.87804339015867 8.505496286946764
    vertex -228.6340354313248 -183.87773797138325 8.501869534877255
  endloop
endfacet
facet normal -0.0003079409887681106 -0.9999998307324596 0.000493667296861068
  outer loop
    vertex -227.64228316479338 -183.87853528297896 7.505428631619697
    vertex -228.6340354313248 -183.87773797138325 8.501869534877255
    vertex -228.63403991333206 -183.87823163732332 7.501869656740338
  endloop
endfacet
facet normal -0.0003079409887681106 -0.9999998307324596 0.000493667296861068
  outer loop
    vertex -228.6340354313248 -183.87773797138325 8.501869534877255
    vertex -227.64228316479338 -183.87853528297896 7.505428631619697
    vertex -227.64227868278613 -183.8780416170389 8.505428509756614
  endloop
endfacet
facet normal 0.007739595449320829 0.9999699270160926 -0.0004936858431462952
  outer loop
    vertex -227.64228316479338 -183.87853528297896 7.505428631619697
    vertex -97.45118540266411 -184.88569859657883 8.504854875981904
    vertex -97.45118988467136 -184.8861922625189 7.504854997844986
  endloop
endfacet
facet normal 0.007739595449320829 0.9999699270160926 -0.0004936858431462952
  outer loop
    vertex -97.45118540266411 -184.88569859657883 8.504854875981904
    vertex -227.64228316479338 -183.87853528297896 7.505428631619697
    vertex -227.64227868278613 -183.8780416170389 8.505428509756614
  endloop
endfacet
facet normal -0.9999704951743961 0.007681717268783685 6.89672927886679e-07
  outer loop
    vertex -97.45118540266411 -184.88569859657883 8.504854875981904
    vertex -97.44350839462348 -183.88625122668117 7.503526983430926
    vertex -97.45118988467136 -184.8861922625189 7.504854997844986
  endloop
endfacet
facet normal -0.9999704951743961 0.007681717268783685 6.89672927886679e-07
  outer loop
    vertex -97.44350839462348 -183.88625122668117 7.503526983430926
    vertex -97.45118540266411 -184.88569859657883 8.504854875981904
    vertex -97.44350391261621 -183.8857575607411 8.503526861567844
  endloop
endfacet
endsolid Sprout_v0.4~
