solid Feeder_v0.2
facet normal 0.0 0.0 1.0
  outer loop
    vertex 361.1055385253193 182.04603849104058 230.15917406741332
    vertex 348.1055385253193 208.91679139924707 230.15917406741332
    vertex 348.1055385253193 182.04603849104058 230.15917406741332
  endloop
endfacet
facet normal 0.0 0.0 1.0
  outer loop
    vertex 348.1055385253193 208.91679139924707 230.15917406741332
    vertex 361.1055385253193 182.04603849104058 230.15917406741332
    vertex 361.1055385253193 208.91679139924716 230.15917406741332
  endloop
endfacet
facet normal 0.0 0.0 -1.0
  outer loop
    vertex 361.1055385253193 186.04603849104046 207.15917406741346
    vertex 348.1055385253193 183.04603849104038 207.15917406741346
    vertex 348.1055385253193 186.0460384910404 207.15917406741346
  endloop
endfacet
facet normal 0.0 0.0 -1.0
  outer loop
    vertex 348.1055385253193 183.04603849104038 207.15917406741346
    vertex 361.1055385253193 186.04603849104046 207.15917406741346
    vertex 351.1055385253193 183.04603849104038 207.15917406741346
  endloop
endfacet
facet normal 0.0 0.0 -1.0
  outer loop
    vertex 351.1055385253193 183.04603849104038 207.15917406741346
    vertex 361.1055385253193 186.04603849104046 207.15917406741346
    vertex 351.1055385253193 182.0460384910404 207.15917406741346
  endloop
endfacet
facet normal 0.0 0.0 -1.0
  outer loop
    vertex 351.1055385253193 182.0460384910404 207.15917406741346
    vertex 361.1055385253193 186.04603849104046 207.15917406741346
    vertex 361.1055385253193 182.0460384910404 207.15917406741346
  endloop
endfacet
facet normal -1.0 0.0 0.0
  outer loop
    vertex 348.1055385253193 208.91679139924707 230.15917406741332
    vertex 348.1055385253193 182.0460384910406 229.15917406741332
    vertex 348.1055385253193 182.04603849104058 230.15917406741332
  endloop
endfacet
facet normal -1.0 0.0 0.0
  outer loop
    vertex 348.1055385253193 182.0460384910406 229.15917406741332
    vertex 348.1055385253193 208.91679139924707 230.15917406741332
    vertex 348.1055385253193 183.04603849104038 229.15917406741332
  endloop
endfacet
facet normal -1.0 0.0 0.0
  outer loop
    vertex 348.1055385253193 183.04603849104038 229.15917406741332
    vertex 348.1055385253193 208.91679139924707 230.15917406741332
    vertex 348.1055385253193 186.0460384910404 229.15917406741332
  endloop
endfacet
facet normal -1.0 0.0 0.0
  outer loop
    vertex 348.1055385253193 183.04603849104038 229.15917406741332
    vertex 348.1055385253193 186.0460384910404 229.15917406741332
    vertex 348.1055385253193 183.04603849104038 207.15917406741346
  endloop
endfacet
facet normal -1.0 0.0 0.0
  outer loop
    vertex 348.1055385253193 186.0460384910404 229.15917406741332
    vertex 348.1055385253193 208.91679139924707 230.15917406741332
    vertex 348.1055385253193 205.91679139924713 229.15917406741332
  endloop
endfacet
facet normal -1.0 0.0 0.0
  outer loop
    vertex 348.1055385253193 205.91679139924713 229.15917406741332
    vertex 348.1055385253193 208.91679139924707 230.15917406741332
    vertex 348.1055385253193 208.916791399247 207.15917406741346
  endloop
endfacet
facet normal -1.0 0.0 0.0
  outer loop
    vertex 348.1055385253193 208.916791399247 207.15917406741346
    vertex 348.1055385253193 205.91679139924707 207.15917406741346
    vertex 348.1055385253193 205.91679139924713 229.15917406741332
  endloop
endfacet
facet normal -1.0 0.0 0.0
  outer loop
    vertex 348.1055385253193 186.0460384910404 207.15917406741346
    vertex 348.1055385253193 183.04603849104038 207.15917406741346
    vertex 348.1055385253193 186.0460384910404 229.15917406741332
  endloop
endfacet
facet normal 1.0 0.0 0.0
  outer loop
    vertex 361.1055385253193 186.04603849104046 207.15917406741346
    vertex 361.1055385253193 182.04603849104058 230.15917406741332
    vertex 361.1055385253193 182.0460384910404 207.15917406741346
  endloop
endfacet
facet normal 1.0 0.0 0.0
  outer loop
    vertex 361.1055385253193 182.04603849104058 230.15917406741332
    vertex 361.1055385253193 186.04603849104046 207.15917406741346
    vertex 361.1055385253193 185.0460384910405 214.14783968747685
  endloop
endfacet
facet normal 1.0 0.0 0.0
  outer loop
    vertex 361.1055385253193 182.04603849104058 230.15917406741332
    vertex 361.1055385253193 185.0460384910405 214.14783968747685
    vertex 361.1055385253193 185.04603849104046 229.15917406741332
  endloop
endfacet
facet normal 1.0 0.0 0.0
  outer loop
    vertex 361.1055385253193 185.0460384910405 214.14783968747685
    vertex 361.1055385253193 186.04603849104046 207.15917406741346
    vertex 361.1055385253193 186.0460384910405 214.14783968747685
  endloop
endfacet
facet normal 1.0 0.0 0.0
  outer loop
    vertex 361.1055385253193 208.91679139924707 207.15917406741346
    vertex 361.1055385253193 204.91679139924713 214.14783968747685
    vertex 361.1055385253193 204.91679139924707 207.15917406741346
  endloop
endfacet
facet normal 1.0 0.0 0.0
  outer loop
    vertex 361.1055385253193 204.91679139924713 214.14783968747685
    vertex 361.1055385253193 208.91679139924707 207.15917406741346
    vertex 361.1055385253193 205.91679139924713 214.14783968747685
  endloop
endfacet
facet normal 1.0 0.0 0.0
  outer loop
    vertex 361.1055385253193 205.91679139924713 214.14783968747685
    vertex 361.1055385253193 208.91679139924707 207.15917406741346
    vertex 361.1055385253193 205.91679139924713 229.15917406741332
  endloop
endfacet
facet normal 1.0 0.0 0.0
  outer loop
    vertex 361.1055385253193 185.04603849104046 229.15917406741332
    vertex 361.1055385253193 208.91679139924716 230.15917406741332
    vertex 361.1055385253193 182.04603849104058 230.15917406741332
  endloop
endfacet
facet normal 1.0 0.0 0.0
  outer loop
    vertex 361.1055385253193 208.91679139924716 230.15917406741332
    vertex 361.1055385253193 185.04603849104046 229.15917406741332
    vertex 361.1055385253193 205.91679139924713 229.15917406741332
  endloop
endfacet
facet normal 1.0 0.0 0.0
  outer loop
    vertex 361.1055385253193 208.91679139924716 230.15917406741332
    vertex 361.1055385253193 205.91679139924713 229.15917406741332
    vertex 361.1055385253193 208.91679139924707 207.15917406741346
  endloop
endfacet
facet normal -4.3049208231315764e-29 1.0026547493503704e-14 -1.0
  outer loop
    vertex 361.1055385253193 208.91679139924707 207.15917406741346
    vertex 348.1055385253193 205.91679139924707 207.15917406741346
    vertex 348.1055385253193 208.916791399247 207.15917406741346
  endloop
endfacet
facet normal -4.3049208231315764e-29 1.0026547493503704e-14 -1.0
  outer loop
    vertex 348.1055385253193 205.91679139924707 207.15917406741346
    vertex 361.1055385253193 208.91679139924707 207.15917406741346
    vertex 351.1055385253193 205.91679139924707 207.1591740674134
  endloop
endfacet
facet normal -4.3049208231315764e-29 1.0026547493503704e-14 -1.0
  outer loop
    vertex 351.1055385253193 205.91679139924707 207.1591740674134
    vertex 361.1055385253193 208.91679139924707 207.15917406741346
    vertex 351.1055385253193 204.91679139924707 207.1591740674134
  endloop
endfacet
facet normal -4.3049208231315764e-29 1.0026547493503704e-14 -1.0
  outer loop
    vertex 351.1055385253193 204.91679139924707 207.1591740674134
    vertex 361.1055385253193 208.91679139924707 207.15917406741346
    vertex 361.1055385253193 204.91679139924707 207.15917406741346
  endloop
endfacet
facet normal -8.03386134596381e-15 1.0 -2.1485458914650714e-15
  outer loop
    vertex 348.1055385253193 208.916791399247 207.15917406741346
    vertex 352.1055385253193 208.9167913992471 214.14783968747685
    vertex 361.1055385253193 208.91679139924707 207.15917406741346
  endloop
endfacet
facet normal -8.03386134596381e-15 1.0 -2.1485458914650714e-15
  outer loop
    vertex 352.1055385253193 208.9167913992471 214.14783968747685
    vertex 348.1055385253193 208.916791399247 207.15917406741346
    vertex 348.1055385253193 208.91679139924707 230.15917406741332
  endloop
endfacet
facet normal -8.03386134596381e-15 1.0 -2.1485458914650714e-15
  outer loop
    vertex 352.1055385253193 208.9167913992471 214.14783968747685
    vertex 348.1055385253193 208.91679139924707 230.15917406741332
    vertex 352.1055385253193 208.9167913992471 229.15917406741332
  endloop
endfacet
facet normal -8.03386134596381e-15 1.0 -2.1485458914650714e-15
  outer loop
    vertex 352.1055385253193 208.9167913992471 229.15917406741332
    vertex 348.1055385253193 208.91679139924707 230.15917406741332
    vertex 358.10808552531927 208.9167913992471 229.15917406741332
  endloop
endfacet
facet normal -8.03386134596381e-15 1.0 -2.1485458914650714e-15
  outer loop
    vertex 361.1055385253193 208.91679139924707 207.15917406741346
    vertex 358.10808552531927 208.9167913992471 214.14783968747685
    vertex 361.1055385253193 208.91679139924716 230.15917406741332
  endloop
endfacet
facet normal -8.03386134596381e-15 1.0 -2.1485458914650714e-15
  outer loop
    vertex 358.10808552531927 208.9167913992471 214.14783968747685
    vertex 361.1055385253193 208.91679139924707 207.15917406741346
    vertex 352.1055385253193 208.9167913992471 214.14783968747685
  endloop
endfacet
facet normal -8.03386134596381e-15 1.0 -2.1485458914650714e-15
  outer loop
    vertex 361.1055385253193 208.91679139924716 230.15917406741332
    vertex 358.10808552531927 208.9167913992471 214.14783968747685
    vertex 358.10808552531927 208.9167913992471 229.15917406741332
  endloop
endfacet
facet normal -8.03386134596381e-15 1.0 -2.1485458914650714e-15
  outer loop
    vertex 361.1055385253193 208.91679139924716 230.15917406741332
    vertex 358.10808552531927 208.9167913992471 229.15917406741332
    vertex 348.1055385253193 208.91679139924707 230.15917406741332
  endloop
endfacet
facet normal 0.0 -1.0 0.0
  outer loop
    vertex 351.1055385253193 205.91679139924713 214.14783968747685
    vertex 348.1055385253193 205.91679139924707 207.15917406741346
    vertex 351.1055385253193 205.91679139924707 207.1591740674134
  endloop
endfacet
facet normal 0.0 -1.0 0.0
  outer loop
    vertex 348.1055385253193 205.91679139924707 207.15917406741346
    vertex 351.1055385253193 205.91679139924713 214.14783968747685
    vertex 348.1055385253193 205.91679139924713 229.15917406741332
  endloop
endfacet
facet normal 0.0 -1.0 0.0
  outer loop
    vertex 348.1055385253193 205.91679139924713 229.15917406741332
    vertex 351.1055385253193 205.91679139924713 214.14783968747685
    vertex 351.1055385253193 205.91679139924713 229.15917406741332
  endloop
endfacet
facet normal 0.0 0.0 -1.0
  outer loop
    vertex 351.1055385253193 205.91679139924713 229.15917406741332
    vertex 348.1055385253193 186.0460384910404 229.15917406741332
    vertex 348.1055385253193 205.91679139924713 229.15917406741332
  endloop
endfacet
facet normal 0.0 0.0 -1.0
  outer loop
    vertex 348.1055385253193 186.0460384910404 229.15917406741332
    vertex 351.1055385253193 205.91679139924713 229.15917406741332
    vertex 351.1055385253193 186.0460384910404 229.15917406741332
  endloop
endfacet
facet normal 0.0 -1.0 0.0
  outer loop
    vertex 351.1055385253193 183.04603849104038 229.15917406741332
    vertex 348.1055385253193 183.04603849104038 207.15917406741346
    vertex 351.1055385253193 183.04603849104038 207.15917406741346
  endloop
endfacet
facet normal 0.0 -1.0 0.0
  outer loop
    vertex 348.1055385253193 183.04603849104038 207.15917406741346
    vertex 351.1055385253193 183.04603849104038 229.15917406741332
    vertex 348.1055385253193 183.04603849104038 229.15917406741332
  endloop
endfacet
facet normal -1.0 -5.165419084128951e-17 1.1658369314985586e-15
  outer loop
    vertex 351.1055385253193 205.91679139924713 229.15917406741332
    vertex 351.1055385253193 186.0460384910404 214.14783968747685
    vertex 351.1055385253193 186.0460384910404 229.15917406741332
  endloop
endfacet
facet normal -1.0 -5.165419084128951e-17 1.1658369314985586e-15
  outer loop
    vertex 351.1055385253193 186.0460384910404 214.14783968747685
    vertex 351.1055385253193 205.91679139924713 229.15917406741332
    vertex 351.1055385253193 197.0933646268334 214.14783968747685
  endloop
endfacet
facet normal -1.0 -5.165419084128951e-17 1.1658369314985586e-15
  outer loop
    vertex 351.1055385253193 197.0933646268334 214.14783968747685
    vertex 351.1055385253193 205.91679139924713 229.15917406741332
    vertex 351.1055385253193 204.91679139924713 214.14783968747685
  endloop
endfacet
facet normal -1.0 -5.165419084128951e-17 1.1658369314985586e-15
  outer loop
    vertex 351.1055385253193 204.91679139924713 214.14783968747685
    vertex 351.1055385253193 205.91679139924713 229.15917406741332
    vertex 351.1055385253193 205.91679139924713 214.14783968747685
  endloop
endfacet
facet normal 0.0 0.0 -1.0
  outer loop
    vertex 351.1055385253193 204.91679139924713 214.14783968747685
    vertex 351.1055385253193 186.0460384910404 214.14783968747685
    vertex 351.1055385253193 197.0933646268334 214.14783968747685
  endloop
endfacet
facet normal 0.0 0.0 -1.0
  outer loop
    vertex 351.1055385253193 186.0460384910404 214.14783968747685
    vertex 351.1055385253193 204.91679139924713 214.14783968747685
    vertex 352.1055385253193 204.91679139924713 214.14783968747685
  endloop
endfacet
facet normal 0.0 0.0 -1.0
  outer loop
    vertex 351.1055385253193 186.0460384910404 214.14783968747685
    vertex 352.1055385253193 204.91679139924713 214.14783968747685
    vertex 352.1055385253193 186.0460384910404 214.14783968747685
  endloop
endfacet
facet normal -3.606913764610865e-15 -1.0 3.883717077294212e-15
  outer loop
    vertex 361.1055385253193 182.0460384910404 207.15917406741346
    vertex 358.10808552531984 182.04603849104058 214.14783968747685
    vertex 351.1055385253193 182.0460384910404 207.15917406741346
  endloop
endfacet
facet normal -3.606913764610865e-15 -1.0 3.883717077294212e-15
  outer loop
    vertex 358.10808552531984 182.04603849104058 214.14783968747685
    vertex 361.1055385253193 182.0460384910404 207.15917406741346
    vertex 361.1055385253193 182.04603849104058 230.15917406741332
  endloop
endfacet
facet normal -3.606913764610865e-15 -1.0 3.883717077294212e-15
  outer loop
    vertex 358.10808552531984 182.04603849104058 214.14783968747685
    vertex 361.1055385253193 182.04603849104058 230.15917406741332
    vertex 358.10808552531984 182.04603849104063 229.15917406741332
  endloop
endfacet
facet normal -3.606913764610865e-15 -1.0 3.883717077294212e-15
  outer loop
    vertex 358.10808552531984 182.04603849104063 229.15917406741332
    vertex 361.1055385253193 182.04603849104058 230.15917406741332
    vertex 352.10553852531933 182.0460384910406 229.15917406741332
  endloop
endfacet
facet normal -3.606913764610865e-15 -1.0 3.883717077294212e-15
  outer loop
    vertex 352.10553852531933 182.0460384910406 229.15917406741332
    vertex 361.1055385253193 182.04603849104058 230.15917406741332
    vertex 351.1055385253193 182.0460384910404 229.15917406741332
  endloop
endfacet
facet normal -3.606913764610865e-15 -1.0 3.883717077294212e-15
  outer loop
    vertex 351.1055385253193 182.0460384910404 229.15917406741332
    vertex 361.1055385253193 182.04603849104058 230.15917406741332
    vertex 348.1055385253193 182.0460384910406 229.15917406741332
  endloop
endfacet
facet normal -3.606913764610865e-15 -1.0 3.883717077294212e-15
  outer loop
    vertex 348.1055385253193 182.0460384910406 229.15917406741332
    vertex 361.1055385253193 182.04603849104058 230.15917406741332
    vertex 348.1055385253193 182.04603849104058 230.15917406741332
  endloop
endfacet
facet normal -3.606913764610865e-15 -1.0 3.883717077294212e-15
  outer loop
    vertex 351.1055385253193 182.0460384910404 207.15917406741346
    vertex 352.10553852531933 182.04603849104052 214.14783968747685
    vertex 351.1055385253193 182.0460384910404 229.15917406741332
  endloop
endfacet
facet normal -3.606913764610865e-15 -1.0 3.883717077294212e-15
  outer loop
    vertex 352.10553852531933 182.04603849104052 214.14783968747685
    vertex 351.1055385253193 182.0460384910404 207.15917406741346
    vertex 358.10808552531984 182.04603849104058 214.14783968747685
  endloop
endfacet
facet normal -3.606913764610865e-15 -1.0 3.883717077294212e-15
  outer loop
    vertex 351.1055385253193 182.0460384910404 229.15917406741332
    vertex 352.10553852531933 182.04603849104052 214.14783968747685
    vertex 352.10553852531933 182.0460384910406 229.15917406741332
  endloop
endfacet
facet normal -1.0 0.0 0.0
  outer loop
    vertex 351.1055385253193 183.04603849104038 229.15917406741332
    vertex 351.1055385253193 182.0460384910404 207.15917406741346
    vertex 351.1055385253193 182.0460384910404 229.15917406741332
  endloop
endfacet
facet normal -1.0 0.0 0.0
  outer loop
    vertex 351.1055385253193 182.0460384910404 207.15917406741346
    vertex 351.1055385253193 183.04603849104038 229.15917406741332
    vertex 351.1055385253193 183.04603849104038 207.15917406741346
  endloop
endfacet
facet normal 0.0 -1.0 0.0
  outer loop
    vertex 361.1055385253193 205.91679139924713 229.15917406741332
    vertex 358.10808552531927 205.91679139924713 214.14783968747685
    vertex 361.1055385253193 205.91679139924713 214.14783968747685
  endloop
endfacet
facet normal 0.0 -1.0 0.0
  outer loop
    vertex 358.10808552531927 205.91679139924713 214.14783968747685
    vertex 361.1055385253193 205.91679139924713 229.15917406741332
    vertex 358.10808552531927 205.91679139924713 229.15917406741332
  endloop
endfacet
facet normal -1.0 0.0 0.0
  outer loop
    vertex 358.10808552531927 208.9167913992471 229.15917406741332
    vertex 358.10808552531927 205.91679139924713 214.14783968747685
    vertex 358.10808552531927 205.91679139924713 229.15917406741332
  endloop
endfacet
facet normal -1.0 0.0 0.0
  outer loop
    vertex 358.10808552531927 205.91679139924713 214.14783968747685
    vertex 358.10808552531927 208.9167913992471 229.15917406741332
    vertex 358.10808552531927 208.9167913992471 214.14783968747685
  endloop
endfacet
facet normal 0.0 0.0 1.0
  outer loop
    vertex 352.10553852531933 182.04603849104052 214.14783968747685
    vertex 352.68828854857264 184.5944731608329 214.14783968747685
    vertex 352.65421437486174 184.8532922059354 214.14783968747685
  endloop
endfacet
facet normal 0.0 0.0 1.0
  outer loop
    vertex 352.68828854857264 184.5944731608329 214.14783968747685
    vertex 352.10553852531933 182.04603849104052 214.14783968747685
    vertex 352.78818897107726 184.3532922059354 214.14783968747685
  endloop
endfacet
facet normal 0.0 0.0 1.0
  outer loop
    vertex 352.78818897107726 184.3532922059354 214.14783968747685
    vertex 352.10553852531933 182.04603849104052 214.14783968747685
    vertex 352.9471075936752 184.14618542474886 214.14783968747685
  endloop
endfacet
facet normal 0.0 0.0 1.0
  outer loop
    vertex 352.9471075936752 184.14618542474886 214.14783968747685
    vertex 352.10553852531933 182.04603849104052 214.14783968747685
    vertex 353.15421437486174 183.98726680215097 214.14783968747685
  endloop
endfacet
facet normal 0.0 0.0 1.0
  outer loop
    vertex 353.15421437486174 183.98726680215097 214.14783968747685
    vertex 352.10553852531933 182.04603849104052 214.14783968747685
    vertex 353.3953953297592 183.88736637964635 214.14783968747685
  endloop
endfacet
facet normal 0.0 0.0 1.0
  outer loop
    vertex 353.3953953297592 183.88736637964635 214.14783968747685
    vertex 352.10553852531933 182.04603849104052 214.14783968747685
    vertex 358.10808552531984 182.04603849104058 214.14783968747685
  endloop
endfacet
facet normal 0.0 0.0 1.0
  outer loop
    vertex 353.3953953297592 183.88736637964635 214.14783968747685
    vertex 358.10808552531984 182.04603849104058 214.14783968747685
    vertex 353.65421437486174 183.85329220593542 214.14783968747685
  endloop
endfacet
facet normal 0.0 0.0 1.0
  outer loop
    vertex 353.65421437486174 183.85329220593542 214.14783968747685
    vertex 358.10808552531984 182.04603849104058 214.14783968747685
    vertex 353.9130334199642 183.88736637964635 214.14783968747685
  endloop
endfacet
facet normal 0.0 0.0 1.0
  outer loop
    vertex 353.9130334199642 183.88736637964635 214.14783968747685
    vertex 358.10808552531984 182.04603849104058 214.14783968747685
    vertex 354.15421437486174 183.98726680215097 214.14783968747685
  endloop
endfacet
facet normal 0.0 0.0 1.0
  outer loop
    vertex 354.15421437486174 183.98726680215097 214.14783968747685
    vertex 358.10808552531984 182.04603849104058 214.14783968747685
    vertex 354.36132115604823 184.14618542474886 214.14783968747685
  endloop
endfacet
facet normal 0.0 0.0 1.0
  outer loop
    vertex 354.36132115604823 184.14618542474886 214.14783968747685
    vertex 358.10808552531984 182.04603849104058 214.14783968747685
    vertex 354.52023977864616 184.3532922059354 214.14783968747685
  endloop
endfacet
facet normal 0.0 0.0 1.0
  outer loop
    vertex 354.52023977864616 184.3532922059354 214.14783968747685
    vertex 358.10808552531984 182.04603849104058 214.14783968747685
    vertex 354.6201402011508 184.5944731608329 214.14783968747685
  endloop
endfacet
facet normal 0.0 0.0 1.0
  outer loop
    vertex 354.6201402011508 184.5944731608329 214.14783968747685
    vertex 358.10808552531984 182.04603849104058 214.14783968747685
    vertex 354.6542143748617 184.8532922059354 214.14783968747685
  endloop
endfacet
facet normal 0.0 0.0 1.0
  outer loop
    vertex 354.6542143748617 184.8532922059354 214.14783968747685
    vertex 358.10808552531984 182.04603849104058 214.14783968747685
    vertex 358.1080855253198 185.0460384910405 214.14783968747685
  endloop
endfacet
facet normal 0.0 0.0 1.0
  outer loop
    vertex 352.1055385253193 186.0460384910404 214.14783968747685
    vertex 353.65421437486174 185.8532922059354 214.14783968747685
    vertex 361.1055385253193 186.0460384910405 214.14783968747685
  endloop
endfacet
facet normal 0.0 0.0 1.0
  outer loop
    vertex 353.65421437486174 185.8532922059354 214.14783968747685
    vertex 352.1055385253193 186.0460384910404 214.14783968747685
    vertex 353.3953953297592 185.81921803222446 214.14783968747685
  endloop
endfacet
facet normal 0.0 0.0 1.0
  outer loop
    vertex 353.3953953297592 185.81921803222446 214.14783968747685
    vertex 352.1055385253193 186.0460384910404 214.14783968747685
    vertex 353.1542143748617 185.71931760971984 214.14783968747685
  endloop
endfacet
facet normal 0.0 0.0 1.0
  outer loop
    vertex 353.1542143748617 185.71931760971984 214.14783968747685
    vertex 352.1055385253193 186.0460384910404 214.14783968747685
    vertex 352.9471075936752 185.56039898712194 214.14783968747685
  endloop
endfacet
facet normal 0.0 0.0 1.0
  outer loop
    vertex 352.9471075936752 185.56039898712194 214.14783968747685
    vertex 352.1055385253193 186.0460384910404 214.14783968747685
    vertex 352.78818897107726 185.3532922059354 214.14783968747685
  endloop
endfacet
facet normal 0.0 0.0 1.0
  outer loop
    vertex 352.78818897107726 185.3532922059354 214.14783968747685
    vertex 352.1055385253193 186.0460384910404 214.14783968747685
    vertex 352.68828854857264 185.1121112510379 214.14783968747685
  endloop
endfacet
facet normal 0.0 0.0 1.0
  outer loop
    vertex 352.68828854857264 185.1121112510379 214.14783968747685
    vertex 352.1055385253193 186.0460384910404 214.14783968747685
    vertex 352.10553852531933 182.04603849104052 214.14783968747685
  endloop
endfacet
facet normal 0.0 0.0 1.0
  outer loop
    vertex 352.68828854857264 185.1121112510379 214.14783968747685
    vertex 352.10553852531933 182.04603849104052 214.14783968747685
    vertex 352.65421437486174 184.8532922059354 214.14783968747685
  endloop
endfacet
facet normal 0.0 0.0 1.0
  outer loop
    vertex 361.1055385253193 186.0460384910405 214.14783968747685
    vertex 353.65421437486174 185.8532922059354 214.14783968747685
    vertex 353.9130334199642 185.81921803222446 214.14783968747685
  endloop
endfacet
facet normal 0.0 0.0 1.0
  outer loop
    vertex 361.1055385253193 186.0460384910405 214.14783968747685
    vertex 353.9130334199642 185.81921803222446 214.14783968747685
    vertex 354.1542143748617 185.71931760971984 214.14783968747685
  endloop
endfacet
facet normal 0.0 0.0 1.0
  outer loop
    vertex 361.1055385253193 186.0460384910405 214.14783968747685
    vertex 354.1542143748617 185.71931760971984 214.14783968747685
    vertex 354.36132115604823 185.56039898712194 214.14783968747685
  endloop
endfacet
facet normal 0.0 0.0 1.0
  outer loop
    vertex 361.1055385253193 186.0460384910405 214.14783968747685
    vertex 354.36132115604823 185.56039898712194 214.14783968747685
    vertex 354.52023977864616 185.3532922059354 214.14783968747685
  endloop
endfacet
facet normal 0.0 0.0 1.0
  outer loop
    vertex 361.1055385253193 186.0460384910405 214.14783968747685
    vertex 354.52023977864616 185.3532922059354 214.14783968747685
    vertex 354.6201402011508 185.1121112510379 214.14783968747685
  endloop
endfacet
facet normal 0.0 0.0 1.0
  outer loop
    vertex 361.1055385253193 186.0460384910405 214.14783968747685
    vertex 354.6201402011508 185.1121112510379 214.14783968747685
    vertex 354.6542143748617 184.8532922059354 214.14783968747685
  endloop
endfacet
facet normal 0.0 0.0 1.0
  outer loop
    vertex 361.1055385253193 186.0460384910405 214.14783968747685
    vertex 354.6542143748617 184.8532922059354 214.14783968747685
    vertex 358.1080855253198 185.0460384910405 214.14783968747685
  endloop
endfacet
facet normal 0.0 0.0 1.0
  outer loop
    vertex 361.1055385253193 186.0460384910405 214.14783968747685
    vertex 358.1080855253198 185.0460384910405 214.14783968747685
    vertex 361.1055385253193 185.0460384910405 214.14783968747685
  endloop
endfacet
facet normal 0.0 0.0 -1.0
  outer loop
    vertex 361.1055385253193 205.91679139924713 229.15917406741332
    vertex 358.1080855253198 185.04603849104052 229.15917406741332
    vertex 358.10808552531927 205.91679139924713 229.15917406741332
  endloop
endfacet
facet normal 0.0 0.0 -1.0
  outer loop
    vertex 358.1080855253198 185.04603849104052 229.15917406741332
    vertex 361.1055385253193 205.91679139924713 229.15917406741332
    vertex 361.1055385253193 185.04603849104046 229.15917406741332
  endloop
endfacet
facet normal 0.0 0.0 -1.0
  outer loop
    vertex 358.10808552531927 208.9167913992471 229.15917406741332
    vertex 352.10553852531933 182.0460384910406 229.15917406741332
    vertex 352.1055385253193 208.9167913992471 229.15917406741332
  endloop
endfacet
facet normal 0.0 0.0 -1.0
  outer loop
    vertex 352.10553852531933 182.0460384910406 229.15917406741332
    vertex 358.10808552531927 208.9167913992471 229.15917406741332
    vertex 358.10808552531927 205.91679139924713 229.15917406741332
  endloop
endfacet
facet normal 0.0 0.0 -1.0
  outer loop
    vertex 352.10553852531933 182.0460384910406 229.15917406741332
    vertex 358.10808552531927 205.91679139924713 229.15917406741332
    vertex 358.10808552531984 182.04603849104063 229.15917406741332
  endloop
endfacet
facet normal 0.0 0.0 -1.0
  outer loop
    vertex 358.10808552531984 182.04603849104063 229.15917406741332
    vertex 358.10808552531927 205.91679139924713 229.15917406741332
    vertex 358.1080855253198 185.04603849104052 229.15917406741332
  endloop
endfacet
facet normal 1.0 1.2900120163172154e-15 -7.514232675589369e-16
  outer loop
    vertex 352.1055385253193 186.0460384910404 214.14783968747685
    vertex 352.10553852531933 182.0460384910406 229.15917406741332
    vertex 352.10553852531933 182.04603849104052 214.14783968747685
  endloop
endfacet
facet normal 1.0 1.2900120163172154e-15 -7.514232675589369e-16
  outer loop
    vertex 352.10553852531933 182.0460384910406 229.15917406741332
    vertex 352.1055385253193 186.0460384910404 214.14783968747685
    vertex 352.1055385253193 208.9167913992471 229.15917406741332
  endloop
endfacet
facet normal 1.0 1.2900120163172154e-15 -7.514232675589369e-16
  outer loop
    vertex 352.1055385253193 208.9167913992471 229.15917406741332
    vertex 352.1055385253193 186.0460384910404 214.14783968747685
    vertex 352.1055385253193 204.91679139924713 214.14783968747685
  endloop
endfacet
facet normal 1.0 1.2900120163172154e-15 -7.514232675589369e-16
  outer loop
    vertex 352.1055385253193 208.9167913992471 229.15917406741332
    vertex 352.1055385253193 204.91679139924713 214.14783968747685
    vertex 352.1055385253193 208.9167913992471 214.14783968747685
  endloop
endfacet
facet normal -1.0 -1.5039821240255934e-14 4.5116843123476425e-29
  outer loop
    vertex 358.10808552531984 182.04603849104063 229.15917406741332
    vertex 358.1080855253198 185.0460384910405 214.14783968747685
    vertex 358.10808552531984 182.04603849104058 214.14783968747685
  endloop
endfacet
facet normal -1.0 -1.5039821240255934e-14 4.5116843123476425e-29
  outer loop
    vertex 358.1080855253198 185.0460384910405 214.14783968747685
    vertex 358.10808552531984 182.04603849104063 229.15917406741332
    vertex 358.1080855253198 185.04603849104052 229.15917406741332
  endloop
endfacet
facet normal 0.0 0.0 -1.0
  outer loop
    vertex 351.1055385253193 183.04603849104038 229.15917406741332
    vertex 348.1055385253193 182.0460384910406 229.15917406741332
    vertex 348.1055385253193 183.04603849104038 229.15917406741332
  endloop
endfacet
facet normal 0.0 0.0 -1.0
  outer loop
    vertex 348.1055385253193 182.0460384910406 229.15917406741332
    vertex 351.1055385253193 183.04603849104038 229.15917406741332
    vertex 351.1055385253193 182.0460384910404 229.15917406741332
  endloop
endfacet
facet normal 1.1289450673815534e-14 1.0 -7.514232675589309e-16
  outer loop
    vertex 358.1080855253198 185.04603849104052 229.15917406741332
    vertex 361.1055385253193 185.0460384910405 214.14783968747685
    vertex 358.1080855253198 185.0460384910405 214.14783968747685
  endloop
endfacet
facet normal 1.1289450673815534e-14 1.0 -7.514232675589309e-16
  outer loop
    vertex 361.1055385253193 185.0460384910405 214.14783968747685
    vertex 358.1080855253198 185.04603849104052 229.15917406741332
    vertex 361.1055385253193 185.04603849104046 229.15917406741332
  endloop
endfacet
facet normal -6.851092169595886e-15 1.0 -3.8986421040763867e-16
  outer loop
    vertex 348.1055385253193 186.0460384910404 207.15917406741346
    vertex 351.1055385253193 186.0460384910404 214.14783968747685
    vertex 361.1055385253193 186.04603849104046 207.15917406741346
  endloop
endfacet
facet normal -6.851092169595886e-15 1.0 -3.8986421040763867e-16
  outer loop
    vertex 351.1055385253193 186.0460384910404 214.14783968747685
    vertex 348.1055385253193 186.0460384910404 207.15917406741346
    vertex 348.1055385253193 186.0460384910404 229.15917406741332
  endloop
endfacet
facet normal -6.851092169595886e-15 1.0 -3.8986421040763867e-16
  outer loop
    vertex 351.1055385253193 186.0460384910404 214.14783968747685
    vertex 348.1055385253193 186.0460384910404 229.15917406741332
    vertex 351.1055385253193 186.0460384910404 229.15917406741332
  endloop
endfacet
facet normal -6.851092169595886e-15 1.0 -3.8986421040763867e-16
  outer loop
    vertex 351.1055385253193 186.0460384910404 214.14783968747685
    vertex 361.1055385253193 186.0460384910405 214.14783968747685
    vertex 361.1055385253193 186.04603849104046 207.15917406741346
  endloop
endfacet
facet normal -6.851092169595886e-15 1.0 -3.8986421040763867e-16
  outer loop
    vertex 361.1055385253193 186.0460384910405 214.14783968747685
    vertex 351.1055385253193 186.0460384910404 214.14783968747685
    vertex 352.1055385253193 186.0460384910404 214.14783968747685
  endloop
endfacet
facet normal 0.0 -1.0 0.0
  outer loop
    vertex 361.1055385253193 204.91679139924707 207.15917406741346
    vertex 351.1055385253193 204.91679139924713 214.14783968747685
    vertex 351.1055385253193 204.91679139924707 207.1591740674134
  endloop
endfacet
facet normal 0.0 -1.0 0.0
  outer loop
    vertex 351.1055385253193 204.91679139924713 214.14783968747685
    vertex 361.1055385253193 204.91679139924707 207.15917406741346
    vertex 361.1055385253193 204.91679139924713 214.14783968747685
  endloop
endfacet
facet normal 0.0 -1.0 0.0
  outer loop
    vertex 351.1055385253193 204.91679139924713 214.14783968747685
    vertex 361.1055385253193 204.91679139924713 214.14783968747685
    vertex 352.1055385253193 204.91679139924713 214.14783968747685
  endloop
endfacet
facet normal 0.0 0.0 1.0
  outer loop
    vertex 352.1055385253193 204.91679139924713 214.14783968747685
    vertex 353.05981720033145 206.71317695847804 214.14783968747685
    vertex 352.1055385253193 208.9167913992471 214.14783968747685
  endloop
endfacet
facet normal 0.0 0.0 1.0
  outer loop
    vertex 353.05981720033145 206.71317695847804 214.14783968747685
    vertex 352.1055385253193 204.91679139924713 214.14783968747685
    vertex 353.19189886064316 206.53680378669128 214.14783968747685
  endloop
endfacet
facet normal 0.0 0.0 1.0
  outer loop
    vertex 353.19189886064316 206.53680378669128 214.14783968747685
    vertex 352.1055385253193 204.91679139924713 214.14783968747685
    vertex 353.3651286834209 206.40062563419534 214.14783968747685
  endloop
endfacet
facet normal 0.0 0.0 1.0
  outer loop
    vertex 353.3651286834209 206.40062563419534 214.14783968747685
    vertex 352.1055385253193 204.91679139924713 214.14783968747685
    vertex 353.56770134251815 206.31392281703782 214.14783968747685
  endloop
endfacet
facet normal 0.0 0.0 1.0
  outer loop
    vertex 353.56770134251815 206.31392281703782 214.14783968747685
    vertex 352.1055385253193 204.91679139924713 214.14783968747685
    vertex 361.1055385253193 204.91679139924713 214.14783968747685
  endloop
endfacet
facet normal 0.0 0.0 1.0
  outer loop
    vertex 352.1055385253193 208.9167913992471 214.14783968747685
    vertex 353.05981720033145 206.71317695847804 214.14783968747685
    vertex 352.97788484936086 206.91772560936874 214.14783968747685
  endloop
endfacet
facet normal 0.0 0.0 1.0
  outer loop
    vertex 352.1055385253193 208.9167913992471 214.14783968747685
    vertex 352.97788484936086 206.91772560936874 214.14783968747685
    vertex 352.9516853620503 207.13651008683794 214.14783968747685
  endloop
endfacet
facet normal 0.0 0.0 1.0
  outer loop
    vertex 353.56770134251815 206.31392281703782 214.14783968747685
    vertex 361.1055385253193 204.91679139924713 214.14783968747685
    vertex 353.7858118459847 206.2826039889248 214.14783968747685
  endloop
endfacet
facet normal 0.0 0.0 1.0
  outer loop
    vertex 353.7858118459847 206.2826039889248 214.14783968747685
    vertex 361.1055385253193 204.91679139924713 214.14783968747685
    vertex 354.0045963234539 206.30880347623537 214.14783968747685
  endloop
endfacet
facet normal 0.0 0.0 1.0
  outer loop
    vertex 354.0045963234539 206.30880347623537 214.14783968747685
    vertex 361.1055385253193 204.91679139924713 214.14783968747685
    vertex 354.2091449743446 206.39073582720596 214.14783968747685
  endloop
endfacet
facet normal 0.0 0.0 1.0
  outer loop
    vertex 354.2091449743446 206.39073582720596 214.14783968747685
    vertex 361.1055385253193 204.91679139924713 214.14783968747685
    vertex 354.38551814613135 206.52281748751764 214.14783968747685
  endloop
endfacet
facet normal 0.0 0.0 1.0
  outer loop
    vertex 354.38551814613135 206.52281748751764 214.14783968747685
    vertex 361.1055385253193 204.91679139924713 214.14783968747685
    vertex 354.5216962986273 206.69604731029537 214.14783968747685
  endloop
endfacet
facet normal 0.0 0.0 1.0
  outer loop
    vertex 354.5216962986273 206.69604731029537 214.14783968747685
    vertex 361.1055385253193 204.91679139924713 214.14783968747685
    vertex 354.60839911578483 206.89861996939266 214.14783968747685
  endloop
endfacet
facet normal 0.0 0.0 1.0
  outer loop
    vertex 354.60839911578483 206.89861996939266 214.14783968747685
    vertex 361.1055385253193 204.91679139924713 214.14783968747685
    vertex 358.10808552531927 205.91679139924713 214.14783968747685
  endloop
endfacet
facet normal 0.0 0.0 1.0
  outer loop
    vertex 354.60839911578483 206.89861996939266 214.14783968747685
    vertex 358.10808552531927 205.91679139924713 214.14783968747685
    vertex 354.6397179438979 207.1167304728592 214.14783968747685
  endloop
endfacet
facet normal 0.0 0.0 1.0
  outer loop
    vertex 358.10808552531927 205.91679139924713 214.14783968747685
    vertex 361.1055385253193 204.91679139924713 214.14783968747685
    vertex 361.1055385253193 205.91679139924713 214.14783968747685
  endloop
endfacet
facet normal 0.0 0.0 1.0
  outer loop
    vertex 352.1055385253193 208.9167913992471 214.14783968747685
    vertex 353.5868069824943 207.9444370834618 214.14783968747685
    vertex 358.10808552531927 208.9167913992471 214.14783968747685
  endloop
endfacet
facet normal 0.0 0.0 1.0
  outer loop
    vertex 353.5868069824943 207.9444370834618 214.14783968747685
    vertex 352.1055385253193 208.9167913992471 214.14783968747685
    vertex 353.38225833160357 207.86250473249117 214.14783968747685
  endloop
endfacet
facet normal 0.0 0.0 1.0
  outer loop
    vertex 353.38225833160357 207.86250473249117 214.14783968747685
    vertex 352.1055385253193 208.9167913992471 214.14783968747685
    vertex 353.2058851598168 207.73042307217952 214.14783968747685
  endloop
endfacet
facet normal 0.0 0.0 1.0
  outer loop
    vertex 353.2058851598168 207.73042307217952 214.14783968747685
    vertex 352.1055385253193 208.9167913992471 214.14783968747685
    vertex 353.06970700732086 207.5571932494018 214.14783968747685
  endloop
endfacet
facet normal 0.0 0.0 1.0
  outer loop
    vertex 353.06970700732086 207.5571932494018 214.14783968747685
    vertex 352.1055385253193 208.9167913992471 214.14783968747685
    vertex 352.98300419016334 207.3546205903045 214.14783968747685
  endloop
endfacet
facet normal 0.0 0.0 1.0
  outer loop
    vertex 352.98300419016334 207.3546205903045 214.14783968747685
    vertex 352.1055385253193 208.9167913992471 214.14783968747685
    vertex 352.9516853620503 207.13651008683794 214.14783968747685
  endloop
endfacet
facet normal 0.0 0.0 1.0
  outer loop
    vertex 358.10808552531927 208.9167913992471 214.14783968747685
    vertex 353.5868069824943 207.9444370834618 214.14783968747685
    vertex 353.80559145996347 207.97063657077237 214.14783968747685
  endloop
endfacet
facet normal 0.0 0.0 1.0
  outer loop
    vertex 358.10808552531927 208.9167913992471 214.14783968747685
    vertex 353.80559145996347 207.97063657077237 214.14783968747685
    vertex 354.02370196343 207.9393177426593 214.14783968747685
  endloop
endfacet
facet normal 0.0 0.0 1.0
  outer loop
    vertex 358.10808552531927 208.9167913992471 214.14783968747685
    vertex 354.02370196343 207.9393177426593 214.14783968747685
    vertex 354.2262746225273 207.8526149255018 214.14783968747685
  endloop
endfacet
facet normal 0.0 0.0 1.0
  outer loop
    vertex 358.10808552531927 208.9167913992471 214.14783968747685
    vertex 354.2262746225273 207.8526149255018 214.14783968747685
    vertex 354.399504445305 207.71643677300585 214.14783968747685
  endloop
endfacet
facet normal 0.0 0.0 1.0
  outer loop
    vertex 358.10808552531927 208.9167913992471 214.14783968747685
    vertex 354.399504445305 207.71643677300585 214.14783968747685
    vertex 354.53158610561667 207.54006360121912 214.14783968747685
  endloop
endfacet
facet normal 0.0 0.0 1.0
  outer loop
    vertex 358.10808552531927 208.9167913992471 214.14783968747685
    vertex 354.53158610561667 207.54006360121912 214.14783968747685
    vertex 354.6135184565873 207.3355149503284 214.14783968747685
  endloop
endfacet
facet normal 0.0 0.0 1.0
  outer loop
    vertex 358.10808552531927 208.9167913992471 214.14783968747685
    vertex 354.6135184565873 207.3355149503284 214.14783968747685
    vertex 354.6397179438979 207.1167304728592 214.14783968747685
  endloop
endfacet
facet normal 0.0 0.0 1.0
  outer loop
    vertex 358.10808552531927 208.9167913992471 214.14783968747685
    vertex 354.6397179438979 207.1167304728592 214.14783968747685
    vertex 358.10808552531927 205.91679139924713 214.14783968747685
  endloop
endfacet
facet normal -1.0 -0.0 -0.0
  outer loop
    vertex 351.1055385253193 204.91679139924713 214.14783968747685
    vertex 351.1055385253193 205.91679139924707 207.1591740674134
    vertex 351.1055385253193 204.91679139924707 207.1591740674134
  endloop
endfacet
facet normal -1.0 -0.0 -0.0
  outer loop
    vertex 351.1055385253193 205.91679139924707 207.1591740674134
    vertex 351.1055385253193 204.91679139924713 214.14783968747685
    vertex 351.1055385253193 205.91679139924713 214.14783968747685
  endloop
endfacet
facet normal 0.0 0.0 1.0
  outer loop
    vertex 352.68828854857264 184.5944731608329 218.14783968747685
    vertex 352.68828854857264 185.1121112510379 218.14783968747685
    vertex 352.65421437486174 184.8532922059354 218.14783968747685
  endloop
endfacet
facet normal 0.0 0.0 1.0
  outer loop
    vertex 352.68828854857264 185.1121112510379 218.14783968747685
    vertex 352.68828854857264 184.5944731608329 218.14783968747685
    vertex 352.78818897107726 184.3532922059354 218.14783968747685
  endloop
endfacet
facet normal 0.0 0.0 1.0
  outer loop
    vertex 352.68828854857264 185.1121112510379 218.14783968747685
    vertex 352.78818897107726 184.3532922059354 218.14783968747685
    vertex 352.78818897107726 185.3532922059354 218.14783968747685
  endloop
endfacet
facet normal 0.0 0.0 1.0
  outer loop
    vertex 352.78818897107726 185.3532922059354 218.14783968747685
    vertex 352.78818897107726 184.3532922059354 218.14783968747685
    vertex 352.9471075936752 184.14618542474886 218.14783968747685
  endloop
endfacet
facet normal 0.0 0.0 1.0
  outer loop
    vertex 352.78818897107726 185.3532922059354 218.14783968747685
    vertex 352.9471075936752 184.14618542474886 218.14783968747685
    vertex 352.9471075936752 185.56039898712194 218.14783968747685
  endloop
endfacet
facet normal 0.0 0.0 1.0
  outer loop
    vertex 352.9471075936752 185.56039898712194 218.14783968747685
    vertex 352.9471075936752 184.14618542474886 218.14783968747685
    vertex 353.15421437486174 183.98726680215097 218.14783968747685
  endloop
endfacet
facet normal 0.0 0.0 1.0
  outer loop
    vertex 352.9471075936752 185.56039898712194 218.14783968747685
    vertex 353.15421437486174 183.98726680215097 218.14783968747685
    vertex 353.1542143748617 185.71931760971984 218.14783968747685
  endloop
endfacet
facet normal 0.0 0.0 1.0
  outer loop
    vertex 353.1542143748617 185.71931760971984 218.14783968747685
    vertex 353.15421437486174 183.98726680215097 218.14783968747685
    vertex 353.3953953297592 185.81921803222446 218.14783968747685
  endloop
endfacet
facet normal 0.0 0.0 1.0
  outer loop
    vertex 353.3953953297592 185.81921803222446 218.14783968747685
    vertex 353.15421437486174 183.98726680215097 218.14783968747685
    vertex 353.3953953297592 183.88736637964635 218.14783968747685
  endloop
endfacet
facet normal 0.0 0.0 1.0
  outer loop
    vertex 353.3953953297592 185.81921803222446 218.14783968747685
    vertex 353.3953953297592 183.88736637964635 218.14783968747685
    vertex 353.65421437486174 183.85329220593542 218.14783968747685
  endloop
endfacet
facet normal 0.0 0.0 1.0
  outer loop
    vertex 353.3953953297592 185.81921803222446 218.14783968747685
    vertex 353.65421437486174 183.85329220593542 218.14783968747685
    vertex 353.65421437486174 185.8532922059354 218.14783968747685
  endloop
endfacet
facet normal 0.0 0.0 1.0
  outer loop
    vertex 353.65421437486174 185.8532922059354 218.14783968747685
    vertex 353.65421437486174 183.85329220593542 218.14783968747685
    vertex 353.9130334199642 183.88736637964635 218.14783968747685
  endloop
endfacet
facet normal 0.0 0.0 1.0
  outer loop
    vertex 353.65421437486174 185.8532922059354 218.14783968747685
    vertex 353.9130334199642 183.88736637964635 218.14783968747685
    vertex 353.9130334199642 185.81921803222446 218.14783968747685
  endloop
endfacet
facet normal 0.0 0.0 1.0
  outer loop
    vertex 353.9130334199642 185.81921803222446 218.14783968747685
    vertex 353.9130334199642 183.88736637964635 218.14783968747685
    vertex 354.15421437486174 183.98726680215097 218.14783968747685
  endloop
endfacet
facet normal 0.0 0.0 1.0
  outer loop
    vertex 353.9130334199642 185.81921803222446 218.14783968747685
    vertex 354.15421437486174 183.98726680215097 218.14783968747685
    vertex 354.1542143748617 185.71931760971984 218.14783968747685
  endloop
endfacet
facet normal 0.0 0.0 1.0
  outer loop
    vertex 354.1542143748617 185.71931760971984 218.14783968747685
    vertex 354.15421437486174 183.98726680215097 218.14783968747685
    vertex 354.36132115604823 185.56039898712194 218.14783968747685
  endloop
endfacet
facet normal 0.0 0.0 1.0
  outer loop
    vertex 354.36132115604823 185.56039898712194 218.14783968747685
    vertex 354.15421437486174 183.98726680215097 218.14783968747685
    vertex 354.36132115604823 184.14618542474886 218.14783968747685
  endloop
endfacet
facet normal 0.0 0.0 1.0
  outer loop
    vertex 354.36132115604823 185.56039898712194 218.14783968747685
    vertex 354.36132115604823 184.14618542474886 218.14783968747685
    vertex 354.52023977864616 184.3532922059354 218.14783968747685
  endloop
endfacet
facet normal 0.0 0.0 1.0
  outer loop
    vertex 354.36132115604823 185.56039898712194 218.14783968747685
    vertex 354.52023977864616 184.3532922059354 218.14783968747685
    vertex 354.52023977864616 185.3532922059354 218.14783968747685
  endloop
endfacet
facet normal 0.0 0.0 1.0
  outer loop
    vertex 354.52023977864616 185.3532922059354 218.14783968747685
    vertex 354.52023977864616 184.3532922059354 218.14783968747685
    vertex 354.6201402011508 184.5944731608329 218.14783968747685
  endloop
endfacet
facet normal 0.0 0.0 1.0
  outer loop
    vertex 354.52023977864616 185.3532922059354 218.14783968747685
    vertex 354.6201402011508 184.5944731608329 218.14783968747685
    vertex 354.6201402011508 185.1121112510379 218.14783968747685
  endloop
endfacet
facet normal 0.0 0.0 1.0
  outer loop
    vertex 354.6201402011508 185.1121112510379 218.14783968747685
    vertex 354.6201402011508 184.5944731608329 218.14783968747685
    vertex 354.6542143748617 184.8532922059354 218.14783968747685
  endloop
endfacet
facet normal 0.9914448613738182 0.13052619221999262 0.0
  outer loop
    vertex 354.6201402011508 185.1121112510379 214.14783968747685
    vertex 354.6542143748617 184.8532922059354 218.14783968747685
    vertex 354.6542143748617 184.8532922059354 214.14783968747685
  endloop
endfacet
facet normal 0.9914448613738182 0.13052619221999262 0.0
  outer loop
    vertex 354.6542143748617 184.8532922059354 218.14783968747685
    vertex 354.6201402011508 185.1121112510379 214.14783968747685
    vertex 354.6201402011508 185.1121112510379 218.14783968747685
  endloop
endfacet
facet normal 0.9238795325112642 0.3826834323651444 0.0
  outer loop
    vertex 354.52023977864616 185.3532922059354 214.14783968747685
    vertex 354.6201402011508 185.1121112510379 218.14783968747685
    vertex 354.6201402011508 185.1121112510379 214.14783968747685
  endloop
endfacet
facet normal 0.9238795325112642 0.3826834323651444 0.0
  outer loop
    vertex 354.6201402011508 185.1121112510379 218.14783968747685
    vertex 354.52023977864616 185.3532922059354 214.14783968747685
    vertex 354.52023977864616 185.3532922059354 218.14783968747685
  endloop
endfacet
facet normal 0.7933533402912518 0.6087614290086991 0.0
  outer loop
    vertex 354.36132115604823 185.56039898712194 214.14783968747685
    vertex 354.52023977864616 185.3532922059354 218.14783968747685
    vertex 354.52023977864616 185.3532922059354 214.14783968747685
  endloop
endfacet
facet normal 0.7933533402912518 0.6087614290086991 0.0
  outer loop
    vertex 354.52023977864616 185.3532922059354 218.14783968747685
    vertex 354.36132115604823 185.56039898712194 214.14783968747685
    vertex 354.36132115604823 185.56039898712194 218.14783968747685
  endloop
endfacet
facet normal 0.6087614290086574 0.7933533402912837 0.0
  outer loop
    vertex 354.1542143748617 185.71931760971984 218.14783968747685
    vertex 354.36132115604823 185.56039898712194 214.14783968747685
    vertex 354.1542143748617 185.71931760971984 214.14783968747685
  endloop
endfacet
facet normal 0.6087614290086574 0.7933533402912837 0.0
  outer loop
    vertex 354.36132115604823 185.56039898712194 214.14783968747685
    vertex 354.1542143748617 185.71931760971984 218.14783968747685
    vertex 354.36132115604823 185.56039898712194 218.14783968747685
  endloop
endfacet
facet normal 0.3826834323651318 0.9238795325112695 0.0
  outer loop
    vertex 353.9130334199642 185.81921803222446 218.14783968747685
    vertex 354.1542143748617 185.71931760971984 214.14783968747685
    vertex 353.9130334199642 185.81921803222446 214.14783968747685
  endloop
endfacet
facet normal 0.3826834323651318 0.9238795325112695 0.0
  outer loop
    vertex 354.1542143748617 185.71931760971984 214.14783968747685
    vertex 353.9130334199642 185.81921803222446 218.14783968747685
    vertex 354.1542143748617 185.71931760971984 218.14783968747685
  endloop
endfacet
facet normal 0.1305261922200664 0.9914448613738085 0.0
  outer loop
    vertex 353.65421437486174 185.8532922059354 218.14783968747685
    vertex 353.9130334199642 185.81921803222446 214.14783968747685
    vertex 353.65421437486174 185.8532922059354 214.14783968747685
  endloop
endfacet
facet normal 0.1305261922200664 0.9914448613738085 0.0
  outer loop
    vertex 353.9130334199642 185.81921803222446 214.14783968747685
    vertex 353.65421437486174 185.8532922059354 218.14783968747685
    vertex 353.9130334199642 185.81921803222446 218.14783968747685
  endloop
endfacet
facet normal -0.1305261922200664 0.9914448613738085 0.0
  outer loop
    vertex 353.3953953297592 185.81921803222446 218.14783968747685
    vertex 353.65421437486174 185.8532922059354 214.14783968747685
    vertex 353.3953953297592 185.81921803222446 214.14783968747685
  endloop
endfacet
facet normal -0.1305261922200664 0.9914448613738085 0.0
  outer loop
    vertex 353.65421437486174 185.8532922059354 214.14783968747685
    vertex 353.3953953297592 185.81921803222446 218.14783968747685
    vertex 353.65421437486174 185.8532922059354 218.14783968747685
  endloop
endfacet
facet normal -0.38268343236507063 0.9238795325112947 0.0
  outer loop
    vertex 353.1542143748617 185.71931760971984 218.14783968747685
    vertex 353.3953953297592 185.81921803222446 214.14783968747685
    vertex 353.1542143748617 185.71931760971984 214.14783968747685
  endloop
endfacet
facet normal -0.38268343236507063 0.9238795325112947 0.0
  outer loop
    vertex 353.3953953297592 185.81921803222446 214.14783968747685
    vertex 353.1542143748617 185.71931760971984 218.14783968747685
    vertex 353.3953953297592 185.81921803222446 218.14783968747685
  endloop
endfacet
facet normal -0.6087614290087409 0.7933533402912196 0.0
  outer loop
    vertex 352.9471075936752 185.56039898712194 218.14783968747685
    vertex 353.1542143748617 185.71931760971984 214.14783968747685
    vertex 352.9471075936752 185.56039898712194 214.14783968747685
  endloop
endfacet
facet normal -0.6087614290087409 0.7933533402912196 0.0
  outer loop
    vertex 353.1542143748617 185.71931760971984 214.14783968747685
    vertex 352.9471075936752 185.56039898712194 218.14783968747685
    vertex 353.1542143748617 185.71931760971984 218.14783968747685
  endloop
endfacet
facet normal -0.7933533402912518 0.6087614290086991 0.0
  outer loop
    vertex 352.9471075936752 185.56039898712194 218.14783968747685
    vertex 352.78818897107726 185.3532922059354 214.14783968747685
    vertex 352.78818897107726 185.3532922059354 218.14783968747685
  endloop
endfacet
facet normal -0.7933533402912518 0.6087614290086991 0.0
  outer loop
    vertex 352.78818897107726 185.3532922059354 214.14783968747685
    vertex 352.9471075936752 185.56039898712194 218.14783968747685
    vertex 352.9471075936752 185.56039898712194 214.14783968747685
  endloop
endfacet
facet normal -0.9238795325112642 0.3826834323651444 0.0
  outer loop
    vertex 352.78818897107726 185.3532922059354 218.14783968747685
    vertex 352.68828854857264 185.1121112510379 214.14783968747685
    vertex 352.68828854857264 185.1121112510379 218.14783968747685
  endloop
endfacet
facet normal -0.9238795325112642 0.3826834323651444 0.0
  outer loop
    vertex 352.68828854857264 185.1121112510379 214.14783968747685
    vertex 352.78818897107726 185.3532922059354 218.14783968747685
    vertex 352.78818897107726 185.3532922059354 214.14783968747685
  endloop
endfacet
facet normal -0.9914448613738182 0.13052619221999262 0.0
  outer loop
    vertex 352.68828854857264 185.1121112510379 218.14783968747685
    vertex 352.65421437486174 184.8532922059354 214.14783968747685
    vertex 352.65421437486174 184.8532922059354 218.14783968747685
  endloop
endfacet
facet normal -0.9914448613738182 0.13052619221999262 0.0
  outer loop
    vertex 352.65421437486174 184.8532922059354 214.14783968747685
    vertex 352.68828854857264 185.1121112510379 218.14783968747685
    vertex 352.68828854857264 185.1121112510379 214.14783968747685
  endloop
endfacet
facet normal -0.9914448613738182 -0.13052619221999262 -0.0
  outer loop
    vertex 352.65421437486174 184.8532922059354 218.14783968747685
    vertex 352.68828854857264 184.5944731608329 214.14783968747685
    vertex 352.68828854857264 184.5944731608329 218.14783968747685
  endloop
endfacet
facet normal -0.9914448613738182 -0.13052619221999262 -0.0
  outer loop
    vertex 352.68828854857264 184.5944731608329 214.14783968747685
    vertex 352.65421437486174 184.8532922059354 218.14783968747685
    vertex 352.65421437486174 184.8532922059354 214.14783968747685
  endloop
endfacet
facet normal -0.9238795325112642 -0.3826834323651444 -0.0
  outer loop
    vertex 352.68828854857264 184.5944731608329 218.14783968747685
    vertex 352.78818897107726 184.3532922059354 214.14783968747685
    vertex 352.78818897107726 184.3532922059354 218.14783968747685
  endloop
endfacet
facet normal -0.9238795325112642 -0.3826834323651444 -0.0
  outer loop
    vertex 352.78818897107726 184.3532922059354 214.14783968747685
    vertex 352.68828854857264 184.5944731608329 218.14783968747685
    vertex 352.68828854857264 184.5944731608329 214.14783968747685
  endloop
endfacet
facet normal -0.7933533402912518 -0.6087614290086991 -0.0
  outer loop
    vertex 352.78818897107726 184.3532922059354 218.14783968747685
    vertex 352.9471075936752 184.14618542474886 214.14783968747685
    vertex 352.9471075936752 184.14618542474886 218.14783968747685
  endloop
endfacet
facet normal -0.7933533402912518 -0.6087614290086991 -0.0
  outer loop
    vertex 352.9471075936752 184.14618542474886 214.14783968747685
    vertex 352.78818897107726 184.3532922059354 218.14783968747685
    vertex 352.78818897107726 184.3532922059354 214.14783968747685
  endloop
endfacet
facet normal -0.6087614290086574 -0.7933533402912837 -0.0
  outer loop
    vertex 353.15421437486174 183.98726680215097 218.14783968747685
    vertex 352.9471075936752 184.14618542474886 214.14783968747685
    vertex 353.15421437486174 183.98726680215097 214.14783968747685
  endloop
endfacet
facet normal -0.6087614290086574 -0.7933533402912837 -0.0
  outer loop
    vertex 352.9471075936752 184.14618542474886 214.14783968747685
    vertex 353.15421437486174 183.98726680215097 218.14783968747685
    vertex 352.9471075936752 184.14618542474886 218.14783968747685
  endloop
endfacet
facet normal -0.3826834323651318 -0.9238795325112695 -0.0
  outer loop
    vertex 353.3953953297592 183.88736637964635 218.14783968747685
    vertex 353.15421437486174 183.98726680215097 214.14783968747685
    vertex 353.3953953297592 183.88736637964635 214.14783968747685
  endloop
endfacet
facet normal -0.3826834323651318 -0.9238795325112695 -0.0
  outer loop
    vertex 353.15421437486174 183.98726680215097 214.14783968747685
    vertex 353.3953953297592 183.88736637964635 218.14783968747685
    vertex 353.15421437486174 183.98726680215097 218.14783968747685
  endloop
endfacet
facet normal -0.1305261922200664 -0.9914448613738085 -0.0
  outer loop
    vertex 353.65421437486174 183.85329220593542 218.14783968747685
    vertex 353.3953953297592 183.88736637964635 214.14783968747685
    vertex 353.65421437486174 183.85329220593542 214.14783968747685
  endloop
endfacet
facet normal -0.1305261922200664 -0.9914448613738085 -0.0
  outer loop
    vertex 353.3953953297592 183.88736637964635 214.14783968747685
    vertex 353.65421437486174 183.85329220593542 218.14783968747685
    vertex 353.3953953297592 183.88736637964635 218.14783968747685
  endloop
endfacet
facet normal 0.1305261922200664 -0.9914448613738085 0.0
  outer loop
    vertex 353.9130334199642 183.88736637964635 218.14783968747685
    vertex 353.65421437486174 183.85329220593542 214.14783968747685
    vertex 353.9130334199642 183.88736637964635 214.14783968747685
  endloop
endfacet
facet normal 0.1305261922200664 -0.9914448613738085 0.0
  outer loop
    vertex 353.65421437486174 183.85329220593542 214.14783968747685
    vertex 353.9130334199642 183.88736637964635 218.14783968747685
    vertex 353.65421437486174 183.85329220593542 218.14783968747685
  endloop
endfacet
facet normal 0.38268343236507063 -0.9238795325112947 0.0
  outer loop
    vertex 354.15421437486174 183.98726680215097 218.14783968747685
    vertex 353.9130334199642 183.88736637964635 214.14783968747685
    vertex 354.15421437486174 183.98726680215097 214.14783968747685
  endloop
endfacet
facet normal 0.38268343236507063 -0.9238795325112947 0.0
  outer loop
    vertex 353.9130334199642 183.88736637964635 214.14783968747685
    vertex 354.15421437486174 183.98726680215097 218.14783968747685
    vertex 353.9130334199642 183.88736637964635 218.14783968747685
  endloop
endfacet
facet normal 0.6087614290087409 -0.7933533402912196 0.0
  outer loop
    vertex 354.36132115604823 184.14618542474886 218.14783968747685
    vertex 354.15421437486174 183.98726680215097 214.14783968747685
    vertex 354.36132115604823 184.14618542474886 214.14783968747685
  endloop
endfacet
facet normal 0.6087614290087409 -0.7933533402912196 0.0
  outer loop
    vertex 354.15421437486174 183.98726680215097 214.14783968747685
    vertex 354.36132115604823 184.14618542474886 218.14783968747685
    vertex 354.15421437486174 183.98726680215097 218.14783968747685
  endloop
endfacet
facet normal 0.7933533402912518 -0.6087614290086991 0.0
  outer loop
    vertex 354.52023977864616 184.3532922059354 214.14783968747685
    vertex 354.36132115604823 184.14618542474886 218.14783968747685
    vertex 354.36132115604823 184.14618542474886 214.14783968747685
  endloop
endfacet
facet normal 0.7933533402912518 -0.6087614290086991 0.0
  outer loop
    vertex 354.36132115604823 184.14618542474886 218.14783968747685
    vertex 354.52023977864616 184.3532922059354 214.14783968747685
    vertex 354.52023977864616 184.3532922059354 218.14783968747685
  endloop
endfacet
facet normal 0.9238795325112642 -0.3826834323651444 0.0
  outer loop
    vertex 354.6201402011508 184.5944731608329 214.14783968747685
    vertex 354.52023977864616 184.3532922059354 218.14783968747685
    vertex 354.52023977864616 184.3532922059354 214.14783968747685
  endloop
endfacet
facet normal 0.9238795325112642 -0.3826834323651444 0.0
  outer loop
    vertex 354.52023977864616 184.3532922059354 218.14783968747685
    vertex 354.6201402011508 184.5944731608329 214.14783968747685
    vertex 354.6201402011508 184.5944731608329 218.14783968747685
  endloop
endfacet
facet normal 0.9914448613738182 -0.13052619221999262 0.0
  outer loop
    vertex 354.6542143748617 184.8532922059354 214.14783968747685
    vertex 354.6201402011508 184.5944731608329 218.14783968747685
    vertex 354.6201402011508 184.5944731608329 214.14783968747685
  endloop
endfacet
facet normal 0.9914448613738182 -0.13052619221999262 0.0
  outer loop
    vertex 354.6201402011508 184.5944731608329 218.14783968747685
    vertex 354.6542143748617 184.8532922059354 214.14783968747685
    vertex 354.6542143748617 184.8532922059354 218.14783968747685
  endloop
endfacet
facet normal 0.0 0.0 1.0
  outer loop
    vertex 352.97788484936086 206.91772560936874 218.14783968747685
    vertex 352.98300419016334 207.3546205903045 218.14783968747685
    vertex 352.9516853620503 207.13651008683794 218.14783968747685
  endloop
endfacet
facet normal 0.0 0.0 1.0
  outer loop
    vertex 352.98300419016334 207.3546205903045 218.14783968747685
    vertex 352.97788484936086 206.91772560936874 218.14783968747685
    vertex 353.05981720033145 206.71317695847804 218.14783968747685
  endloop
endfacet
facet normal 0.0 0.0 1.0
  outer loop
    vertex 352.98300419016334 207.3546205903045 218.14783968747685
    vertex 353.05981720033145 206.71317695847804 218.14783968747685
    vertex 353.06970700732086 207.5571932494018 218.14783968747685
  endloop
endfacet
facet normal 0.0 0.0 1.0
  outer loop
    vertex 353.06970700732086 207.5571932494018 218.14783968747685
    vertex 353.05981720033145 206.71317695847804 218.14783968747685
    vertex 353.19189886064316 206.53680378669128 218.14783968747685
  endloop
endfacet
facet normal 0.0 0.0 1.0
  outer loop
    vertex 353.06970700732086 207.5571932494018 218.14783968747685
    vertex 353.19189886064316 206.53680378669128 218.14783968747685
    vertex 353.2058851598168 207.73042307217952 218.14783968747685
  endloop
endfacet
facet normal 0.0 0.0 1.0
  outer loop
    vertex 353.2058851598168 207.73042307217952 218.14783968747685
    vertex 353.19189886064316 206.53680378669128 218.14783968747685
    vertex 353.3651286834209 206.40062563419534 218.14783968747685
  endloop
endfacet
facet normal 0.0 0.0 1.0
  outer loop
    vertex 353.2058851598168 207.73042307217952 218.14783968747685
    vertex 353.3651286834209 206.40062563419534 218.14783968747685
    vertex 353.38225833160357 207.86250473249117 218.14783968747685
  endloop
endfacet
facet normal 0.0 0.0 1.0
  outer loop
    vertex 353.38225833160357 207.86250473249117 218.14783968747685
    vertex 353.3651286834209 206.40062563419534 218.14783968747685
    vertex 353.56770134251815 206.31392281703782 218.14783968747685
  endloop
endfacet
facet normal 0.0 0.0 1.0
  outer loop
    vertex 353.38225833160357 207.86250473249117 218.14783968747685
    vertex 353.56770134251815 206.31392281703782 218.14783968747685
    vertex 353.5868069824943 207.9444370834618 218.14783968747685
  endloop
endfacet
facet normal 0.0 0.0 1.0
  outer loop
    vertex 353.5868069824943 207.9444370834618 218.14783968747685
    vertex 353.56770134251815 206.31392281703782 218.14783968747685
    vertex 353.7858118459847 206.2826039889248 218.14783968747685
  endloop
endfacet
facet normal 0.0 0.0 1.0
  outer loop
    vertex 353.5868069824943 207.9444370834618 218.14783968747685
    vertex 353.7858118459847 206.2826039889248 218.14783968747685
    vertex 353.80559145996347 207.97063657077237 218.14783968747685
  endloop
endfacet
facet normal 0.0 0.0 1.0
  outer loop
    vertex 353.80559145996347 207.97063657077237 218.14783968747685
    vertex 353.7858118459847 206.2826039889248 218.14783968747685
    vertex 354.0045963234539 206.30880347623537 218.14783968747685
  endloop
endfacet
facet normal 0.0 0.0 1.0
  outer loop
    vertex 353.80559145996347 207.97063657077237 218.14783968747685
    vertex 354.0045963234539 206.30880347623537 218.14783968747685
    vertex 354.02370196343 207.9393177426593 218.14783968747685
  endloop
endfacet
facet normal 0.0 0.0 1.0
  outer loop
    vertex 354.02370196343 207.9393177426593 218.14783968747685
    vertex 354.0045963234539 206.30880347623537 218.14783968747685
    vertex 354.2091449743446 206.39073582720596 218.14783968747685
  endloop
endfacet
facet normal 0.0 0.0 1.0
  outer loop
    vertex 354.02370196343 207.9393177426593 218.14783968747685
    vertex 354.2091449743446 206.39073582720596 218.14783968747685
    vertex 354.2262746225273 207.8526149255018 218.14783968747685
  endloop
endfacet
facet normal 0.0 0.0 1.0
  outer loop
    vertex 354.2262746225273 207.8526149255018 218.14783968747685
    vertex 354.2091449743446 206.39073582720596 218.14783968747685
    vertex 354.38551814613135 206.52281748751764 218.14783968747685
  endloop
endfacet
facet normal 0.0 0.0 1.0
  outer loop
    vertex 354.2262746225273 207.8526149255018 218.14783968747685
    vertex 354.38551814613135 206.52281748751764 218.14783968747685
    vertex 354.399504445305 207.71643677300585 218.14783968747685
  endloop
endfacet
facet normal 0.0 0.0 1.0
  outer loop
    vertex 354.399504445305 207.71643677300585 218.14783968747685
    vertex 354.38551814613135 206.52281748751764 218.14783968747685
    vertex 354.5216962986273 206.69604731029537 218.14783968747685
  endloop
endfacet
facet normal 0.0 0.0 1.0
  outer loop
    vertex 354.399504445305 207.71643677300585 218.14783968747685
    vertex 354.5216962986273 206.69604731029537 218.14783968747685
    vertex 354.53158610561667 207.54006360121912 218.14783968747685
  endloop
endfacet
facet normal 0.0 0.0 1.0
  outer loop
    vertex 354.53158610561667 207.54006360121912 218.14783968747685
    vertex 354.5216962986273 206.69604731029537 218.14783968747685
    vertex 354.60839911578483 206.89861996939266 218.14783968747685
  endloop
endfacet
facet normal 0.0 0.0 1.0
  outer loop
    vertex 354.53158610561667 207.54006360121912 218.14783968747685
    vertex 354.60839911578483 206.89861996939266 218.14783968747685
    vertex 354.6135184565873 207.3355149503284 218.14783968747685
  endloop
endfacet
facet normal 0.0 0.0 1.0
  outer loop
    vertex 354.6135184565873 207.3355149503284 218.14783968747685
    vertex 354.60839911578483 206.89861996939266 218.14783968747685
    vertex 354.6397179438979 207.1167304728592 218.14783968747685
  endloop
endfacet
facet normal -0.14213374431247852 -0.989847462353526 -0.0
  outer loop
    vertex 353.7858118459847 206.2826039889248 218.14783968747685
    vertex 353.56770134251815 206.31392281703782 214.14783968747685
    vertex 353.7858118459847 206.2826039889248 214.14783968747685
  endloop
endfacet
facet normal -0.14213374431247852 -0.989847462353526 -0.0
  outer loop
    vertex 353.56770134251815 206.31392281703782 214.14783968747685
    vertex 353.7858118459847 206.2826039889248 218.14783968747685
    vertex 353.56770134251815 206.31392281703782 218.14783968747685
  endloop
endfacet
facet normal 0.11890072058501026 -0.9929061479537556 0.0
  outer loop
    vertex 354.0045963234539 206.30880347623537 218.14783968747685
    vertex 353.7858118459847 206.2826039889248 214.14783968747685
    vertex 354.0045963234539 206.30880347623537 214.14783968747685
  endloop
endfacet
facet normal 0.11890072058501026 -0.9929061479537556 0.0
  outer loop
    vertex 353.7858118459847 206.2826039889248 214.14783968747685
    vertex 354.0045963234539 206.30880347623537 218.14783968747685
    vertex 353.7858118459847 206.2826039889248 218.14783968747685
  endloop
endfacet
facet normal 0.3718322978671752 -0.9282999204259452 0.0
  outer loop
    vertex 354.2091449743446 206.39073582720596 218.14783968747685
    vertex 354.0045963234539 206.30880347623537 214.14783968747685
    vertex 354.2091449743446 206.39073582720596 214.14783968747685
  endloop
endfacet
facet normal 0.3718322978671752 -0.9282999204259452 0.0
  outer loop
    vertex 354.0045963234539 206.30880347623537 214.14783968747685
    vertex 354.2091449743446 206.39073582720596 218.14783968747685
    vertex 354.0045963234539 206.30880347623537 218.14783968747685
  endloop
endfacet
facet normal 0.5994241185317293 -0.8004315874092298 0.0
  outer loop
    vertex 354.38551814613135 206.52281748751764 218.14783968747685
    vertex 354.2091449743446 206.39073582720596 214.14783968747685
    vertex 354.38551814613135 206.52281748751764 214.14783968747685
  endloop
endfacet
facet normal 0.5994241185317293 -0.8004315874092298 0.0
  outer loop
    vertex 354.2091449743446 206.39073582720596 214.14783968747685
    vertex 354.38551814613135 206.52281748751764 218.14783968747685
    vertex 354.2091449743446 206.39073582720596 218.14783968747685
  endloop
endfacet
facet normal 0.7861661761134533 -0.6180151644863989 0.0
  outer loop
    vertex 354.5216962986273 206.69604731029537 214.14783968747685
    vertex 354.38551814613135 206.52281748751764 218.14783968747685
    vertex 354.38551814613135 206.52281748751764 214.14783968747685
  endloop
endfacet
facet normal 0.7861661761134533 -0.6180151644863989 0.0
  outer loop
    vertex 354.38551814613135 206.52281748751764 218.14783968747685
    vertex 354.5216962986273 206.69604731029537 214.14783968747685
    vertex 354.5216962986273 206.69604731029537 218.14783968747685
  endloop
endfacet
facet normal 0.919332307994173 -0.3934820294220652 0.0
  outer loop
    vertex 354.60839911578483 206.89861996939266 214.14783968747685
    vertex 354.5216962986273 206.69604731029537 218.14783968747685
    vertex 354.5216962986273 206.69604731029537 214.14783968747685
  endloop
endfacet
facet normal 0.919332307994173 -0.3934820294220652 0.0
  outer loop
    vertex 354.5216962986273 206.69604731029537 218.14783968747685
    vertex 354.60839911578483 206.89861996939266 214.14783968747685
    vertex 354.60839911578483 206.89861996939266 218.14783968747685
  endloop
endfacet
facet normal 0.989847462353526 -0.14213374431247852 0.0
  outer loop
    vertex 354.6397179438979 207.1167304728592 214.14783968747685
    vertex 354.60839911578483 206.89861996939266 218.14783968747685
    vertex 354.60839911578483 206.89861996939266 214.14783968747685
  endloop
endfacet
facet normal 0.989847462353526 -0.14213374431247852 0.0
  outer loop
    vertex 354.60839911578483 206.89861996939266 218.14783968747685
    vertex 354.6397179438979 207.1167304728592 214.14783968747685
    vertex 354.6397179438979 207.1167304728592 218.14783968747685
  endloop
endfacet
facet normal 0.9929061479537556 0.11890072058501026 0.0
  outer loop
    vertex 354.6135184565873 207.3355149503284 214.14783968747685
    vertex 354.6397179438979 207.1167304728592 218.14783968747685
    vertex 354.6397179438979 207.1167304728592 214.14783968747685
  endloop
endfacet
facet normal 0.9929061479537556 0.11890072058501026 0.0
  outer loop
    vertex 354.6397179438979 207.1167304728592 218.14783968747685
    vertex 354.6135184565873 207.3355149503284 214.14783968747685
    vertex 354.6135184565873 207.3355149503284 218.14783968747685
  endloop
endfacet
facet normal 0.9282999204259452 0.3718322978671752 0.0
  outer loop
    vertex 354.53158610561667 207.54006360121912 214.14783968747685
    vertex 354.6135184565873 207.3355149503284 218.14783968747685
    vertex 354.6135184565873 207.3355149503284 214.14783968747685
  endloop
endfacet
facet normal 0.9282999204259452 0.3718322978671752 0.0
  outer loop
    vertex 354.6135184565873 207.3355149503284 218.14783968747685
    vertex 354.53158610561667 207.54006360121912 214.14783968747685
    vertex 354.53158610561667 207.54006360121912 218.14783968747685
  endloop
endfacet
facet normal 0.8004315874092298 0.5994241185317293 0.0
  outer loop
    vertex 354.399504445305 207.71643677300585 214.14783968747685
    vertex 354.53158610561667 207.54006360121912 218.14783968747685
    vertex 354.53158610561667 207.54006360121912 214.14783968747685
  endloop
endfacet
facet normal 0.8004315874092298 0.5994241185317293 0.0
  outer loop
    vertex 354.53158610561667 207.54006360121912 218.14783968747685
    vertex 354.399504445305 207.71643677300585 214.14783968747685
    vertex 354.399504445305 207.71643677300585 218.14783968747685
  endloop
endfacet
facet normal 0.6180151644863989 0.7861661761134533 0.0
  outer loop
    vertex 354.2262746225273 207.8526149255018 218.14783968747685
    vertex 354.399504445305 207.71643677300585 214.14783968747685
    vertex 354.2262746225273 207.8526149255018 214.14783968747685
  endloop
endfacet
facet normal 0.6180151644863989 0.7861661761134533 0.0
  outer loop
    vertex 354.399504445305 207.71643677300585 214.14783968747685
    vertex 354.2262746225273 207.8526149255018 218.14783968747685
    vertex 354.399504445305 207.71643677300585 218.14783968747685
  endloop
endfacet
facet normal 0.3934820294220652 0.919332307994173 0.0
  outer loop
    vertex 354.02370196343 207.9393177426593 218.14783968747685
    vertex 354.2262746225273 207.8526149255018 214.14783968747685
    vertex 354.02370196343 207.9393177426593 214.14783968747685
  endloop
endfacet
facet normal 0.3934820294220652 0.919332307994173 0.0
  outer loop
    vertex 354.2262746225273 207.8526149255018 214.14783968747685
    vertex 354.02370196343 207.9393177426593 218.14783968747685
    vertex 354.2262746225273 207.8526149255018 218.14783968747685
  endloop
endfacet
facet normal 0.14213374431247852 0.989847462353526 0.0
  outer loop
    vertex 353.80559145996347 207.97063657077237 218.14783968747685
    vertex 354.02370196343 207.9393177426593 214.14783968747685
    vertex 353.80559145996347 207.97063657077237 214.14783968747685
  endloop
endfacet
facet normal 0.14213374431247852 0.989847462353526 0.0
  outer loop
    vertex 354.02370196343 207.9393177426593 214.14783968747685
    vertex 353.80559145996347 207.97063657077237 218.14783968747685
    vertex 354.02370196343 207.9393177426593 218.14783968747685
  endloop
endfacet
facet normal -0.11890072058501026 0.9929061479537556 0.0
  outer loop
    vertex 353.5868069824943 207.9444370834618 218.14783968747685
    vertex 353.80559145996347 207.97063657077237 214.14783968747685
    vertex 353.5868069824943 207.9444370834618 214.14783968747685
  endloop
endfacet
facet normal -0.11890072058501026 0.9929061479537556 0.0
  outer loop
    vertex 353.80559145996347 207.97063657077237 214.14783968747685
    vertex 353.5868069824943 207.9444370834618 218.14783968747685
    vertex 353.80559145996347 207.97063657077237 218.14783968747685
  endloop
endfacet
facet normal -0.3718322978671752 0.9282999204259452 0.0
  outer loop
    vertex 353.38225833160357 207.86250473249117 218.14783968747685
    vertex 353.5868069824943 207.9444370834618 214.14783968747685
    vertex 353.38225833160357 207.86250473249117 214.14783968747685
  endloop
endfacet
facet normal -0.3718322978671752 0.9282999204259452 0.0
  outer loop
    vertex 353.5868069824943 207.9444370834618 214.14783968747685
    vertex 353.38225833160357 207.86250473249117 218.14783968747685
    vertex 353.5868069824943 207.9444370834618 218.14783968747685
  endloop
endfacet
facet normal -0.5994241185317293 0.8004315874092298 0.0
  outer loop
    vertex 353.2058851598168 207.73042307217952 218.14783968747685
    vertex 353.38225833160357 207.86250473249117 214.14783968747685
    vertex 353.2058851598168 207.73042307217952 214.14783968747685
  endloop
endfacet
facet normal -0.5994241185317293 0.8004315874092298 0.0
  outer loop
    vertex 353.38225833160357 207.86250473249117 214.14783968747685
    vertex 353.2058851598168 207.73042307217952 218.14783968747685
    vertex 353.38225833160357 207.86250473249117 218.14783968747685
  endloop
endfacet
facet normal -0.7861661761134533 0.6180151644863989 0.0
  outer loop
    vertex 353.2058851598168 207.73042307217952 218.14783968747685
    vertex 353.06970700732086 207.5571932494018 214.14783968747685
    vertex 353.06970700732086 207.5571932494018 218.14783968747685
  endloop
endfacet
facet normal -0.7861661761134533 0.6180151644863989 0.0
  outer loop
    vertex 353.06970700732086 207.5571932494018 214.14783968747685
    vertex 353.2058851598168 207.73042307217952 218.14783968747685
    vertex 353.2058851598168 207.73042307217952 214.14783968747685
  endloop
endfacet
facet normal -0.919332307994173 0.3934820294220652 0.0
  outer loop
    vertex 353.06970700732086 207.5571932494018 218.14783968747685
    vertex 352.98300419016334 207.3546205903045 214.14783968747685
    vertex 352.98300419016334 207.3546205903045 218.14783968747685
  endloop
endfacet
facet normal -0.919332307994173 0.3934820294220652 0.0
  outer loop
    vertex 352.98300419016334 207.3546205903045 214.14783968747685
    vertex 353.06970700732086 207.5571932494018 218.14783968747685
    vertex 353.06970700732086 207.5571932494018 214.14783968747685
  endloop
endfacet
facet normal -0.989847462353526 0.14213374431247852 0.0
  outer loop
    vertex 352.98300419016334 207.3546205903045 218.14783968747685
    vertex 352.9516853620503 207.13651008683794 214.14783968747685
    vertex 352.9516853620503 207.13651008683794 218.14783968747685
  endloop
endfacet
facet normal -0.989847462353526 0.14213374431247852 0.0
  outer loop
    vertex 352.9516853620503 207.13651008683794 214.14783968747685
    vertex 352.98300419016334 207.3546205903045 218.14783968747685
    vertex 352.98300419016334 207.3546205903045 214.14783968747685
  endloop
endfacet
facet normal -0.9929061479537556 -0.11890072058501026 -0.0
  outer loop
    vertex 352.9516853620503 207.13651008683794 218.14783968747685
    vertex 352.97788484936086 206.91772560936874 214.14783968747685
    vertex 352.97788484936086 206.91772560936874 218.14783968747685
  endloop
endfacet
facet normal -0.9929061479537556 -0.11890072058501026 -0.0
  outer loop
    vertex 352.97788484936086 206.91772560936874 214.14783968747685
    vertex 352.9516853620503 207.13651008683794 218.14783968747685
    vertex 352.9516853620503 207.13651008683794 214.14783968747685
  endloop
endfacet
facet normal -0.9282999204259452 -0.3718322978671752 -0.0
  outer loop
    vertex 352.97788484936086 206.91772560936874 218.14783968747685
    vertex 353.05981720033145 206.71317695847804 214.14783968747685
    vertex 353.05981720033145 206.71317695847804 218.14783968747685
  endloop
endfacet
facet normal -0.9282999204259452 -0.3718322978671752 -0.0
  outer loop
    vertex 353.05981720033145 206.71317695847804 214.14783968747685
    vertex 352.97788484936086 206.91772560936874 218.14783968747685
    vertex 352.97788484936086 206.91772560936874 214.14783968747685
  endloop
endfacet
facet normal -0.8004315874092298 -0.5994241185317293 -0.0
  outer loop
    vertex 353.05981720033145 206.71317695847804 218.14783968747685
    vertex 353.19189886064316 206.53680378669128 214.14783968747685
    vertex 353.19189886064316 206.53680378669128 218.14783968747685
  endloop
endfacet
facet normal -0.8004315874092298 -0.5994241185317293 -0.0
  outer loop
    vertex 353.19189886064316 206.53680378669128 214.14783968747685
    vertex 353.05981720033145 206.71317695847804 218.14783968747685
    vertex 353.05981720033145 206.71317695847804 214.14783968747685
  endloop
endfacet
facet normal -0.6180151644863989 -0.7861661761134533 -0.0
  outer loop
    vertex 353.3651286834209 206.40062563419534 218.14783968747685
    vertex 353.19189886064316 206.53680378669128 214.14783968747685
    vertex 353.3651286834209 206.40062563419534 214.14783968747685
  endloop
endfacet
facet normal -0.6180151644863989 -0.7861661761134533 -0.0
  outer loop
    vertex 353.19189886064316 206.53680378669128 214.14783968747685
    vertex 353.3651286834209 206.40062563419534 218.14783968747685
    vertex 353.19189886064316 206.53680378669128 218.14783968747685
  endloop
endfacet
facet normal -0.3934820294220652 -0.919332307994173 -0.0
  outer loop
    vertex 353.56770134251815 206.31392281703782 218.14783968747685
    vertex 353.3651286834209 206.40062563419534 214.14783968747685
    vertex 353.56770134251815 206.31392281703782 214.14783968747685
  endloop
endfacet
facet normal -0.3934820294220652 -0.919332307994173 -0.0
  outer loop
    vertex 353.3651286834209 206.40062563419534 214.14783968747685
    vertex 353.56770134251815 206.31392281703782 218.14783968747685
    vertex 353.3651286834209 206.40062563419534 218.14783968747685
  endloop
endfacet
endsolid Feeder_v0.2
