solid Untitled-5b0d72cd
facet normal 1.0 0.0 0.0
  outer loop
    vertex 5.050000000000002 263.6499999999999 0.0
    vertex 5.050000000000002 256.1499999999999 12.999999999999998
    vertex 5.050000000000002 256.1499999999999 0.0
  endloop
endfacet
facet normal 1.0 0.0 0.0
  outer loop
    vertex 5.050000000000002 256.1499999999999 12.999999999999998
    vertex 5.050000000000002 263.6499999999999 0.0
    vertex 5.050000000000002 263.6499999999999 12.999999999999998
  endloop
endfacet
facet normal 0.0 0.0 -1.0
  outer loop
    vertex 5.050000000000002 7.949999999999951 0.0
    vertex 2.450000000000007 0.4499999999999428 0.0
    vertex 2.450000000000007 7.949999999999951 0.0
  endloop
endfacet
facet normal 0.0 0.0 -1.0
  outer loop
    vertex 2.450000000000007 0.4499999999999428 0.0
    vertex 5.050000000000002 7.949999999999951 0.0
    vertex 5.050000000000002 0.4499999999999428 0.0
  endloop
endfacet
facet normal -1.0 0.0 0.0
  outer loop
    vertex 2.450000000000007 263.6499999999999 12.999999999999998
    vertex 2.450000000000007 256.1499999999999 0.0
    vertex 2.450000000000007 256.1499999999999 12.999999999999998
  endloop
endfacet
facet normal -1.0 0.0 0.0
  outer loop
    vertex 2.450000000000007 256.1499999999999 0.0
    vertex 2.450000000000007 263.6499999999999 12.999999999999998
    vertex 2.450000000000007 263.6499999999999 0.0
  endloop
endfacet
facet normal 0.0 0.0 1.0
  outer loop
    vertex 7.500000000000009 0.0 15.999999999999993
    vertex 0.0 264.09999999999985 15.999999999999813
    vertex 0.0 0.0 15.999999999999993
  endloop
endfacet
facet normal 0.0 0.0 1.0
  outer loop
    vertex 0.0 264.09999999999985 15.999999999999813
    vertex 7.500000000000009 0.0 15.999999999999993
    vertex 7.500000000000009 264.09999999999985 15.999999999999813
  endloop
endfacet
facet normal 0.0 1.0 0.0
  outer loop
    vertex 2.450000000000007 7.949999999999951 12.999999999999998
    vertex 5.050000000000002 7.949999999999951 0.0
    vertex 2.450000000000007 7.949999999999951 0.0
  endloop
endfacet
facet normal 0.0 1.0 0.0
  outer loop
    vertex 5.050000000000002 7.949999999999951 0.0
    vertex 2.450000000000007 7.949999999999951 12.999999999999998
    vertex 5.050000000000002 7.949999999999951 12.999999999999998
  endloop
endfacet
facet normal 0.0 0.0 -1.0
  outer loop
    vertex 5.050000000000002 263.6499999999999 0.0
    vertex 2.450000000000007 256.1499999999999 0.0
    vertex 2.450000000000007 263.6499999999999 0.0
  endloop
endfacet
facet normal 0.0 0.0 -1.0
  outer loop
    vertex 2.450000000000007 256.1499999999999 0.0
    vertex 5.050000000000002 263.6499999999999 0.0
    vertex 5.050000000000002 256.1499999999999 0.0
  endloop
endfacet
facet normal -1.0 0.0 0.0
  outer loop
    vertex 0.0 264.09999999999985 15.999999999999813
    vertex 0.0 0.0 12.999999999999998
    vertex 0.0 0.0 15.999999999999993
  endloop
endfacet
facet normal -1.0 0.0 0.0
  outer loop
    vertex 0.0 0.0 12.999999999999998
    vertex 0.0 264.09999999999985 15.999999999999813
    vertex 0.0 264.09999999999997 12.999999999999819
  endloop
endfacet
facet normal 1.0 0.0 0.0
  outer loop
    vertex 7.500000000000009 264.09999999999997 12.999999999999819
    vertex 7.500000000000009 0.0 15.999999999999993
    vertex 7.500000000000009 0.0 12.999999999999998
  endloop
endfacet
facet normal 1.0 0.0 0.0
  outer loop
    vertex 7.500000000000009 0.0 15.999999999999993
    vertex 7.500000000000009 264.09999999999997 12.999999999999819
    vertex 7.500000000000009 264.09999999999985 15.999999999999813
  endloop
endfacet
facet normal 0.0 1.0 0.0
  outer loop
    vertex 2.450000000000007 263.6499999999999 12.999999999999998
    vertex 5.050000000000002 263.6499999999999 0.0
    vertex 2.450000000000007 263.6499999999999 0.0
  endloop
endfacet
facet normal 0.0 1.0 0.0
  outer loop
    vertex 5.050000000000002 263.6499999999999 0.0
    vertex 2.450000000000007 263.6499999999999 12.999999999999998
    vertex 5.050000000000002 263.6499999999999 12.999999999999998
  endloop
endfacet
facet normal 0.0 -1.0 0.0
  outer loop
    vertex 5.050000000000002 256.1499999999999 12.999999999999998
    vertex 2.450000000000007 256.1499999999999 0.0
    vertex 5.050000000000002 256.1499999999999 0.0
  endloop
endfacet
facet normal 0.0 -1.0 0.0
  outer loop
    vertex 2.450000000000007 256.1499999999999 0.0
    vertex 5.050000000000002 256.1499999999999 12.999999999999998
    vertex 2.450000000000007 256.1499999999999 12.999999999999998
  endloop
endfacet
facet normal -1.0 0.0 0.0
  outer loop
    vertex 2.450000000000007 7.949999999999951 12.999999999999998
    vertex 2.450000000000007 0.4499999999999428 0.0
    vertex 2.450000000000007 0.4499999999999428 12.999999999999998
  endloop
endfacet
facet normal -1.0 0.0 0.0
  outer loop
    vertex 2.450000000000007 0.4499999999999428 0.0
    vertex 2.450000000000007 7.949999999999951 12.999999999999998
    vertex 2.450000000000007 7.949999999999951 0.0
  endloop
endfacet
facet normal 0.0 -1.0 0.0
  outer loop
    vertex 5.050000000000002 0.4499999999999428 12.999999999999998
    vertex 2.450000000000007 0.4499999999999428 0.0
    vertex 5.050000000000002 0.4499999999999428 0.0
  endloop
endfacet
facet normal 0.0 -1.0 0.0
  outer loop
    vertex 2.450000000000007 0.4499999999999428 0.0
    vertex 5.050000000000002 0.4499999999999428 12.999999999999998
    vertex 2.450000000000007 0.4499999999999428 12.999999999999998
  endloop
endfacet
facet normal 1.0 0.0 0.0
  outer loop
    vertex 5.050000000000002 7.949999999999951 0.0
    vertex 5.050000000000002 0.4499999999999428 12.999999999999998
    vertex 5.050000000000002 0.4499999999999428 0.0
  endloop
endfacet
facet normal 1.0 0.0 0.0
  outer loop
    vertex 5.050000000000002 0.4499999999999428 12.999999999999998
    vertex 5.050000000000002 7.949999999999951 0.0
    vertex 5.050000000000002 7.949999999999951 12.999999999999998
  endloop
endfacet
facet normal 0.0 -1.0 0.0
  outer loop
    vertex 7.500000000000009 0.0 15.999999999999993
    vertex 0.0 0.0 12.999999999999998
    vertex 7.500000000000009 0.0 12.999999999999998
  endloop
endfacet
facet normal 0.0 -1.0 0.0
  outer loop
    vertex 0.0 0.0 12.999999999999998
    vertex 7.500000000000009 0.0 15.999999999999993
    vertex 0.0 0.0 15.999999999999993
  endloop
endfacet
facet normal 0.0 1.0 1.5039821240255483e-14
  outer loop
    vertex 0.0 264.09999999999985 15.999999999999813
    vertex 7.500000000000009 264.09999999999997 12.999999999999819
    vertex 0.0 264.09999999999997 12.999999999999819
  endloop
endfacet
facet normal 0.0 1.0 1.5039821240255483e-14
  outer loop
    vertex 7.500000000000009 264.09999999999997 12.999999999999819
    vertex 0.0 264.09999999999985 15.999999999999813
    vertex 7.500000000000009 264.09999999999985 15.999999999999813
  endloop
endfacet
facet normal 0.0 0.0 -1.0
  outer loop
    vertex 0.0 264.09999999999997 12.999999999999819
    vertex 2.450000000000007 263.6499999999999 12.999999999999998
    vertex 0.0 0.0 12.999999999999998
  endloop
endfacet
facet normal 0.0 0.0 -1.0
  outer loop
    vertex 2.450000000000007 263.6499999999999 12.999999999999998
    vertex 0.0 264.09999999999997 12.999999999999819
    vertex 7.500000000000009 264.09999999999997 12.999999999999819
  endloop
endfacet
facet normal 0.0 0.0 -1.0
  outer loop
    vertex 2.450000000000007 263.6499999999999 12.999999999999998
    vertex 7.500000000000009 264.09999999999997 12.999999999999819
    vertex 5.050000000000002 263.6499999999999 12.999999999999998
  endloop
endfacet
facet normal 0.0 0.0 -1.0
  outer loop
    vertex 5.050000000000002 263.6499999999999 12.999999999999998
    vertex 7.500000000000009 264.09999999999997 12.999999999999819
    vertex 5.050000000000002 256.1499999999999 12.999999999999998
  endloop
endfacet
facet normal 0.0 0.0 -1.0
  outer loop
    vertex 5.050000000000002 256.1499999999999 12.999999999999998
    vertex 7.500000000000009 264.09999999999997 12.999999999999819
    vertex 5.050000000000002 7.949999999999951 12.999999999999998
  endloop
endfacet
facet normal 0.0 0.0 -1.0
  outer loop
    vertex 5.050000000000002 7.949999999999951 12.999999999999998
    vertex 7.500000000000009 264.09999999999997 12.999999999999819
    vertex 5.050000000000002 0.4499999999999428 12.999999999999998
  endloop
endfacet
facet normal 0.0 0.0 -1.0
  outer loop
    vertex 0.0 0.0 12.999999999999998
    vertex 2.450000000000007 0.4499999999999428 12.999999999999998
    vertex 7.500000000000009 0.0 12.999999999999998
  endloop
endfacet
facet normal 0.0 0.0 -1.0
  outer loop
    vertex 2.450000000000007 0.4499999999999428 12.999999999999998
    vertex 0.0 0.0 12.999999999999998
    vertex 2.450000000000007 263.6499999999999 12.999999999999998
  endloop
endfacet
facet normal 0.0 0.0 -1.0
  outer loop
    vertex 2.450000000000007 0.4499999999999428 12.999999999999998
    vertex 2.450000000000007 263.6499999999999 12.999999999999998
    vertex 2.450000000000007 256.1499999999999 12.999999999999998
  endloop
endfacet
facet normal 0.0 0.0 -1.0
  outer loop
    vertex 2.450000000000007 0.4499999999999428 12.999999999999998
    vertex 2.450000000000007 256.1499999999999 12.999999999999998
    vertex 2.450000000000007 7.949999999999951 12.999999999999998
  endloop
endfacet
facet normal 0.0 0.0 -1.0
  outer loop
    vertex 7.500000000000009 0.0 12.999999999999998
    vertex 2.450000000000007 0.4499999999999428 12.999999999999998
    vertex 5.050000000000002 0.4499999999999428 12.999999999999998
  endloop
endfacet
facet normal 0.0 0.0 -1.0
  outer loop
    vertex 7.500000000000009 0.0 12.999999999999998
    vertex 5.050000000000002 0.4499999999999428 12.999999999999998
    vertex 7.500000000000009 264.09999999999997 12.999999999999819
  endloop
endfacet
facet normal 0.0 0.0 -1.0
  outer loop
    vertex 5.050000000000002 256.1499999999999 12.999999999999998
    vertex 2.450000000000007 7.949999999999951 12.999999999999998
    vertex 2.450000000000007 256.1499999999999 12.999999999999998
  endloop
endfacet
facet normal 0.0 0.0 -1.0
  outer loop
    vertex 2.450000000000007 7.949999999999951 12.999999999999998
    vertex 5.050000000000002 256.1499999999999 12.999999999999998
    vertex 5.050000000000002 7.949999999999951 12.999999999999998
  endloop
endfacet
endsolid Untitled-5b0d72cd
