solid Untitled-5b0d71a1
facet normal 0.0 0.0 1.0
  outer loop
    vertex 22.0591196892779 57.15343341412413 29.18409235670006
    vertex -2.28629531073654 88.14760133455793 29.184105378719998
    vertex -2.28629531073654 57.153431481542306 29.184105378719998
  endloop
endfacet
facet normal 0.0 0.0 1.0
  outer loop
    vertex -2.28629531073654 88.14760133455793 29.184105378719998
    vertex 22.0591196892779 57.15343341412413 29.18409235670006
    vertex 22.059119689277853 88.14760326713974 29.18409235670006
  endloop
endfacet
facet normal -3.4349496387767925e-05 0.00011434375811036969 -0.9999999928728087
  outer loop
    vertex 1.4636791091052097 61.1534056409464 0.46320197645851224
    vertex -2.036320082451881 59.15220367589448 0.4633416789564792
    vertex -2.036320082451881 61.153406919387365 0.4632017017400043
  endloop
endfacet
facet normal -3.4349496387767925e-05 0.00011434375811036969 -0.9999999928728087
  outer loop
    vertex -2.036320082451881 59.15220367589448 0.4633416789564792
    vertex -2.28629445835416 57.15335278502694 0.46261765784440256
    vertex -2.2863200824517786 59.152203458884884 0.46334174035174747
  endloop
endfacet
facet normal -3.4349496387767925e-05 0.00011434375811036969 -0.9999999928728087
  outer loop
    vertex -2.28629445835416 57.15335278502694 0.46261765784440256
    vertex -2.036320082451881 59.15220367589448 0.4633416789564792
    vertex 8.714779425751855 57.153589542269074 0.46263057283376474
  endloop
endfacet
facet normal -3.4349496387767925e-05 0.00011434375811036969 -0.9999999928728087
  outer loop
    vertex 8.714779425751855 57.153589542269074 0.46263057283376474
    vertex -2.036320082451881 59.15220367589448 0.4633416789564792
    vertex 1.4636791091052097 59.1534056409464 0.46320197645851224
  endloop
endfacet
facet normal -3.4349496387767925e-05 0.00011434375811036969 -0.9999999928728087
  outer loop
    vertex 1.4636791091052097 59.1534056409464 0.46320197645851224
    vertex -2.036320082451881 59.15220367589448 0.4633416789564792
    vertex 1.4636791091052097 61.1534056409464 0.46320197645851224
  endloop
endfacet
facet normal -3.4349496387767925e-05 0.00011434375811036969 -0.9999999928728087
  outer loop
    vertex 8.714779425751855 57.153589542269074 0.46263057283376474
    vertex 1.4636791091052097 59.1534056409464 0.46320197645851224
    vertex 8.714779425751855 59.15354043464643 0.46264265832965623
  endloop
endfacet
facet normal 0.0 1.0 0.0
  outer loop
    vertex -2.036295310736642 61.1534316985519 26.831553317324733
    vertex 1.4636791091052097 61.1534056409464 0.46320197645851224
    vertex -2.036320082451881 61.153406919387365 0.4632017017400043
  endloop
endfacet
facet normal 0.0 1.0 0.0
  outer loop
    vertex 1.4636791091052097 61.1534056409464 0.46320197645851224
    vertex -2.036295310736642 61.1534316985519 26.831553317324733
    vertex 1.4637038808204483 61.15343042011093 26.83155359204324
  endloop
endfacet
facet normal -0.0 -1.0 -0.0
  outer loop
    vertex 1.4720243488183649 84.14758264357936 0.4591040702091312
    vertex -2.036295310736552 84.14760133759648 26.83155337864583
    vertex -2.0362953026433384 84.14760134568968 0.4591033943694266
  endloop
endfacet
facet normal -0.0 -1.0 -0.0
  outer loop
    vertex -2.036295310736552 84.14760133759648 26.83155337864583
    vertex 1.4720243488183649 84.14758264357936 0.4591040702091312
    vertex 1.4720243407251512 84.14758263548616 26.831554054485515
  endloop
endfacet
facet normal 0.0 0.0 -1.0
  outer loop
    vertex 19.860229694223708 86.14760133338171 26.831553377603232
    vertex 1.4720243407251512 84.14758263548616 26.831554054485515
    vertex 1.4720243407251512 86.14758263548616 26.831554054485515
  endloop
endfacet
facet normal 0.0 0.0 -1.0
  outer loop
    vertex -2.036295310736552 84.14760133759648 26.83155337864583
    vertex -2.28629531073654 61.1534314815423 26.831553378720006
    vertex -2.28629531073654 84.14760133455793 26.831553378720006
  endloop
endfacet
facet normal 0.0 0.0 -1.0
  outer loop
    vertex -2.28629531073654 61.1534314815423 26.831553378720006
    vertex -2.036295310736552 84.14760133759648 26.83155337864583
    vertex -2.036295310736642 61.1534316985519 26.831553317324733
  endloop
endfacet
facet normal 0.0 0.0 -1.0
  outer loop
    vertex -2.036295310736642 61.1534316985519 26.831553317324733
    vertex -2.036295310736552 84.14760133759648 26.83155337864583
    vertex 1.4637038808204483 61.15343042011093 26.83155359204324
  endloop
endfacet
facet normal 0.0 0.0 -1.0
  outer loop
    vertex 1.4637038808204483 61.15343042011093 26.83155359204324
    vertex -2.036295310736552 84.14760133759648 26.83155337864583
    vertex 1.4720243407251512 84.14758263548616 26.831554054485515
  endloop
endfacet
facet normal 0.0 0.0 -1.0
  outer loop
    vertex 1.4637038808204483 61.15343042011093 26.83155359204324
    vertex 1.4720243407251512 84.14758263548616 26.831554054485515
    vertex 1.4637038808204483 59.153430420110936 26.83155359204324
  endloop
endfacet
facet normal 0.0 0.0 -1.0
  outer loop
    vertex 1.4637038808204483 59.153430420110936 26.83155359204324
    vertex 1.4720243407251512 84.14758263548616 26.831554054485515
    vertex 19.860229694223708 59.15343148036609 26.831553377603232
  endloop
endfacet
facet normal 0.0 0.0 -1.0
  outer loop
    vertex 19.860229694223708 59.15343148036609 26.831553377603232
    vertex 1.4720243407251512 84.14758263548616 26.831554054485515
    vertex 19.860229694223708 86.14760133338171 26.831553377603232
  endloop
endfacet
facet normal -1.0 0.0 0.0
  outer loop
    vertex 19.860229694223708 59.15343148036609 26.831553377603232
    vertex 19.860287551801886 86.14753065264192 8.123933935403876
    vertex 19.860287551801886 59.15336079962629 8.123933935403876
  endloop
endfacet
facet normal -1.0 0.0 0.0
  outer loop
    vertex 19.860287551801886 86.14753065264192 8.123933935403876
    vertex 19.860229694223708 59.15343148036609 26.831553377603232
    vertex 19.860229694223708 86.14760133338171 26.831553377603232
  endloop
endfacet
facet normal 0.9999999999560778 -9.36781959144545e-06 2.977723198407141e-07
  outer loop
    vertex 1.4720243488183649 86.14758264357936 0.45910411560757985
    vertex 1.4720821983033265 86.14751195474636 8.12444965727526
    vertex 1.4720243488183649 84.14758264357936 0.4591040702091312
  endloop
endfacet
facet normal 0.9999999999560778 -9.36781959144545e-06 2.977723198407141e-07
  outer loop
    vertex 1.4720243488183649 84.14758264357936 0.4591040702091312
    vertex 1.4720243407251512 86.14758263548616 26.831554054485515
    vertex 1.4720243407251512 84.14758263548616 26.831554054485515
  endloop
endfacet
facet normal 0.9999999999560778 -9.36781959144545e-06 2.977723198407141e-07
  outer loop
    vertex 1.4720243407251512 86.14758263548616 26.831554054485515
    vertex 1.4720243488183649 84.14758264357936 0.4591040702091312
    vertex 1.4720821983033265 86.14751195474636 8.12444965727526
  endloop
endfacet
facet normal 1.2615496312452455e-06 -0.9999999999947369 -2.9891375800445313e-06
  outer loop
    vertex 19.860229694223708 86.14760133338171 26.831553377603232
    vertex 8.723998970218254 86.14753062708327 8.124143075737637
    vertex 19.860287551801886 86.14753065264192 8.123933935403876
  endloop
endfacet
facet normal 1.2615496312452455e-06 -0.9999999999947369 -2.9891375800445313e-06
  outer loop
    vertex 8.723998970218254 86.14753062708327 8.124143075737637
    vertex 19.860229694223708 86.14760133338171 26.831553377603232
    vertex 1.4720821983033265 86.14751195474636 8.12444965727526
  endloop
endfacet
facet normal 1.2615496312452455e-06 -0.9999999999947369 -2.9891375800445313e-06
  outer loop
    vertex 1.4720821983033265 86.14751195474636 8.12444965727526
    vertex 19.860229694223708 86.14760133338171 26.831553377603232
    vertex 1.4720243407251512 86.14758263548616 26.831554054485515
  endloop
endfacet
facet normal 1.2615496312452455e-06 -0.9999999999947369 -2.9891375800445313e-06
  outer loop
    vertex 8.723998970218254 86.14753062708327 8.124143075737637
    vertex 1.4720243488183649 86.14758264357936 0.45910411560757985
    vertex 8.723855010446767 86.14785223939553 0.45858415557406584
  endloop
endfacet
facet normal 1.2615496312452455e-06 -0.9999999999947369 -2.9891375800445313e-06
  outer loop
    vertex 1.4720243488183649 86.14758264357936 0.45910411560757985
    vertex 8.723998970218254 86.14753062708327 8.124143075737637
    vertex 1.4720821983033265 86.14751195474636 8.12444965727526
  endloop
endfacet
facet normal 3.6080682890017926e-06 0.9999999999699787 6.8574689220028965e-06
  outer loop
    vertex -2.286439349117999 88.14792302592319 0.45889000459674095
    vertex 8.72399897035271 88.14753877733445 8.124394652645027
    vertex 8.723855010581223 88.14786038964671 0.458835732481456
  endloop
endfacet
facet normal 3.6080682890017926e-06 0.9999999999699787 6.8574689220028965e-06
  outer loop
    vertex 8.72399897035271 88.14753877733445 8.124394652645027
    vertex -2.286439349117999 88.14792302592319 0.45889000459674095
    vertex -2.28629531073654 88.14760133455793 29.184105378719998
  endloop
endfacet
facet normal 3.6080682890017926e-06 0.9999999999699787 6.8574689220028965e-06
  outer loop
    vertex 8.72399897035271 88.14753877733445 8.124394652645027
    vertex -2.28629531073654 88.14760133455793 29.184105378719998
    vertex 22.05917754685603 88.14753258639995 8.124435914091361
  endloop
endfacet
facet normal 3.6080682890017926e-06 0.9999999999699787 6.8574689220028965e-06
  outer loop
    vertex 22.05917754685603 88.14753258639995 8.124435914091361
    vertex -2.28629531073654 88.14760133455793 29.184105378719998
    vertex 22.059119689277853 88.14760326713974 29.18409235670006
  endloop
endfacet
facet normal -3.25853508875343e-06 0.9999999999946874 8.510324197066236e-08
  outer loop
    vertex 1.4636791091052097 59.1534056409464 0.46320197645851224
    vertex 8.714794779498607 59.15336079949129 8.123956271661275
    vertex 8.714779425751855 59.15354043464643 0.46264265832965623
  endloop
endfacet
facet normal -3.25853508875343e-06 0.9999999999946874 8.510324197066236e-08
  outer loop
    vertex 8.714794779498607 59.15336079949129 8.123956271661275
    vertex 1.4636791091052097 59.1534056409464 0.46320197645851224
    vertex 1.4637200869495808 59.15317208844043 8.123931484499254
  endloop
endfacet
facet normal -3.25853508875343e-06 0.9999999999946874 8.510324197066236e-08
  outer loop
    vertex 8.714794779498607 59.15336079949129 8.123956271661275
    vertex 1.4637200869495808 59.15317208844043 8.123931484499254
    vertex 1.4637038808204483 59.153430420110936 26.83155359204324
  endloop
endfacet
facet normal -3.25853508875343e-06 0.9999999999946874 8.510324197066236e-08
  outer loop
    vertex 8.714794779498607 59.15336079949129 8.123956271661275
    vertex 1.4637038808204483 59.153430420110936 26.83155359204324
    vertex 19.860229694223708 59.15343148036609 26.831553377603232
  endloop
endfacet
facet normal -3.25853508875343e-06 0.9999999999946874 8.510324197066236e-08
  outer loop
    vertex 19.860229694223708 59.15343148036609 26.831553377603232
    vertex 19.860287551801886 59.15336079962629 8.123933935403876
    vertex 8.714794779498607 59.15336079949129 8.123956271661275
  endloop
endfacet
facet normal 0.9999999999975933 -3.2229300851931586e-07 2.1701505264154187e-06
  outer loop
    vertex 22.05917754685603 88.14753258639995 8.124435914091361
    vertex 22.0591196892779 57.15343341412413 29.18409235670006
    vertex 22.05914861806699 57.15343341412413 8.123920914500712
  endloop
endfacet
facet normal 0.9999999999975933 -3.2229300851931586e-07 2.1701505264154187e-06
  outer loop
    vertex 22.0591196892779 57.15343341412413 29.18409235670006
    vertex 22.05917754685603 88.14753258639995 8.124435914091361
    vertex 22.059119689277853 88.14760326713974 29.18409235670006
  endloop
endfacet
facet normal 6.1567591439337486e-06 -0.9999999999810041 2.939791233466717e-07
  outer loop
    vertex 22.0591196892779 57.15343341412413 29.18409235670006
    vertex 8.714794779498607 57.15340990711393 8.123944186165383
    vertex 22.05914861806699 57.15343341412413 8.123920914500712
  endloop
endfacet
facet normal 6.1567591439337486e-06 -0.9999999999810041 2.939791233466717e-07
  outer loop
    vertex 8.714779425751855 57.153589542269074 0.46263057283376474
    vertex -2.28629531073654 57.153431481542306 29.184105378719998
    vertex -2.28629445835416 57.15335278502694 0.46261765784440256
  endloop
endfacet
facet normal 6.1567591439337486e-06 -0.9999999999810041 2.939791233466717e-07
  outer loop
    vertex -2.28629531073654 57.153431481542306 29.184105378719998
    vertex 8.714779425751855 57.153589542269074 0.46263057283376474
    vertex 8.714794779498607 57.15340990711393 8.123944186165383
  endloop
endfacet
facet normal 6.1567591439337486e-06 -0.9999999999810041 2.939791233466717e-07
  outer loop
    vertex -2.28629531073654 57.153431481542306 29.184105378719998
    vertex 8.714794779498607 57.15340990711393 8.123944186165383
    vertex 22.0591196892779 57.15343341412413 29.18409235670006
  endloop
endfacet
facet normal -2.788153947858418e-05 -3.581457200098485e-05 -0.9999999989699682
  outer loop
    vertex 8.723855010581223 88.14786038964671 0.458835732481456
    vertex -2.2862953026433264 86.14760134265111 0.45910339444360654
    vertex -2.286439349117999 88.14792302592319 0.45889000459674095
  endloop
endfacet
facet normal -2.788153947858418e-05 -3.581457200098485e-05 -0.9999999989699682
  outer loop
    vertex -2.2862953026433264 86.14760134265111 0.45910339444360654
    vertex 8.723855010581223 88.14786038964671 0.458835732481456
    vertex -2.0362953026433384 86.14760134568967 0.4591033943694266
  endloop
endfacet
facet normal -2.788153947858418e-05 -3.581457200098485e-05 -0.9999999989699682
  outer loop
    vertex -2.0362953026433384 86.14760134568967 0.4591033943694266
    vertex 8.723855010581223 88.14786038964671 0.458835732481456
    vertex 1.4720243488183649 86.14758264357936 0.45910411560757985
  endloop
endfacet
facet normal -2.788153947858418e-05 -3.581457200098485e-05 -0.9999999989699682
  outer loop
    vertex -2.0362953026433384 86.14760134568967 0.4591033943694266
    vertex 1.4720243488183649 86.14758264357936 0.45910411560757985
    vertex -2.0362953026433384 84.14760134568968 0.4591033943694266
  endloop
endfacet
facet normal -2.788153947858418e-05 -3.581457200098485e-05 -0.9999999989699682
  outer loop
    vertex 1.4720243488183649 86.14758264357936 0.45910411560757985
    vertex 8.723855010581223 88.14786038964671 0.458835732481456
    vertex 8.723855010446767 86.14785223939553 0.45858415557406584
  endloop
endfacet
facet normal -2.788153947858418e-05 -3.581457200098485e-05 -0.9999999989699682
  outer loop
    vertex 1.4720243488183649 84.14758264357936 0.4591040702091312
    vertex -2.0362953026433384 84.14760134568968 0.4591033943694266
    vertex 1.4720243488183649 86.14758264357936 0.45910411560757985
  endloop
endfacet
facet normal 8.395517396280203e-05 9.107272617000793e-06 -0.9999999964342932
  outer loop
    vertex 8.72399897035271 88.14753877733445 8.124394652645027
    vertex 19.860287551801886 86.14753065264192 8.123933935403876
    vertex 8.723998970218254 86.14753062708327 8.124143075737637
  endloop
endfacet
facet normal 8.395517396280203e-05 9.107272617000793e-06 -0.9999999964342932
  outer loop
    vertex 19.860287551801886 86.14753065264192 8.123933935403876
    vertex 8.72399897035271 88.14753877733445 8.124394652645027
    vertex 22.05917754685603 88.14753258639995 8.124435914091361
  endloop
endfacet
facet normal 8.395517396280203e-05 9.107272617000793e-06 -0.9999999964342932
  outer loop
    vertex 19.860287551801886 86.14753065264192 8.123933935403876
    vertex 22.05917754685603 88.14753258639995 8.124435914091361
    vertex 19.860287551801886 59.15336079962629 8.123933935403876
  endloop
endfacet
facet normal 8.395517396280203e-05 9.107272617000793e-06 -0.9999999964342932
  outer loop
    vertex 19.860287551801886 59.15336079962629 8.123933935403876
    vertex 22.05917754685603 88.14753258639995 8.124435914091361
    vertex 22.05914861806699 57.15343341412413 8.123920914500712
  endloop
endfacet
facet normal 8.395517396280203e-05 9.107272617000793e-06 -0.9999999964342932
  outer loop
    vertex 19.860287551801886 59.15336079962629 8.123933935403876
    vertex 8.714794779498607 57.15340990711393 8.123944186165383
    vertex 8.714794779498607 59.15336079949129 8.123956271661275
  endloop
endfacet
facet normal 8.395517396280203e-05 9.107272617000793e-06 -0.9999999964342932
  outer loop
    vertex 8.714794779498607 57.15340990711393 8.123944186165383
    vertex 19.860287551801886 59.15336079962629 8.123933935403876
    vertex 22.05914861806699 57.15343341412413 8.123920914500712
  endloop
endfacet
facet normal 0.9999999998236544 2.295079228891417e-09 -1.878007490485828e-05
  outer loop
    vertex 8.723855010446767 86.14785223939553 0.45858415557406584
    vertex 8.72399897035271 88.14753877733445 8.124394652645027
    vertex 8.723998970218254 86.14753062708327 8.124143075737637
  endloop
endfacet
facet normal 0.9999999998236544 2.295079228891417e-09 -1.878007490485828e-05
  outer loop
    vertex 8.72399897035271 88.14753877733445 8.124394652645027
    vertex 8.723855010446767 86.14785223939553 0.45858415557406584
    vertex 8.723855010581223 88.14786038964671 0.458835732481456
  endloop
endfacet
facet normal 0.9999999999979919 1.2110338272284498e-11 -2.004061897896857e-06
  outer loop
    vertex 8.714779425751855 57.153589542269074 0.46263057283376474
    vertex 8.714794779498607 59.15336079949129 8.123956271661275
    vertex 8.714794779498607 57.15340990711393 8.123944186165383
  endloop
endfacet
facet normal 0.9999999999979919 1.2110338272284498e-11 -2.004061897896857e-06
  outer loop
    vertex 8.714794779498607 59.15336079949129 8.123956271661275
    vertex 8.714779425751855 57.153589542269074 0.46263057283376474
    vertex 8.714779425751855 59.15354043464643 0.46264265832965623
  endloop
endfacet
facet normal -1.0 -1.215420276423194e-08 2.9671953592076884e-10
  outer loop
    vertex -2.0362953026433384 86.14760134568967 26.831553378645822
    vertex -2.0362953026433384 84.14760134568968 0.4591033943694266
    vertex -2.036295310736552 84.14760133759648 26.83155337864583
  endloop
endfacet
facet normal -1.0 -1.215420276423194e-08 2.9671953592076884e-10
  outer loop
    vertex -2.0362953026433384 84.14760134568968 0.4591033943694266
    vertex -2.0362953026433384 86.14760134568967 26.831553378645822
    vertex -2.0362953026433384 86.14760134568967 0.4591033943694266
  endloop
endfacet
facet normal -1.0 -1.215420276423194e-08 2.9671953592076884e-10
  outer loop
    vertex -2.0362953026433384 86.14760134568967 0.4591033943694266
    vertex -2.0362953026433384 86.14760134568967 26.831553378645822
    vertex -2.036295389346524 86.14760141664948 8.124448924686133
  endloop
endfacet
facet normal -2.9671953592075173e-10 -1.408782528286475e-15 -1.0
  outer loop
    vertex -2.2862953026433264 86.14760134265111 26.831553378720006
    vertex -2.036295310736552 84.14760133759648 26.83155337864583
    vertex -2.28629531073654 84.14760133455793 26.831553378720006
  endloop
endfacet
facet normal -2.9671953592075173e-10 -1.408782528286475e-15 -1.0
  outer loop
    vertex -2.036295310736552 84.14760133759648 26.83155337864583
    vertex -2.2862953026433264 86.14760134265111 26.831553378720006
    vertex -2.0362953026433384 86.14760134568967 26.831553378645822
  endloop
endfacet
facet normal 1.215410822722682e-08 -1.0 -7.095701454839939e-10
  outer loop
    vertex -2.036295389346524 86.14760141664948 8.124448924686133
    vertex -2.2862953026433264 86.14760134265111 0.45910339444360654
    vertex -2.0362953026433384 86.14760134568967 0.4591033943694266
  endloop
endfacet
facet normal 1.215410822722682e-08 -1.0 -7.095701454839939e-10
  outer loop
    vertex -2.2862953026433264 86.14760134265111 0.45910339444360654
    vertex -2.036295389346524 86.14760141664948 8.124448924686133
    vertex -2.2862953026433264 86.14760134265111 26.831553378720006
  endloop
endfacet
facet normal 1.215410822722682e-08 -1.0 -7.095701454839939e-10
  outer loop
    vertex -2.2862953026433264 86.14760134265111 26.831553378720006
    vertex -2.036295389346524 86.14760141664948 8.124448924686133
    vertex -2.0362953026433384 86.14760134568967 26.831553378645822
  endloop
endfacet
facet normal -0.9999999999987002 -1.0119350720001548e-06 1.2553120511745755e-06
  outer loop
    vertex -2.28629531073654 57.153431481542306 29.184105378719998
    vertex -2.2863200824517786 59.152203458884884 0.46334174035174747
    vertex -2.28629445835416 57.15335278502694 0.46261765784440256
  endloop
endfacet
facet normal -0.9999999999987002 -1.0119350720001548e-06 1.2553120511745755e-06
  outer loop
    vertex -2.2863200824517786 59.152203458884884 0.46334174035174747
    vertex -2.28629531073654 57.153431481542306 29.184105378719998
    vertex -2.2863200824517786 59.15340670727028 26.831553378720006
  endloop
endfacet
facet normal -0.9999999999987002 -1.0119350720001548e-06 1.2553120511745755e-06
  outer loop
    vertex -2.2863200824517786 59.15340670727028 26.831553378720006
    vertex -2.28629531073654 57.153431481542306 29.184105378719998
    vertex -2.28629531073654 88.14760133455793 29.184105378719998
  endloop
endfacet
facet normal -0.9999999999987002 -1.0119350720001548e-06 1.2553120511745755e-06
  outer loop
    vertex -2.2863200824517786 59.15340670727028 26.831553378720006
    vertex -2.28629531073654 88.14760133455793 29.184105378719998
    vertex -2.28629531073654 61.1534314815423 26.831553378720006
  endloop
endfacet
facet normal -0.9999999999987002 -1.0119350720001548e-06 1.2553120511745755e-06
  outer loop
    vertex -2.28629531073654 61.1534314815423 26.831553378720006
    vertex -2.28629531073654 88.14760133455793 29.184105378719998
    vertex -2.28629531073654 84.14760133455793 26.831553378720006
  endloop
endfacet
facet normal -0.9999999999987002 -1.0119350720001548e-06 1.2553120511745755e-06
  outer loop
    vertex -2.28629531073654 84.14760133455793 26.831553378720006
    vertex -2.28629531073654 88.14760133455793 29.184105378719998
    vertex -2.2862953026433264 86.14760134265111 26.831553378720006
  endloop
endfacet
facet normal -0.9999999999987002 -1.0119350720001548e-06 1.2553120511745755e-06
  outer loop
    vertex -2.2862953026433264 86.14760134265111 26.831553378720006
    vertex -2.28629531073654 88.14760133455793 29.184105378719998
    vertex -2.2862953026433264 86.14760134265111 0.45910339444360654
  endloop
endfacet
facet normal -0.9999999999987002 -1.0119350720001548e-06 1.2553120511745755e-06
  outer loop
    vertex -2.2862953026433264 86.14760134265111 0.45910339444360654
    vertex -2.28629531073654 88.14760133455793 29.184105378719998
    vertex -2.286439349117999 88.14792302592319 0.45889000459674095
  endloop
endfacet
facet normal -0.9999999999995932 -8.6803841364934e-07 2.455810743447741e-07
  outer loop
    vertex -2.036320082451881 59.15340692427988 26.831553317324733
    vertex -2.036320082451881 59.15220367589448 0.4633416789564792
    vertex -2.0362791047637585 59.151970125791024 8.123988205322899
  endloop
endfacet
facet normal -0.9999999999995932 -8.6803841364934e-07 2.455810743447741e-07
  outer loop
    vertex -2.036320082451881 59.15220367589448 0.4633416789564792
    vertex -2.036320082451881 59.15340692427988 26.831553317324733
    vertex -2.036320082451881 61.153406919387365 0.4632017017400043
  endloop
endfacet
facet normal -0.9999999999995932 -8.6803841364934e-07 2.455810743447741e-07
  outer loop
    vertex -2.036320082451881 61.153406919387365 0.4632017017400043
    vertex -2.036320082451881 59.15340692427988 26.831553317324733
    vertex -2.036295310736642 61.1534316985519 26.831553317324733
  endloop
endfacet
facet normal -2.4558107434750817e-07 3.0431045087687825e-12 -0.99999999999997
  outer loop
    vertex -2.28629531073654 61.1534314815423 26.831553378720006
    vertex -2.036320082451881 59.15340692427988 26.831553317324733
    vertex -2.2863200824517786 59.15340670727028 26.831553378720006
  endloop
endfacet
facet normal -2.4558107434750817e-07 3.0431045087687825e-12 -0.99999999999997
  outer loop
    vertex -2.036320082451881 59.15340692427988 26.831553317324733
    vertex -2.28629531073654 61.1534314815423 26.831553378720006
    vertex -2.036295310736642 61.1534316985519 26.831553317324733
  endloop
endfacet
facet normal 0.9999999999847409 5.471038379246945e-06 -7.656460539452403e-07
  outer loop
    vertex 1.4636791091052097 59.1534056409464 0.46320197645851224
    vertex 1.4637038808204483 59.153430420110936 26.83155359204324
    vertex 1.4637200869495808 59.15317208844043 8.123931484499254
  endloop
endfacet
facet normal 0.9999999999847409 5.471038379246945e-06 -7.656460539452403e-07
  outer loop
    vertex 1.4637038808204483 59.153430420110936 26.83155359204324
    vertex 1.4636791091052097 59.1534056409464 0.46320197645851224
    vertex 1.4636791091052097 61.1534056409464 0.46320197645851224
  endloop
endfacet
facet normal 0.9999999999847409 5.471038379246945e-06 -7.656460539452403e-07
  outer loop
    vertex 1.4637038808204483 59.153430420110936 26.83155359204324
    vertex 1.4636791091052097 61.1534056409464 0.46320197645851224
    vertex 1.4637038808204483 61.15343042011093 26.83155359204324
  endloop
endfacet
facet normal 0.0007547012294291321 0.999999714030415 -4.8632734345963024e-05
  outer loop
    vertex -2.2863200824517786 59.152203458884884 0.46334174035174747
    vertex -2.0362791047637585 59.151970125791024 8.123988205322899
    vertex -2.036320082451881 59.15220367589448 0.4633416789564792
  endloop
endfacet
facet normal 0.0007547012294291321 0.999999714030415 -4.8632734345963024e-05
  outer loop
    vertex -2.0362791047637585 59.151970125791024 8.123988205322899
    vertex -2.2863200824517786 59.152203458884884 0.46334174035174747
    vertex -2.2863200824517786 59.15340670727028 26.831553378720006
  endloop
endfacet
facet normal 0.0007547012294291321 0.999999714030415 -4.8632734345963024e-05
  outer loop
    vertex -2.0362791047637585 59.151970125791024 8.123988205322899
    vertex -2.2863200824517786 59.15340670727028 26.831553378720006
    vertex -2.036320082451881 59.15340692427988 26.831553317324733
  endloop
endfacet
endsolid Untitled-5b0d71a1
