solid Load_cell_food_v3.2
facet normal -0.7933533402912372 -1.3600949869261012e-14 -0.6087614290087179
  outer loop
    vertex 271.7887425383893 11.152602420875388 -35.36093212943564
    vertex 272.1065797835854 3.146752420875261 -35.77514569180657
    vertex 271.7887425383896 3.146752420875272 -35.36093212943348
  endloop
endfacet
facet normal -0.7933533402912372 -1.3600949869261012e-14 -0.6087614290087179
  outer loop
    vertex 272.1065797835854 3.146752420875261 -35.77514569180657
    vertex 271.7887425383893 11.152602420875388 -35.36093212943564
    vertex 272.10657978358506 11.152602420875388 -35.775145691808724
  endloop
endfacet
facet normal -0.6087614290087049 -1.7725102964362374e-14 -0.7933533402912472
  outer loop
    vertex 271.69532491214443 3.1467524208750666 -35.28925026366266
    vertex 271.7887425383893 11.152602420875388 -35.36093212943564
    vertex 271.7887425383896 3.146752420875272 -35.36093212943348
  endloop
endfacet
facet normal -0.6087614290087049 -1.7725102964362374e-14 -0.7933533402912472
  outer loop
    vertex 271.7887425383893 11.152602420875388 -35.36093212943564
    vertex 271.69532491214443 3.1467524208750666 -35.28925026366266
    vertex 271.6953249121442 11.15260242087519 -35.28925026366481
  endloop
endfacet
facet normal 0.7933533402912372 -1.3600949869260788e-14 -0.6087614290087179
  outer loop
    vertex 268.6424781684476 3.146752420875258 -35.77514569180657
    vertex 268.9603154136431 11.152602420875388 -35.36093212943563
    vertex 268.9603154136434 3.1467524208752695 -35.36093212943348
  endloop
endfacet
facet normal 0.7933533402912372 -1.3600949869260788e-14 -0.6087614290087179
  outer loop
    vertex 268.9603154136431 11.152602420875388 -35.36093212943563
    vertex 268.6424781684476 3.146752420875258 -35.77514569180657
    vertex 268.6424781684473 11.152602420875372 -35.775145691808724
  endloop
endfacet
facet normal 0.923879532511287 -8.549914517201947e-15 -0.3826834323650894
  outer loop
    vertex 268.4426773234384 3.1467524208752495 -36.25750760160154
    vertex 268.6424781684473 11.152602420875372 -35.775145691808724
    vertex 268.6424781684476 3.146752420875258 -35.77514569180657
  endloop
endfacet
facet normal 0.923879532511287 -8.549914517201947e-15 -0.3826834323650894
  outer loop
    vertex 268.6424781684473 11.152602420875372 -35.775145691808724
    vertex 268.4426773234384 3.1467524208752495 -36.25750760160154
    vertex 268.4426773234381 11.152602420875366 -36.25750760160369
  endloop
endfacet
facet normal 0.9914448613738104 -2.9162166201975005e-15 -0.13052619222005216
  outer loop
    vertex 268.37452897601645 3.1467524208752384 -36.77514569180657
    vertex 268.4426773234381 11.152602420875366 -36.25750760160369
    vertex 268.4426773234384 3.1467524208752495 -36.25750760160154
  endloop
endfacet
facet normal 0.9914448613738104 -2.9162166201975005e-15 -0.13052619222005216
  outer loop
    vertex 268.4426773234381 11.152602420875366 -36.25750760160369
    vertex 268.37452897601645 3.1467524208752384 -36.77514569180657
    vertex 268.3745289760162 11.152602420875366 -36.775145691808724
  endloop
endfacet
facet normal 0.9914448613738105 2.9162166201975368e-15 0.13052619222005143
  outer loop
    vertex 268.4426773234384 3.1467524208752273 -37.29278378201162
    vertex 268.3745289760162 11.152602420875366 -36.775145691808724
    vertex 268.37452897601645 3.1467524208752384 -36.77514569180657
  endloop
endfacet
facet normal 0.9914448613738105 2.9162166201975368e-15 0.13052619222005143
  outer loop
    vertex 268.3745289760162 11.152602420875366 -36.775145691808724
    vertex 268.4426773234384 3.1467524208752273 -37.29278378201162
    vertex 268.4426773234381 11.152602420875343 -37.29278378201377
  endloop
endfacet
facet normal 0.9238795325112863 8.54991451720186e-15 0.3826834323650914
  outer loop
    vertex 268.6424781684476 3.1467524208752047 -37.77514569180658
    vertex 268.4426773234381 11.152602420875343 -37.29278378201377
    vertex 268.4426773234384 3.1467524208752273 -37.29278378201162
  endloop
endfacet
facet normal 0.9238795325112863 8.54991451720186e-15 0.3826834323650914
  outer loop
    vertex 268.4426773234381 11.152602420875343 -37.29278378201377
    vertex 268.6424781684476 3.1467524208752047 -37.77514569180658
    vertex 268.6424781684473 11.152602420875327 -37.77514569180873
  endloop
endfacet
facet normal 0.7933533402912372 1.3600949869261012e-14 0.6087614290087179
  outer loop
    vertex 268.9603154136431 11.15260242087532 -38.189359254181824
    vertex 268.6424781684476 3.1467524208752047 -37.77514569180658
    vertex 268.9603154136434 3.1467524208750017 -38.18935925417967
  endloop
endfacet
facet normal 0.7933533402912372 1.3600949869261012e-14 0.6087614290087179
  outer loop
    vertex 268.6424781684476 3.1467524208752047 -37.77514569180658
    vertex 268.9603154136431 11.15260242087532 -38.189359254181824
    vertex 268.6424781684473 11.152602420875327 -37.77514569180873
  endloop
endfacet
facet normal 0.60876142900872 1.772510296436199e-14 0.7933533402912356
  outer loop
    vertex 269.0537330398883 11.15260242087514 -38.26104111995265
    vertex 268.9603154136434 3.1467524208750017 -38.18935925417967
    vertex 269.0537330398885 3.1467524208750017 -38.26104111995049
  endloop
endfacet
facet normal 0.60876142900872 1.772510296436199e-14 0.7933533402912356
  outer loop
    vertex 268.9603154136434 3.1467524208750017 -38.18935925417967
    vertex 269.0537330398883 11.15260242087514 -38.26104111995265
    vertex 268.9603154136431 11.15260242087532 -38.189359254181824
  endloop
endfacet
facet normal 0.6087614290087149 1.7725102964362204e-14 0.7933533402912395
  outer loop
    vertex 269.3745289760162 11.152602420875304 -38.507196499377606
    vertex 269.0537330398885 3.1467524208750017 -38.26104111995049
    vertex 269.3745289760165 3.1467524208752016 -38.507196499375446
  endloop
endfacet
facet normal 0.6087614290087149 1.7725102964362204e-14 0.7933533402912395
  outer loop
    vertex 269.0537330398885 3.1467524208750017 -38.26104111995049
    vertex 269.3745289760162 11.152602420875304 -38.507196499377606
    vertex 269.0537330398883 11.15260242087514 -38.26104111995265
  endloop
endfacet
facet normal 0.3826834323650914 2.0641319584559474e-14 0.9238795325112863
  outer loop
    vertex 269.8568908858112 11.15260242087532 -38.70699734438687
    vertex 269.3745289760165 3.1467524208752016 -38.507196499375446
    vertex 269.8568908858114 3.146752420875193 -38.70699734438471
  endloop
endfacet
facet normal 0.3826834323650914 2.0641319584559474e-14 0.9238795325112863
  outer loop
    vertex 269.3745289760165 3.1467524208752016 -38.507196499375446
    vertex 269.8568908858112 11.15260242087532 -38.70699734438687
    vertex 269.3745289760162 11.152602420875304 -38.507196499377606
  endloop
endfacet
facet normal 0.13052619222005216 2.2150864386462605e-14 0.9914448613738104
  outer loop
    vertex 270.3745289760162 11.15260242087514 -38.77514569180874
    vertex 269.8568908858114 3.146752420875193 -38.70699734438471
    vertex 270.3745289760165 3.14675242087499 -38.77514569180658
  endloop
endfacet
facet normal 0.13052619222005216 2.2150864386462605e-14 0.9914448613738104
  outer loop
    vertex 269.8568908858114 3.146752420875193 -38.70699734438471
    vertex 270.3745289760162 11.15260242087514 -38.77514569180874
    vertex 269.8568908858112 11.15260242087532 -38.70699734438687
  endloop
endfacet
facet normal -0.13052619222005216 2.215086438646272e-14 0.9914448613738104
  outer loop
    vertex 270.89216706622125 11.15260242087532 -38.70699734438687
    vertex 270.3745289760165 3.14675242087499 -38.77514569180658
    vertex 270.89216706622153 3.146752420875193 -38.70699734438471
  endloop
endfacet
facet normal -0.13052619222005216 2.215086438646272e-14 0.9914448613738104
  outer loop
    vertex 270.3745289760165 3.14675242087499 -38.77514569180658
    vertex 270.89216706622125 11.15260242087532 -38.70699734438687
    vertex 270.3745289760162 11.15260242087514 -38.77514569180874
  endloop
endfacet
facet normal -0.38268343236508756 2.064131958455951e-14 0.9238795325112878
  outer loop
    vertex 271.3745289760162 11.15260242087532 -38.507196499377606
    vertex 270.89216706622153 3.146752420875193 -38.70699734438471
    vertex 271.3745289760165 3.1467524208752016 -38.50719649937545
  endloop
endfacet
facet normal -0.38268343236508756 2.064131958455951e-14 0.9238795325112878
  outer loop
    vertex 270.89216706622153 3.146752420875193 -38.70699734438471
    vertex 271.3745289760162 11.15260242087532 -38.507196499377606
    vertex 270.89216706622125 11.15260242087532 -38.70699734438687
  endloop
endfacet
facet normal -1.2689849171465575e-14 -3.3134606169937543e-14 -1.0
  outer loop
    vertex 264.3745289760165 3.146752420875123 -41.27514569180649
    vertex 276.37452897601617 11.152602420874903 -41.27514569180882
    vertex 276.3745289760164 3.146752420875123 -41.27514569180662
  endloop
endfacet
facet normal -1.2689849171465575e-14 -3.3134606169937543e-14 -1.0
  outer loop
    vertex 276.37452897601617 11.152602420874903 -41.27514569180882
    vertex 264.3745289760165 3.146752420875123 -41.27514569180649
    vertex 264.3745289760163 11.152602420874892 -41.27514569180867
  endloop
endfacet
facet normal -0.9999999999999998 2.5029875227827704e-09 2.703008653963177e-08
  outer loop
    vertex 277.62452897601685 11.152602420876562 -22.275145691807865
    vertex 277.62452897601696 -42.84739757912399 -27.775145691804983
    vertex 277.624528976017 -42.847397579124 -22.27514569180627
  endloop
endfacet
facet normal -0.9999999999999998 2.5029875227827704e-09 2.703008653963177e-08
  outer loop
    vertex 277.62452897601696 -42.84739757912399 -27.775145691804983
    vertex 277.62452897601685 11.152602420876562 -22.275145691807865
    vertex 277.62452846835373 -40.371506214655064 -27.772527781968222
  endloop
endfacet
facet normal -0.9999999999999998 2.5029875227827704e-09 2.703008653963177e-08
  outer loop
    vertex 277.62452846835373 -40.371506214655064 -27.772527781968222
    vertex 277.62452897601685 11.152602420876562 -22.275145691807865
    vertex 277.6245289760168 11.152602420876427 -27.77514569180667
  endloop
endfacet
facet normal 2.362610129681173e-15 4.659619935999517e-14 1.0
  outer loop
    vertex 276.37452897601634 11.152602420876049 -32.27514569180883
    vertex 285.87457225871094 -42.84739757912431 -32.27514569180546
    vertex 285.8745722587107 11.152602420875997 -32.27514569180705
  endloop
endfacet
facet normal 2.362610129681173e-15 4.659619935999517e-14 1.0
  outer loop
    vertex 285.87457225871094 -42.84739757912431 -32.27514569180546
    vertex 276.37452897601634 11.152602420876049 -32.27514569180883
    vertex 276.37452897601656 3.1467524208753175 -32.27514569180666
  endloop
endfacet
facet normal 2.362610129681173e-15 4.659619935999517e-14 1.0
  outer loop
    vertex 276.37452897601656 3.1467524208753175 -32.27514569180666
    vertex 255.63976190596892 -42.84739757912458 -32.2751456918055
    vertex 285.87457225871094 -42.84739757912431 -32.27514569180546
  endloop
endfacet
facet normal 2.362610129681173e-15 4.659619935999517e-14 1.0
  outer loop
    vertex 255.63976190596892 -42.84739757912458 -32.2751456918055
    vertex 276.37452897601656 3.1467524208753175 -32.27514569180666
    vertex 264.37452897601656 3.14675242087534 -32.27514569180655
  endloop
endfacet
facet normal 2.362610129681173e-15 4.659619935999517e-14 1.0
  outer loop
    vertex 255.63976190596892 -42.84739757912458 -32.2751456918055
    vertex 264.37452897601656 3.14675242087534 -32.27514569180655
    vertex 264.3745289760163 11.152602420875867 -32.27514569180864
  endloop
endfacet
facet normal 2.362610129681173e-15 4.659619935999517e-14 1.0
  outer loop
    vertex 255.63976190596892 -42.84739757912458 -32.2751456918055
    vertex 264.3745289760163 11.152602420875867 -32.27514569180864
    vertex 255.6397619059688 11.152602420876025 -32.275145691806955
  endloop
endfacet
facet normal 1.0 5.137472938647949e-15 4.661235967403711e-16
  outer loop
    vertex 285.87457225871094 -42.84739757912431 -32.27514569180546
    vertex 285.8745722587108 11.1526024208765 -22.27514569180779
    vertex 285.87457225871105 -42.847397579124085 -22.275145691806276
  endloop
endfacet
facet normal 1.0 5.137472938647949e-15 4.661235967403711e-16
  outer loop
    vertex 285.8745722587108 11.1526024208765 -22.27514569180779
    vertex 285.87457225871094 -42.84739757912431 -32.27514569180546
    vertex 285.8745722587107 11.152602420875997 -32.27514569180705
  endloop
endfacet
facet normal -4.661235967408243e-16 2.989831138510606e-14 1.0
  outer loop
    vertex 277.62452897601685 11.152602420876562 -22.275145691807865
    vertex 285.87457225871105 -42.847397579124085 -22.275145691806276
    vertex 285.8745722587108 11.1526024208765 -22.27514569180779
  endloop
endfacet
facet normal -4.661235967408243e-16 2.989831138510606e-14 1.0
  outer loop
    vertex 285.87457225871105 -42.847397579124085 -22.275145691806276
    vertex 277.62452897601685 11.152602420876562 -22.275145691807865
    vertex 277.624528976017 -42.847397579124 -22.27514569180627
  endloop
endfacet
facet normal -0.7933533402912372 1.3600949869260788e-14 0.6087614290087179
  outer loop
    vertex 272.1065797835851 11.152602420875343 -37.77514569180873
    vertex 271.7887425383896 3.1467524208751962 -38.18935925417967
    vertex 272.1065797835854 3.146752420875213 -37.77514569180657
  endloop
endfacet
facet normal -0.7933533402912372 1.3600949869260788e-14 0.6087614290087179
  outer loop
    vertex 271.7887425383896 3.1467524208751962 -38.18935925417967
    vertex 272.1065797835851 11.152602420875343 -37.77514569180873
    vertex 271.7887425383893 11.15260242087532 -38.18935925418183
  endloop
endfacet
facet normal -0.608761429008717 1.7725102964362015e-14 0.7933533402912382
  outer loop
    vertex 271.7887425383893 11.15260242087532 -38.18935925418183
    vertex 271.6953249121444 3.1467524208750017 -38.26104111995053
    vertex 271.7887425383896 3.1467524208751962 -38.18935925417967
  endloop
endfacet
facet normal -0.608761429008717 1.7725102964362015e-14 0.7933533402912382
  outer loop
    vertex 271.6953249121444 3.1467524208750017 -38.26104111995053
    vertex 271.7887425383893 11.15260242087532 -38.18935925418183
    vertex 271.69532491214414 11.15260242087514 -38.26104111995268
  endloop
endfacet
facet normal -0.6087614290087227 1.772510296436192e-14 0.7933533402912338
  outer loop
    vertex 271.69532491214414 11.15260242087514 -38.26104111995268
    vertex 271.3745289760165 3.1467524208752016 -38.50719649937545
    vertex 271.6953249121444 3.1467524208750017 -38.26104111995053
  endloop
endfacet
facet normal -0.6087614290087227 1.772510296436192e-14 0.7933533402912338
  outer loop
    vertex 271.3745289760165 3.1467524208752016 -38.50719649937545
    vertex 271.69532491214414 11.15260242087514 -38.26104111995268
    vertex 271.3745289760162 11.15260242087532 -38.507196499377606
  endloop
endfacet
facet normal -0.9914448613738105 2.916216620197518e-15 0.13052619222005143
  outer loop
    vertex 272.3745289760162 11.152602420875366 -36.775145691808724
    vertex 272.30638062859464 3.1467524208752273 -37.29278378201162
    vertex 272.3745289760165 3.1467524208752384 -36.77514569180657
  endloop
endfacet
facet normal -0.9914448613738105 2.916216620197518e-15 0.13052619222005143
  outer loop
    vertex 272.30638062859464 3.1467524208752273 -37.29278378201162
    vertex 272.3745289760162 11.152602420875366 -36.775145691808724
    vertex 272.30638062859435 11.152602420875343 -37.29278378201377
  endloop
endfacet
facet normal -0.9238795325112863 8.549914517202059e-15 0.3826834323650914
  outer loop
    vertex 272.30638062859435 11.152602420875343 -37.29278378201377
    vertex 272.1065797835854 3.146752420875213 -37.77514569180657
    vertex 272.30638062859464 3.1467524208752273 -37.29278378201162
  endloop
endfacet
facet normal -0.9238795325112863 8.549914517202059e-15 0.3826834323650914
  outer loop
    vertex 272.1065797835854 3.146752420875213 -37.77514569180657
    vertex 272.30638062859435 11.152602420875343 -37.29278378201377
    vertex 272.1065797835851 11.152602420875343 -37.77514569180873
  endloop
endfacet
facet normal -0.9238795325112863 -8.54991451720186e-15 -0.3826834323650914
  outer loop
    vertex 272.10657978358506 11.152602420875388 -35.775145691808724
    vertex 272.30638062859464 3.1467524208752495 -36.25750760160153
    vertex 272.1065797835854 3.146752420875261 -35.77514569180657
  endloop
endfacet
facet normal -0.9238795325112863 -8.54991451720186e-15 -0.3826834323650914
  outer loop
    vertex 272.30638062859464 3.1467524208752495 -36.25750760160153
    vertex 272.10657978358506 11.152602420875388 -35.775145691808724
    vertex 272.30638062859435 11.152602420875366 -36.257507601603685
  endloop
endfacet
facet normal -0.9914448613738105 -2.9162166201975368e-15 -0.13052619222005143
  outer loop
    vertex 272.30638062859435 11.152602420875366 -36.257507601603685
    vertex 272.3745289760165 3.1467524208752384 -36.77514569180657
    vertex 272.30638062859464 3.1467524208752495 -36.25750760160153
  endloop
endfacet
facet normal -0.9914448613738105 -2.9162166201975368e-15 -0.13052619222005143
  outer loop
    vertex 272.3745289760165 3.1467524208752384 -36.77514569180657
    vertex 272.30638062859435 11.152602420875366 -36.257507601603685
    vertex 272.3745289760162 11.152602420875366 -36.775145691808724
  endloop
endfacet
facet normal 1.0 9.483247883514648e-15 -1.3473173194396263e-14
  outer loop
    vertex 276.3745289760164 3.146752420875123 -41.27514569180662
    vertex 276.37452897601634 11.152602420876049 -32.27514569180883
    vertex 276.37452897601656 3.1467524208753175 -32.27514569180666
  endloop
endfacet
facet normal 1.0 9.483247883514648e-15 -1.3473173194396263e-14
  outer loop
    vertex 276.37452897601634 11.152602420876049 -32.27514569180883
    vertex 276.3745289760164 3.146752420875123 -41.27514569180662
    vertex 276.37452897601617 11.152602420874903 -41.27514569180882
  endloop
endfacet
facet normal 0.608761429008717 -1.7725102964362015e-14 -0.7933533402912382
  outer loop
    vertex 268.9603154136434 3.1467524208752695 -35.36093212943348
    vertex 269.0537330398883 11.15260242087519 -35.289250263664776
    vertex 269.0537330398886 3.1467524208750666 -35.28925026366262
  endloop
endfacet
facet normal 0.608761429008717 -1.7725102964362015e-14 -0.7933533402912382
  outer loop
    vertex 269.0537330398883 11.15260242087519 -35.289250263664776
    vertex 268.9603154136434 3.1467524208752695 -35.36093212943348
    vertex 268.9603154136431 11.152602420875388 -35.36093212943563
  endloop
endfacet
facet normal 4.661235967407991e-16 -2.989831138510607e-14 -1.0
  outer loop
    vertex 281.7745289760169 -42.847397579124916 -25.525145691805484
    vertex 278.8745289760167 11.152602420875738 -25.52514569180702
    vertex 281.7745289760167 11.152602420875818 -25.525145691807136
  endloop
endfacet
facet normal 4.661235967407991e-16 -2.989831138510607e-14 -1.0
  outer loop
    vertex 278.8745289760167 11.152602420875738 -25.52514569180702
    vertex 281.7745289760169 -42.847397579124916 -25.525145691805484
    vertex 278.8745289760169 -42.84739757912472 -25.525145691805495
  endloop
endfacet
facet normal 6.646412760575781e-16 -1.0 2.287782871896747e-14
  outer loop
    vertex 264.37452897601656 3.14675242087534 -32.27514569180655
    vertex 269.8568908858114 3.1467524208752806 -34.84329403922844
    vertex 276.37452897601656 3.1467524208753175 -32.27514569180666
  endloop
endfacet
facet normal 6.646412760575781e-16 -1.0 2.287782871896747e-14
  outer loop
    vertex 269.8568908858114 3.1467524208752806 -34.84329403922844
    vertex 264.37452897601656 3.14675242087534 -32.27514569180655
    vertex 269.37452897601645 3.146752420875272 -35.04309488423769
  endloop
endfacet
facet normal 6.646412760575781e-16 -1.0 2.287782871896747e-14
  outer loop
    vertex 269.37452897601645 3.146752420875272 -35.04309488423769
    vertex 264.37452897601656 3.14675242087534 -32.27514569180655
    vertex 269.0537330398886 3.1467524208750666 -35.28925026366262
  endloop
endfacet
facet normal 6.646412760575781e-16 -1.0 2.287782871896747e-14
  outer loop
    vertex 269.0537330398886 3.1467524208750666 -35.28925026366262
    vertex 264.37452897601656 3.14675242087534 -32.27514569180655
    vertex 268.9603154136434 3.1467524208752695 -35.36093212943348
  endloop
endfacet
facet normal 6.646412760575781e-16 -1.0 2.287782871896747e-14
  outer loop
    vertex 268.9603154136434 3.1467524208752695 -35.36093212943348
    vertex 264.37452897601656 3.14675242087534 -32.27514569180655
    vertex 264.3745289760165 3.146752420875123 -41.27514569180649
  endloop
endfacet
facet normal 6.646412760575781e-16 -1.0 2.287782871896747e-14
  outer loop
    vertex 276.37452897601656 3.1467524208753175 -32.27514569180666
    vertex 269.8568908858114 3.1467524208752806 -34.84329403922844
    vertex 270.3745289760165 3.1467524208750834 -34.77514569180657
  endloop
endfacet
facet normal 6.646412760575781e-16 -1.0 2.287782871896747e-14
  outer loop
    vertex 268.9603154136434 3.1467524208752695 -35.36093212943348
    vertex 264.3745289760165 3.146752420875123 -41.27514569180649
    vertex 268.6424781684476 3.146752420875258 -35.77514569180657
  endloop
endfacet
facet normal 6.646412760575781e-16 -1.0 2.287782871896747e-14
  outer loop
    vertex 268.6424781684476 3.146752420875258 -35.77514569180657
    vertex 264.3745289760165 3.146752420875123 -41.27514569180649
    vertex 268.4426773234384 3.1467524208752495 -36.25750760160154
  endloop
endfacet
facet normal 6.646412760575781e-16 -1.0 2.287782871896747e-14
  outer loop
    vertex 268.4426773234384 3.1467524208752495 -36.25750760160154
    vertex 264.3745289760165 3.146752420875123 -41.27514569180649
    vertex 268.37452897601645 3.1467524208752384 -36.77514569180657
  endloop
endfacet
facet normal 6.646412760575781e-16 -1.0 2.287782871896747e-14
  outer loop
    vertex 268.37452897601645 3.1467524208752384 -36.77514569180657
    vertex 264.3745289760165 3.146752420875123 -41.27514569180649
    vertex 268.4426773234384 3.1467524208752273 -37.29278378201162
  endloop
endfacet
facet normal 6.646412760575781e-16 -1.0 2.287782871896747e-14
  outer loop
    vertex 268.4426773234384 3.1467524208752273 -37.29278378201162
    vertex 264.3745289760165 3.146752420875123 -41.27514569180649
    vertex 268.6424781684476 3.1467524208752047 -37.77514569180658
  endloop
endfacet
facet normal 6.646412760575781e-16 -1.0 2.287782871896747e-14
  outer loop
    vertex 268.6424781684476 3.1467524208752047 -37.77514569180658
    vertex 264.3745289760165 3.146752420875123 -41.27514569180649
    vertex 268.9603154136434 3.1467524208750017 -38.18935925417967
  endloop
endfacet
facet normal 6.646412760575781e-16 -1.0 2.287782871896747e-14
  outer loop
    vertex 268.9603154136434 3.1467524208750017 -38.18935925417967
    vertex 264.3745289760165 3.146752420875123 -41.27514569180649
    vertex 269.0537330398885 3.1467524208750017 -38.26104111995049
  endloop
endfacet
facet normal 6.646412760575781e-16 -1.0 2.287782871896747e-14
  outer loop
    vertex 269.0537330398885 3.1467524208750017 -38.26104111995049
    vertex 264.3745289760165 3.146752420875123 -41.27514569180649
    vertex 269.3745289760165 3.1467524208752016 -38.507196499375446
  endloop
endfacet
facet normal 6.646412760575781e-16 -1.0 2.287782871896747e-14
  outer loop
    vertex 269.3745289760165 3.1467524208752016 -38.507196499375446
    vertex 264.3745289760165 3.146752420875123 -41.27514569180649
    vertex 269.8568908858114 3.146752420875193 -38.70699734438471
  endloop
endfacet
facet normal 6.646412760575781e-16 -1.0 2.287782871896747e-14
  outer loop
    vertex 269.8568908858114 3.146752420875193 -38.70699734438471
    vertex 264.3745289760165 3.146752420875123 -41.27514569180649
    vertex 270.3745289760165 3.14675242087499 -38.77514569180658
  endloop
endfacet
facet normal 6.646412760575781e-16 -1.0 2.287782871896747e-14
  outer loop
    vertex 276.37452897601656 3.1467524208753175 -32.27514569180666
    vertex 271.7887425383896 3.146752420875272 -35.36093212943348
    vertex 276.3745289760164 3.146752420875123 -41.27514569180662
  endloop
endfacet
facet normal 6.646412760575781e-16 -1.0 2.287782871896747e-14
  outer loop
    vertex 271.7887425383896 3.146752420875272 -35.36093212943348
    vertex 276.37452897601656 3.1467524208753175 -32.27514569180666
    vertex 271.3745289760165 3.146752420875272 -35.043094884237696
  endloop
endfacet
facet normal 6.646412760575781e-16 -1.0 2.287782871896747e-14
  outer loop
    vertex 271.3745289760165 3.146752420875272 -35.043094884237696
    vertex 276.37452897601656 3.1467524208753175 -32.27514569180666
    vertex 270.89216706622153 3.1467524208752806 -34.84329403922844
  endloop
endfacet
facet normal 6.646412760575781e-16 -1.0 2.287782871896747e-14
  outer loop
    vertex 270.89216706622153 3.1467524208752806 -34.84329403922844
    vertex 276.37452897601656 3.1467524208753175 -32.27514569180666
    vertex 270.3745289760165 3.1467524208750834 -34.77514569180657
  endloop
endfacet
facet normal 6.646412760575781e-16 -1.0 2.287782871896747e-14
  outer loop
    vertex 271.7887425383896 3.146752420875272 -35.36093212943348
    vertex 271.3745289760165 3.146752420875272 -35.043094884237696
    vertex 271.69532491214443 3.1467524208750666 -35.28925026366266
  endloop
endfacet
facet normal 6.646412760575781e-16 -1.0 2.287782871896747e-14
  outer loop
    vertex 276.3745289760164 3.146752420875123 -41.27514569180662
    vertex 271.7887425383896 3.146752420875272 -35.36093212943348
    vertex 272.1065797835854 3.146752420875261 -35.77514569180657
  endloop
endfacet
facet normal 6.646412760575781e-16 -1.0 2.287782871896747e-14
  outer loop
    vertex 276.3745289760164 3.146752420875123 -41.27514569180662
    vertex 272.1065797835854 3.146752420875261 -35.77514569180657
    vertex 272.30638062859464 3.1467524208752495 -36.25750760160153
  endloop
endfacet
facet normal 6.646412760575781e-16 -1.0 2.287782871896747e-14
  outer loop
    vertex 276.3745289760164 3.146752420875123 -41.27514569180662
    vertex 272.30638062859464 3.1467524208752495 -36.25750760160153
    vertex 272.3745289760165 3.1467524208752384 -36.77514569180657
  endloop
endfacet
facet normal 6.646412760575781e-16 -1.0 2.287782871896747e-14
  outer loop
    vertex 276.3745289760164 3.146752420875123 -41.27514569180662
    vertex 272.3745289760165 3.1467524208752384 -36.77514569180657
    vertex 272.30638062859464 3.1467524208752273 -37.29278378201162
  endloop
endfacet
facet normal 6.646412760575781e-16 -1.0 2.287782871896747e-14
  outer loop
    vertex 276.3745289760164 3.146752420875123 -41.27514569180662
    vertex 272.30638062859464 3.1467524208752273 -37.29278378201162
    vertex 272.1065797835854 3.146752420875213 -37.77514569180657
  endloop
endfacet
facet normal 6.646412760575781e-16 -1.0 2.287782871896747e-14
  outer loop
    vertex 276.3745289760164 3.146752420875123 -41.27514569180662
    vertex 272.1065797835854 3.146752420875213 -37.77514569180657
    vertex 271.7887425383896 3.1467524208751962 -38.18935925417967
  endloop
endfacet
facet normal 6.646412760575781e-16 -1.0 2.287782871896747e-14
  outer loop
    vertex 276.3745289760164 3.146752420875123 -41.27514569180662
    vertex 271.7887425383896 3.1467524208751962 -38.18935925417967
    vertex 271.6953249121444 3.1467524208750017 -38.26104111995053
  endloop
endfacet
facet normal 6.646412760575781e-16 -1.0 2.287782871896747e-14
  outer loop
    vertex 276.3745289760164 3.146752420875123 -41.27514569180662
    vertex 271.6953249121444 3.1467524208750017 -38.26104111995053
    vertex 271.3745289760165 3.1467524208752016 -38.50719649937545
  endloop
endfacet
facet normal 6.646412760575781e-16 -1.0 2.287782871896747e-14
  outer loop
    vertex 276.3745289760164 3.146752420875123 -41.27514569180662
    vertex 271.3745289760165 3.1467524208752016 -38.50719649937545
    vertex 270.89216706622153 3.146752420875193 -38.70699734438471
  endloop
endfacet
facet normal 6.646412760575781e-16 -1.0 2.287782871896747e-14
  outer loop
    vertex 276.3745289760164 3.146752420875123 -41.27514569180662
    vertex 270.89216706622153 3.146752420875193 -38.70699734438471
    vertex 270.3745289760165 3.14675242087499 -38.77514569180658
  endloop
endfacet
facet normal 6.646412760575781e-16 -1.0 2.287782871896747e-14
  outer loop
    vertex 276.3745289760164 3.146752420875123 -41.27514569180662
    vertex 270.3745289760165 3.14675242087499 -38.77514569180658
    vertex 264.3745289760165 3.146752420875123 -41.27514569180649
  endloop
endfacet
facet normal -1.0 -1.182616794885494e-14 4.38661452840861e-15
  outer loop
    vertex 264.3745289760163 11.152602420875867 -32.27514569180864
    vertex 264.3745289760165 3.146752420875123 -41.27514569180649
    vertex 264.37452897601656 3.14675242087534 -32.27514569180655
  endloop
endfacet
facet normal -1.0 -1.182616794885494e-14 4.38661452840861e-15
  outer loop
    vertex 264.3745289760165 3.146752420875123 -41.27514569180649
    vertex 264.3745289760163 11.152602420875867 -32.27514569180864
    vertex 264.3745289760163 11.152602420874892 -41.27514569180867
  endloop
endfacet
facet normal 0.13052619222005077 -2.2150864386462725e-14 -0.9914448613738106
  outer loop
    vertex 269.8568908858114 3.1467524208752806 -34.84329403922844
    vertex 270.3745289760162 11.152602420875231 -34.77514569180873
    vertex 270.3745289760165 3.1467524208750834 -34.77514569180657
  endloop
endfacet
facet normal 0.13052619222005077 -2.2150864386462725e-14 -0.9914448613738106
  outer loop
    vertex 270.3745289760162 11.152602420875231 -34.77514569180873
    vertex 269.8568908858114 3.1467524208752806 -34.84329403922844
    vertex 269.8568908858112 11.15260242087541 -34.8432940392306
  endloop
endfacet
facet normal 0.3826834323650914 -2.0641319584559474e-14 -0.9238795325112863
  outer loop
    vertex 269.37452897601645 3.146752420875272 -35.04309488423769
    vertex 269.8568908858112 11.15260242087541 -34.8432940392306
    vertex 269.8568908858114 3.1467524208752806 -34.84329403922844
  endloop
endfacet
facet normal 0.3826834323650914 -2.0641319584559474e-14 -0.9238795325112863
  outer loop
    vertex 269.8568908858112 11.15260242087541 -34.8432940392306
    vertex 269.37452897601645 3.146752420875272 -35.04309488423769
    vertex 269.3745289760162 11.152602420875372 -35.04309488423985
  endloop
endfacet
facet normal -0.13052619222005216 -2.2150864386462605e-14 -0.9914448613738104
  outer loop
    vertex 270.3745289760165 3.1467524208750834 -34.77514569180657
    vertex 270.89216706622125 11.15260242087541 -34.8432940392306
    vertex 270.89216706622153 3.1467524208752806 -34.84329403922844
  endloop
endfacet
facet normal -0.13052619222005216 -2.2150864386462605e-14 -0.9914448613738104
  outer loop
    vertex 270.89216706622125 11.15260242087541 -34.8432940392306
    vertex 270.3745289760165 3.1467524208750834 -34.77514569180657
    vertex 270.3745289760162 11.152602420875231 -34.77514569180873
  endloop
endfacet
facet normal -0.6087614290087193 -1.7725102964362245e-14 -0.7933533402912362
  outer loop
    vertex 271.3745289760165 3.146752420875272 -35.043094884237696
    vertex 271.6953249121442 11.15260242087519 -35.28925026366481
    vertex 271.69532491214443 3.1467524208750666 -35.28925026366266
  endloop
endfacet
facet normal -0.6087614290087193 -1.7725102964362245e-14 -0.7933533402912362
  outer loop
    vertex 271.6953249121442 11.15260242087519 -35.28925026366481
    vertex 271.3745289760165 3.146752420875272 -35.043094884237696
    vertex 271.3745289760162 11.152602420875388 -35.043094884239856
  endloop
endfacet
facet normal -0.3826834323650914 -2.0641319584559474e-14 -0.9238795325112863
  outer loop
    vertex 270.89216706622153 3.1467524208752806 -34.84329403922844
    vertex 271.3745289760162 11.152602420875388 -35.043094884239856
    vertex 271.3745289760165 3.146752420875272 -35.043094884237696
  endloop
endfacet
facet normal -0.3826834323650914 -2.0641319584559474e-14 -0.9238795325112863
  outer loop
    vertex 271.3745289760162 11.152602420875388 -35.043094884239856
    vertex 270.89216706622153 3.1467524208752806 -34.84329403922844
    vertex 270.89216706622125 11.15260242087541 -34.8432940392306
  endloop
endfacet
facet normal 0.6087614290087227 -1.772510296436192e-14 -0.7933533402912338
  outer loop
    vertex 269.0537330398886 3.1467524208750666 -35.28925026366262
    vertex 269.3745289760162 11.152602420875372 -35.04309488423985
    vertex 269.37452897601645 3.146752420875272 -35.04309488423769
  endloop
endfacet
facet normal 0.6087614290087227 -1.772510296436192e-14 -0.7933533402912338
  outer loop
    vertex 269.3745289760162 11.152602420875372 -35.04309488423985
    vertex 269.0537330398886 3.1467524208750666 -35.28925026366262
    vertex 269.0537330398883 11.15260242087519 -35.289250263664776
  endloop
endfacet
facet normal 3.886182198208376e-15 1.0 -6.935274926979858e-14
  outer loop
    vertex 264.1245289760165 11.152602420876505 -22.27514569180787
    vertex 262.87382555635065 11.15260242087636 -25.025146040727364
    vertex 255.63976190596875 11.15260242087663 -22.27514569180788
  endloop
endfacet
facet normal 3.886182198208376e-15 1.0 -6.935274926979858e-14
  outer loop
    vertex 262.87382555635065 11.15260242087636 -25.025146040727364
    vertex 264.1245289760165 11.152602420876505 -22.27514569180787
    vertex 264.12452897601645 11.15260242087628 -27.7751456918096
  endloop
endfacet
facet normal 3.886182198208376e-15 1.0 -6.935274926979858e-14
  outer loop
    vertex 262.87382555635065 11.15260242087636 -25.025146040727364
    vertex 264.12452897601645 11.15260242087628 -27.7751456918096
    vertex 262.8745289760165 11.152602420876494 -27.775145691810124
  endloop
endfacet
facet normal 3.886182198208376e-15 1.0 -6.935274926979858e-14
  outer loop
    vertex 264.124819854893 11.15260242087628 -31.278568345591633
    vertex 259.7397613437761 11.152602420876217 -29.779418664665958
    vertex 264.1245289760165 11.152602420876251 -29.778568373795135
  endloop
endfacet
facet normal 3.886182198208376e-15 1.0 -6.935274926979858e-14
  outer loop
    vertex 276.37452897601634 11.152602420876049 -32.27514569180883
    vertex 270.89216706622125 11.15260242087541 -34.8432940392306
    vertex 270.3745289760162 11.152602420875231 -34.77514569180873
  endloop
endfacet
facet normal 3.886182198208376e-15 1.0 -6.935274926979858e-14
  outer loop
    vertex 270.89216706622125 11.15260242087541 -34.8432940392306
    vertex 276.37452897601634 11.152602420876049 -32.27514569180883
    vertex 271.3745289760162 11.152602420875388 -35.043094884239856
  endloop
endfacet
facet normal 3.886182198208376e-15 1.0 -6.935274926979858e-14
  outer loop
    vertex 271.3745289760162 11.152602420875388 -35.043094884239856
    vertex 276.37452897601634 11.152602420876049 -32.27514569180883
    vertex 271.6953249121442 11.15260242087519 -35.28925026366481
  endloop
endfacet
facet normal 3.886182198208376e-15 1.0 -6.935274926979858e-14
  outer loop
    vertex 271.6953249121442 11.15260242087519 -35.28925026366481
    vertex 276.37452897601634 11.152602420876049 -32.27514569180883
    vertex 271.7887425383893 11.152602420875388 -35.36093212943564
  endloop
endfacet
facet normal 3.886182198208376e-15 1.0 -6.935274926979858e-14
  outer loop
    vertex 271.7887425383893 11.152602420875388 -35.36093212943564
    vertex 276.37452897601634 11.152602420876049 -32.27514569180883
    vertex 276.37452897601617 11.152602420874903 -41.27514569180882
  endloop
endfacet
facet normal 3.886182198208376e-15 1.0 -6.935274926979858e-14
  outer loop
    vertex 271.7887425383893 11.152602420875388 -35.36093212943564
    vertex 276.37452897601617 11.152602420874903 -41.27514569180882
    vertex 272.10657978358506 11.152602420875388 -35.775145691808724
  endloop
endfacet
facet normal 3.886182198208376e-15 1.0 -6.935274926979858e-14
  outer loop
    vertex 272.10657978358506 11.152602420875388 -35.775145691808724
    vertex 276.37452897601617 11.152602420874903 -41.27514569180882
    vertex 272.30638062859435 11.152602420875366 -36.257507601603685
  endloop
endfacet
facet normal 3.886182198208376e-15 1.0 -6.935274926979858e-14
  outer loop
    vertex 272.30638062859435 11.152602420875366 -36.257507601603685
    vertex 276.37452897601617 11.152602420874903 -41.27514569180882
    vertex 272.3745289760162 11.152602420875366 -36.775145691808724
  endloop
endfacet
facet normal 3.886182198208376e-15 1.0 -6.935274926979858e-14
  outer loop
    vertex 272.3745289760162 11.152602420875366 -36.775145691808724
    vertex 276.37452897601617 11.152602420874903 -41.27514569180882
    vertex 272.30638062859435 11.152602420875343 -37.29278378201377
  endloop
endfacet
facet normal 3.886182198208376e-15 1.0 -6.935274926979858e-14
  outer loop
    vertex 272.30638062859435 11.152602420875343 -37.29278378201377
    vertex 276.37452897601617 11.152602420874903 -41.27514569180882
    vertex 272.1065797835851 11.152602420875343 -37.77514569180873
  endloop
endfacet
facet normal 3.886182198208376e-15 1.0 -6.935274926979858e-14
  outer loop
    vertex 272.1065797835851 11.152602420875343 -37.77514569180873
    vertex 276.37452897601617 11.152602420874903 -41.27514569180882
    vertex 271.7887425383893 11.15260242087532 -38.18935925418183
  endloop
endfacet
facet normal 3.886182198208376e-15 1.0 -6.935274926979858e-14
  outer loop
    vertex 271.7887425383893 11.15260242087532 -38.18935925418183
    vertex 276.37452897601617 11.152602420874903 -41.27514569180882
    vertex 271.69532491214414 11.15260242087514 -38.26104111995268
  endloop
endfacet
facet normal 3.886182198208376e-15 1.0 -6.935274926979858e-14
  outer loop
    vertex 271.69532491214414 11.15260242087514 -38.26104111995268
    vertex 276.37452897601617 11.152602420874903 -41.27514569180882
    vertex 271.3745289760162 11.15260242087532 -38.507196499377606
  endloop
endfacet
facet normal 3.886182198208376e-15 1.0 -6.935274926979858e-14
  outer loop
    vertex 271.3745289760162 11.15260242087532 -38.507196499377606
    vertex 276.37452897601617 11.152602420874903 -41.27514569180882
    vertex 270.89216706622125 11.15260242087532 -38.70699734438687
  endloop
endfacet
facet normal 3.886182198208376e-15 1.0 -6.935274926979858e-14
  outer loop
    vertex 270.89216706622125 11.15260242087532 -38.70699734438687
    vertex 276.37452897601617 11.152602420874903 -41.27514569180882
    vertex 270.3745289760162 11.15260242087514 -38.77514569180874
  endloop
endfacet
facet normal 3.886182198208376e-15 1.0 -6.935274926979858e-14
  outer loop
    vertex 270.3745289760162 11.15260242087514 -38.77514569180874
    vertex 276.37452897601617 11.152602420874903 -41.27514569180882
    vertex 264.3745289760163 11.152602420874892 -41.27514569180867
  endloop
endfacet
facet normal 3.886182198208376e-15 1.0 -6.935274926979858e-14
  outer loop
    vertex 285.8745722587108 11.1526024208765 -22.27514569180779
    vertex 281.7745289760167 11.152602420875818 -25.525145691807136
    vertex 277.62452897601685 11.152602420876562 -22.275145691807865
  endloop
endfacet
facet normal 3.886182198208376e-15 1.0 -6.935274926979858e-14
  outer loop
    vertex 281.7745289760167 11.152602420875818 -25.525145691807136
    vertex 285.8745722587108 11.1526024208765 -22.27514569180779
    vertex 285.8745722587107 11.152602420875997 -32.27514569180705
  endloop
endfacet
facet normal 3.886182198208376e-15 1.0 -6.935274926979858e-14
  outer loop
    vertex 277.62452897601685 11.152602420876562 -22.275145691807865
    vertex 281.7745289760167 11.152602420875818 -25.525145691807136
    vertex 278.8745289760167 11.152602420875738 -25.52514569180702
  endloop
endfacet
facet normal 3.886182198208376e-15 1.0 -6.935274926979858e-14
  outer loop
    vertex 281.7745289760167 11.152602420875818 -25.525145691807136
    vertex 285.8745722587107 11.152602420875997 -32.27514569180705
    vertex 281.7745722587109 11.152602420876528 -29.775145690558183
  endloop
endfacet
facet normal 3.886182198208376e-15 1.0 -6.935274926979858e-14
  outer loop
    vertex 281.7745722587109 11.152602420876528 -29.775145690558183
    vertex 285.8745722587107 11.152602420875997 -32.27514569180705
    vertex 277.6249169705722 11.152602420876386 -29.77595038861846
  endloop
endfacet
facet normal 3.886182198208376e-15 1.0 -6.935274926979858e-14
  outer loop
    vertex 277.6249169705722 11.152602420876386 -29.77595038861846
    vertex 285.8745722587107 11.152602420875997 -32.27514569180705
    vertex 277.62520784944877 11.152602420876319 -31.275950360414956
  endloop
endfacet
facet normal 3.886182198208376e-15 1.0 -6.935274926979858e-14
  outer loop
    vertex 277.62520784944877 11.152602420876319 -31.275950360414956
    vertex 285.8745722587107 11.152602420875997 -32.27514569180705
    vertex 264.124819854893 11.15260242087628 -31.278568345591633
  endloop
endfacet
facet normal 3.886182198208376e-15 1.0 -6.935274926979858e-14
  outer loop
    vertex 264.124819854893 11.15260242087628 -31.278568345591633
    vertex 285.8745722587107 11.152602420875997 -32.27514569180705
    vertex 255.6397619059688 11.152602420876025 -32.275145691806955
  endloop
endfacet
facet normal 3.886182198208376e-15 1.0 -6.935274926979858e-14
  outer loop
    vertex 255.6397619059688 11.152602420876025 -32.275145691806955
    vertex 285.8745722587107 11.152602420875997 -32.27514569180705
    vertex 264.3745289760163 11.152602420875867 -32.27514569180864
  endloop
endfacet
facet normal 3.886182198208376e-15 1.0 -6.935274926979858e-14
  outer loop
    vertex 264.3745289760163 11.152602420875867 -32.27514569180864
    vertex 285.8745722587107 11.152602420875997 -32.27514569180705
    vertex 276.37452897601634 11.152602420876049 -32.27514569180883
  endloop
endfacet
facet normal 3.886182198208376e-15 1.0 -6.935274926979858e-14
  outer loop
    vertex 264.3745289760163 11.152602420875867 -32.27514569180864
    vertex 276.37452897601634 11.152602420876049 -32.27514569180883
    vertex 269.8568908858112 11.15260242087541 -34.8432940392306
  endloop
endfacet
facet normal 3.886182198208376e-15 1.0 -6.935274926979858e-14
  outer loop
    vertex 264.3745289760163 11.152602420875867 -32.27514569180864
    vertex 269.8568908858112 11.15260242087541 -34.8432940392306
    vertex 269.3745289760162 11.152602420875372 -35.04309488423985
  endloop
endfacet
facet normal 3.886182198208376e-15 1.0 -6.935274926979858e-14
  outer loop
    vertex 264.3745289760163 11.152602420875867 -32.27514569180864
    vertex 269.3745289760162 11.152602420875372 -35.04309488423985
    vertex 268.9603154136431 11.152602420875388 -35.36093212943563
  endloop
endfacet
facet normal 3.886182198208376e-15 1.0 -6.935274926979858e-14
  outer loop
    vertex 264.3745289760163 11.152602420875867 -32.27514569180864
    vertex 268.9603154136431 11.152602420875388 -35.36093212943563
    vertex 264.3745289760163 11.152602420874892 -41.27514569180867
  endloop
endfacet
facet normal 3.886182198208376e-15 1.0 -6.935274926979858e-14
  outer loop
    vertex 269.8568908858112 11.15260242087541 -34.8432940392306
    vertex 276.37452897601634 11.152602420876049 -32.27514569180883
    vertex 270.3745289760162 11.152602420875231 -34.77514569180873
  endloop
endfacet
facet normal 3.886182198208376e-15 1.0 -6.935274926979858e-14
  outer loop
    vertex 268.9603154136431 11.152602420875388 -35.36093212943563
    vertex 269.3745289760162 11.152602420875372 -35.04309488423985
    vertex 269.0537330398883 11.15260242087519 -35.289250263664776
  endloop
endfacet
facet normal 3.886182198208376e-15 1.0 -6.935274926979858e-14
  outer loop
    vertex 264.3745289760163 11.152602420874892 -41.27514569180867
    vertex 268.9603154136431 11.152602420875388 -35.36093212943563
    vertex 268.6424781684473 11.152602420875372 -35.775145691808724
  endloop
endfacet
facet normal 3.886182198208376e-15 1.0 -6.935274926979858e-14
  outer loop
    vertex 264.3745289760163 11.152602420874892 -41.27514569180867
    vertex 268.6424781684473 11.152602420875372 -35.775145691808724
    vertex 268.4426773234381 11.152602420875366 -36.25750760160369
  endloop
endfacet
facet normal 3.886182198208376e-15 1.0 -6.935274926979858e-14
  outer loop
    vertex 264.3745289760163 11.152602420874892 -41.27514569180867
    vertex 268.4426773234381 11.152602420875366 -36.25750760160369
    vertex 268.3745289760162 11.152602420875366 -36.775145691808724
  endloop
endfacet
facet normal 3.886182198208376e-15 1.0 -6.935274926979858e-14
  outer loop
    vertex 264.3745289760163 11.152602420874892 -41.27514569180867
    vertex 268.3745289760162 11.152602420875366 -36.775145691808724
    vertex 268.4426773234381 11.152602420875343 -37.29278378201377
  endloop
endfacet
facet normal 3.886182198208376e-15 1.0 -6.935274926979858e-14
  outer loop
    vertex 264.3745289760163 11.152602420874892 -41.27514569180867
    vertex 268.4426773234381 11.152602420875343 -37.29278378201377
    vertex 268.6424781684473 11.152602420875327 -37.77514569180873
  endloop
endfacet
facet normal 3.886182198208376e-15 1.0 -6.935274926979858e-14
  outer loop
    vertex 264.3745289760163 11.152602420874892 -41.27514569180867
    vertex 268.6424781684473 11.152602420875327 -37.77514569180873
    vertex 268.9603154136431 11.15260242087532 -38.189359254181824
  endloop
endfacet
facet normal 3.886182198208376e-15 1.0 -6.935274926979858e-14
  outer loop
    vertex 264.3745289760163 11.152602420874892 -41.27514569180867
    vertex 268.9603154136431 11.15260242087532 -38.189359254181824
    vertex 269.0537330398883 11.15260242087514 -38.26104111995265
  endloop
endfacet
facet normal 3.886182198208376e-15 1.0 -6.935274926979858e-14
  outer loop
    vertex 264.3745289760163 11.152602420874892 -41.27514569180867
    vertex 269.0537330398883 11.15260242087514 -38.26104111995265
    vertex 269.3745289760162 11.152602420875304 -38.507196499377606
  endloop
endfacet
facet normal 3.886182198208376e-15 1.0 -6.935274926979858e-14
  outer loop
    vertex 264.3745289760163 11.152602420874892 -41.27514569180867
    vertex 269.3745289760162 11.152602420875304 -38.507196499377606
    vertex 269.8568908858112 11.15260242087532 -38.70699734438687
  endloop
endfacet
facet normal 3.886182198208376e-15 1.0 -6.935274926979858e-14
  outer loop
    vertex 264.3745289760163 11.152602420874892 -41.27514569180867
    vertex 269.8568908858112 11.15260242087532 -38.70699734438687
    vertex 270.3745289760162 11.15260242087514 -38.77514569180874
  endloop
endfacet
facet normal 3.886182198208376e-15 1.0 -6.935274926979858e-14
  outer loop
    vertex 255.63976190596875 11.15260242087663 -22.27514569180788
    vertex 259.72383364141564 11.152602420876393 -25.02941901483519
    vertex 255.6397619059688 11.152602420876025 -32.275145691806955
  endloop
endfacet
facet normal 3.886182198208376e-15 1.0 -6.935274926979858e-14
  outer loop
    vertex 259.72383364141564 11.152602420876393 -25.02941901483519
    vertex 255.63976190596875 11.15260242087663 -22.27514569180788
    vertex 259.8738327981261 11.15260242087629 -25.02891603755128
  endloop
endfacet
facet normal 3.886182198208376e-15 1.0 -6.935274926979858e-14
  outer loop
    vertex 259.8738327981261 11.15260242087629 -25.02891603755128
    vertex 255.63976190596875 11.15260242087663 -22.27514569180788
    vertex 262.87382555635065 11.15260242087636 -25.025146040727364
  endloop
endfacet
facet normal 3.886182198208376e-15 1.0 -6.935274926979858e-14
  outer loop
    vertex 255.6397619059688 11.152602420876025 -32.275145691806955
    vertex 259.72383364141564 11.152602420876393 -25.02941901483519
    vertex 259.7397613437761 11.152602420876217 -29.779418664665958
  endloop
endfacet
facet normal 3.886182198208376e-15 1.0 -6.935274926979858e-14
  outer loop
    vertex 255.6397619059688 11.152602420876025 -32.275145691806955
    vertex 259.7397613437761 11.152602420876217 -29.779418664665958
    vertex 264.124819854893 11.15260242087628 -31.278568345591633
  endloop
endfacet
facet normal 3.886182198208376e-15 1.0 -6.935274926979858e-14
  outer loop
    vertex 278.8745289760167 11.152602420875738 -25.52514569180702
    vertex 277.6245289760168 11.152602420876427 -27.77514569180667
    vertex 277.62452897601685 11.152602420876562 -22.275145691807865
  endloop
endfacet
facet normal 3.886182198208376e-15 1.0 -6.935274926979858e-14
  outer loop
    vertex 277.6245289760168 11.152602420876427 -27.77514569180667
    vertex 278.8745289760167 11.152602420875738 -25.52514569180702
    vertex 278.87452897601673 11.152602420875896 -27.775145691807005
  endloop
endfacet
facet normal -0.00019391925080131336 4.1083696595549825e-14 0.999999981197662
  outer loop
    vertex 277.6249169705722 11.152602420876386 -29.77595038861846
    vertex 281.7745722587111 -42.84739757912441 -29.77514569055656
    vertex 281.7745722587109 11.152602420876528 -29.775145690558183
  endloop
endfacet
facet normal -0.00019391925080131336 4.1083696595549825e-14 0.999999981197662
  outer loop
    vertex 281.7745722587111 -42.84739757912441 -29.77514569055656
    vertex 277.6249169705722 11.152602420876386 -29.77595038861846
    vertex 277.6249169705726 -42.84739757912424 -29.775950388615495
  endloop
endfacet
facet normal -0.00019391925080131336 4.1083696595549825e-14 0.999999981197662
  outer loop
    vertex 277.6249169705726 -42.84739757912424 -29.775950388615495
    vertex 277.6249169705722 11.152602420876386 -29.77595038861846
    vertex 277.6249169705725 -40.371506214655525 -29.775950388616206
  endloop
endfacet
facet normal -0.0006137218380586893 -1.290377986115422e-05 -0.9999998115894813
  outer loop
    vertex 278.8745289760169 -42.84739757912457 -27.77514569180547
    vertex 277.6245289760168 11.152602420876427 -27.77514569180667
    vertex 278.87452897601673 11.152602420875896 -27.775145691807005
  endloop
endfacet
facet normal -0.0006137218380586893 -1.290377986115422e-05 -0.9999998115894813
  outer loop
    vertex 277.6245289760168 11.152602420876427 -27.77514569180667
    vertex 278.8745289760169 -42.84739757912457 -27.77514569180547
    vertex 277.62452897601696 -42.84739757912399 -27.775145691804983
  endloop
endfacet
facet normal -0.0006137218380586893 -1.290377986115422e-05 -0.9999998115894813
  outer loop
    vertex 277.6245289760168 11.152602420876427 -27.77514569180667
    vertex 277.62452897601696 -42.84739757912399 -27.775145691804983
    vertex 277.62452846835373 -40.371506214655064 -27.772527781968222
  endloop
endfacet
facet normal -0.00019391925088061392 2.3423010229351505e-14 0.999999981197662
  outer loop
    vertex 259.7397613437761 11.152602420876217 -29.779418664665958
    vertex 264.1245289760164 -40.371506214655696 -29.778568373794286
    vertex 264.1245289760165 11.152602420876251 -29.778568373795135
  endloop
endfacet
facet normal -0.00019391925088061392 2.3423010229351505e-14 0.999999981197662
  outer loop
    vertex 264.1245289760164 -40.371506214655696 -29.778568373794286
    vertex 259.7397613437761 -42.847397579124376 -29.77941866466438
    vertex 264.1245289760165 -42.84739757912449 -29.778568373794105
  endloop
endfacet
facet normal -0.00019391925088061392 2.3423010229351505e-14 0.999999981197662
  outer loop
    vertex 259.7397613437761 -42.847397579124376 -29.77941866466438
    vertex 264.1245289760164 -40.371506214655696 -29.778568373794286
    vertex 259.7397613437761 11.152602420876217 -29.779418664665958
  endloop
endfacet
facet normal -0.00019391925088061392 2.3423010229351505e-14 0.999999981197662
  outer loop
    vertex 259.7397613437761 -42.847397579124376 -29.77941866466438
    vertex 259.7397613437761 11.152602420876217 -29.779418664665958
    vertex 259.7397613437761 4.876752420875864 -29.779418664665794
  endloop
endfacet
facet normal -0.9999999672859949 -1.9796041130557506e-15 -0.00025578899347817794
  outer loop
    vertex 262.87382555635065 11.15260242087636 -25.025146040727364
    vertex 262.87452897601656 -42.84739757912424 -27.77514569180844
    vertex 262.87382555635077 -42.84739757912424 -25.025146040725673
  endloop
endfacet
facet normal -0.9999999672859949 -1.9796041130557506e-15 -0.00025578899347817794
  outer loop
    vertex 262.87452897601656 -42.84739757912424 -27.77514569180844
    vertex 262.87382555635065 11.15260242087636 -25.025146040727364
    vertex 262.8745289760165 11.152602420876494 -27.775145691810124
  endloop
endfacet
facet normal 0.999999981197662 -2.702000185886782e-16 0.00019391925104890988
  outer loop
    vertex 264.124819854893 11.15260242087628 -31.278568345591633
    vertex 264.1245289760164 -40.371506214655696 -29.778568373794286
    vertex 264.124819854893 -40.371506214655874 -31.278568345590653
  endloop
endfacet
facet normal 0.999999981197662 -2.702000185886782e-16 0.00019391925104890988
  outer loop
    vertex 264.1245289760164 -40.371506214655696 -29.778568373794286
    vertex 264.124819854893 11.15260242087628 -31.278568345591633
    vertex 264.1245289760165 11.152602420876251 -29.778568373795135
  endloop
endfacet
facet normal 0.003353181892643455 -2.3677183836100852e-14 -0.9999943780697944
  outer loop
    vertex 259.87383279812616 -42.84739757912427 -25.0289160375497
    vertex 259.72383364141564 11.152602420876393 -25.02941901483519
    vertex 259.8738327981261 11.15260242087629 -25.02891603755128
  endloop
endfacet
facet normal 0.003353181892643455 -2.3677183836100852e-14 -0.9999943780697944
  outer loop
    vertex 259.72383364141564 11.152602420876393 -25.02941901483519
    vertex 259.87383279812616 -42.84739757912427 -25.0289160375497
    vertex 259.7238336414157 -42.847397579124376 -25.029419014833596
  endloop
endfacet
facet normal 1.0 6.281932485037434e-15 4.661235967403691e-16
  outer loop
    vertex 278.8745289760169 -42.84739757912457 -27.77514569180547
    vertex 278.8745289760167 11.152602420875738 -25.52514569180702
    vertex 278.8745289760169 -42.84739757912472 -25.525145691805495
  endloop
endfacet
facet normal 1.0 6.281932485037434e-15 4.661235967403691e-16
  outer loop
    vertex 278.8745289760167 11.152602420875738 -25.52514569180702
    vertex 278.8745289760169 -42.84739757912457 -27.77514569180547
    vertex 278.87452897601673 11.152602420875896 -27.775145691807005
  endloop
endfacet
facet normal -0.999999981197662 -5.974420062691867e-15 -0.00019391925104891023
  outer loop
    vertex 277.6249169705725 -40.371506214655525 -29.775950388616206
    vertex 277.62520784944877 11.152602420876319 -31.275950360414956
    vertex 277.6252078494491 -40.37150621465573 -31.27595036041257
  endloop
endfacet
facet normal -0.999999981197662 -5.974420062691867e-15 -0.00019391925104891023
  outer loop
    vertex 277.62520784944877 11.152602420876319 -31.275950360414956
    vertex 277.6249169705725 -40.371506214655525 -29.775950388616206
    vertex 277.6249169705722 11.152602420876386 -29.77595038861846
  endloop
endfacet
facet normal -1.0 -6.281932485037434e-15 -4.661235967403782e-16
  outer loop
    vertex 281.7745289760167 11.152602420875818 -25.525145691807136
    vertex 281.7745722587111 -42.84739757912441 -29.77514569055656
    vertex 281.7745289760169 -42.847397579124916 -25.525145691805484
  endloop
endfacet
facet normal -1.0 -6.281932485037434e-15 -4.661235967403782e-16
  outer loop
    vertex 281.7745722587111 -42.84739757912441 -29.77514569055656
    vertex 281.7745289760167 11.152602420875818 -25.525145691807136
    vertex 281.7745722587109 11.152602420876528 -29.775145690558183
  endloop
endfacet
facet normal 0.0012566676492016362 -3.026123940056667e-14 -0.9999992103928981
  outer loop
    vertex 262.87382555635077 -42.84739757912424 -25.025146040725673
    vertex 259.8738327981261 11.15260242087629 -25.02891603755128
    vertex 262.87382555635065 11.15260242087636 -25.025146040727364
  endloop
endfacet
facet normal 0.0012566676492016362 -3.026123940056667e-14 -0.9999992103928981
  outer loop
    vertex 259.8738327981261 11.15260242087629 -25.02891603755128
    vertex 262.87382555635077 -42.84739757912424 -25.025146040725673
    vertex 259.87383279812616 -42.84739757912427 -25.0289160375497
  endloop
endfacet
facet normal -1.0 -7.0174505936799316e-15 -4.661235967404746e-16
  outer loop
    vertex 255.63976190596875 11.15260242087663 -22.27514569180788
    vertex 255.63976190596892 -42.84739757912458 -32.2751456918055
    vertex 255.6397619059689 -42.84739757912413 -22.275145691806248
  endloop
endfacet
facet normal -1.0 -7.0174505936799316e-15 -4.661235967404746e-16
  outer loop
    vertex 255.63976190596892 -42.84739757912458 -32.2751456918055
    vertex 255.63976190596875 11.15260242087663 -22.27514569180788
    vertex 255.6397619059688 11.152602420876025 -32.275145691806955
  endloop
endfacet
facet normal -1.7653524135324913e-08 3.71382209415589e-10 -1.0
  outer loop
    vertex 262.87452897601656 -42.84739757912424 -27.77514569180844
    vertex 264.12414047379764 -40.371506214655234 -27.7751457671463
    vertex 264.12452897601656 -42.84739757912489 -27.775145691807936
  endloop
endfacet
facet normal -1.7653524135324913e-08 3.71382209415589e-10 -1.0
  outer loop
    vertex 264.12414047379764 -40.371506214655234 -27.7751457671463
    vertex 262.87452897601656 -42.84739757912424 -27.77514569180844
    vertex 262.8745289760165 11.152602420876494 -27.775145691810124
  endloop
endfacet
facet normal -1.7653524135324913e-08 3.71382209415589e-10 -1.0
  outer loop
    vertex 262.8745289760165 11.152602420876494 -27.775145691810124
    vertex 264.12452897601645 11.15260242087628 -27.7751456918096
    vertex 264.12414047379764 -40.371506214655234 -27.7751457671463
  endloop
endfacet
facet normal -4.661235967410585e-16 2.989831138510607e-14 1.0
  outer loop
    vertex 255.63976190596875 11.15260242087663 -22.27514569180788
    vertex 264.12452897601656 -42.8473975791243 -22.27514569180629
    vertex 264.1245289760165 11.152602420876505 -22.27514569180787
  endloop
endfacet
facet normal -4.661235967410585e-16 2.989831138510607e-14 1.0
  outer loop
    vertex 264.12452897601656 -42.8473975791243 -22.27514569180629
    vertex 255.63976190596875 11.15260242087663 -22.27514569180788
    vertex 255.6397619059689 -42.84739757912413 -22.275145691806248
  endloop
endfacet
facet normal 2.851865130102996e-15 -1.0 2.4204974505205445e-14
  outer loop
    vertex 264.12452897601656 -42.84739757912489 -27.775145691807936
    vertex 277.6249169705726 -42.84739757912424 -29.775950388615495
    vertex 277.62452897601696 -42.84739757912399 -27.775145691804983
  endloop
endfacet
facet normal 2.851865130102996e-15 -1.0 2.4204974505205445e-14
  outer loop
    vertex 277.6249169705726 -42.84739757912424 -29.775950388615495
    vertex 264.12452897601656 -42.84739757912489 -27.775145691807936
    vertex 264.1245289760165 -42.84739757912449 -29.778568373794105
  endloop
endfacet
facet normal 2.851865130102996e-15 -1.0 2.4204974505205445e-14
  outer loop
    vertex 255.6397619059689 -42.84739757912413 -22.275145691806248
    vertex 259.7238336414157 -42.847397579124376 -25.029419014833596
    vertex 264.12452897601656 -42.8473975791243 -22.27514569180629
  endloop
endfacet
facet normal 2.851865130102996e-15 -1.0 2.4204974505205445e-14
  outer loop
    vertex 259.7238336414157 -42.847397579124376 -25.029419014833596
    vertex 255.6397619059689 -42.84739757912413 -22.275145691806248
    vertex 255.63976190596892 -42.84739757912458 -32.2751456918055
  endloop
endfacet
facet normal 2.851865130102996e-15 -1.0 2.4204974505205445e-14
  outer loop
    vertex 264.12452897601656 -42.8473975791243 -22.27514569180629
    vertex 259.7238336414157 -42.847397579124376 -25.029419014833596
    vertex 259.87383279812616 -42.84739757912427 -25.0289160375497
  endloop
endfacet
facet normal 2.851865130102996e-15 -1.0 2.4204974505205445e-14
  outer loop
    vertex 264.12452897601656 -42.8473975791243 -22.27514569180629
    vertex 259.87383279812616 -42.84739757912427 -25.0289160375497
    vertex 262.87382555635077 -42.84739757912424 -25.025146040725673
  endloop
endfacet
facet normal 2.851865130102996e-15 -1.0 2.4204974505205445e-14
  outer loop
    vertex 259.7238336414157 -42.847397579124376 -25.029419014833596
    vertex 255.63976190596892 -42.84739757912458 -32.2751456918055
    vertex 259.7397613437761 -42.847397579124376 -29.77941866466438
  endloop
endfacet
facet normal 2.851865130102996e-15 -1.0 2.4204974505205445e-14
  outer loop
    vertex 259.7397613437761 -42.847397579124376 -29.77941866466438
    vertex 255.63976190596892 -42.84739757912458 -32.2751456918055
    vertex 285.87457225871094 -42.84739757912431 -32.27514569180546
  endloop
endfacet
facet normal 2.851865130102996e-15 -1.0 2.4204974505205445e-14
  outer loop
    vertex 281.7745289760169 -42.847397579124916 -25.525145691805484
    vertex 285.87457225871094 -42.84739757912431 -32.27514569180546
    vertex 285.87457225871105 -42.847397579124085 -22.275145691806276
  endloop
endfacet
facet normal 2.851865130102996e-15 -1.0 2.4204974505205445e-14
  outer loop
    vertex 285.87457225871094 -42.84739757912431 -32.27514569180546
    vertex 281.7745289760169 -42.847397579124916 -25.525145691805484
    vertex 281.7745722587111 -42.84739757912441 -29.77514569055656
  endloop
endfacet
facet normal 2.851865130102996e-15 -1.0 2.4204974505205445e-14
  outer loop
    vertex 285.87457225871094 -42.84739757912431 -32.27514569180546
    vertex 281.7745722587111 -42.84739757912441 -29.77514569055656
    vertex 277.6249169705726 -42.84739757912424 -29.775950388615495
  endloop
endfacet
facet normal 2.851865130102996e-15 -1.0 2.4204974505205445e-14
  outer loop
    vertex 285.87457225871094 -42.84739757912431 -32.27514569180546
    vertex 277.6249169705726 -42.84739757912424 -29.775950388615495
    vertex 264.1245289760165 -42.84739757912449 -29.778568373794105
  endloop
endfacet
facet normal 2.851865130102996e-15 -1.0 2.4204974505205445e-14
  outer loop
    vertex 285.87457225871094 -42.84739757912431 -32.27514569180546
    vertex 264.1245289760165 -42.84739757912449 -29.778568373794105
    vertex 259.7397613437761 -42.847397579124376 -29.77941866466438
  endloop
endfacet
facet normal 2.851865130102996e-15 -1.0 2.4204974505205445e-14
  outer loop
    vertex 277.624528976017 -42.847397579124 -22.27514569180627
    vertex 278.8745289760169 -42.84739757912472 -25.525145691805495
    vertex 285.87457225871105 -42.847397579124085 -22.275145691806276
  endloop
endfacet
facet normal 2.851865130102996e-15 -1.0 2.4204974505205445e-14
  outer loop
    vertex 278.8745289760169 -42.84739757912472 -25.525145691805495
    vertex 277.624528976017 -42.847397579124 -22.27514569180627
    vertex 277.62452897601696 -42.84739757912399 -27.775145691804983
  endloop
endfacet
facet normal 2.851865130102996e-15 -1.0 2.4204974505205445e-14
  outer loop
    vertex 285.87457225871105 -42.847397579124085 -22.275145691806276
    vertex 278.8745289760169 -42.84739757912472 -25.525145691805495
    vertex 281.7745289760169 -42.847397579124916 -25.525145691805484
  endloop
endfacet
facet normal 2.851865130102996e-15 -1.0 2.4204974505205445e-14
  outer loop
    vertex 278.8745289760169 -42.84739757912472 -25.525145691805495
    vertex 277.62452897601696 -42.84739757912399 -27.775145691804983
    vertex 278.8745289760169 -42.84739757912457 -27.77514569180547
  endloop
endfacet
facet normal 2.851865130102996e-15 -1.0 2.4204974505205445e-14
  outer loop
    vertex 262.87382555635077 -42.84739757912424 -25.025146040725673
    vertex 264.12452897601656 -42.84739757912489 -27.775145691807936
    vertex 264.12452897601656 -42.8473975791243 -22.27514569180629
  endloop
endfacet
facet normal 2.851865130102996e-15 -1.0 2.4204974505205445e-14
  outer loop
    vertex 264.12452897601656 -42.84739757912489 -27.775145691807936
    vertex 262.87382555635077 -42.84739757912424 -25.025146040725673
    vertex 262.87452897601656 -42.84739757912424 -27.77514569180844
  endloop
endfacet
facet normal 0.9999999997839342 -1.9149434098474026e-06 -2.0699390593857164e-05
  outer loop
    vertex 264.12414047379764 -40.371506214655234 -27.7751457671463
    vertex 264.12452897601656 -42.8473975791243 -22.27514569180629
    vertex 264.12452897601656 -42.84739757912489 -27.775145691807936
  endloop
endfacet
facet normal 0.9999999997839342 -1.9149434098474026e-06 -2.0699390593857164e-05
  outer loop
    vertex 264.12452897601656 -42.8473975791243 -22.27514569180629
    vertex 264.12414047379764 -40.371506214655234 -27.7751457671463
    vertex 264.1245289760165 11.152602420876505 -22.27514569180787
  endloop
endfacet
facet normal 0.9999999997839342 -1.9149434098474026e-06 -2.0699390593857164e-05
  outer loop
    vertex 264.1245289760165 11.152602420876505 -22.27514569180787
    vertex 264.12414047379764 -40.371506214655234 -27.7751457671463
    vertex 264.12452897601645 11.15260242087628 -27.7751456918096
  endloop
endfacet
facet normal -0.00019391925100288384 3.270106889513237e-14 0.999999981197662
  outer loop
    vertex 264.124819854893 11.15260242087628 -31.278568345591633
    vertex 277.6252078494491 -40.37150621465573 -31.27595036041257
    vertex 277.62520784944877 11.152602420876319 -31.275950360414956
  endloop
endfacet
facet normal -0.00019391925100288384 3.270106889513237e-14 0.999999981197662
  outer loop
    vertex 277.6252078494491 -40.37150621465573 -31.27595036041257
    vertex 264.124819854893 11.15260242087628 -31.278568345591633
    vertex 264.124819854893 -40.371506214655874 -31.278568345590653
  endloop
endfacet
facet normal 0.9999943780697944 1.1818109981780971e-15 0.0033531818926576177
  outer loop
    vertex 259.7397613437761 -42.847397579124376 -29.77941866466438
    vertex 259.72383364141564 11.152602420876393 -25.02941901483519
    vertex 259.7238336414157 -42.847397579124376 -25.029419014833596
  endloop
endfacet
facet normal 0.9999943780697944 1.1818109981780971e-15 0.0033531818926576177
  outer loop
    vertex 259.72383364141564 11.152602420876393 -25.02941901483519
    vertex 259.7397613437761 -42.847397579124376 -29.77941866466438
    vertex 259.7397613437761 4.876752420875864 -29.779418664665794
  endloop
endfacet
facet normal 0.9999943780697944 1.1818109981780971e-15 0.0033531818926576177
  outer loop
    vertex 259.72383364141564 11.152602420876393 -25.02941901483519
    vertex 259.7397613437761 4.876752420875864 -29.779418664665794
    vertex 259.7397613437761 11.152602420876217 -29.779418664665958
  endloop
endfacet
facet normal -9.156068208205048e-15 1.0 -1.7878325692564925e-13
  outer loop
    vertex 277.6249169705725 -40.371506214655525 -29.775950388616206
    vertex 264.12414047379764 -40.371506214655234 -27.7751457671463
    vertex 277.62452846835373 -40.371506214655064 -27.772527781968222
  endloop
endfacet
facet normal -9.156068208205048e-15 1.0 -1.7878325692564925e-13
  outer loop
    vertex 264.12414047379764 -40.371506214655234 -27.7751457671463
    vertex 277.6249169705725 -40.371506214655525 -29.775950388616206
    vertex 264.1245289760164 -40.371506214655696 -29.778568373794286
  endloop
endfacet
facet normal -9.156068208205048e-15 1.0 -1.7878325692564925e-13
  outer loop
    vertex 264.1245289760164 -40.371506214655696 -29.778568373794286
    vertex 277.6249169705725 -40.371506214655525 -29.775950388616206
    vertex 277.6252078494491 -40.37150621465573 -31.27595036041257
  endloop
endfacet
facet normal -9.156068208205048e-15 1.0 -1.7878325692564925e-13
  outer loop
    vertex 264.1245289760164 -40.371506214655696 -29.778568373794286
    vertex 277.6252078494491 -40.37150621465573 -31.27595036041257
    vertex 264.124819854893 -40.371506214655874 -31.278568345590653
  endloop
endfacet
facet normal -9.69624000660041e-05 -0.0005286725979085677 0.9999998555517782
  outer loop
    vertex 277.62452846835373 -40.371506214655064 -27.772527781968222
    vertex 264.12452897601656 -42.84739757912489 -27.775145691807936
    vertex 277.62452897601696 -42.84739757912399 -27.775145691804983
  endloop
endfacet
facet normal -9.69624000660041e-05 -0.0005286725979085677 0.9999998555517782
  outer loop
    vertex 264.12452897601656 -42.84739757912489 -27.775145691807936
    vertex 277.62452846835373 -40.371506214655064 -27.772527781968222
    vertex 264.12414047379764 -40.371506214655234 -27.7751457671463
  endloop
endfacet
facet normal 0.999999981197662 4.430179450818637e-14 0.00019391925106193646
  outer loop
    vertex 277.6249169705725 -40.371506214655525 -29.775950388616206
    vertex 277.62452897601696 -42.84739757912399 -27.775145691804983
    vertex 277.6249169705726 -42.84739757912424 -29.775950388615495
  endloop
endfacet
facet normal 0.999999981197662 4.430179450818637e-14 0.00019391925106193646
  outer loop
    vertex 277.62452897601696 -42.84739757912399 -27.775145691804983
    vertex 277.6249169705725 -40.371506214655525 -29.775950388616206
    vertex 277.62452846835373 -40.371506214655064 -27.772527781968222
  endloop
endfacet
facet normal -0.9999999922216621 -7.845704154375753e-05 -9.695962293741438e-05
  outer loop
    vertex 264.12414047379764 -40.371506214655234 -27.7751457671463
    vertex 264.1245289760165 -42.84739757912449 -29.778568373794105
    vertex 264.12452897601656 -42.84739757912489 -27.775145691807936
  endloop
endfacet
facet normal -0.9999999922216621 -7.845704154375753e-05 -9.695962293741438e-05
  outer loop
    vertex 264.1245289760165 -42.84739757912449 -29.778568373794105
    vertex 264.12414047379764 -40.371506214655234 -27.7751457671463
    vertex 264.1245289760164 -40.371506214655696 -29.778568373794286
  endloop
endfacet
endsolid Load_cell_food_v3.2
